999
dxfrw 0.6.3
  0
SECTION
  2
HEADER
  9
$ACADVER
  1
AC1021
  9
$DWGCODEPAGE
  3
ANSI_1252
  9
$INSBASE
 10
0
 20
0
 30
0
  9
$EXTMIN
 10
-60
 20
49.99999999999955
 30
0
  9
$EXTMAX
 10
716.0000000000002
 20
415
 30
0
  9
$LIMMIN
 10
0
 20
0
  9
$LIMMAX
 10
420
 20
297
  9
$ORTHOMODE
 70
    0
  9
$REGENMODE
 70
    1
  9
$FILLMODE
 70
    1
  9
$QTEXTMODE
 70
    0
  9
$MIRRTEXT
 70
    0
  9
$LTSCALE
 40
1
  9
$ATTMODE
 70
    0
  9
$TEXTSIZE
 40
2.5
  9
$TRACEWID
 40
15.68
  9
$TEXTSTYLE
  7
STANDARD
  9
$CLAYER
  8
0
  9
$CELTYPE
  6
BYLAYER
  9
$CECOLOR
 62
  256
  9
$CELTSCALE
 40
1
  9
$DISPSILH
 70
    0
  9
$DIMSCALE
 40
1
  9
$DIMASZ
 40
2.5
  9
$DIMEXO
 40
0.625
  9
$DIMDLI
 40
3.75
  9
$DIMRND
 40
0
  9
$DIMDLE
 40
0
  9
$DIMEXE
 40
1.25
  9
$DIMTP
 40
0
  9
$DIMTM
 40
0
  9
$DIMTXT
 40
2.5
  9
$DIMCEN
 40
2.5
  9
$DIMTSZ
 40
0
  9
$DIMTOL
 70
    0
  9
$DIMLIM
 70
    0
  9
$DIMTIH
 70
    0
  9
$DIMTOH
 70
    0
  9
$DIMSE1
 70
    0
  9
$DIMSE2
 70
    0
  9
$DIMTAD
 70
    1
  9
$DIMZIN
 70
    8
  9
$DIMBLK
  1

  9
$DIMASO
 70
    1
  9
$DIMSHO
 70
    1
  9
$DIMPOST
  1

  9
$DIMAPOST
  1

  9
$DIMALT
 70
    0
  9
$DIMALTD
 70
    3
  9
$DIMALTF
 40
0.03937
  9
$DIMLFAC
 40
1
  9
$DIMTOFL
 70
    1
  9
$DIMTVP
 40
0
  9
$DIMTIX
 70
    0
  9
$DIMSOXD
 70
    0
  9
$DIMSAH
 70
    0
  9
$DIMBLK1
  1

  9
$DIMBLK2
  1

  9
$DIMSTYLE
  2
STANDARD
  9
$DIMCLRD
 70
    0
  9
$DIMCLRE
 70
    0
  9
$DIMCLRT
 70
    0
  9
$DIMTFAC
 40
1
  9
$DIMGAP
 40
0.625
  9
$DIMJUST
 70
    0
  9
$DIMSD1
 70
    0
  9
$DIMSD2
 70
    0
  9
$DIMTOLJ
 70
    0
  9
$DIMTZIN
 70
    8
  9
$DIMALTZ
 70
    0
  9
$DIMALTTZ
 70
    0
  9
$DIMUPT
 70
    0
  9
$DIMDEC
 70
    2
  9
$DIMTDEC
 70
    2
  9
$DIMALTU
 70
    2
  9
$DIMALTTD
 70
    3
  9
$DIMTXSTY
  7
STANDARD
  9
$DIMAUNIT
 70
    0
  9
$DIMADEC
 70
    0
  9
$DIMALTRND
 40
0
  9
$DIMAZIN
 70
    0
  9
$DIMDSEP
 70
   44
  9
$DIMATFIT
 70
    3
  9
$DIMFRAC
 70
    0
  9
$DIMLDRBLK
  1
STANDARD
  9
$DIMLUNIT
 70
    2
  9
$DIMLWD
 70
   -2
  9
$DIMLWE
 70
   -2
  9
$DIMTMOVE
 70
    0
  9
$DIMFXL
 40
1
  9
$DIMFXLON
 70
    0
  9
$DIMJOGANG
 40
0.7854
  9
$DIMTFILL
 70
    0
  9
$DIMTFILLCLR
 70
    0
  9
$DIMARCSYM
 70
    0
  9
$DIMLTYPE
  6

  9
$DIMLTEX1
  6

  9
$DIMLTEX2
  6

  9
$LUNITS
 70
    2
  9
$LUPREC
 70
    4
  9
$SKETCHINC
 40
1
  9
$FILLETRAD
 40
0
  9
$AUNITS
 70
    0
  9
$AUPREC
 70
    2
  9
$MENU
  1
.
  9
$ELEVATION
 40
0
  9
$PELEVATION
 40
0
  9
$THICKNESS
 40
0
  9
$LIMCHECK
 70
    0
  9
$CHAMFERA
 40
0
  9
$CHAMFERB
 40
0
  9
$CHAMFERC
 40
0
  9
$CHAMFERD
 40
0
  9
$SKPOLY
 70
    0
  9
$USRTIMER
 70
    1
  9
$ANGBASE
 50
0
  9
$ANGDIR
 70
    0
  9
$PDMODE
 70
   34
  9
$PDSIZE
 40
0
  9
$PLINEWID
 40
0
  9
$SPLFRAME
 70
    0
  9
$SPLINETYPE
 70
    2
  9
$SPLINESEGS
 70
    8
  9
$HANDSEED
  5
20000
  9
$SURFTAB1
 70
    6
  9
$SURFTAB2
 70
    6
  9
$SURFTYPE
 70
    6
  9
$SURFU
 70
    6
  9
$SURFV
 70
    6
  9
$UCSBASE
  2

  9
$UCSNAME
  2

  9
$UCSORG
 10
0
 20
0
 30
0
  9
$UCSXDIR
 10
1
 20
0
 30
0
  9
$UCSYDIR
 10
0
 20
1
 30
0
  9
$UCSORTHOREF
  2

  9
$UCSORTHOVIEW
 70
    0
  9
$UCSORGTOP
 10
0
 20
0
 30
0
  9
$UCSORGBOTTOM
 10
0
 20
0
 30
0
  9
$UCSORGLEFT
 10
0
 20
0
 30
0
  9
$UCSORGRIGHT
 10
0
 20
0
 30
0
  9
$UCSORGFRONT
 10
0
 20
0
 30
0
  9
$UCSORGBACK
 10
0
 20
0
 30
0
  9
$PUCSBASE
  2

  9
$PUCSNAME
  2

  9
$PUCSORG
 10
0
 20
0
 30
0
  9
$PUCSXDIR
 10
1
 20
0
 30
0
  9
$PUCSYDIR
 10
0
 20
1
 30
0
  9
$PUCSORTHOREF
  2

  9
$PUCSORTHOVIEW
 70
    0
  9
$PUCSORGTOP
 10
0
 20
0
 30
0
  9
$PUCSORGBOTTOM
 10
0
 20
0
 30
0
  9
$PUCSORGLEFT
 10
0
 20
0
 30
0
  9
$PUCSORGRIGHT
 10
0
 20
0
 30
0
  9
$PUCSORGFRONT
 10
0
 20
0
 30
0
  9
$PUCSORGBACK
 10
0
 20
0
 30
0
  9
$USERI1
 70
    0
  9
$USERI2
 70
    0
  9
$USERI3
 70
    0
  9
$USERI4
 70
    0
  9
$USERI5
 70
    0
  9
$USERR1
 40
0
  9
$USERR2
 40
0
  9
$USERR3
 40
0
  9
$USERR4
 40
0
  9
$USERR5
 40
0
  9
$WORLDVIEW
 70
    1
  9
$SHADEDGE
 70
    3
  9
$SHADEDIF
 70
   70
  9
$TILEMODE
 70
    1
  9
$MAXACTVP
 70
   64
  9
$PINSBASE
 10
0
 20
0
 30
0
  9
$PLIMCHECK
 70
    0
  9
$PEXTMIN
 10
0
 20
0
 30
0
  9
$PEXTMAX
 10
0
 20
0
 30
0
  9
$GRIDMODE
 70
    1
  9
$SNAPSTYLE
 70
    0
  9
$PLIMMIN
 10
0
 20
0
  9
$PLIMMAX
 10
12
 20
9
  9
$UNITMODE
 70
    0
  9
$VISRETAIN
 70
    1
  9
$PLINEGEN
 70
    0
  9
$PSLTSCALE
 70
    1
  9
$TREEDEPTH
 70
 3020
  9
$CMLSTYLE
  2
Standard
  9
$CMLJUST
 70
    0
  9
$CMLSCALE
 40
20
  9
$PROXYGRAPHICS
 70
    1
  9
$MEASUREMENT
 70
    1
  9
$CELWEIGHT
370
   -1
  9
$ENDCAPS
280
    0
  9
$JOINSTYLE
280
    0
  9
$LWDISPLAY
290
    0
  9
$INSUNITS
 70
    4
  9
$HYPERLINKBASE
  1

  9
$STYLESHEET
  1

  9
$XEDIT
290
    1
  9
$CEPSNTYPE
380
    0
  9
$PSTYLEMODE
290
    1
  9
$EXTNAMES
290
    1
  9
$PSVPSCALE
 40
1
  9
$OLESTARTUP
290
    0
  9
$SORTENTS
280
  127
  9
$INDEXCTL
280
    0
  9
$HIDETEXT
280
    1
  9
$XCLIPFRAME
290
    0
  9
$HALOGAP
280
    0
  9
$OBSCOLOR
 70
  257
  9
$OBSLTYPE
280
    0
  9
$INTERSECTIONDISPLAY
280
    0
  9
$INTERSECTIONCOLOR
 70
  257
  9
$DIMASSOC
280
    1
  9
$PROJECTNAME
  1

  9
$CAMERADISPLAY
290
    0
  9
$LENSLENGTH
 40
50
  9
$CAMERAHEIGHT
 40
0
  9
$STEPSPERSEC
 40
2
  9
$STEPSIZE
 40
50
  9
$3DDWFPREC
 40
2
  9
$PSOLWIDTH
 40
5
  9
$PSOLHEIGHT
 40
80
  9
$LOFTANG1
 40
1.570796326794897
  9
$LOFTANG2
 40
1.570796326794897
  9
$LOFTMAG1
 40
0
  9
$LOFTMAG2
 40
0
  9
$LOFTPARAM
 70
    7
  9
$LOFTNORMALS
280
    1
  9
$LATITUDE
 40
1
  9
$LONGITUDE
 40
1
  9
$NORTHDIRECTION
 40
0
  9
$TIMEZONE
 70
-8000
  9
$LIGHTGLYPHDISPLAY
280
    1
  9
$TILEMODELIGHTSYNCH
280
    1
  9
$SOLIDHIST
280
    1
  9
$SHOWHIST
280
    1
  9
$DWFFRAME
280
    2
  9
$DGNFRAME
280
    0
  9
$REALWORLDSCALE
290
    1
  9
$INTERFERECOLOR
 62
    1
  9
$CSHADOW
280
    0
  9
$SHADOWPLANELOCATION
 40
0
  0
ENDSEC
  0
SECTION
  2
CLASSES
  0
ENDSEC
  0
SECTION
  2
TABLES
  0
TABLE
  2
VPORT
  5
8
330
0
100
AcDbSymbolTable
 70
    1
  0
VPORT
  5
31
330
2
100
AcDbSymbolTableRecord
100
AcDbViewportTableRecord
  2
*ACTIVE
 70
    0
 10
0
 20
0
 11
1
 21
1
 12
880.629391006124
 22
403.6577424004565
 13
0
 23
0
 14
10
 24
10
 15
10
 25
10
 16
0
 26
0
 36
1
 17
0
 27
0
 37
0
 40
1373.126337396425
 41
1.934673366834171
 42
50
 43
0
 44
0
 50
0
 51
0
 71
    0
 72
  100
 73
    1
 74
    3
 75
    0
 76
    1
 77
    0
 78
    0
281
    0
 65
    1
110
0
120
0
130
0
111
1
121
0
131
0
112
0
122
1
132
0
 79
    0
146
0
348
10020
 60
    7
 61
    5
292
1
282
    1
141
0
142
0
 63
  250
421
3358443
  0
ENDTAB
  0
TABLE
  2
LTYPE
  5
5
330
0
100
AcDbSymbolTable
 70
    4
  0
LTYPE
  5
14
330
5
100
AcDbSymbolTableRecord
100
AcDbLinetypeTableRecord
  2
ByBlock
 70
    0
  3

 72
   65
 73
    0
 40
0
  0
LTYPE
  5
15
330
5
100
AcDbSymbolTableRecord
100
AcDbLinetypeTableRecord
  2
ByLayer
 70
    0
  3

 72
   65
 73
    0
 40
0
  0
LTYPE
  5
16
330
5
100
AcDbSymbolTableRecord
100
AcDbLinetypeTableRecord
  2
Continuous
 70
    0
  3
Solid line
 72
   65
 73
    0
 40
0
  0
LTYPE
  5
32
330
5
100
AcDbSymbolTableRecord
100
AcDbLinetypeTableRecord
  2
DOT
 70
    0
  3
Dot . . . . . . . . . . . . . . . . . . . . . .
 72
   65
 73
    2
 40
6.35
 49
0
 74
    0
 49
-6.35
 74
    0
  0
LTYPE
  5
33
330
5
100
AcDbSymbolTableRecord
100
AcDbLinetypeTableRecord
  2
DOTTINY
 70
    0
  3
Dot (.15x) .....................................
 72
   65
 73
    2
 40
0.9525
 49
0
 74
    0
 49
-0.9525
 74
    0
  0
LTYPE
  5
34
330
5
100
AcDbSymbolTableRecord
100
AcDbLinetypeTableRecord
  2
DOT2
 70
    0
  3
Dot (.5x) .....................................
 72
   65
 73
    2
 40
3.175
 49
0
 74
    0
 49
-3.175
 74
    0
  0
LTYPE
  5
35
330
5
100
AcDbSymbolTableRecord
100
AcDbLinetypeTableRecord
  2
DOTX2
 70
    0
  3
Dot (2x) .  .  .  .  .  .  .  .  .  .  .  .  .
 72
   65
 73
    2
 40
12.7
 49
0
 74
    0
 49
-12.7
 74
    0
  0
LTYPE
  5
36
330
5
100
AcDbSymbolTableRecord
100
AcDbLinetypeTableRecord
  2
DASHED
 70
    0
  3
Dashed _ _ _ _ _ _ _ _ _ _ _ _ _ _ _ _ _
 72
   65
 73
    2
 40
19.05
 49
12.7
 74
    0
 49
-6.35
 74
    0
  0
LTYPE
  5
37
330
5
100
AcDbSymbolTableRecord
100
AcDbLinetypeTableRecord
  2
DASHEDTINY
 70
    0
  3
Dashed (.15x) _ _ _ _ _ _ _ _ _ _ _ _ _ _ _ _ _
 72
   65
 73
    2
 40
2.8575
 49
1.905
 74
    0
 49
-0.9525
 74
    0
  0
LTYPE
  5
38
330
5
100
AcDbSymbolTableRecord
100
AcDbLinetypeTableRecord
  2
DASHED2
 70
    0
  3
Dashed (.5x) _ _ _ _ _ _ _ _ _ _ _ _ _ _ _ _ _
 72
   65
 73
    2
 40
9.524999999999999
 49
6.35
 74
    0
 49
-3.175
 74
    0
  0
LTYPE
  5
39
330
5
100
AcDbSymbolTableRecord
100
AcDbLinetypeTableRecord
  2
DASHEDX2
 70
    0
  3
Dashed (2x) ____  ____  ____  ____  ____  ___
 72
   65
 73
    2
 40
38.09999999999999
 49
25.4
 74
    0
 49
-12.7
 74
    0
  0
LTYPE
  5
3A
330
5
100
AcDbSymbolTableRecord
100
AcDbLinetypeTableRecord
  2
DASHDOT
 70
    0
  3
Dash dot __ . __ . __ . __ . __ . __ . __ . __
 72
   65
 73
    4
 40
25.4
 49
12.7
 74
    0
 49
-6.35
 74
    0
 49
0
 74
    0
 49
-6.35
 74
    0
  0
LTYPE
  5
3B
330
5
100
AcDbSymbolTableRecord
100
AcDbLinetypeTableRecord
  2
DASHDOTTINY
 70
    0
  3
Dash dot (.15x) _._._._._._._._._._._._._._._.
 72
   65
 73
    4
 40
3.81
 49
1.905
 74
    0
 49
-0.9525
 74
    0
 49
0
 74
    0
 49
-0.9525
 74
    0
  0
LTYPE
  5
3C
330
5
100
AcDbSymbolTableRecord
100
AcDbLinetypeTableRecord
  2
DASHDOT2
 70
    0
  3
Dash dot (.5x) _._._._._._._._._._._._._._._.
 72
   65
 73
    4
 40
12.7
 49
6.35
 74
    0
 49
-3.175
 74
    0
 49
0
 74
    0
 49
-3.175
 74
    0
  0
LTYPE
  5
3D
330
5
100
AcDbSymbolTableRecord
100
AcDbLinetypeTableRecord
  2
DASHDOTX2
 70
    0
  3
Dash dot (2x) ____  .  ____  .  ____  .  ___
 72
   65
 73
    4
 40
50.8
 49
25.4
 74
    0
 49
-12.7
 74
    0
 49
0
 74
    0
 49
-12.7
 74
    0
  0
LTYPE
  5
3E
330
5
100
AcDbSymbolTableRecord
100
AcDbLinetypeTableRecord
  2
DIVIDE
 70
    0
  3
Divide ____ . . ____ . . ____ . . ____ . . ____
 72
   65
 73
    6
 40
31.75
 49
12.7
 74
    0
 49
-6.35
 74
    0
 49
0
 74
    0
 49
-6.35
 74
    0
 49
0
 74
    0
 49
-6.35
 74
    0
  0
LTYPE
  5
3F
330
5
100
AcDbSymbolTableRecord
100
AcDbLinetypeTableRecord
  2
DIVIDETINY
 70
    0
  3
Divide (.15x) __..__..__..__..__..__..__..__.._
 72
   65
 73
    6
 40
4.7625
 49
1.905
 74
    0
 49
-0.9525
 74
    0
 49
0
 74
    0
 49
-0.9525
 74
    0
 49
0
 74
    0
 49
-0.9525
 74
    0
  0
LTYPE
  5
40
330
5
100
AcDbSymbolTableRecord
100
AcDbLinetypeTableRecord
  2
DIVIDE2
 70
    0
  3
Divide (.5x) __..__..__..__..__..__..__..__.._
 72
   65
 73
    6
 40
15.875
 49
6.35
 74
    0
 49
-3.175
 74
    0
 49
0
 74
    0
 49
-3.175
 74
    0
 49
0
 74
    0
 49
-3.175
 74
    0
  0
LTYPE
  5
41
330
5
100
AcDbSymbolTableRecord
100
AcDbLinetypeTableRecord
  2
DIVIDEX2
 70
    0
  3
Divide (2x) ________  .  .  ________  .  .  _
 72
   65
 73
    6
 40
63.5
 49
25.4
 74
    0
 49
-12.7
 74
    0
 49
0
 74
    0
 49
-12.7
 74
    0
 49
0
 74
    0
 49
-12.7
 74
    0
  0
LTYPE
  5
42
330
5
100
AcDbSymbolTableRecord
100
AcDbLinetypeTableRecord
  2
BORDER
 70
    0
  3
Border __ __ . __ __ . __ __ . __ __ . __ __ .
 72
   65
 73
    6
 40
44.45
 49
12.7
 74
    0
 49
-6.35
 74
    0
 49
12.7
 74
    0
 49
-6.35
 74
    0
 49
0
 74
    0
 49
-6.35
 74
    0
  0
LTYPE
  5
43
330
5
100
AcDbSymbolTableRecord
100
AcDbLinetypeTableRecord
  2
BORDERTINY
 70
    0
  3
Border (.15x) __.__.__.__.__.__.__.__.__.__.__.
 72
   65
 73
    6
 40
6.6675
 49
1.905
 74
    0
 49
-0.9525
 74
    0
 49
1.905
 74
    0
 49
-0.9525
 74
    0
 49
0
 74
    0
 49
-0.9525
 74
    0
  0
LTYPE
  5
44
330
5
100
AcDbSymbolTableRecord
100
AcDbLinetypeTableRecord
  2
BORDER2
 70
    0
  3
Border (.5x) __.__.__.__.__.__.__.__.__.__.__.
 72
   65
 73
    6
 40
22.225
 49
6.35
 74
    0
 49
-3.175
 74
    0
 49
6.35
 74
    0
 49
-3.175
 74
    0
 49
0
 74
    0
 49
-3.175
 74
    0
  0
LTYPE
  5
45
330
5
100
AcDbSymbolTableRecord
100
AcDbLinetypeTableRecord
  2
BORDERX2
 70
    0
  3
Border (2x) ____  ____  .  ____  ____  .  ___
 72
   65
 73
    6
 40
88.89999999999999
 49
25.4
 74
    0
 49
-12.7
 74
    0
 49
25.4
 74
    0
 49
-12.7
 74
    0
 49
0
 74
    0
 49
-12.7
 74
    0
  0
LTYPE
  5
46
330
5
100
AcDbSymbolTableRecord
100
AcDbLinetypeTableRecord
  2
CENTER
 70
    0
  3
Center ____ _ ____ _ ____ _ ____ _ ____ _ ____
 72
   65
 73
    4
 40
50.8
 49
31.75
 74
    0
 49
-6.35
 74
    0
 49
6.35
 74
    0
 49
-6.35
 74
    0
  0
LTYPE
  5
47
330
5
100
AcDbSymbolTableRecord
100
AcDbLinetypeTableRecord
  2
CENTERTINY
 70
    0
  3
Center (.15x) ___ _ ___ _ ___ _ ___ _ ___ _ ___
 72
   65
 73
    4
 40
7.619999999999999
 49
4.7625
 74
    0
 49
-0.9525
 74
    0
 49
0.9525
 74
    0
 49
-0.9525
 74
    0
  0
LTYPE
  5
48
330
5
100
AcDbSymbolTableRecord
100
AcDbLinetypeTableRecord
  2
CENTER2
 70
    0
  3
Center (.5x) ___ _ ___ _ ___ _ ___ _ ___ _ ___
 72
   65
 73
    4
 40
28.575
 49
19.05
 74
    0
 49
-3.175
 74
    0
 49
3.175
 74
    0
 49
-3.175
 74
    0
  0
LTYPE
  5
49
330
5
100
AcDbSymbolTableRecord
100
AcDbLinetypeTableRecord
  2
CENTERX2
 70
    0
  3
Center (2x) ________  __  ________  __  _____
 72
   65
 73
    4
 40
101.6
 49
63.5
 74
    0
 49
-12.7
 74
    0
 49
12.7
 74
    0
 49
-12.7
 74
    0
  0
ENDTAB
  0
TABLE
  2
LAYER
  5
2
330
0
100
AcDbSymbolTable
 70
    1
  0
LAYER
  5
10
330
2
100
AcDbSymbolTableRecord
100
AcDbLayerTableRecord
  2
0
 70
    0
 62
    7
  6
CONTINUOUS
370
    0
390
F
  0
LAYER
  5
4A
330
2
100
AcDbSymbolTableRecord
100
AcDbLayerTableRecord
  2
Buttons-stick
 70
    0
 62
    1
  6
CONTINUOUS
370
   -3
390
F
  0
LAYER
  5
4B
330
2
100
AcDbSymbolTableRecord
100
AcDbLayerTableRecord
  2
Sidewalls
 70
    0
 62
    2
  6
CONTINUOUS
370
   -3
390
F
  0
LAYER
  5
4C
330
2
100
AcDbSymbolTableRecord
100
AcDbLayerTableRecord
  2
corner_standoffs
 70
    4
 62
    1
  6
CONTINUOUS
370
    0
390
F
  0
LAYER
  5
4D
330
2
100
AcDbSymbolTableRecord
100
AcDbLayerTableRecord
  2
sidewalls_second_layer
 70
    0
 62
    5
  6
CONTINUOUS
370
    0
390
F
  0
ENDTAB
  0
TABLE
  2
STYLE
  5
3
330
0
100
AcDbSymbolTable
 70
    3
  0
STYLE
  5
4E
330
2
100
AcDbSymbolTableRecord
100
AcDbTextStyleTableRecord
  2
Standard
 70
    0
 40
0
 41
1
 50
0
 71
    0
 42
1
  3
txt
  4

  0
ENDTAB
  0
TABLE
  2
VIEW
  5
6
330
0
100
AcDbSymbolTable
 70
    0
  0
ENDTAB
  0
TABLE
  2
UCS
  5
7
330
0
100
AcDbSymbolTable
 70
    0
  0
ENDTAB
  0
TABLE
  2
APPID
  5
9
330
0
100
AcDbSymbolTable
 70
    1
  0
APPID
  5
12
330
9
100
AcDbSymbolTableRecord
100
AcDbRegAppTableRecord
  2
ACAD
 70
    0
  0
APPID
  5
4F
330
9
100
AcDbSymbolTableRecord
100
AcDbRegAppTableRecord
  2
LibreCad
 70
    0
  0
ENDTAB
  0
TABLE
  2
DIMSTYLE
  5
A
330
0
100
AcDbSymbolTable
 70
    1
100
AcDbDimStyleTable
 71
    1
  0
DIMSTYLE
105
50
330
A
100
AcDbSymbolTableRecord
100
AcDbDimStyleTableRecord
  2
Standard
 70
    0
 40
1
 41
2.5
 42
0.625
 43
0.38
 44
1.25
 45
0
 46
0
 47
0
 48
0
 49
1
140
2.5
141
0.09
142
0
143
25.4
144
1
145
0
146
1
147
0.625
148
0
 71
    0
 72
    0
 73
    0
 74
    1
 75
    0
 76
    0
 77
    0
 78
    8
 79
    0
170
    0
171
    2
172
    0
173
    0
174
    0
175
    0
176
    0
177
    0
178
    0
179
    0
271
    2
272
    4
273
    2
274
    2
275
    0
276
    0
277
    2
278
   44
279
    0
280
    0
281
    0
282
    0
283
    1
284
    0
285
    0
286
    0
288
    0
289
    3
340
STANDARD
341

371
   -2
372
   -2
  0
ENDTAB
  0
TABLE
  2
BLOCK_RECORD
  5
1
330
0
100
AcDbSymbolTable
 70
    2
  0
BLOCK_RECORD
  5
1F
330
1
100
AcDbSymbolTableRecord
100
AcDbBlockTableRecord
  2
*Model_Space
 70
    0
280
    1
281
    0
  0
BLOCK_RECORD
  5
1E
330
1
100
AcDbSymbolTableRecord
100
AcDbBlockTableRecord
  2
*Paper_Space
 70
    0
280
    1
281
    0
  0
ENDTAB
  0
ENDSEC
  0
SECTION
  2
BLOCKS
  0
BLOCK
  5
20
330
1F
100
AcDbEntity
  8
0
100
AcDbBlockBegin
  2
*Model_Space
 70
    0
 10
0
 20
0
 30
0
  3
*Model_Space
  1

  0
ENDBLK
  5
21
330
1F
100
AcDbEntity
  8
0
100
AcDbBlockEnd
  0
BLOCK
  5
1C
330
1B
100
AcDbEntity
  8
0
100
AcDbBlockBegin
  2
*Paper_Space
 70
    0
 10
0
 20
0
 30
0
  3
*Paper_Space
  1

  0
ENDBLK
  5
1D
330
1F
100
AcDbEntity
  8
0
100
AcDbBlockEnd
  0
ENDSEC
  0
SECTION
  2
ENTITIES
  0
CIRCLE
  5
51
100
AcDbEntity
  8
corner_standoffs
  6
ByLayer
 62
  256
370
   -1
100
AcDbCircle
 10
429.9000000000001
 20
90.09999999999997
 40
2.5
  0
LINE
  5
52
100
AcDbEntity
  8
corner_standoffs
  6
ByLayer
 62
  256
370
   -1
100
AcDbLine
 10
420
 20
79.49999999999972
 11
425
 21
79.4999999999996
  0
LINE
  5
53
100
AcDbEntity
  8
corner_standoffs
  6
ByLayer
 62
  256
370
   -1
100
AcDbLine
 10
420
 20
74.49999999999983
 11
425
 21
74.49999999999983
  0
LINE
  5
54
100
AcDbEntity
  8
corner_standoffs
  6
ByLayer
 62
  256
370
   -1
100
AcDbLine
 10
425
 20
74.49999999999994
 11
425
 21
72.39999999999981
  0
LINE
  5
55
100
AcDbEntity
  8
corner_standoffs
  6
ByLayer
 62
  256
370
   -1
100
AcDbLine
 10
425
 20
79.49999999999983
 11
425
 21
81.5999999999998
  0
LINE
  5
56
100
AcDbEntity
  8
corner_standoffs
  6
ByLayer
 62
  256
370
   -1
100
AcDbLine
 10
425
 20
72.39999999999981
 11
430.0000000000002
 21
72.39999999999981
  0
LINE
  5
57
100
AcDbEntity
  8
corner_standoffs
  6
ByLayer
 62
  256
370
   -1
100
AcDbLine
 10
430.0000000000002
 20
79.49999999999983
 11
430.0000000000002
 21
81.5999999999998
  0
LINE
  5
58
100
AcDbEntity
  8
corner_standoffs
  6
ByLayer
 62
  256
370
   -1
100
AcDbLine
 10
430.0000000000002
 20
81.5999999999998
 11
425
 21
81.5999999999998
  0
LINE
  5
59
100
AcDbEntity
  8
corner_standoffs
  6
ByLayer
 62
  256
370
   -1
100
AcDbLine
 10
430.0000000000002
 20
74.49999999999983
 11
430.0000000000002
 21
72.39999999999981
  0
LINE
  5
5A
100
AcDbEntity
  8
corner_standoffs
  6
ByLayer
 62
  256
370
   -1
100
AcDbLine
 10
435
 20
74.49999999999983
 11
430.0000000000002
 21
74.49999999999983
  0
LINE
  5
5B
100
AcDbEntity
  8
corner_standoffs
  6
ByLayer
 62
  256
370
   -1
100
AcDbLine
 10
430.0000000000002
 20
79.49999999999983
 11
435
 21
79.49999999999983
  0
LINE
  5
5C
100
AcDbEntity
  8
corner_standoffs
  6
ByLayer
 62
  256
370
   -1
100
AcDbLine
 10
435
 20
79.49999999999983
 11
435
 21
74.49999999999983
  0
LINE
  5
5D
100
AcDbEntity
  8
corner_standoffs
  6
ByLayer
 62
  256
370
   -1
100
AcDbLine
 10
444.5
 20
99.99999999999983
 11
444.4999999999998
 21
94.99999999999983
  0
LINE
  5
5E
100
AcDbEntity
  8
corner_standoffs
  6
ByLayer
 62
  256
370
   -1
100
AcDbLine
 10
439.5
 20
99.99999999999994
 11
439.5
 21
94.99999999999994
  0
LINE
  5
5F
100
AcDbEntity
  8
corner_standoffs
  6
ByLayer
 62
  256
370
   -1
100
AcDbLine
 10
439.5
 20
94.99999999999994
 11
437.4000000000001
 21
94.99999999999994
  0
LINE
  5
60
100
AcDbEntity
  8
corner_standoffs
  6
ByLayer
 62
  256
370
   -1
100
AcDbLine
 10
444.5
 20
94.99999999999983
 11
446.5999999999999
 21
94.99999999999983
  0
LINE
  5
61
100
AcDbEntity
  8
corner_standoffs
  6
ByLayer
 62
  256
370
   -1
100
AcDbLine
 10
437.4000000000001
 20
94.99999999999994
 11
437.4000000000001
 21
89.99999999999972
  0
LINE
  5
62
100
AcDbEntity
  8
corner_standoffs
  6
ByLayer
 62
  256
370
   -1
100
AcDbLine
 10
444.5
 20
89.99999999999972
 11
446.5999999999999
 21
89.99999999999972
  0
LINE
  5
63
100
AcDbEntity
  8
corner_standoffs
  6
ByLayer
 62
  256
370
   -1
100
AcDbLine
 10
446.5999999999999
 20
89.99999999999972
 11
446.5999999999999
 21
94.99999999999983
  0
LINE
  5
64
100
AcDbEntity
  8
corner_standoffs
  6
ByLayer
 62
  256
370
   -1
100
AcDbLine
 10
439.5
 20
89.99999999999972
 11
437.4000000000001
 21
89.99999999999972
  0
LINE
  5
65
100
AcDbEntity
  8
corner_standoffs
  6
ByLayer
 62
  256
370
   -1
100
AcDbLine
 10
444.5
 20
89.99999999999972
 11
444.5
 21
85.00000000000006
  0
LINE
  5
66
100
AcDbEntity
  8
corner_standoffs
  6
ByLayer
 62
  256
370
   -1
100
AcDbLine
 10
444.5
 20
85.00000000000006
 11
439.5
 21
85.00000000000006
  0
LINE
  5
67
100
AcDbEntity
  8
corner_standoffs
  6
ByLayer
 62
  256
370
   -1
100
AcDbLine
 10
439.5
 20
85.00000000000006
 11
439.5
 21
89.99999999999972
  0
LINE
  5
68
100
AcDbEntity
  8
corner_standoffs
  6
ByLayer
 62
  256
370
   -1
100
AcDbLine
 10
420
 20
62.99999999999994
 11
442
 21
62.99999999999994
  0
LINE
  5
69
100
AcDbEntity
  8
corner_standoffs
  6
ByLayer
 62
  256
370
   -1
100
AcDbLine
 10
457
 20
78.99999999999994
 11
457
 21
100
  0
LINE
  5
6A
100
AcDbEntity
  8
corner_standoffs
  6
ByLayer
 62
  256
370
   -1
100
AcDbLine
 10
442
 20
62.99999999999994
 11
457
 21
78.99999999999994
  0
LINE
  5
6B
100
AcDbEntity
  8
corner_standoffs
  6
ByLayer
 62
  256
370
   -1
100
AcDbLine
 10
420
 20
100
 11
420
 21
79.49999999999972
  0
LINE
  5
6C
100
AcDbEntity
  8
corner_standoffs
  6
ByLayer
 62
  256
370
   -1
100
AcDbLine
 10
420
 20
74.49999999999983
 11
420
 21
62.99999999999994
  0
LINE
  5
6D
100
AcDbEntity
  8
corner_standoffs
  6
ByLayer
 62
  256
370
   -1
100
AcDbLine
 10
420
 20
100
 11
439.5
 21
99.99999999999994
  0
LINE
  5
6E
100
AcDbEntity
  8
corner_standoffs
  6
ByLayer
 62
  256
370
   -1
100
AcDbLine
 10
444.5
 20
99.99999999999994
 11
457
 21
100
  0
CIRCLE
  5
6F
100
AcDbEntity
  8
corner_standoffs
  6
ByLayer
 62
  256
370
   -1
100
AcDbCircle
 10
410.0999999999999
 20
109.9
 40
2.5
  0
LINE
  5
70
100
AcDbEntity
  8
corner_standoffs
  6
ByLayer
 62
  256
370
   -1
100
AcDbLine
 10
420
 20
120.5000000000003
 11
415
 21
120.5000000000004
  0
LINE
  5
71
100
AcDbEntity
  8
corner_standoffs
  6
ByLayer
 62
  256
370
   -1
100
AcDbLine
 10
420
 20
125.5000000000002
 11
415
 21
125.5000000000002
  0
LINE
  5
72
100
AcDbEntity
  8
corner_standoffs
  6
ByLayer
 62
  256
370
   -1
100
AcDbLine
 10
415
 20
125.5000000000001
 11
415
 21
127.6000000000002
  0
LINE
  5
73
100
AcDbEntity
  8
corner_standoffs
  6
ByLayer
 62
  256
370
   -1
100
AcDbLine
 10
415
 20
120.5000000000002
 11
415
 21
118.4000000000002
  0
LINE
  5
74
100
AcDbEntity
  8
corner_standoffs
  6
ByLayer
 62
  256
370
   -1
100
AcDbLine
 10
415
 20
127.6000000000002
 11
409.9999999999998
 21
127.6000000000002
  0
LINE
  5
75
100
AcDbEntity
  8
corner_standoffs
  6
ByLayer
 62
  256
370
   -1
100
AcDbLine
 10
409.9999999999998
 20
120.5000000000002
 11
409.9999999999998
 21
118.4000000000002
  0
LINE
  5
76
100
AcDbEntity
  8
corner_standoffs
  6
ByLayer
 62
  256
370
   -1
100
AcDbLine
 10
409.9999999999998
 20
118.4000000000002
 11
415
 21
118.4000000000002
  0
LINE
  5
77
100
AcDbEntity
  8
corner_standoffs
  6
ByLayer
 62
  256
370
   -1
100
AcDbLine
 10
409.9999999999998
 20
125.5000000000002
 11
409.9999999999998
 21
127.6000000000002
  0
LINE
  5
78
100
AcDbEntity
  8
corner_standoffs
  6
ByLayer
 62
  256
370
   -1
100
AcDbLine
 10
405
 20
125.5000000000002
 11
409.9999999999998
 21
125.5000000000002
  0
LINE
  5
79
100
AcDbEntity
  8
corner_standoffs
  6
ByLayer
 62
  256
370
   -1
100
AcDbLine
 10
409.9999999999998
 20
120.5000000000002
 11
405
 21
120.5000000000002
  0
LINE
  5
7A
100
AcDbEntity
  8
corner_standoffs
  6
ByLayer
 62
  256
370
   -1
100
AcDbLine
 10
405
 20
120.5000000000002
 11
405
 21
125.5000000000002
  0
LINE
  5
7B
100
AcDbEntity
  8
corner_standoffs
  6
ByLayer
 62
  256
370
   -1
100
AcDbLine
 10
395.5
 20
100.0000000000002
 11
395.5000000000002
 21
105.0000000000002
  0
LINE
  5
7C
100
AcDbEntity
  8
corner_standoffs
  6
ByLayer
 62
  256
370
   -1
100
AcDbLine
 10
400.5
 20
100.0000000000001
 11
400.5
 21
105.0000000000001
  0
LINE
  5
7D
100
AcDbEntity
  8
corner_standoffs
  6
ByLayer
 62
  256
370
   -1
100
AcDbLine
 10
400.4999999999998
 20
105.0000000000001
 11
402.5999999999999
 21
105.0000000000001
  0
LINE
  5
7E
100
AcDbEntity
  8
corner_standoffs
  6
ByLayer
 62
  256
370
   -1
100
AcDbLine
 10
395.5
 20
105.0000000000002
 11
393.3999999999999
 21
105.0000000000002
  0
LINE
  5
7F
100
AcDbEntity
  8
corner_standoffs
  6
ByLayer
 62
  256
370
   -1
100
AcDbLine
 10
402.5999999999999
 20
105.0000000000001
 11
402.5999999999999
 21
110.0000000000003
  0
LINE
  5
80
100
AcDbEntity
  8
corner_standoffs
  6
ByLayer
 62
  256
370
   -1
100
AcDbLine
 10
395.5
 20
110.0000000000003
 11
393.3999999999999
 21
110.0000000000003
  0
LINE
  5
81
100
AcDbEntity
  8
corner_standoffs
  6
ByLayer
 62
  256
370
   -1
100
AcDbLine
 10
393.3999999999999
 20
110.0000000000003
 11
393.3999999999999
 21
105.0000000000002
  0
LINE
  5
82
100
AcDbEntity
  8
corner_standoffs
  6
ByLayer
 62
  256
370
   -1
100
AcDbLine
 10
400.5
 20
110.0000000000003
 11
402.5999999999999
 21
110.0000000000003
  0
LINE
  5
83
100
AcDbEntity
  8
corner_standoffs
  6
ByLayer
 62
  256
370
   -1
100
AcDbLine
 10
395.5
 20
110.0000000000003
 11
395.5
 21
114.9999999999999
  0
LINE
  5
84
100
AcDbEntity
  8
corner_standoffs
  6
ByLayer
 62
  256
370
   -1
100
AcDbLine
 10
395.5
 20
114.9999999999999
 11
400.5
 21
114.9999999999999
  0
LINE
  5
85
100
AcDbEntity
  8
corner_standoffs
  6
ByLayer
 62
  256
370
   -1
100
AcDbLine
 10
400.5
 20
114.9999999999999
 11
400.5
 21
110.0000000000003
  0
LINE
  5
86
100
AcDbEntity
  8
corner_standoffs
  6
ByLayer
 62
  256
370
   -1
100
AcDbLine
 10
420
 20
137.0000000000001
 11
398
 21
137.0000000000001
  0
LINE
  5
87
100
AcDbEntity
  8
corner_standoffs
  6
ByLayer
 62
  256
370
   -1
100
AcDbLine
 10
383
 20
121.0000000000001
 11
383
 21
100
  0
LINE
  5
88
100
AcDbEntity
  8
corner_standoffs
  6
ByLayer
 62
  256
370
   -1
100
AcDbLine
 10
398
 20
137.0000000000001
 11
383
 21
121.0000000000001
  0
LINE
  5
89
100
AcDbEntity
  8
corner_standoffs
  6
ByLayer
 62
  256
370
   -1
100
AcDbLine
 10
420
 20
100
 11
420
 21
120.5000000000003
  0
LINE
  5
8A
100
AcDbEntity
  8
corner_standoffs
  6
ByLayer
 62
  256
370
   -1
100
AcDbLine
 10
420
 20
125.5000000000002
 11
420
 21
137.0000000000001
  0
LINE
  5
8B
100
AcDbEntity
  8
corner_standoffs
  6
ByLayer
 62
  256
370
   -1
100
AcDbLine
 10
420
 20
100
 11
400.5
 21
100.0000000000001
  0
LINE
  5
8C
100
AcDbEntity
  8
corner_standoffs
  6
ByLayer
 62
  256
370
   -1
100
AcDbLine
 10
395.5
 20
100.0000000000001
 11
383
 21
100
  0
CIRCLE
  5
8D
100
AcDbEntity
  8
corner_standoffs
  6
ByLayer
 62
  256
370
   -1
100
AcDbCircle
 10
410.0999999999999
 20
90.09999999999997
 40
2.5
  0
LINE
  5
8E
100
AcDbEntity
  8
corner_standoffs
  6
ByLayer
 62
  256
370
   -1
100
AcDbLine
 10
419.9999999999995
 20
75.50000000000017
 11
414.9999999999995
 21
75.50000000000028
  0
LINE
  5
8F
100
AcDbEntity
  8
corner_standoffs
  6
ByLayer
 62
  256
370
   -1
100
AcDbLine
 10
420
 20
80.50000000000006
 11
415
 21
80.50000000000006
  0
LINE
  5
90
100
AcDbEntity
  8
corner_standoffs
  6
ByLayer
 62
  256
370
   -1
100
AcDbLine
 10
415
 20
80.49999999999994
 11
415
 21
82.60000000000008
  0
LINE
  5
91
100
AcDbEntity
  8
corner_standoffs
  6
ByLayer
 62
  256
370
   -1
100
AcDbLine
 10
414.9999999999995
 20
75.50000000000006
 11
414.9999999999995
 21
73.40000000000003
  0
LINE
  5
92
100
AcDbEntity
  8
corner_standoffs
  6
ByLayer
 62
  256
370
   -1
100
AcDbLine
 10
415
 20
82.60000000000008
 11
409.9999999999995
 21
82.60000000000008
  0
LINE
  5
93
100
AcDbEntity
  8
corner_standoffs
  6
ByLayer
 62
  256
370
   -1
100
AcDbLine
 10
409.9999999999995
 20
75.50000000000006
 11
409.9999999999995
 21
73.40000000000003
  0
LINE
  5
94
100
AcDbEntity
  8
corner_standoffs
  6
ByLayer
 62
  256
370
   -1
100
AcDbLine
 10
409.9999999999995
 20
73.40000000000003
 11
414.9999999999995
 21
73.40000000000003
  0
LINE
  5
95
100
AcDbEntity
  8
corner_standoffs
  6
ByLayer
 62
  256
370
   -1
100
AcDbLine
 10
409.9999999999995
 20
80.50000000000006
 11
409.9999999999995
 21
82.60000000000008
  0
LINE
  5
96
100
AcDbEntity
  8
corner_standoffs
  6
ByLayer
 62
  256
370
   -1
100
AcDbLine
 10
409.9999999999995
 20
75.50000000000006
 11
405
 21
75.50000000000006
  0
LINE
  5
97
100
AcDbEntity
  8
corner_standoffs
  6
ByLayer
 62
  256
370
   -1
100
AcDbLine
 10
405
 20
75.50000000000006
 11
405
 21
80.50000000000006
  0
LINE
  5
98
100
AcDbEntity
  8
corner_standoffs
  6
ByLayer
 62
  256
370
   -1
100
AcDbLine
 10
405
 20
80.50000000000017
 11
409.9999999999995
 21
80.50000000000017
  0
LINE
  5
99
100
AcDbEntity
  8
corner_standoffs
  6
ByLayer
 62
  256
370
   -1
100
AcDbLine
 10
382.9999999999998
 20
100.0000000000001
 11
382.9999999999998
 21
78.00000000000006
  0
LINE
  5
9A
100
AcDbEntity
  8
corner_standoffs
  6
ByLayer
 62
  256
370
   -1
100
AcDbLine
 10
398.9999999999998
 20
63.00000000000006
 11
420
 21
63.00000000000006
  0
LINE
  5
9B
100
AcDbEntity
  8
corner_standoffs
  6
ByLayer
 62
  256
370
   -1
100
AcDbLine
 10
382.9999999999998
 20
78.00000000000006
 11
398.9999999999998
 21
63.00000000000006
  0
LINE
  5
9C
100
AcDbEntity
  8
corner_standoffs
  6
ByLayer
 62
  256
370
   -1
100
AcDbLine
 10
420
 20
100
 11
420
 21
80.50000000000006
  0
LINE
  5
9D
100
AcDbEntity
  8
corner_standoffs
  6
ByLayer
 62
  256
370
   -1
100
AcDbLine
 10
420
 20
75.50000000000017
 11
420
 21
63.00000000000006
  0
LINE
  5
9E
100
AcDbEntity
  8
corner_standoffs
  6
ByLayer
 62
  256
370
   -1
100
AcDbLine
 10
400.5
 20
100
 11
400.4999999999998
 21
95.00000000000011
  0
LINE
  5
9F
100
AcDbEntity
  8
corner_standoffs
  6
ByLayer
 62
  256
370
   -1
100
AcDbLine
 10
395.5
 20
100.0000000000001
 11
395.5
 21
95.00000000000011
  0
LINE
  5
A0
100
AcDbEntity
  8
corner_standoffs
  6
ByLayer
 62
  256
370
   -1
100
AcDbLine
 10
395.5
 20
95.00000000000011
 11
393.3999999999999
 21
95.00000000000011
  0
LINE
  5
A1
100
AcDbEntity
  8
corner_standoffs
  6
ByLayer
 62
  256
370
   -1
100
AcDbLine
 10
400.5
 20
95.00000000000011
 11
402.5999999999999
 21
95.00000000000011
  0
LINE
  5
A2
100
AcDbEntity
  8
corner_standoffs
  6
ByLayer
 62
  256
370
   -1
100
AcDbLine
 10
393.3999999999999
 20
95.00000000000011
 11
393.3999999999999
 21
89.99999999999983
  0
LINE
  5
A3
100
AcDbEntity
  8
corner_standoffs
  6
ByLayer
 62
  256
370
   -1
100
AcDbLine
 10
400.5
 20
89.99999999999983
 11
402.5999999999999
 21
89.99999999999983
  0
LINE
  5
A4
100
AcDbEntity
  8
corner_standoffs
  6
ByLayer
 62
  256
370
   -1
100
AcDbLine
 10
402.5999999999999
 20
89.99999999999983
 11
402.5999999999999
 21
95.00000000000011
  0
LINE
  5
A5
100
AcDbEntity
  8
corner_standoffs
  6
ByLayer
 62
  256
370
   -1
100
AcDbLine
 10
395.5
 20
89.99999999999983
 11
393.3999999999999
 21
89.99999999999983
  0
LINE
  5
A6
100
AcDbEntity
  8
corner_standoffs
  6
ByLayer
 62
  256
370
   -1
100
AcDbLine
 10
395.5
 20
85.00000000000006
 11
395.5
 21
89.99999999999983
  0
LINE
  5
A7
100
AcDbEntity
  8
corner_standoffs
  6
ByLayer
 62
  256
370
   -1
100
AcDbLine
 10
400.5
 20
89.99999999999983
 11
400.5
 21
85.00000000000006
  0
LINE
  5
A8
100
AcDbEntity
  8
corner_standoffs
  6
ByLayer
 62
  256
370
   -1
100
AcDbLine
 10
400.5
 20
85.00000000000006
 11
395.5
 21
85.00000000000006
  0
LINE
  5
A9
100
AcDbEntity
  8
corner_standoffs
  6
ByLayer
 62
  256
370
   -1
100
AcDbLine
 10
382.9999999999998
 20
100
 11
395.5
 21
100
  0
LINE
  5
AA
100
AcDbEntity
  8
corner_standoffs
  6
ByLayer
 62
  256
370
   -1
100
AcDbLine
 10
400.5
 20
100
 11
420
 21
100
  0
CIRCLE
  5
AB
100
AcDbEntity
  8
corner_standoffs
  6
ByLayer
 62
  256
370
   -1
100
AcDbCircle
 10
429.9000000000001
 20
109.9000000000001
 40
2.5
  0
LINE
  5
AC
100
AcDbEntity
  8
corner_standoffs
  6
ByLayer
 62
  256
370
   -1
100
AcDbLine
 10
420.0000000000002
 20
124.4999999999999
 11
425.0000000000002
 21
124.4999999999998
  0
LINE
  5
AD
100
AcDbEntity
  8
corner_standoffs
  6
ByLayer
 62
  256
370
   -1
100
AcDbLine
 10
420
 20
119.5
 11
425
 21
119.5
  0
LINE
  5
AE
100
AcDbEntity
  8
corner_standoffs
  6
ByLayer
 62
  256
370
   -1
100
AcDbLine
 10
425
 20
119.5000000000001
 11
425
 21
117.4
  0
LINE
  5
AF
100
AcDbEntity
  8
corner_standoffs
  6
ByLayer
 62
  256
370
   -1
100
AcDbLine
 10
425.0000000000002
 20
124.5
 11
425.0000000000002
 21
126.6
  0
LINE
  5
B0
100
AcDbEntity
  8
corner_standoffs
  6
ByLayer
 62
  256
370
   -1
100
AcDbLine
 10
425
 20
117.4
 11
430.0000000000005
 21
117.4
  0
LINE
  5
B1
100
AcDbEntity
  8
corner_standoffs
  6
ByLayer
 62
  256
370
   -1
100
AcDbLine
 10
430.0000000000005
 20
124.5
 11
430.0000000000005
 21
126.6
  0
LINE
  5
B2
100
AcDbEntity
  8
corner_standoffs
  6
ByLayer
 62
  256
370
   -1
100
AcDbLine
 10
430.0000000000005
 20
126.6
 11
425.0000000000002
 21
126.6
  0
LINE
  5
B3
100
AcDbEntity
  8
corner_standoffs
  6
ByLayer
 62
  256
370
   -1
100
AcDbLine
 10
430.0000000000005
 20
119.5
 11
430.0000000000005
 21
117.4
  0
LINE
  5
B4
100
AcDbEntity
  8
corner_standoffs
  6
ByLayer
 62
  256
370
   -1
100
AcDbLine
 10
430.0000000000005
 20
124.5
 11
435
 21
124.5
  0
LINE
  5
B5
100
AcDbEntity
  8
corner_standoffs
  6
ByLayer
 62
  256
370
   -1
100
AcDbLine
 10
435
 20
124.5
 11
435
 21
119.5
  0
LINE
  5
B6
100
AcDbEntity
  8
corner_standoffs
  6
ByLayer
 62
  256
370
   -1
100
AcDbLine
 10
435
 20
119.4999999999999
 11
430.0000000000005
 21
119.4999999999999
  0
LINE
  5
B7
100
AcDbEntity
  8
corner_standoffs
  6
ByLayer
 62
  256
370
   -1
100
AcDbLine
 10
457
 20
100
 11
457
 21
122
  0
LINE
  5
B8
100
AcDbEntity
  8
corner_standoffs
  6
ByLayer
 62
  256
370
   -1
100
AcDbLine
 10
441
 20
137
 11
420
 21
137
  0
LINE
  5
B9
100
AcDbEntity
  8
corner_standoffs
  6
ByLayer
 62
  256
370
   -1
100
AcDbLine
 10
457
 20
122
 11
441
 21
137
  0
LINE
  5
BA
100
AcDbEntity
  8
corner_standoffs
  6
ByLayer
 62
  256
370
   -1
100
AcDbLine
 10
420
 20
100
 11
420
 21
119.5
  0
LINE
  5
BB
100
AcDbEntity
  8
corner_standoffs
  6
ByLayer
 62
  256
370
   -1
100
AcDbLine
 10
420
 20
124.4999999999999
 11
420
 21
137
  0
LINE
  5
BC
100
AcDbEntity
  8
corner_standoffs
  6
ByLayer
 62
  256
370
   -1
100
AcDbLine
 10
439.5
 20
100
 11
439.5000000000002
 21
105
  0
LINE
  5
BD
100
AcDbEntity
  8
corner_standoffs
  6
ByLayer
 62
  256
370
   -1
100
AcDbLine
 10
444.5
 20
100
 11
444.5
 21
105
  0
LINE
  5
BE
100
AcDbEntity
  8
corner_standoffs
  6
ByLayer
 62
  256
370
   -1
100
AcDbLine
 10
444.5
 20
105
 11
446.5999999999999
 21
105
  0
LINE
  5
BF
100
AcDbEntity
  8
corner_standoffs
  6
ByLayer
 62
  256
370
   -1
100
AcDbLine
 10
439.5
 20
105
 11
437.4000000000001
 21
105
  0
LINE
  5
C0
100
AcDbEntity
  8
corner_standoffs
  6
ByLayer
 62
  256
370
   -1
100
AcDbLine
 10
446.5999999999999
 20
105
 11
446.5999999999999
 21
110.0000000000002
  0
LINE
  5
C1
100
AcDbEntity
  8
corner_standoffs
  6
ByLayer
 62
  256
370
   -1
100
AcDbLine
 10
439.5
 20
110.0000000000002
 11
437.4000000000001
 21
110.0000000000002
  0
LINE
  5
C2
100
AcDbEntity
  8
corner_standoffs
  6
ByLayer
 62
  256
370
   -1
100
AcDbLine
 10
437.4000000000001
 20
110.0000000000002
 11
437.4000000000001
 21
105
  0
LINE
  5
C3
100
AcDbEntity
  8
corner_standoffs
  6
ByLayer
 62
  256
370
   -1
100
AcDbLine
 10
444.5
 20
110.0000000000002
 11
446.5999999999999
 21
110.0000000000002
  0
LINE
  5
C4
100
AcDbEntity
  8
corner_standoffs
  6
ByLayer
 62
  256
370
   -1
100
AcDbLine
 10
444.5
 20
115
 11
444.5
 21
110.0000000000002
  0
LINE
  5
C5
100
AcDbEntity
  8
corner_standoffs
  6
ByLayer
 62
  256
370
   -1
100
AcDbLine
 10
439.5
 20
110.0000000000002
 11
439.5
 21
115
  0
LINE
  5
C6
100
AcDbEntity
  8
corner_standoffs
  6
ByLayer
 62
  256
370
   -1
100
AcDbLine
 10
439.5
 20
115
 11
444.5
 21
115
  0
LINE
  5
C7
100
AcDbEntity
  8
corner_standoffs
  6
ByLayer
 62
  256
370
   -1
100
AcDbLine
 10
420
 20
100.0000000000001
 11
439.5
 21
100.0000000000001
  0
LINE
  5
C8
100
AcDbEntity
  8
corner_standoffs
  6
ByLayer
 62
  256
370
   -1
100
AcDbLine
 10
444.5
 20
100.0000000000001
 11
457
 21
100.0000000000001
  0
LINE
  5
C9
100
AcDbEntity
  8
corner_standoffs
  6
ByLayer
 62
  256
370
   -1
100
AcDbLine
 10
510
 20
79.49999999999972
 11
515
 21
79.4999999999996
  0
LINE
  5
CA
100
AcDbEntity
  8
corner_standoffs
  6
ByLayer
 62
  256
370
   -1
100
AcDbLine
 10
510
 20
74.49999999999983
 11
515
 21
74.49999999999983
  0
LINE
  5
CB
100
AcDbEntity
  8
corner_standoffs
  6
ByLayer
 62
  256
370
   -1
100
AcDbLine
 10
515
 20
74.49999999999994
 11
515
 21
72.39999999999981
  0
LINE
  5
CC
100
AcDbEntity
  8
corner_standoffs
  6
ByLayer
 62
  256
370
   -1
100
AcDbLine
 10
515
 20
79.49999999999983
 11
515
 21
81.5999999999998
  0
LINE
  5
CD
100
AcDbEntity
  8
corner_standoffs
  6
ByLayer
 62
  256
370
   -1
100
AcDbLine
 10
515
 20
72.39999999999981
 11
520.0000000000002
 21
72.39999999999981
  0
LINE
  5
CE
100
AcDbEntity
  8
corner_standoffs
  6
ByLayer
 62
  256
370
   -1
100
AcDbLine
 10
520.0000000000002
 20
79.49999999999983
 11
520.0000000000002
 21
81.5999999999998
  0
LINE
  5
CF
100
AcDbEntity
  8
corner_standoffs
  6
ByLayer
 62
  256
370
   -1
100
AcDbLine
 10
520.0000000000002
 20
81.5999999999998
 11
515
 21
81.5999999999998
  0
LINE
  5
D0
100
AcDbEntity
  8
corner_standoffs
  6
ByLayer
 62
  256
370
   -1
100
AcDbLine
 10
520.0000000000002
 20
74.49999999999983
 11
520.0000000000002
 21
72.39999999999981
  0
LINE
  5
D1
100
AcDbEntity
  8
corner_standoffs
  6
ByLayer
 62
  256
370
   -1
100
AcDbLine
 10
525
 20
74.49999999999983
 11
520.0000000000002
 21
74.49999999999983
  0
LINE
  5
D2
100
AcDbEntity
  8
corner_standoffs
  6
ByLayer
 62
  256
370
   -1
100
AcDbLine
 10
520.0000000000002
 20
79.49999999999983
 11
525
 21
79.49999999999983
  0
LINE
  5
D3
100
AcDbEntity
  8
corner_standoffs
  6
ByLayer
 62
  256
370
   -1
100
AcDbLine
 10
525
 20
79.49999999999983
 11
525
 21
74.49999999999983
  0
LINE
  5
D4
100
AcDbEntity
  8
corner_standoffs
  6
ByLayer
 62
  256
370
   -1
100
AcDbLine
 10
534.5
 20
99.99999999999983
 11
534.4999999999998
 21
94.99999999999983
  0
LINE
  5
D5
100
AcDbEntity
  8
corner_standoffs
  6
ByLayer
 62
  256
370
   -1
100
AcDbLine
 10
529.5
 20
99.99999999999994
 11
529.5
 21
94.99999999999994
  0
LINE
  5
D6
100
AcDbEntity
  8
corner_standoffs
  6
ByLayer
 62
  256
370
   -1
100
AcDbLine
 10
529.5
 20
94.99999999999994
 11
527.4000000000001
 21
94.99999999999994
  0
LINE
  5
D7
100
AcDbEntity
  8
corner_standoffs
  6
ByLayer
 62
  256
370
   -1
100
AcDbLine
 10
534.5
 20
94.99999999999983
 11
536.5999999999999
 21
94.99999999999983
  0
LINE
  5
D8
100
AcDbEntity
  8
corner_standoffs
  6
ByLayer
 62
  256
370
   -1
100
AcDbLine
 10
527.4000000000001
 20
94.99999999999994
 11
527.4000000000001
 21
89.99999999999972
  0
LINE
  5
D9
100
AcDbEntity
  8
corner_standoffs
  6
ByLayer
 62
  256
370
   -1
100
AcDbLine
 10
534.5
 20
89.99999999999972
 11
536.5999999999999
 21
89.99999999999972
  0
LINE
  5
DA
100
AcDbEntity
  8
corner_standoffs
  6
ByLayer
 62
  256
370
   -1
100
AcDbLine
 10
536.5999999999999
 20
89.99999999999972
 11
536.5999999999999
 21
94.99999999999983
  0
LINE
  5
DB
100
AcDbEntity
  8
corner_standoffs
  6
ByLayer
 62
  256
370
   -1
100
AcDbLine
 10
529.5
 20
89.99999999999972
 11
527.4000000000001
 21
89.99999999999972
  0
LINE
  5
DC
100
AcDbEntity
  8
corner_standoffs
  6
ByLayer
 62
  256
370
   -1
100
AcDbLine
 10
534.5
 20
89.99999999999972
 11
534.5
 21
85.00000000000006
  0
LINE
  5
DD
100
AcDbEntity
  8
corner_standoffs
  6
ByLayer
 62
  256
370
   -1
100
AcDbLine
 10
534.5
 20
85.00000000000006
 11
529.5
 21
85.00000000000006
  0
LINE
  5
DE
100
AcDbEntity
  8
corner_standoffs
  6
ByLayer
 62
  256
370
   -1
100
AcDbLine
 10
529.5
 20
85.00000000000006
 11
529.5
 21
89.99999999999972
  0
LINE
  5
DF
100
AcDbEntity
  8
corner_standoffs
  6
ByLayer
 62
  256
370
   -1
100
AcDbLine
 10
510
 20
62.99999999999994
 11
532
 21
62.99999999999994
  0
LINE
  5
E0
100
AcDbEntity
  8
corner_standoffs
  6
ByLayer
 62
  256
370
   -1
100
AcDbLine
 10
547
 20
78.99999999999994
 11
547
 21
100
  0
LINE
  5
E1
100
AcDbEntity
  8
corner_standoffs
  6
ByLayer
 62
  256
370
   -1
100
AcDbLine
 10
532
 20
62.99999999999994
 11
547
 21
78.99999999999994
  0
LINE
  5
E2
100
AcDbEntity
  8
corner_standoffs
  6
ByLayer
 62
  256
370
   -1
100
AcDbLine
 10
510
 20
100
 11
510
 21
79.49999999999972
  0
LINE
  5
E3
100
AcDbEntity
  8
corner_standoffs
  6
ByLayer
 62
  256
370
   -1
100
AcDbLine
 10
510
 20
74.49999999999983
 11
510
 21
62.99999999999994
  0
LINE
  5
E4
100
AcDbEntity
  8
corner_standoffs
  6
ByLayer
 62
  256
370
   -1
100
AcDbLine
 10
510
 20
100
 11
529.5
 21
99.99999999999994
  0
LINE
  5
E5
100
AcDbEntity
  8
corner_standoffs
  6
ByLayer
 62
  256
370
   -1
100
AcDbLine
 10
534.5
 20
99.99999999999994
 11
547
 21
100
  0
LINE
  5
E6
100
AcDbEntity
  8
corner_standoffs
  6
ByLayer
 62
  256
370
   -1
100
AcDbLine
 10
510
 20
120.5000000000003
 11
505
 21
120.5000000000004
  0
LINE
  5
E7
100
AcDbEntity
  8
corner_standoffs
  6
ByLayer
 62
  256
370
   -1
100
AcDbLine
 10
510
 20
125.5000000000002
 11
505
 21
125.5000000000002
  0
LINE
  5
E8
100
AcDbEntity
  8
corner_standoffs
  6
ByLayer
 62
  256
370
   -1
100
AcDbLine
 10
505
 20
125.5000000000001
 11
505
 21
127.6000000000002
  0
LINE
  5
E9
100
AcDbEntity
  8
corner_standoffs
  6
ByLayer
 62
  256
370
   -1
100
AcDbLine
 10
505
 20
120.5000000000002
 11
505
 21
118.4000000000002
  0
LINE
  5
EA
100
AcDbEntity
  8
corner_standoffs
  6
ByLayer
 62
  256
370
   -1
100
AcDbLine
 10
505
 20
127.6000000000002
 11
499.9999999999998
 21
127.6000000000002
  0
LINE
  5
EB
100
AcDbEntity
  8
corner_standoffs
  6
ByLayer
 62
  256
370
   -1
100
AcDbLine
 10
499.9999999999998
 20
120.5000000000002
 11
499.9999999999998
 21
118.4000000000002
  0
LINE
  5
EC
100
AcDbEntity
  8
corner_standoffs
  6
ByLayer
 62
  256
370
   -1
100
AcDbLine
 10
499.9999999999998
 20
118.4000000000002
 11
505
 21
118.4000000000002
  0
LINE
  5
ED
100
AcDbEntity
  8
corner_standoffs
  6
ByLayer
 62
  256
370
   -1
100
AcDbLine
 10
499.9999999999998
 20
125.5000000000002
 11
499.9999999999998
 21
127.6000000000002
  0
LINE
  5
EE
100
AcDbEntity
  8
corner_standoffs
  6
ByLayer
 62
  256
370
   -1
100
AcDbLine
 10
495
 20
125.5000000000002
 11
499.9999999999998
 21
125.5000000000002
  0
LINE
  5
EF
100
AcDbEntity
  8
corner_standoffs
  6
ByLayer
 62
  256
370
   -1
100
AcDbLine
 10
499.9999999999998
 20
120.5000000000002
 11
495
 21
120.5000000000002
  0
LINE
  5
F0
100
AcDbEntity
  8
corner_standoffs
  6
ByLayer
 62
  256
370
   -1
100
AcDbLine
 10
495
 20
120.5000000000002
 11
495
 21
125.5000000000002
  0
LINE
  5
F1
100
AcDbEntity
  8
corner_standoffs
  6
ByLayer
 62
  256
370
   -1
100
AcDbLine
 10
485.5
 20
100.0000000000002
 11
485.5000000000002
 21
105.0000000000002
  0
LINE
  5
F2
100
AcDbEntity
  8
corner_standoffs
  6
ByLayer
 62
  256
370
   -1
100
AcDbLine
 10
490.5
 20
100.0000000000001
 11
490.5
 21
105.0000000000001
  0
LINE
  5
F3
100
AcDbEntity
  8
corner_standoffs
  6
ByLayer
 62
  256
370
   -1
100
AcDbLine
 10
490.4999999999998
 20
105.0000000000001
 11
492.5999999999999
 21
105.0000000000001
  0
LINE
  5
F4
100
AcDbEntity
  8
corner_standoffs
  6
ByLayer
 62
  256
370
   -1
100
AcDbLine
 10
485.5
 20
105.0000000000002
 11
483.3999999999999
 21
105.0000000000002
  0
LINE
  5
F5
100
AcDbEntity
  8
corner_standoffs
  6
ByLayer
 62
  256
370
   -1
100
AcDbLine
 10
492.5999999999999
 20
105.0000000000001
 11
492.5999999999999
 21
110.0000000000003
  0
LINE
  5
F6
100
AcDbEntity
  8
corner_standoffs
  6
ByLayer
 62
  256
370
   -1
100
AcDbLine
 10
485.5
 20
110.0000000000003
 11
483.3999999999999
 21
110.0000000000003
  0
LINE
  5
F7
100
AcDbEntity
  8
corner_standoffs
  6
ByLayer
 62
  256
370
   -1
100
AcDbLine
 10
483.3999999999999
 20
110.0000000000003
 11
483.3999999999999
 21
105.0000000000002
  0
LINE
  5
F8
100
AcDbEntity
  8
corner_standoffs
  6
ByLayer
 62
  256
370
   -1
100
AcDbLine
 10
490.5
 20
110.0000000000003
 11
492.5999999999999
 21
110.0000000000003
  0
LINE
  5
F9
100
AcDbEntity
  8
corner_standoffs
  6
ByLayer
 62
  256
370
   -1
100
AcDbLine
 10
485.5
 20
110.0000000000003
 11
485.5
 21
114.9999999999999
  0
LINE
  5
FA
100
AcDbEntity
  8
corner_standoffs
  6
ByLayer
 62
  256
370
   -1
100
AcDbLine
 10
485.5
 20
114.9999999999999
 11
490.5
 21
114.9999999999999
  0
LINE
  5
FB
100
AcDbEntity
  8
corner_standoffs
  6
ByLayer
 62
  256
370
   -1
100
AcDbLine
 10
490.5
 20
114.9999999999999
 11
490.5
 21
110.0000000000003
  0
LINE
  5
FC
100
AcDbEntity
  8
corner_standoffs
  6
ByLayer
 62
  256
370
   -1
100
AcDbLine
 10
510
 20
137.0000000000001
 11
488
 21
137.0000000000001
  0
LINE
  5
FD
100
AcDbEntity
  8
corner_standoffs
  6
ByLayer
 62
  256
370
   -1
100
AcDbLine
 10
473
 20
121.0000000000001
 11
473
 21
100
  0
LINE
  5
FE
100
AcDbEntity
  8
corner_standoffs
  6
ByLayer
 62
  256
370
   -1
100
AcDbLine
 10
488
 20
137.0000000000001
 11
473
 21
121.0000000000001
  0
LINE
  5
FF
100
AcDbEntity
  8
corner_standoffs
  6
ByLayer
 62
  256
370
   -1
100
AcDbLine
 10
510
 20
100
 11
510
 21
120.5000000000003
  0
LINE
  5
100
100
AcDbEntity
  8
corner_standoffs
  6
ByLayer
 62
  256
370
   -1
100
AcDbLine
 10
510
 20
125.5000000000002
 11
510
 21
137.0000000000001
  0
LINE
  5
101
100
AcDbEntity
  8
corner_standoffs
  6
ByLayer
 62
  256
370
   -1
100
AcDbLine
 10
510
 20
100
 11
490.5
 21
100.0000000000001
  0
LINE
  5
102
100
AcDbEntity
  8
corner_standoffs
  6
ByLayer
 62
  256
370
   -1
100
AcDbLine
 10
485.5
 20
100.0000000000001
 11
473
 21
100
  0
LINE
  5
103
100
AcDbEntity
  8
corner_standoffs
  6
ByLayer
 62
  256
370
   -1
100
AcDbLine
 10
509.9999999999995
 20
75.50000000000017
 11
504.9999999999995
 21
75.50000000000028
  0
LINE
  5
104
100
AcDbEntity
  8
corner_standoffs
  6
ByLayer
 62
  256
370
   -1
100
AcDbLine
 10
510
 20
80.50000000000006
 11
505
 21
80.50000000000006
  0
LINE
  5
105
100
AcDbEntity
  8
corner_standoffs
  6
ByLayer
 62
  256
370
   -1
100
AcDbLine
 10
505
 20
80.49999999999994
 11
505
 21
82.60000000000008
  0
LINE
  5
106
100
AcDbEntity
  8
corner_standoffs
  6
ByLayer
 62
  256
370
   -1
100
AcDbLine
 10
504.9999999999995
 20
75.50000000000006
 11
504.9999999999995
 21
73.40000000000003
  0
LINE
  5
107
100
AcDbEntity
  8
corner_standoffs
  6
ByLayer
 62
  256
370
   -1
100
AcDbLine
 10
505
 20
82.60000000000008
 11
499.9999999999995
 21
82.60000000000008
  0
LINE
  5
108
100
AcDbEntity
  8
corner_standoffs
  6
ByLayer
 62
  256
370
   -1
100
AcDbLine
 10
499.9999999999995
 20
75.50000000000006
 11
499.9999999999995
 21
73.40000000000003
  0
LINE
  5
109
100
AcDbEntity
  8
corner_standoffs
  6
ByLayer
 62
  256
370
   -1
100
AcDbLine
 10
499.9999999999995
 20
73.40000000000003
 11
504.9999999999995
 21
73.40000000000003
  0
LINE
  5
10A
100
AcDbEntity
  8
corner_standoffs
  6
ByLayer
 62
  256
370
   -1
100
AcDbLine
 10
499.9999999999995
 20
80.50000000000006
 11
499.9999999999995
 21
82.60000000000008
  0
LINE
  5
10B
100
AcDbEntity
  8
corner_standoffs
  6
ByLayer
 62
  256
370
   -1
100
AcDbLine
 10
499.9999999999995
 20
75.50000000000006
 11
495
 21
75.50000000000006
  0
LINE
  5
10C
100
AcDbEntity
  8
corner_standoffs
  6
ByLayer
 62
  256
370
   -1
100
AcDbLine
 10
495
 20
75.50000000000006
 11
495
 21
80.50000000000006
  0
LINE
  5
10D
100
AcDbEntity
  8
corner_standoffs
  6
ByLayer
 62
  256
370
   -1
100
AcDbLine
 10
495
 20
80.50000000000017
 11
499.9999999999995
 21
80.50000000000017
  0
LINE
  5
10E
100
AcDbEntity
  8
corner_standoffs
  6
ByLayer
 62
  256
370
   -1
100
AcDbLine
 10
472.9999999999998
 20
100.0000000000001
 11
472.9999999999998
 21
78.00000000000006
  0
LINE
  5
10F
100
AcDbEntity
  8
corner_standoffs
  6
ByLayer
 62
  256
370
   -1
100
AcDbLine
 10
488.9999999999998
 20
63.00000000000006
 11
510
 21
63.00000000000006
  0
LINE
  5
110
100
AcDbEntity
  8
corner_standoffs
  6
ByLayer
 62
  256
370
   -1
100
AcDbLine
 10
472.9999999999998
 20
78.00000000000006
 11
488.9999999999998
 21
63.00000000000006
  0
LINE
  5
111
100
AcDbEntity
  8
corner_standoffs
  6
ByLayer
 62
  256
370
   -1
100
AcDbLine
 10
510
 20
100
 11
510
 21
80.50000000000006
  0
LINE
  5
112
100
AcDbEntity
  8
corner_standoffs
  6
ByLayer
 62
  256
370
   -1
100
AcDbLine
 10
510
 20
75.50000000000017
 11
510
 21
63.00000000000006
  0
LINE
  5
113
100
AcDbEntity
  8
corner_standoffs
  6
ByLayer
 62
  256
370
   -1
100
AcDbLine
 10
490.5
 20
100
 11
490.4999999999998
 21
95.00000000000011
  0
LINE
  5
114
100
AcDbEntity
  8
corner_standoffs
  6
ByLayer
 62
  256
370
   -1
100
AcDbLine
 10
485.5
 20
100.0000000000001
 11
485.5
 21
95.00000000000011
  0
LINE
  5
115
100
AcDbEntity
  8
corner_standoffs
  6
ByLayer
 62
  256
370
   -1
100
AcDbLine
 10
485.5
 20
95.00000000000011
 11
483.3999999999999
 21
95.00000000000011
  0
LINE
  5
116
100
AcDbEntity
  8
corner_standoffs
  6
ByLayer
 62
  256
370
   -1
100
AcDbLine
 10
490.5
 20
95.00000000000011
 11
492.5999999999999
 21
95.00000000000011
  0
LINE
  5
117
100
AcDbEntity
  8
corner_standoffs
  6
ByLayer
 62
  256
370
   -1
100
AcDbLine
 10
483.3999999999999
 20
95.00000000000011
 11
483.3999999999999
 21
89.99999999999983
  0
LINE
  5
118
100
AcDbEntity
  8
corner_standoffs
  6
ByLayer
 62
  256
370
   -1
100
AcDbLine
 10
490.5
 20
89.99999999999983
 11
492.5999999999999
 21
89.99999999999983
  0
LINE
  5
119
100
AcDbEntity
  8
corner_standoffs
  6
ByLayer
 62
  256
370
   -1
100
AcDbLine
 10
492.5999999999999
 20
89.99999999999983
 11
492.5999999999999
 21
95.00000000000011
  0
LINE
  5
11A
100
AcDbEntity
  8
corner_standoffs
  6
ByLayer
 62
  256
370
   -1
100
AcDbLine
 10
485.5
 20
89.99999999999983
 11
483.3999999999999
 21
89.99999999999983
  0
LINE
  5
11B
100
AcDbEntity
  8
corner_standoffs
  6
ByLayer
 62
  256
370
   -1
100
AcDbLine
 10
485.5
 20
85.00000000000006
 11
485.5
 21
89.99999999999983
  0
LINE
  5
11C
100
AcDbEntity
  8
corner_standoffs
  6
ByLayer
 62
  256
370
   -1
100
AcDbLine
 10
490.5
 20
89.99999999999983
 11
490.5
 21
85.00000000000006
  0
LINE
  5
11D
100
AcDbEntity
  8
corner_standoffs
  6
ByLayer
 62
  256
370
   -1
100
AcDbLine
 10
490.5
 20
85.00000000000006
 11
485.5
 21
85.00000000000006
  0
LINE
  5
11E
100
AcDbEntity
  8
corner_standoffs
  6
ByLayer
 62
  256
370
   -1
100
AcDbLine
 10
472.9999999999998
 20
100
 11
485.5
 21
100
  0
LINE
  5
11F
100
AcDbEntity
  8
corner_standoffs
  6
ByLayer
 62
  256
370
   -1
100
AcDbLine
 10
490.5
 20
100
 11
510
 21
100
  0
LINE
  5
120
100
AcDbEntity
  8
corner_standoffs
  6
ByLayer
 62
  256
370
   -1
100
AcDbLine
 10
510.0000000000002
 20
124.4999999999999
 11
515.0000000000002
 21
124.4999999999998
  0
LINE
  5
121
100
AcDbEntity
  8
corner_standoffs
  6
ByLayer
 62
  256
370
   -1
100
AcDbLine
 10
510
 20
119.5
 11
515
 21
119.5
  0
LINE
  5
122
100
AcDbEntity
  8
corner_standoffs
  6
ByLayer
 62
  256
370
   -1
100
AcDbLine
 10
515
 20
119.5000000000001
 11
515
 21
117.4
  0
LINE
  5
123
100
AcDbEntity
  8
corner_standoffs
  6
ByLayer
 62
  256
370
   -1
100
AcDbLine
 10
515.0000000000002
 20
124.5
 11
515.0000000000002
 21
126.6
  0
LINE
  5
124
100
AcDbEntity
  8
corner_standoffs
  6
ByLayer
 62
  256
370
   -1
100
AcDbLine
 10
515
 20
117.4
 11
520.0000000000005
 21
117.4
  0
LINE
  5
125
100
AcDbEntity
  8
corner_standoffs
  6
ByLayer
 62
  256
370
   -1
100
AcDbLine
 10
520.0000000000005
 20
124.5
 11
520.0000000000005
 21
126.6
  0
LINE
  5
126
100
AcDbEntity
  8
corner_standoffs
  6
ByLayer
 62
  256
370
   -1
100
AcDbLine
 10
520.0000000000005
 20
126.6
 11
515.0000000000002
 21
126.6
  0
LINE
  5
127
100
AcDbEntity
  8
corner_standoffs
  6
ByLayer
 62
  256
370
   -1
100
AcDbLine
 10
520.0000000000005
 20
119.5
 11
520.0000000000005
 21
117.4
  0
LINE
  5
128
100
AcDbEntity
  8
corner_standoffs
  6
ByLayer
 62
  256
370
   -1
100
AcDbLine
 10
520.0000000000005
 20
124.5
 11
525
 21
124.5
  0
LINE
  5
129
100
AcDbEntity
  8
corner_standoffs
  6
ByLayer
 62
  256
370
   -1
100
AcDbLine
 10
525
 20
124.5
 11
525
 21
119.5
  0
LINE
  5
12A
100
AcDbEntity
  8
corner_standoffs
  6
ByLayer
 62
  256
370
   -1
100
AcDbLine
 10
525
 20
119.4999999999999
 11
520.0000000000005
 21
119.4999999999999
  0
LINE
  5
12B
100
AcDbEntity
  8
corner_standoffs
  6
ByLayer
 62
  256
370
   -1
100
AcDbLine
 10
547
 20
100
 11
547
 21
122
  0
LINE
  5
12C
100
AcDbEntity
  8
corner_standoffs
  6
ByLayer
 62
  256
370
   -1
100
AcDbLine
 10
531
 20
137
 11
510
 21
137
  0
LINE
  5
12D
100
AcDbEntity
  8
corner_standoffs
  6
ByLayer
 62
  256
370
   -1
100
AcDbLine
 10
547
 20
122
 11
531
 21
137
  0
LINE
  5
12E
100
AcDbEntity
  8
corner_standoffs
  6
ByLayer
 62
  256
370
   -1
100
AcDbLine
 10
510
 20
100
 11
510
 21
119.5
  0
LINE
  5
12F
100
AcDbEntity
  8
corner_standoffs
  6
ByLayer
 62
  256
370
   -1
100
AcDbLine
 10
510
 20
124.4999999999999
 11
510
 21
137
  0
LINE
  5
130
100
AcDbEntity
  8
corner_standoffs
  6
ByLayer
 62
  256
370
   -1
100
AcDbLine
 10
529.5
 20
100
 11
529.5000000000002
 21
105
  0
LINE
  5
131
100
AcDbEntity
  8
corner_standoffs
  6
ByLayer
 62
  256
370
   -1
100
AcDbLine
 10
534.5
 20
100
 11
534.5
 21
105
  0
LINE
  5
132
100
AcDbEntity
  8
corner_standoffs
  6
ByLayer
 62
  256
370
   -1
100
AcDbLine
 10
534.5
 20
105
 11
536.5999999999999
 21
105
  0
LINE
  5
133
100
AcDbEntity
  8
corner_standoffs
  6
ByLayer
 62
  256
370
   -1
100
AcDbLine
 10
529.5
 20
105
 11
527.4000000000001
 21
105
  0
LINE
  5
134
100
AcDbEntity
  8
corner_standoffs
  6
ByLayer
 62
  256
370
   -1
100
AcDbLine
 10
536.5999999999999
 20
105
 11
536.5999999999999
 21
110.0000000000002
  0
LINE
  5
135
100
AcDbEntity
  8
corner_standoffs
  6
ByLayer
 62
  256
370
   -1
100
AcDbLine
 10
529.5
 20
110.0000000000002
 11
527.4000000000001
 21
110.0000000000002
  0
LINE
  5
136
100
AcDbEntity
  8
corner_standoffs
  6
ByLayer
 62
  256
370
   -1
100
AcDbLine
 10
527.4000000000001
 20
110.0000000000002
 11
527.4000000000001
 21
105
  0
LINE
  5
137
100
AcDbEntity
  8
corner_standoffs
  6
ByLayer
 62
  256
370
   -1
100
AcDbLine
 10
534.5
 20
110.0000000000002
 11
536.5999999999999
 21
110.0000000000002
  0
LINE
  5
138
100
AcDbEntity
  8
corner_standoffs
  6
ByLayer
 62
  256
370
   -1
100
AcDbLine
 10
534.5
 20
115
 11
534.5
 21
110.0000000000002
  0
LINE
  5
139
100
AcDbEntity
  8
corner_standoffs
  6
ByLayer
 62
  256
370
   -1
100
AcDbLine
 10
529.5
 20
110.0000000000002
 11
529.5
 21
115
  0
LINE
  5
13A
100
AcDbEntity
  8
corner_standoffs
  6
ByLayer
 62
  256
370
   -1
100
AcDbLine
 10
529.5
 20
115
 11
534.5
 21
115
  0
LINE
  5
13B
100
AcDbEntity
  8
corner_standoffs
  6
ByLayer
 62
  256
370
   -1
100
AcDbLine
 10
510
 20
100.0000000000001
 11
529.5
 21
100.0000000000001
  0
LINE
  5
13C
100
AcDbEntity
  8
corner_standoffs
  6
ByLayer
 62
  256
370
   -1
100
AcDbLine
 10
534.5
 20
100.0000000000001
 11
547
 21
100.0000000000001
  0
CIRCLE
  5
13D
100
AcDbEntity
  8
corner_standoffs
  6
ByLayer
 62
  256
370
   -1
100
AcDbCircle
 10
500.0999999999999
 20
90.09999999999997
 40
2.3
  0
CIRCLE
  5
13E
100
AcDbEntity
  8
corner_standoffs
  6
ByLayer
 62
  256
370
   -1
100
AcDbCircle
 10
500.0999999999999
 20
109.9
 40
2.3
  0
CIRCLE
  5
13F
100
AcDbEntity
  8
corner_standoffs
  6
ByLayer
 62
  256
370
   -1
100
AcDbCircle
 10
519.9000000000001
 20
109.9000000000001
 40
2.3
  0
CIRCLE
  5
140
100
AcDbEntity
  8
corner_standoffs
  6
ByLayer
 62
  256
370
   -1
100
AcDbCircle
 10
519.9000000000001
 20
90.09999999999997
 40
2.3
  0
CIRCLE
  5
141
100
AcDbEntity
  8
corner_standoffs
  6
ByLayer
 62
  256
370
   -1
100
AcDbCircle
 10
606.9000000000003
 20
90.0999999999998
 40
2.5
  0
LINE
  5
142
100
AcDbEntity
  8
corner_standoffs
  6
ByLayer
 62
  256
370
   -1
100
AcDbLine
 10
597.0000000000002
 20
79.49999999999955
 11
602.0000000000002
 21
79.49999999999943
  0
LINE
  5
143
100
AcDbEntity
  8
corner_standoffs
  6
ByLayer
 62
  256
370
   -1
100
AcDbLine
 10
597.0000000000002
 20
74.49999999999966
 11
602.0000000000002
 21
74.49999999999966
  0
LINE
  5
144
100
AcDbEntity
  8
corner_standoffs
  6
ByLayer
 62
  256
370
   -1
100
AcDbLine
 10
602.0000000000002
 20
74.49999999999977
 11
602.0000000000002
 21
72.39999999999964
  0
LINE
  5
145
100
AcDbEntity
  8
corner_standoffs
  6
ByLayer
 62
  256
370
   -1
100
AcDbLine
 10
602.0000000000002
 20
79.49999999999966
 11
602.0000000000002
 21
81.59999999999962
  0
LINE
  5
146
100
AcDbEntity
  8
corner_standoffs
  6
ByLayer
 62
  256
370
   -1
100
AcDbLine
 10
602.0000000000002
 20
72.39999999999964
 11
607.0000000000005
 21
72.39999999999964
  0
LINE
  5
147
100
AcDbEntity
  8
corner_standoffs
  6
ByLayer
 62
  256
370
   -1
100
AcDbLine
 10
607.0000000000005
 20
79.49999999999966
 11
607.0000000000005
 21
81.59999999999962
  0
LINE
  5
148
100
AcDbEntity
  8
corner_standoffs
  6
ByLayer
 62
  256
370
   -1
100
AcDbLine
 10
607.0000000000005
 20
81.59999999999962
 11
602.0000000000002
 21
81.59999999999962
  0
LINE
  5
149
100
AcDbEntity
  8
corner_standoffs
  6
ByLayer
 62
  256
370
   -1
100
AcDbLine
 10
607.0000000000005
 20
74.49999999999966
 11
607.0000000000005
 21
72.39999999999964
  0
LINE
  5
14A
100
AcDbEntity
  8
corner_standoffs
  6
ByLayer
 62
  256
370
   -1
100
AcDbLine
 10
612.0000000000002
 20
74.49999999999966
 11
607.0000000000005
 21
74.49999999999966
  0
LINE
  5
14B
100
AcDbEntity
  8
corner_standoffs
  6
ByLayer
 62
  256
370
   -1
100
AcDbLine
 10
607.0000000000005
 20
79.49999999999966
 11
612.0000000000002
 21
79.49999999999966
  0
LINE
  5
14C
100
AcDbEntity
  8
corner_standoffs
  6
ByLayer
 62
  256
370
   -1
100
AcDbLine
 10
612.0000000000002
 20
79.49999999999966
 11
612.0000000000002
 21
74.49999999999966
  0
LINE
  5
14D
100
AcDbEntity
  8
corner_standoffs
  6
ByLayer
 62
  256
370
   -1
100
AcDbLine
 10
621.5000000000002
 20
99.99999999999966
 11
621.5
 21
94.99999999999966
  0
LINE
  5
14E
100
AcDbEntity
  8
corner_standoffs
  6
ByLayer
 62
  256
370
   -1
100
AcDbLine
 10
616.5000000000002
 20
99.99999999999977
 11
616.5000000000002
 21
94.99999999999977
  0
LINE
  5
14F
100
AcDbEntity
  8
corner_standoffs
  6
ByLayer
 62
  256
370
   -1
100
AcDbLine
 10
616.5000000000002
 20
94.99999999999977
 11
614.4000000000003
 21
94.99999999999977
  0
LINE
  5
150
100
AcDbEntity
  8
corner_standoffs
  6
ByLayer
 62
  256
370
   -1
100
AcDbLine
 10
621.5000000000002
 20
94.99999999999966
 11
623.6000000000001
 21
94.99999999999966
  0
LINE
  5
151
100
AcDbEntity
  8
corner_standoffs
  6
ByLayer
 62
  256
370
   -1
100
AcDbLine
 10
614.4000000000003
 20
94.99999999999977
 11
614.4000000000003
 21
89.99999999999955
  0
LINE
  5
152
100
AcDbEntity
  8
corner_standoffs
  6
ByLayer
 62
  256
370
   -1
100
AcDbLine
 10
621.5000000000002
 20
89.99999999999955
 11
623.6000000000001
 21
89.99999999999955
  0
LINE
  5
153
100
AcDbEntity
  8
corner_standoffs
  6
ByLayer
 62
  256
370
   -1
100
AcDbLine
 10
623.6000000000001
 20
89.99999999999955
 11
623.6000000000001
 21
94.99999999999966
  0
LINE
  5
154
100
AcDbEntity
  8
corner_standoffs
  6
ByLayer
 62
  256
370
   -1
100
AcDbLine
 10
616.5000000000002
 20
89.99999999999955
 11
614.4000000000003
 21
89.99999999999955
  0
LINE
  5
155
100
AcDbEntity
  8
corner_standoffs
  6
ByLayer
 62
  256
370
   -1
100
AcDbLine
 10
621.5000000000002
 20
89.99999999999955
 11
621.5000000000002
 21
84.99999999999989
  0
LINE
  5
156
100
AcDbEntity
  8
corner_standoffs
  6
ByLayer
 62
  256
370
   -1
100
AcDbLine
 10
621.5000000000002
 20
84.99999999999989
 11
616.5000000000002
 21
84.99999999999989
  0
LINE
  5
157
100
AcDbEntity
  8
corner_standoffs
  6
ByLayer
 62
  256
370
   -1
100
AcDbLine
 10
616.5000000000002
 20
84.99999999999989
 11
616.5000000000002
 21
89.99999999999955
  0
LINE
  5
158
100
AcDbEntity
  8
corner_standoffs
  6
ByLayer
 62
  256
370
   -1
100
AcDbLine
 10
597.0000000000002
 20
62.99999999999977
 11
619.0000000000002
 21
62.99999999999977
  0
LINE
  5
159
100
AcDbEntity
  8
corner_standoffs
  6
ByLayer
 62
  256
370
   -1
100
AcDbLine
 10
634.0000000000002
 20
78.99999999999977
 11
634.0000000000002
 21
99.99999999999983
  0
LINE
  5
15A
100
AcDbEntity
  8
corner_standoffs
  6
ByLayer
 62
  256
370
   -1
100
AcDbLine
 10
619.0000000000002
 20
62.99999999999977
 11
634.0000000000002
 21
78.99999999999977
  0
LINE
  5
15B
100
AcDbEntity
  8
corner_standoffs
  6
ByLayer
 62
  256
370
   -1
100
AcDbLine
 10
597.0000000000002
 20
99.99999999999983
 11
597.0000000000002
 21
79.49999999999955
  0
LINE
  5
15C
100
AcDbEntity
  8
corner_standoffs
  6
ByLayer
 62
  256
370
   -1
100
AcDbLine
 10
597.0000000000002
 20
74.49999999999966
 11
597.0000000000002
 21
62.99999999999977
  0
LINE
  5
15D
100
AcDbEntity
  8
corner_standoffs
  6
ByLayer
 62
  256
370
   -1
100
AcDbLine
 10
597.0000000000002
 20
99.99999999999989
 11
616.5000000000002
 21
99.99999999999989
  0
LINE
  5
15E
100
AcDbEntity
  8
corner_standoffs
  6
ByLayer
 62
  256
370
   -1
100
AcDbLine
 10
621.5000000000002
 20
99.99999999999989
 11
634.0000000000002
 21
99.99999999999989
  0
CIRCLE
  5
15F
100
AcDbEntity
  8
corner_standoffs
  6
ByLayer
 62
  256
370
   -1
100
AcDbCircle
 10
587.1000000000001
 20
109.8999999999999
 40
2.5
  0
LINE
  5
160
100
AcDbEntity
  8
corner_standoffs
  6
ByLayer
 62
  256
370
   -1
100
AcDbLine
 10
597.0000000000002
 20
120.5000000000002
 11
592.0000000000002
 21
120.5000000000003
  0
LINE
  5
161
100
AcDbEntity
  8
corner_standoffs
  6
ByLayer
 62
  256
370
   -1
100
AcDbLine
 10
597.0000000000002
 20
125.5000000000001
 11
592.0000000000002
 21
125.5000000000001
  0
LINE
  5
162
100
AcDbEntity
  8
corner_standoffs
  6
ByLayer
 62
  256
370
   -1
100
AcDbLine
 10
592.0000000000002
 20
125.4999999999999
 11
592.0000000000002
 21
127.6000000000001
  0
LINE
  5
163
100
AcDbEntity
  8
corner_standoffs
  6
ByLayer
 62
  256
370
   -1
100
AcDbLine
 10
592.0000000000002
 20
120.5000000000001
 11
592.0000000000002
 21
118.4000000000001
  0
LINE
  5
164
100
AcDbEntity
  8
corner_standoffs
  6
ByLayer
 62
  256
370
   -1
100
AcDbLine
 10
592.0000000000002
 20
127.6000000000001
 11
587
 21
127.6000000000001
  0
LINE
  5
165
100
AcDbEntity
  8
corner_standoffs
  6
ByLayer
 62
  256
370
   -1
100
AcDbLine
 10
587
 20
120.5000000000001
 11
587
 21
118.4000000000001
  0
LINE
  5
166
100
AcDbEntity
  8
corner_standoffs
  6
ByLayer
 62
  256
370
   -1
100
AcDbLine
 10
587
 20
118.4000000000001
 11
592.0000000000002
 21
118.4000000000001
  0
LINE
  5
167
100
AcDbEntity
  8
corner_standoffs
  6
ByLayer
 62
  256
370
   -1
100
AcDbLine
 10
587
 20
125.5000000000001
 11
587
 21
127.6000000000001
  0
LINE
  5
168
100
AcDbEntity
  8
corner_standoffs
  6
ByLayer
 62
  256
370
   -1
100
AcDbLine
 10
582.0000000000002
 20
125.5000000000001
 11
587
 21
125.5000000000001
  0
LINE
  5
169
100
AcDbEntity
  8
corner_standoffs
  6
ByLayer
 62
  256
370
   -1
100
AcDbLine
 10
587
 20
120.5000000000001
 11
582.0000000000002
 21
120.5000000000001
  0
LINE
  5
16A
100
AcDbEntity
  8
corner_standoffs
  6
ByLayer
 62
  256
370
   -1
100
AcDbLine
 10
582.0000000000002
 20
120.5000000000001
 11
582.0000000000002
 21
125.5000000000001
  0
LINE
  5
16B
100
AcDbEntity
  8
corner_standoffs
  6
ByLayer
 62
  256
370
   -1
100
AcDbLine
 10
572.5000000000002
 20
100.0000000000001
 11
572.5000000000005
 21
105.0000000000001
  0
LINE
  5
16C
100
AcDbEntity
  8
corner_standoffs
  6
ByLayer
 62
  256
370
   -1
100
AcDbLine
 10
577.5000000000002
 20
99.99999999999994
 11
577.5000000000002
 21
104.9999999999999
  0
LINE
  5
16D
100
AcDbEntity
  8
corner_standoffs
  6
ByLayer
 62
  256
370
   -1
100
AcDbLine
 10
577.5
 20
104.9999999999999
 11
579.6000000000001
 21
104.9999999999999
  0
LINE
  5
16E
100
AcDbEntity
  8
corner_standoffs
  6
ByLayer
 62
  256
370
   -1
100
AcDbLine
 10
572.5000000000002
 20
105.0000000000001
 11
570.4000000000001
 21
105.0000000000001
  0
LINE
  5
16F
100
AcDbEntity
  8
corner_standoffs
  6
ByLayer
 62
  256
370
   -1
100
AcDbLine
 10
579.6000000000001
 20
104.9999999999999
 11
579.6000000000001
 21
110.0000000000002
  0
LINE
  5
170
100
AcDbEntity
  8
corner_standoffs
  6
ByLayer
 62
  256
370
   -1
100
AcDbLine
 10
572.5000000000002
 20
110.0000000000002
 11
570.4000000000001
 21
110.0000000000002
  0
LINE
  5
171
100
AcDbEntity
  8
corner_standoffs
  6
ByLayer
 62
  256
370
   -1
100
AcDbLine
 10
570.4000000000001
 20
110.0000000000002
 11
570.4000000000001
 21
105.0000000000001
  0
LINE
  5
172
100
AcDbEntity
  8
corner_standoffs
  6
ByLayer
 62
  256
370
   -1
100
AcDbLine
 10
577.5000000000002
 20
110.0000000000002
 11
579.6000000000001
 21
110.0000000000002
  0
LINE
  5
173
100
AcDbEntity
  8
corner_standoffs
  6
ByLayer
 62
  256
370
   -1
100
AcDbLine
 10
572.5000000000002
 20
110.0000000000002
 11
572.5000000000002
 21
114.9999999999998
  0
LINE
  5
174
100
AcDbEntity
  8
corner_standoffs
  6
ByLayer
 62
  256
370
   -1
100
AcDbLine
 10
572.5000000000002
 20
114.9999999999998
 11
577.5000000000002
 21
114.9999999999998
  0
LINE
  5
175
100
AcDbEntity
  8
corner_standoffs
  6
ByLayer
 62
  256
370
   -1
100
AcDbLine
 10
577.5000000000002
 20
114.9999999999998
 11
577.5000000000002
 21
110.0000000000002
  0
LINE
  5
176
100
AcDbEntity
  8
corner_standoffs
  6
ByLayer
 62
  256
370
   -1
100
AcDbLine
 10
597.0000000000002
 20
136.9999999999999
 11
575.0000000000002
 21
136.9999999999999
  0
LINE
  5
177
100
AcDbEntity
  8
corner_standoffs
  6
ByLayer
 62
  256
370
   -1
100
AcDbLine
 10
560.0000000000002
 20
120.9999999999999
 11
560.0000000000002
 21
99.99999999999989
  0
LINE
  5
178
100
AcDbEntity
  8
corner_standoffs
  6
ByLayer
 62
  256
370
   -1
100
AcDbLine
 10
575.0000000000002
 20
136.9999999999999
 11
560.0000000000002
 21
120.9999999999999
  0
LINE
  5
179
100
AcDbEntity
  8
corner_standoffs
  6
ByLayer
 62
  256
370
   -1
100
AcDbLine
 10
597.0000000000002
 20
99.99999999999989
 11
597.0000000000002
 21
120.5000000000002
  0
LINE
  5
17A
100
AcDbEntity
  8
corner_standoffs
  6
ByLayer
 62
  256
370
   -1
100
AcDbLine
 10
597.0000000000002
 20
99.99999999999989
 11
577.5000000000002
 21
99.99999999999994
  0
LINE
  5
17B
100
AcDbEntity
  8
corner_standoffs
  6
ByLayer
 62
  256
370
   -1
100
AcDbLine
 10
572.5000000000002
 20
99.99999999999994
 11
560.0000000000002
 21
99.99999999999989
  0
LINE
  5
17C
100
AcDbEntity
  8
corner_standoffs
  6
ByLayer
 62
  256
370
   -1
100
AcDbLine
 10
560
 20
99.99999999999989
 11
572.5000000000002
 21
99.99999999999989
  0
LINE
  5
17D
100
AcDbEntity
  8
corner_standoffs
  6
ByLayer
 62
  256
370
   -1
100
AcDbLine
 10
577.5000000000002
 20
99.99999999999989
 11
597.0000000000002
 21
99.99999999999989
  0
LINE
  5
17E
100
AcDbEntity
  8
corner_standoffs
  6
ByLayer
 62
  256
370
   -1
100
AcDbLine
 10
597.0000000000002
 20
99.99999999999989
 11
597.0000000000002
 21
119.4999999999999
  0
LINE
  5
17F
100
AcDbEntity
  8
corner_standoffs
  6
ByLayer
 62
  256
370
   -1
100
AcDbLine
 10
597.0000000000002
 20
136.9999999999999
 11
597.0000000000002
 21
125.5000000000001
  0
LINE
  5
180
100
AcDbEntity
  8
corner_standoffs
  6
ByLayer
 62
  256
370
   -1
100
AcDbLine
 10
597.0000000000005
 20
99.99999999999989
 11
577.5000000000005
 21
99.99999999999994
  0
LINE
  5
181
100
AcDbEntity
  8
corner_standoffs
  6
ByLayer
 62
  256
370
   -1
100
AcDbLine
 10
572.5000000000005
 20
99.99999999999994
 11
560.0000000000005
 21
99.99999999999989
  0
CIRCLE
  5
182
100
AcDbEntity
  8
corner_standoffs
  6
ByLayer
 62
  256
370
   -1
100
AcDbCircle
 10
587.1000000000004
 20
90.09999999999985
 40
2.5
  0
LINE
  5
183
100
AcDbEntity
  8
corner_standoffs
  6
ByLayer
 62
  256
370
   -1
100
AcDbLine
 10
560
 20
100
 11
560
 21
77.99999999999994
  0
LINE
  5
184
100
AcDbEntity
  8
corner_standoffs
  6
ByLayer
 62
  256
370
   -1
100
AcDbLine
 10
576
 20
62.99999999999994
 11
597.0000000000005
 21
62.99999999999994
  0
LINE
  5
185
100
AcDbEntity
  8
corner_standoffs
  6
ByLayer
 62
  256
370
   -1
100
AcDbLine
 10
560
 20
77.99999999999994
 11
576
 21
62.99999999999994
  0
LINE
  5
186
100
AcDbEntity
  8
corner_standoffs
  6
ByLayer
 62
  256
370
   -1
100
AcDbLine
 10
577.5000000000005
 20
99.99999999999989
 11
577.5
 21
95
  0
LINE
  5
187
100
AcDbEntity
  8
corner_standoffs
  6
ByLayer
 62
  256
370
   -1
100
AcDbLine
 10
572.5000000000005
 20
100
 11
572.5000000000005
 21
95
  0
LINE
  5
188
100
AcDbEntity
  8
corner_standoffs
  6
ByLayer
 62
  256
370
   -1
100
AcDbLine
 10
572.5000000000005
 20
95
 11
570.4000000000001
 21
95
  0
LINE
  5
189
100
AcDbEntity
  8
corner_standoffs
  6
ByLayer
 62
  256
370
   -1
100
AcDbLine
 10
577.5000000000005
 20
95
 11
579.6000000000004
 21
95
  0
LINE
  5
18A
100
AcDbEntity
  8
corner_standoffs
  6
ByLayer
 62
  256
370
   -1
100
AcDbLine
 10
570.4000000000001
 20
95
 11
570.4000000000001
 21
89.99999999999972
  0
LINE
  5
18B
100
AcDbEntity
  8
corner_standoffs
  6
ByLayer
 62
  256
370
   -1
100
AcDbLine
 10
577.5000000000005
 20
89.99999999999972
 11
579.6000000000004
 21
89.99999999999972
  0
LINE
  5
18C
100
AcDbEntity
  8
corner_standoffs
  6
ByLayer
 62
  256
370
   -1
100
AcDbLine
 10
579.6000000000004
 20
89.99999999999972
 11
579.6000000000004
 21
95
  0
LINE
  5
18D
100
AcDbEntity
  8
corner_standoffs
  6
ByLayer
 62
  256
370
   -1
100
AcDbLine
 10
572.5000000000005
 20
89.99999999999972
 11
570.4000000000001
 21
89.99999999999972
  0
LINE
  5
18E
100
AcDbEntity
  8
corner_standoffs
  6
ByLayer
 62
  256
370
   -1
100
AcDbLine
 10
572.5000000000005
 20
84.99999999999994
 11
572.5000000000005
 21
89.99999999999972
  0
LINE
  5
18F
100
AcDbEntity
  8
corner_standoffs
  6
ByLayer
 62
  256
370
   -1
100
AcDbLine
 10
577.5000000000005
 20
89.99999999999972
 11
577.5000000000005
 21
84.99999999999994
  0
LINE
  5
190
100
AcDbEntity
  8
corner_standoffs
  6
ByLayer
 62
  256
370
   -1
100
AcDbLine
 10
577.5000000000005
 20
84.99999999999994
 11
572.5000000000005
 21
84.99999999999994
  0
LINE
  5
191
100
AcDbEntity
  8
corner_standoffs
  6
ByLayer
 62
  256
370
   -1
100
AcDbLine
 10
560
 20
99.99999999999989
 11
572.5000000000005
 21
99.99999999999989
  0
LINE
  5
192
100
AcDbEntity
  8
corner_standoffs
  6
ByLayer
 62
  256
370
   -1
100
AcDbLine
 10
577.5000000000005
 20
99.99999999999989
 11
597.0000000000005
 21
99.99999999999989
  0
LINE
  5
193
100
AcDbEntity
  8
corner_standoffs
  6
ByLayer
 62
  256
370
   -1
100
AcDbLine
 10
597
 20
74.49999999999983
 11
592
 21
74.49999999999994
  0
LINE
  5
194
100
AcDbEntity
  8
corner_standoffs
  6
ByLayer
 62
  256
370
   -1
100
AcDbLine
 10
597.0000000000005
 20
79.49999999999972
 11
592.0000000000005
 21
79.49999999999972
  0
LINE
  5
195
100
AcDbEntity
  8
corner_standoffs
  6
ByLayer
 62
  256
370
   -1
100
AcDbLine
 10
592.0000000000005
 20
79.4999999999996
 11
592.0000000000005
 21
81.59999999999974
  0
LINE
  5
196
100
AcDbEntity
  8
corner_standoffs
  6
ByLayer
 62
  256
370
   -1
100
AcDbLine
 10
592
 20
74.49999999999972
 11
592
 21
72.39999999999969
  0
LINE
  5
197
100
AcDbEntity
  8
corner_standoffs
  6
ByLayer
 62
  256
370
   -1
100
AcDbLine
 10
592.0000000000005
 20
81.59999999999974
 11
587
 21
81.59999999999974
  0
LINE
  5
198
100
AcDbEntity
  8
corner_standoffs
  6
ByLayer
 62
  256
370
   -1
100
AcDbLine
 10
587
 20
74.49999999999972
 11
587
 21
72.39999999999969
  0
LINE
  5
199
100
AcDbEntity
  8
corner_standoffs
  6
ByLayer
 62
  256
370
   -1
100
AcDbLine
 10
587
 20
72.39999999999969
 11
592
 21
72.39999999999969
  0
LINE
  5
19A
100
AcDbEntity
  8
corner_standoffs
  6
ByLayer
 62
  256
370
   -1
100
AcDbLine
 10
587
 20
79.49999999999972
 11
587
 21
81.59999999999974
  0
LINE
  5
19B
100
AcDbEntity
  8
corner_standoffs
  6
ByLayer
 62
  256
370
   -1
100
AcDbLine
 10
587
 20
74.49999999999972
 11
582.0000000000005
 21
74.49999999999972
  0
LINE
  5
19C
100
AcDbEntity
  8
corner_standoffs
  6
ByLayer
 62
  256
370
   -1
100
AcDbLine
 10
582.0000000000005
 20
74.49999999999972
 11
582.0000000000005
 21
79.49999999999972
  0
LINE
  5
19D
100
AcDbEntity
  8
corner_standoffs
  6
ByLayer
 62
  256
370
   -1
100
AcDbLine
 10
582.0000000000005
 20
79.49999999999983
 11
587
 21
79.49999999999983
  0
LINE
  5
19E
100
AcDbEntity
  8
corner_standoffs
  6
ByLayer
 62
  256
370
   -1
100
AcDbLine
 10
597.0000000000005
 20
99.99999999999989
 11
597.0000000000005
 21
79.49999999999972
  0
LINE
  5
19F
100
AcDbEntity
  8
corner_standoffs
  6
ByLayer
 62
  256
370
   -1
100
AcDbLine
 10
597.0000000000005
 20
74.49999999999983
 11
597.0000000000005
 21
62.99999999999989
  0
LINE
  5
1A0
100
AcDbEntity
  8
corner_standoffs
  6
ByLayer
 62
  256
370
   -1
100
AcDbLine
 10
621.5000000000002
 20
99.99999999999977
 11
634.0000000000002
 21
99.99999999999983
  0
CIRCLE
  5
1A1
100
AcDbEntity
  8
corner_standoffs
  6
ByLayer
 62
  256
370
   -1
100
AcDbCircle
 10
606.9000000000003
 20
109.8999999999999
 40
2.5
  0
LINE
  5
1A2
100
AcDbEntity
  8
corner_standoffs
  6
ByLayer
 62
  256
370
   -1
100
AcDbLine
 10
634.0000000000002
 20
99.99999999999983
 11
634.0000000000002
 21
121.9999999999998
  0
LINE
  5
1A3
100
AcDbEntity
  8
corner_standoffs
  6
ByLayer
 62
  256
370
   -1
100
AcDbLine
 10
618.0000000000002
 20
136.9999999999998
 11
597.0000000000002
 21
136.9999999999998
  0
LINE
  5
1A4
100
AcDbEntity
  8
corner_standoffs
  6
ByLayer
 62
  256
370
   -1
100
AcDbLine
 10
634.0000000000002
 20
121.9999999999998
 11
618.0000000000002
 21
136.9999999999998
  0
LINE
  5
1A5
100
AcDbEntity
  8
corner_standoffs
  6
ByLayer
 62
  256
370
   -1
100
AcDbLine
 10
616.5000000000002
 20
99.99999999999983
 11
616.5000000000005
 21
104.9999999999998
  0
LINE
  5
1A6
100
AcDbEntity
  8
corner_standoffs
  6
ByLayer
 62
  256
370
   -1
100
AcDbLine
 10
621.5000000000002
 20
99.99999999999983
 11
621.5000000000002
 21
104.9999999999998
  0
LINE
  5
1A7
100
AcDbEntity
  8
corner_standoffs
  6
ByLayer
 62
  256
370
   -1
100
AcDbLine
 10
621.5000000000002
 20
104.9999999999998
 11
623.6000000000001
 21
104.9999999999998
  0
LINE
  5
1A8
100
AcDbEntity
  8
corner_standoffs
  6
ByLayer
 62
  256
370
   -1
100
AcDbLine
 10
616.5000000000002
 20
104.9999999999998
 11
614.4000000000003
 21
104.9999999999998
  0
LINE
  5
1A9
100
AcDbEntity
  8
corner_standoffs
  6
ByLayer
 62
  256
370
   -1
100
AcDbLine
 10
623.6000000000001
 20
104.9999999999998
 11
623.6000000000001
 21
110.0000000000001
  0
LINE
  5
1AA
100
AcDbEntity
  8
corner_standoffs
  6
ByLayer
 62
  256
370
   -1
100
AcDbLine
 10
616.5000000000002
 20
110.0000000000001
 11
614.4000000000003
 21
110.0000000000001
  0
LINE
  5
1AB
100
AcDbEntity
  8
corner_standoffs
  6
ByLayer
 62
  256
370
   -1
100
AcDbLine
 10
614.4000000000003
 20
110.0000000000001
 11
614.4000000000003
 21
104.9999999999998
  0
LINE
  5
1AC
100
AcDbEntity
  8
corner_standoffs
  6
ByLayer
 62
  256
370
   -1
100
AcDbLine
 10
621.5000000000002
 20
110.0000000000001
 11
623.6000000000001
 21
110.0000000000001
  0
LINE
  5
1AD
100
AcDbEntity
  8
corner_standoffs
  6
ByLayer
 62
  256
370
   -1
100
AcDbLine
 10
621.5000000000002
 20
114.9999999999998
 11
621.5000000000002
 21
110.0000000000001
  0
LINE
  5
1AE
100
AcDbEntity
  8
corner_standoffs
  6
ByLayer
 62
  256
370
   -1
100
AcDbLine
 10
616.5000000000002
 20
110.0000000000001
 11
616.5000000000002
 21
114.9999999999998
  0
LINE
  5
1AF
100
AcDbEntity
  8
corner_standoffs
  6
ByLayer
 62
  256
370
   -1
100
AcDbLine
 10
616.5000000000002
 20
114.9999999999998
 11
621.5000000000002
 21
114.9999999999998
  0
LINE
  5
1B0
100
AcDbEntity
  8
corner_standoffs
  6
ByLayer
 62
  256
370
   -1
100
AcDbLine
 10
597.0000000000002
 20
99.99999999999989
 11
616.5000000000002
 21
99.99999999999989
  0
LINE
  5
1B1
100
AcDbEntity
  8
corner_standoffs
  6
ByLayer
 62
  256
370
   -1
100
AcDbLine
 10
597.0000000000005
 20
125.4999999999995
 11
602.0000000000005
 21
125.4999999999994
  0
LINE
  5
1B2
100
AcDbEntity
  8
corner_standoffs
  6
ByLayer
 62
  256
370
   -1
100
AcDbLine
 10
597.0000000000002
 20
120.4999999999997
 11
602.0000000000002
 21
120.4999999999997
  0
LINE
  5
1B3
100
AcDbEntity
  8
corner_standoffs
  6
ByLayer
 62
  256
370
   -1
100
AcDbLine
 10
602.0000000000002
 20
120.4999999999998
 11
602.0000000000002
 21
118.3999999999996
  0
LINE
  5
1B4
100
AcDbEntity
  8
corner_standoffs
  6
ByLayer
 62
  256
370
   -1
100
AcDbLine
 10
602.0000000000005
 20
125.4999999999997
 11
602.0000000000005
 21
127.5999999999997
  0
LINE
  5
1B5
100
AcDbEntity
  8
corner_standoffs
  6
ByLayer
 62
  256
370
   -1
100
AcDbLine
 10
602.0000000000002
 20
118.3999999999996
 11
607.0000000000007
 21
118.3999999999996
  0
LINE
  5
1B6
100
AcDbEntity
  8
corner_standoffs
  6
ByLayer
 62
  256
370
   -1
100
AcDbLine
 10
607.0000000000007
 20
125.4999999999997
 11
607.0000000000007
 21
127.5999999999997
  0
LINE
  5
1B7
100
AcDbEntity
  8
corner_standoffs
  6
ByLayer
 62
  256
370
   -1
100
AcDbLine
 10
607.0000000000007
 20
127.5999999999997
 11
602.0000000000005
 21
127.5999999999997
  0
LINE
  5
1B8
100
AcDbEntity
  8
corner_standoffs
  6
ByLayer
 62
  256
370
   -1
100
AcDbLine
 10
607.0000000000007
 20
120.4999999999997
 11
607.0000000000007
 21
118.3999999999996
  0
LINE
  5
1B9
100
AcDbEntity
  8
corner_standoffs
  6
ByLayer
 62
  256
370
   -1
100
AcDbLine
 10
607.0000000000007
 20
125.4999999999997
 11
612.0000000000002
 21
125.4999999999997
  0
LINE
  5
1BA
100
AcDbEntity
  8
corner_standoffs
  6
ByLayer
 62
  256
370
   -1
100
AcDbLine
 10
612.0000000000002
 20
125.4999999999997
 11
612.0000000000002
 21
120.4999999999997
  0
LINE
  5
1BB
100
AcDbEntity
  8
corner_standoffs
  6
ByLayer
 62
  256
370
   -1
100
AcDbLine
 10
612.0000000000002
 20
120.4999999999995
 11
607.0000000000007
 21
120.4999999999995
  0
LINE
  5
1BC
100
AcDbEntity
  8
corner_standoffs
  6
ByLayer
 62
  256
370
   -1
100
AcDbLine
 10
597.0000000000005
 20
136.9999999999998
 11
597.0000000000005
 21
125.4999999999995
  0
LINE
  5
1BD
100
AcDbEntity
  8
corner_standoffs
  6
ByLayer
 62
  256
370
   -1
100
AcDbLine
 10
597.0000000000005
 20
120.4999999999997
 11
597.0000000000005
 21
99.99999999999983
  0
LINE
  5
1BE
100
AcDbEntity
  8
corner_standoffs
  6
ByLayer
 62
  256
370
   -1
100
AcDbLine
 10
679.0000000000002
 20
79.49999999999955
 11
684.0000000000002
 21
79.49999999999943
  0
LINE
  5
1BF
100
AcDbEntity
  8
corner_standoffs
  6
ByLayer
 62
  256
370
   -1
100
AcDbLine
 10
679.0000000000002
 20
74.49999999999966
 11
684.0000000000002
 21
74.49999999999966
  0
LINE
  5
1C0
100
AcDbEntity
  8
corner_standoffs
  6
ByLayer
 62
  256
370
   -1
100
AcDbLine
 10
684.0000000000002
 20
74.49999999999977
 11
684.0000000000002
 21
72.39999999999964
  0
LINE
  5
1C1
100
AcDbEntity
  8
corner_standoffs
  6
ByLayer
 62
  256
370
   -1
100
AcDbLine
 10
684.0000000000002
 20
79.49999999999966
 11
684.0000000000002
 21
81.59999999999962
  0
LINE
  5
1C2
100
AcDbEntity
  8
corner_standoffs
  6
ByLayer
 62
  256
370
   -1
100
AcDbLine
 10
684.0000000000002
 20
72.39999999999964
 11
689.0000000000005
 21
72.39999999999964
  0
LINE
  5
1C3
100
AcDbEntity
  8
corner_standoffs
  6
ByLayer
 62
  256
370
   -1
100
AcDbLine
 10
689.0000000000005
 20
79.49999999999966
 11
689.0000000000005
 21
81.59999999999962
  0
LINE
  5
1C4
100
AcDbEntity
  8
corner_standoffs
  6
ByLayer
 62
  256
370
   -1
100
AcDbLine
 10
689.0000000000005
 20
81.59999999999962
 11
684.0000000000002
 21
81.59999999999962
  0
LINE
  5
1C5
100
AcDbEntity
  8
corner_standoffs
  6
ByLayer
 62
  256
370
   -1
100
AcDbLine
 10
689.0000000000005
 20
74.49999999999966
 11
689.0000000000005
 21
72.39999999999964
  0
LINE
  5
1C6
100
AcDbEntity
  8
corner_standoffs
  6
ByLayer
 62
  256
370
   -1
100
AcDbLine
 10
694.0000000000002
 20
74.49999999999966
 11
689.0000000000005
 21
74.49999999999966
  0
LINE
  5
1C7
100
AcDbEntity
  8
corner_standoffs
  6
ByLayer
 62
  256
370
   -1
100
AcDbLine
 10
689.0000000000005
 20
79.49999999999966
 11
694.0000000000002
 21
79.49999999999966
  0
LINE
  5
1C8
100
AcDbEntity
  8
corner_standoffs
  6
ByLayer
 62
  256
370
   -1
100
AcDbLine
 10
694.0000000000002
 20
79.49999999999966
 11
694.0000000000002
 21
74.49999999999966
  0
LINE
  5
1C9
100
AcDbEntity
  8
corner_standoffs
  6
ByLayer
 62
  256
370
   -1
100
AcDbLine
 10
703.5000000000002
 20
99.99999999999966
 11
703.5
 21
94.99999999999966
  0
LINE
  5
1CA
100
AcDbEntity
  8
corner_standoffs
  6
ByLayer
 62
  256
370
   -1
100
AcDbLine
 10
698.5000000000002
 20
99.99999999999977
 11
698.5000000000002
 21
94.99999999999977
  0
LINE
  5
1CB
100
AcDbEntity
  8
corner_standoffs
  6
ByLayer
 62
  256
370
   -1
100
AcDbLine
 10
698.5000000000002
 20
94.99999999999977
 11
696.4000000000003
 21
94.99999999999977
  0
LINE
  5
1CC
100
AcDbEntity
  8
corner_standoffs
  6
ByLayer
 62
  256
370
   -1
100
AcDbLine
 10
703.5000000000002
 20
94.99999999999966
 11
705.6000000000001
 21
94.99999999999966
  0
LINE
  5
1CD
100
AcDbEntity
  8
corner_standoffs
  6
ByLayer
 62
  256
370
   -1
100
AcDbLine
 10
696.4000000000003
 20
94.99999999999977
 11
696.4000000000003
 21
89.99999999999955
  0
LINE
  5
1CE
100
AcDbEntity
  8
corner_standoffs
  6
ByLayer
 62
  256
370
   -1
100
AcDbLine
 10
703.5000000000002
 20
89.99999999999955
 11
705.6000000000001
 21
89.99999999999955
  0
LINE
  5
1CF
100
AcDbEntity
  8
corner_standoffs
  6
ByLayer
 62
  256
370
   -1
100
AcDbLine
 10
705.6000000000001
 20
89.99999999999955
 11
705.6000000000001
 21
94.99999999999966
  0
LINE
  5
1D0
100
AcDbEntity
  8
corner_standoffs
  6
ByLayer
 62
  256
370
   -1
100
AcDbLine
 10
698.5000000000002
 20
89.99999999999955
 11
696.4000000000003
 21
89.99999999999955
  0
LINE
  5
1D1
100
AcDbEntity
  8
corner_standoffs
  6
ByLayer
 62
  256
370
   -1
100
AcDbLine
 10
703.5000000000002
 20
89.99999999999955
 11
703.5000000000002
 21
84.99999999999989
  0
LINE
  5
1D2
100
AcDbEntity
  8
corner_standoffs
  6
ByLayer
 62
  256
370
   -1
100
AcDbLine
 10
703.5000000000002
 20
84.99999999999989
 11
698.5000000000002
 21
84.99999999999989
  0
LINE
  5
1D3
100
AcDbEntity
  8
corner_standoffs
  6
ByLayer
 62
  256
370
   -1
100
AcDbLine
 10
698.5000000000002
 20
84.99999999999989
 11
698.5000000000002
 21
89.99999999999955
  0
LINE
  5
1D4
100
AcDbEntity
  8
corner_standoffs
  6
ByLayer
 62
  256
370
   -1
100
AcDbLine
 10
679.0000000000002
 20
62.99999999999977
 11
701.0000000000002
 21
62.99999999999977
  0
LINE
  5
1D5
100
AcDbEntity
  8
corner_standoffs
  6
ByLayer
 62
  256
370
   -1
100
AcDbLine
 10
716.0000000000002
 20
78.99999999999977
 11
716.0000000000002
 21
99.99999999999983
  0
LINE
  5
1D6
100
AcDbEntity
  8
corner_standoffs
  6
ByLayer
 62
  256
370
   -1
100
AcDbLine
 10
701.0000000000002
 20
62.99999999999977
 11
716.0000000000002
 21
78.99999999999977
  0
LINE
  5
1D7
100
AcDbEntity
  8
corner_standoffs
  6
ByLayer
 62
  256
370
   -1
100
AcDbLine
 10
679.0000000000002
 20
99.99999999999983
 11
679.0000000000002
 21
79.49999999999955
  0
LINE
  5
1D8
100
AcDbEntity
  8
corner_standoffs
  6
ByLayer
 62
  256
370
   -1
100
AcDbLine
 10
679.0000000000002
 20
74.49999999999966
 11
679.0000000000002
 21
62.99999999999977
  0
LINE
  5
1D9
100
AcDbEntity
  8
corner_standoffs
  6
ByLayer
 62
  256
370
   -1
100
AcDbLine
 10
679.0000000000002
 20
99.99999999999989
 11
698.5000000000002
 21
99.99999999999989
  0
LINE
  5
1DA
100
AcDbEntity
  8
corner_standoffs
  6
ByLayer
 62
  256
370
   -1
100
AcDbLine
 10
703.5000000000002
 20
99.99999999999989
 11
716.0000000000002
 21
99.99999999999989
  0
LINE
  5
1DB
100
AcDbEntity
  8
corner_standoffs
  6
ByLayer
 62
  256
370
   -1
100
AcDbLine
 10
679.0000000000002
 20
120.5000000000002
 11
674.0000000000002
 21
120.5000000000003
  0
LINE
  5
1DC
100
AcDbEntity
  8
corner_standoffs
  6
ByLayer
 62
  256
370
   -1
100
AcDbLine
 10
679.0000000000002
 20
125.5000000000001
 11
674.0000000000002
 21
125.5000000000001
  0
LINE
  5
1DD
100
AcDbEntity
  8
corner_standoffs
  6
ByLayer
 62
  256
370
   -1
100
AcDbLine
 10
674.0000000000002
 20
125.4999999999999
 11
674.0000000000002
 21
127.6000000000001
  0
LINE
  5
1DE
100
AcDbEntity
  8
corner_standoffs
  6
ByLayer
 62
  256
370
   -1
100
AcDbLine
 10
674.0000000000002
 20
120.5000000000001
 11
674.0000000000002
 21
118.4000000000001
  0
LINE
  5
1DF
100
AcDbEntity
  8
corner_standoffs
  6
ByLayer
 62
  256
370
   -1
100
AcDbLine
 10
674.0000000000002
 20
127.6000000000001
 11
669
 21
127.6000000000001
  0
LINE
  5
1E0
100
AcDbEntity
  8
corner_standoffs
  6
ByLayer
 62
  256
370
   -1
100
AcDbLine
 10
669
 20
120.5000000000001
 11
669
 21
118.4000000000001
  0
LINE
  5
1E1
100
AcDbEntity
  8
corner_standoffs
  6
ByLayer
 62
  256
370
   -1
100
AcDbLine
 10
669
 20
118.4000000000001
 11
674.0000000000002
 21
118.4000000000001
  0
LINE
  5
1E2
100
AcDbEntity
  8
corner_standoffs
  6
ByLayer
 62
  256
370
   -1
100
AcDbLine
 10
669
 20
125.5000000000001
 11
669
 21
127.6000000000001
  0
LINE
  5
1E3
100
AcDbEntity
  8
corner_standoffs
  6
ByLayer
 62
  256
370
   -1
100
AcDbLine
 10
664.0000000000002
 20
125.5000000000001
 11
669
 21
125.5000000000001
  0
LINE
  5
1E4
100
AcDbEntity
  8
corner_standoffs
  6
ByLayer
 62
  256
370
   -1
100
AcDbLine
 10
669
 20
120.5000000000001
 11
664.0000000000002
 21
120.5000000000001
  0
LINE
  5
1E5
100
AcDbEntity
  8
corner_standoffs
  6
ByLayer
 62
  256
370
   -1
100
AcDbLine
 10
664.0000000000002
 20
120.5000000000001
 11
664.0000000000002
 21
125.5000000000001
  0
LINE
  5
1E6
100
AcDbEntity
  8
corner_standoffs
  6
ByLayer
 62
  256
370
   -1
100
AcDbLine
 10
654.5000000000002
 20
100.0000000000001
 11
654.5000000000005
 21
105.0000000000001
  0
LINE
  5
1E7
100
AcDbEntity
  8
corner_standoffs
  6
ByLayer
 62
  256
370
   -1
100
AcDbLine
 10
659.5000000000002
 20
99.99999999999994
 11
659.5000000000002
 21
104.9999999999999
  0
LINE
  5
1E8
100
AcDbEntity
  8
corner_standoffs
  6
ByLayer
 62
  256
370
   -1
100
AcDbLine
 10
659.5
 20
104.9999999999999
 11
661.6000000000001
 21
104.9999999999999
  0
LINE
  5
1E9
100
AcDbEntity
  8
corner_standoffs
  6
ByLayer
 62
  256
370
   -1
100
AcDbLine
 10
654.5000000000002
 20
105.0000000000001
 11
652.4000000000001
 21
105.0000000000001
  0
LINE
  5
1EA
100
AcDbEntity
  8
corner_standoffs
  6
ByLayer
 62
  256
370
   -1
100
AcDbLine
 10
661.6000000000001
 20
104.9999999999999
 11
661.6000000000001
 21
110.0000000000002
  0
LINE
  5
1EB
100
AcDbEntity
  8
corner_standoffs
  6
ByLayer
 62
  256
370
   -1
100
AcDbLine
 10
654.5000000000002
 20
110.0000000000002
 11
652.4000000000001
 21
110.0000000000002
  0
LINE
  5
1EC
100
AcDbEntity
  8
corner_standoffs
  6
ByLayer
 62
  256
370
   -1
100
AcDbLine
 10
652.4000000000001
 20
110.0000000000002
 11
652.4000000000001
 21
105.0000000000001
  0
LINE
  5
1ED
100
AcDbEntity
  8
corner_standoffs
  6
ByLayer
 62
  256
370
   -1
100
AcDbLine
 10
659.5000000000002
 20
110.0000000000002
 11
661.6000000000001
 21
110.0000000000002
  0
LINE
  5
1EE
100
AcDbEntity
  8
corner_standoffs
  6
ByLayer
 62
  256
370
   -1
100
AcDbLine
 10
654.5000000000002
 20
110.0000000000002
 11
654.5000000000002
 21
114.9999999999998
  0
LINE
  5
1EF
100
AcDbEntity
  8
corner_standoffs
  6
ByLayer
 62
  256
370
   -1
100
AcDbLine
 10
654.5000000000002
 20
114.9999999999998
 11
659.5000000000002
 21
114.9999999999998
  0
LINE
  5
1F0
100
AcDbEntity
  8
corner_standoffs
  6
ByLayer
 62
  256
370
   -1
100
AcDbLine
 10
659.5000000000002
 20
114.9999999999998
 11
659.5000000000002
 21
110.0000000000002
  0
LINE
  5
1F1
100
AcDbEntity
  8
corner_standoffs
  6
ByLayer
 62
  256
370
   -1
100
AcDbLine
 10
679.0000000000002
 20
136.9999999999999
 11
657.0000000000002
 21
136.9999999999999
  0
LINE
  5
1F2
100
AcDbEntity
  8
corner_standoffs
  6
ByLayer
 62
  256
370
   -1
100
AcDbLine
 10
642.0000000000002
 20
120.9999999999999
 11
642.0000000000002
 21
99.99999999999989
  0
LINE
  5
1F3
100
AcDbEntity
  8
corner_standoffs
  6
ByLayer
 62
  256
370
   -1
100
AcDbLine
 10
657.0000000000002
 20
136.9999999999999
 11
642.0000000000002
 21
120.9999999999999
  0
LINE
  5
1F4
100
AcDbEntity
  8
corner_standoffs
  6
ByLayer
 62
  256
370
   -1
100
AcDbLine
 10
679.0000000000002
 20
99.99999999999989
 11
679.0000000000002
 21
120.5000000000002
  0
LINE
  5
1F5
100
AcDbEntity
  8
corner_standoffs
  6
ByLayer
 62
  256
370
   -1
100
AcDbLine
 10
679.0000000000002
 20
99.99999999999989
 11
659.5000000000002
 21
99.99999999999994
  0
LINE
  5
1F6
100
AcDbEntity
  8
corner_standoffs
  6
ByLayer
 62
  256
370
   -1
100
AcDbLine
 10
654.5000000000002
 20
99.99999999999994
 11
642.0000000000002
 21
99.99999999999989
  0
LINE
  5
1F7
100
AcDbEntity
  8
corner_standoffs
  6
ByLayer
 62
  256
370
   -1
100
AcDbLine
 10
642
 20
99.99999999999989
 11
654.5000000000002
 21
99.99999999999989
  0
LINE
  5
1F8
100
AcDbEntity
  8
corner_standoffs
  6
ByLayer
 62
  256
370
   -1
100
AcDbLine
 10
659.5000000000002
 20
99.99999999999989
 11
679.0000000000002
 21
99.99999999999989
  0
LINE
  5
1F9
100
AcDbEntity
  8
corner_standoffs
  6
ByLayer
 62
  256
370
   -1
100
AcDbLine
 10
679.0000000000002
 20
99.99999999999989
 11
679.0000000000002
 21
119.4999999999999
  0
LINE
  5
1FA
100
AcDbEntity
  8
corner_standoffs
  6
ByLayer
 62
  256
370
   -1
100
AcDbLine
 10
679.0000000000002
 20
136.9999999999999
 11
679.0000000000002
 21
125.5000000000001
  0
LINE
  5
1FB
100
AcDbEntity
  8
corner_standoffs
  6
ByLayer
 62
  256
370
   -1
100
AcDbLine
 10
679.0000000000005
 20
99.99999999999989
 11
659.5000000000005
 21
99.99999999999994
  0
LINE
  5
1FC
100
AcDbEntity
  8
corner_standoffs
  6
ByLayer
 62
  256
370
   -1
100
AcDbLine
 10
654.5000000000005
 20
99.99999999999994
 11
642.0000000000005
 21
99.99999999999989
  0
LINE
  5
1FD
100
AcDbEntity
  8
corner_standoffs
  6
ByLayer
 62
  256
370
   -1
100
AcDbLine
 10
642
 20
100
 11
642
 21
77.99999999999994
  0
LINE
  5
1FE
100
AcDbEntity
  8
corner_standoffs
  6
ByLayer
 62
  256
370
   -1
100
AcDbLine
 10
658
 20
62.99999999999994
 11
679.0000000000005
 21
62.99999999999994
  0
LINE
  5
1FF
100
AcDbEntity
  8
corner_standoffs
  6
ByLayer
 62
  256
370
   -1
100
AcDbLine
 10
642
 20
77.99999999999994
 11
658
 21
62.99999999999994
  0
LINE
  5
200
100
AcDbEntity
  8
corner_standoffs
  6
ByLayer
 62
  256
370
   -1
100
AcDbLine
 10
659.5000000000005
 20
99.99999999999989
 11
659.5
 21
95
  0
LINE
  5
201
100
AcDbEntity
  8
corner_standoffs
  6
ByLayer
 62
  256
370
   -1
100
AcDbLine
 10
654.5000000000005
 20
100
 11
654.5000000000005
 21
95
  0
LINE
  5
202
100
AcDbEntity
  8
corner_standoffs
  6
ByLayer
 62
  256
370
   -1
100
AcDbLine
 10
654.5000000000005
 20
95
 11
652.4000000000001
 21
95
  0
LINE
  5
203
100
AcDbEntity
  8
corner_standoffs
  6
ByLayer
 62
  256
370
   -1
100
AcDbLine
 10
659.5000000000005
 20
95
 11
661.6000000000004
 21
95
  0
LINE
  5
204
100
AcDbEntity
  8
corner_standoffs
  6
ByLayer
 62
  256
370
   -1
100
AcDbLine
 10
652.4000000000001
 20
95
 11
652.4000000000001
 21
89.99999999999972
  0
LINE
  5
205
100
AcDbEntity
  8
corner_standoffs
  6
ByLayer
 62
  256
370
   -1
100
AcDbLine
 10
659.5000000000005
 20
89.99999999999972
 11
661.6000000000004
 21
89.99999999999972
  0
LINE
  5
206
100
AcDbEntity
  8
corner_standoffs
  6
ByLayer
 62
  256
370
   -1
100
AcDbLine
 10
661.6000000000004
 20
89.99999999999972
 11
661.6000000000004
 21
95
  0
LINE
  5
207
100
AcDbEntity
  8
corner_standoffs
  6
ByLayer
 62
  256
370
   -1
100
AcDbLine
 10
654.5000000000005
 20
89.99999999999972
 11
652.4000000000001
 21
89.99999999999972
  0
LINE
  5
208
100
AcDbEntity
  8
corner_standoffs
  6
ByLayer
 62
  256
370
   -1
100
AcDbLine
 10
654.5000000000005
 20
84.99999999999994
 11
654.5000000000005
 21
89.99999999999972
  0
LINE
  5
209
100
AcDbEntity
  8
corner_standoffs
  6
ByLayer
 62
  256
370
   -1
100
AcDbLine
 10
659.5000000000005
 20
89.99999999999972
 11
659.5000000000005
 21
84.99999999999994
  0
LINE
  5
20A
100
AcDbEntity
  8
corner_standoffs
  6
ByLayer
 62
  256
370
   -1
100
AcDbLine
 10
659.5000000000005
 20
84.99999999999994
 11
654.5000000000005
 21
84.99999999999994
  0
LINE
  5
20B
100
AcDbEntity
  8
corner_standoffs
  6
ByLayer
 62
  256
370
   -1
100
AcDbLine
 10
642
 20
99.99999999999989
 11
654.5000000000005
 21
99.99999999999989
  0
LINE
  5
20C
100
AcDbEntity
  8
corner_standoffs
  6
ByLayer
 62
  256
370
   -1
100
AcDbLine
 10
659.5000000000005
 20
99.99999999999989
 11
679.0000000000005
 21
99.99999999999989
  0
LINE
  5
20D
100
AcDbEntity
  8
corner_standoffs
  6
ByLayer
 62
  256
370
   -1
100
AcDbLine
 10
679
 20
74.49999999999983
 11
674
 21
74.49999999999994
  0
LINE
  5
20E
100
AcDbEntity
  8
corner_standoffs
  6
ByLayer
 62
  256
370
   -1
100
AcDbLine
 10
679.0000000000005
 20
79.49999999999972
 11
674.0000000000005
 21
79.49999999999972
  0
LINE
  5
20F
100
AcDbEntity
  8
corner_standoffs
  6
ByLayer
 62
  256
370
   -1
100
AcDbLine
 10
674.0000000000005
 20
79.4999999999996
 11
674.0000000000005
 21
81.59999999999974
  0
LINE
  5
210
100
AcDbEntity
  8
corner_standoffs
  6
ByLayer
 62
  256
370
   -1
100
AcDbLine
 10
674
 20
74.49999999999972
 11
674
 21
72.39999999999969
  0
LINE
  5
211
100
AcDbEntity
  8
corner_standoffs
  6
ByLayer
 62
  256
370
   -1
100
AcDbLine
 10
674.0000000000005
 20
81.59999999999974
 11
669
 21
81.59999999999974
  0
LINE
  5
212
100
AcDbEntity
  8
corner_standoffs
  6
ByLayer
 62
  256
370
   -1
100
AcDbLine
 10
669
 20
74.49999999999972
 11
669
 21
72.39999999999969
  0
LINE
  5
213
100
AcDbEntity
  8
corner_standoffs
  6
ByLayer
 62
  256
370
   -1
100
AcDbLine
 10
669
 20
72.39999999999969
 11
674
 21
72.39999999999969
  0
LINE
  5
214
100
AcDbEntity
  8
corner_standoffs
  6
ByLayer
 62
  256
370
   -1
100
AcDbLine
 10
669
 20
79.49999999999972
 11
669
 21
81.59999999999974
  0
LINE
  5
215
100
AcDbEntity
  8
corner_standoffs
  6
ByLayer
 62
  256
370
   -1
100
AcDbLine
 10
669
 20
74.49999999999972
 11
664.0000000000005
 21
74.49999999999972
  0
LINE
  5
216
100
AcDbEntity
  8
corner_standoffs
  6
ByLayer
 62
  256
370
   -1
100
AcDbLine
 10
664.0000000000005
 20
74.49999999999972
 11
664.0000000000005
 21
79.49999999999972
  0
LINE
  5
217
100
AcDbEntity
  8
corner_standoffs
  6
ByLayer
 62
  256
370
   -1
100
AcDbLine
 10
664.0000000000005
 20
79.49999999999983
 11
669
 21
79.49999999999983
  0
LINE
  5
218
100
AcDbEntity
  8
corner_standoffs
  6
ByLayer
 62
  256
370
   -1
100
AcDbLine
 10
679.0000000000005
 20
99.99999999999989
 11
679.0000000000005
 21
79.49999999999972
  0
LINE
  5
219
100
AcDbEntity
  8
corner_standoffs
  6
ByLayer
 62
  256
370
   -1
100
AcDbLine
 10
679.0000000000005
 20
74.49999999999983
 11
679.0000000000005
 21
62.99999999999989
  0
LINE
  5
21A
100
AcDbEntity
  8
corner_standoffs
  6
ByLayer
 62
  256
370
   -1
100
AcDbLine
 10
703.5000000000002
 20
99.99999999999977
 11
716.0000000000002
 21
99.99999999999983
  0
LINE
  5
21B
100
AcDbEntity
  8
corner_standoffs
  6
ByLayer
 62
  256
370
   -1
100
AcDbLine
 10
716.0000000000002
 20
99.99999999999983
 11
716.0000000000002
 21
121.9999999999998
  0
LINE
  5
21C
100
AcDbEntity
  8
corner_standoffs
  6
ByLayer
 62
  256
370
   -1
100
AcDbLine
 10
700.0000000000002
 20
136.9999999999998
 11
679.0000000000002
 21
136.9999999999998
  0
LINE
  5
21D
100
AcDbEntity
  8
corner_standoffs
  6
ByLayer
 62
  256
370
   -1
100
AcDbLine
 10
716.0000000000002
 20
121.9999999999998
 11
700.0000000000002
 21
136.9999999999998
  0
LINE
  5
21E
100
AcDbEntity
  8
corner_standoffs
  6
ByLayer
 62
  256
370
   -1
100
AcDbLine
 10
698.5000000000002
 20
99.99999999999983
 11
698.5000000000005
 21
104.9999999999998
  0
LINE
  5
21F
100
AcDbEntity
  8
corner_standoffs
  6
ByLayer
 62
  256
370
   -1
100
AcDbLine
 10
703.5000000000002
 20
99.99999999999983
 11
703.5000000000002
 21
104.9999999999998
  0
LINE
  5
220
100
AcDbEntity
  8
corner_standoffs
  6
ByLayer
 62
  256
370
   -1
100
AcDbLine
 10
703.5000000000002
 20
104.9999999999998
 11
705.6000000000001
 21
104.9999999999998
  0
LINE
  5
221
100
AcDbEntity
  8
corner_standoffs
  6
ByLayer
 62
  256
370
   -1
100
AcDbLine
 10
698.5000000000002
 20
104.9999999999998
 11
696.4000000000003
 21
104.9999999999998
  0
LINE
  5
222
100
AcDbEntity
  8
corner_standoffs
  6
ByLayer
 62
  256
370
   -1
100
AcDbLine
 10
705.6000000000001
 20
104.9999999999998
 11
705.6000000000001
 21
110.0000000000001
  0
LINE
  5
223
100
AcDbEntity
  8
corner_standoffs
  6
ByLayer
 62
  256
370
   -1
100
AcDbLine
 10
698.5000000000002
 20
110.0000000000001
 11
696.4000000000003
 21
110.0000000000001
  0
LINE
  5
224
100
AcDbEntity
  8
corner_standoffs
  6
ByLayer
 62
  256
370
   -1
100
AcDbLine
 10
696.4000000000003
 20
110.0000000000001
 11
696.4000000000003
 21
104.9999999999998
  0
LINE
  5
225
100
AcDbEntity
  8
corner_standoffs
  6
ByLayer
 62
  256
370
   -1
100
AcDbLine
 10
703.5000000000002
 20
110.0000000000001
 11
705.6000000000001
 21
110.0000000000001
  0
LINE
  5
226
100
AcDbEntity
  8
corner_standoffs
  6
ByLayer
 62
  256
370
   -1
100
AcDbLine
 10
703.5000000000002
 20
114.9999999999998
 11
703.5000000000002
 21
110.0000000000001
  0
LINE
  5
227
100
AcDbEntity
  8
corner_standoffs
  6
ByLayer
 62
  256
370
   -1
100
AcDbLine
 10
698.5000000000002
 20
110.0000000000001
 11
698.5000000000002
 21
114.9999999999998
  0
LINE
  5
228
100
AcDbEntity
  8
corner_standoffs
  6
ByLayer
 62
  256
370
   -1
100
AcDbLine
 10
698.5000000000002
 20
114.9999999999998
 11
703.5000000000002
 21
114.9999999999998
  0
LINE
  5
229
100
AcDbEntity
  8
corner_standoffs
  6
ByLayer
 62
  256
370
   -1
100
AcDbLine
 10
679.0000000000002
 20
99.99999999999989
 11
698.5000000000002
 21
99.99999999999989
  0
LINE
  5
22A
100
AcDbEntity
  8
corner_standoffs
  6
ByLayer
 62
  256
370
   -1
100
AcDbLine
 10
679.0000000000005
 20
125.4999999999995
 11
684.0000000000005
 21
125.4999999999994
  0
LINE
  5
22B
100
AcDbEntity
  8
corner_standoffs
  6
ByLayer
 62
  256
370
   -1
100
AcDbLine
 10
679.0000000000002
 20
120.4999999999997
 11
684.0000000000002
 21
120.4999999999997
  0
LINE
  5
22C
100
AcDbEntity
  8
corner_standoffs
  6
ByLayer
 62
  256
370
   -1
100
AcDbLine
 10
684.0000000000002
 20
120.4999999999998
 11
684.0000000000002
 21
118.3999999999996
  0
LINE
  5
22D
100
AcDbEntity
  8
corner_standoffs
  6
ByLayer
 62
  256
370
   -1
100
AcDbLine
 10
684.0000000000005
 20
125.4999999999997
 11
684.0000000000005
 21
127.5999999999997
  0
LINE
  5
22E
100
AcDbEntity
  8
corner_standoffs
  6
ByLayer
 62
  256
370
   -1
100
AcDbLine
 10
684.0000000000002
 20
118.3999999999996
 11
689.0000000000007
 21
118.3999999999996
  0
LINE
  5
22F
100
AcDbEntity
  8
corner_standoffs
  6
ByLayer
 62
  256
370
   -1
100
AcDbLine
 10
689.0000000000007
 20
125.4999999999997
 11
689.0000000000007
 21
127.5999999999997
  0
LINE
  5
230
100
AcDbEntity
  8
corner_standoffs
  6
ByLayer
 62
  256
370
   -1
100
AcDbLine
 10
689.0000000000007
 20
127.5999999999997
 11
684.0000000000005
 21
127.5999999999997
  0
LINE
  5
231
100
AcDbEntity
  8
corner_standoffs
  6
ByLayer
 62
  256
370
   -1
100
AcDbLine
 10
689.0000000000007
 20
120.4999999999997
 11
689.0000000000007
 21
118.3999999999996
  0
LINE
  5
232
100
AcDbEntity
  8
corner_standoffs
  6
ByLayer
 62
  256
370
   -1
100
AcDbLine
 10
689.0000000000007
 20
125.4999999999997
 11
694.0000000000002
 21
125.4999999999997
  0
LINE
  5
233
100
AcDbEntity
  8
corner_standoffs
  6
ByLayer
 62
  256
370
   -1
100
AcDbLine
 10
694.0000000000002
 20
125.4999999999997
 11
694.0000000000002
 21
120.4999999999997
  0
LINE
  5
234
100
AcDbEntity
  8
corner_standoffs
  6
ByLayer
 62
  256
370
   -1
100
AcDbLine
 10
694.0000000000002
 20
120.4999999999995
 11
689.0000000000007
 21
120.4999999999995
  0
LINE
  5
235
100
AcDbEntity
  8
corner_standoffs
  6
ByLayer
 62
  256
370
   -1
100
AcDbLine
 10
679.0000000000005
 20
136.9999999999998
 11
679.0000000000005
 21
125.4999999999995
  0
LINE
  5
236
100
AcDbEntity
  8
corner_standoffs
  6
ByLayer
 62
  256
370
   -1
100
AcDbLine
 10
679.0000000000005
 20
120.4999999999997
 11
679.0000000000005
 21
99.99999999999983
  0
CIRCLE
  5
237
100
AcDbEntity
  8
corner_standoffs
  6
ByLayer
 62
  256
370
   -1
100
AcDbCircle
 10
669.1000000000001
 20
109.8999999999999
 40
2.3
  0
CIRCLE
  5
238
100
AcDbEntity
  8
corner_standoffs
  6
ByLayer
 62
  256
370
   -1
100
AcDbCircle
 10
688.9000000000003
 20
109.8999999999999
 40
2.3
  0
CIRCLE
  5
239
100
AcDbEntity
  8
corner_standoffs
  6
ByLayer
 62
  256
370
   -1
100
AcDbCircle
 10
688.9000000000003
 20
90.0999999999998
 40
2.3
  0
CIRCLE
  5
23A
100
AcDbEntity
  8
corner_standoffs
  6
ByLayer
 62
  256
370
   -1
100
AcDbCircle
 10
669.1000000000004
 20
90.09999999999985
 40
2.3
  0
CIRCLE
  5
23B
100
AcDbEntity
  8
sidewalls_second_layer
  6
ByLayer
 62
  256
370
   -1
100
AcDbCircle
 10
91
 20
56
 40
2.5
  0
CIRCLE
  5
23C
100
AcDbEntity
  8
sidewalls_second_layer
  6
ByLayer
 62
  256
370
   -1
100
AcDbCircle
 10
91
 20
85.5
 40
2.49999999999996
  0
LINE
  5
23D
100
AcDbEntity
  8
sidewalls_second_layer
  6
ByLayer
 62
  256
370
   -1
100
AcDbLine
 10
-60
 20
50
 11
-60
 21
89.5
  0
LINE
  5
23E
100
AcDbEntity
  8
sidewalls_second_layer
  6
ByLayer
 62
  256
370
   -1
100
AcDbLine
 10
114
 20
49.99999999999955
 11
114
 21
89.5
  0
LINE
  5
23F
100
AcDbEntity
  8
sidewalls_second_layer
  6
ByLayer
 62
  256
370
   -1
100
AcDbLine
 10
114
 20
89.5
 11
-60
 21
89.5
  0
LINE
  5
240
100
AcDbEntity
  8
sidewalls_second_layer
  6
ByLayer
 62
  256
370
   -1
100
AcDbLine
 10
-60
 20
50
 11
114
 21
50
  0
CIRCLE
  5
241
100
AcDbEntity
  8
sidewalls_second_layer
  6
ByLayer
 62
  256
370
   -1
100
AcDbCircle
 10
64.5
 20
70
 40
17
  0
CIRCLE
  5
242
100
AcDbEntity
  8
sidewalls_second_layer
  6
ByLayer
 62
  256
370
   -1
100
AcDbCircle
 10
-37
 20
56
 40
2.49999999999996
  0
CIRCLE
  5
243
100
AcDbEntity
  8
sidewalls_second_layer
  6
ByLayer
 62
  256
370
   -1
100
AcDbCircle
 10
-37
 20
85.5
 40
2.49999999999996
  0
LINE
  5
244
100
AcDbEntity
  8
sidewalls_second_layer
  6
ByLayer
 62
  256
370
   -1
100
AcDbLine
 10
150
 20
89.5
 11
150
 21
50
  0
LINE
  5
245
100
AcDbEntity
  8
sidewalls_second_layer
  6
ByLayer
 62
  256
370
   -1
100
AcDbLine
 10
324
 20
50
 11
324
 21
89.5
  0
LINE
  5
246
100
AcDbEntity
  8
sidewalls_second_layer
  6
ByLayer
 62
  256
370
   -1
100
AcDbLine
 10
150
 20
50
 11
324
 21
50
  0
CIRCLE
  5
247
100
AcDbEntity
  8
sidewalls_second_layer
  6
ByLayer
 62
  256
370
   -1
100
AcDbCircle
 10
173
 20
56
 40
2.5
  0
CIRCLE
  5
248
100
AcDbEntity
  8
sidewalls_second_layer
  6
ByLayer
 62
  256
370
   -1
100
AcDbCircle
 10
173
 20
85.5
 40
2.5
  0
CIRCLE
  5
249
100
AcDbEntity
  8
sidewalls_second_layer
  6
ByLayer
 62
  256
370
   -1
100
AcDbCircle
 10
275
 20
70
 40
17
  0
CIRCLE
  5
24A
100
AcDbEntity
  8
sidewalls_second_layer
  6
ByLayer
 62
  256
370
   -1
100
AcDbCircle
 10
235.5
 20
70
 40
17
  0
CIRCLE
  5
24B
100
AcDbEntity
  8
sidewalls_second_layer
  6
ByLayer
 62
  256
370
   -1
100
AcDbCircle
 10
195.5
 20
70
 40
17
  0
LINE
  5
24C
100
AcDbEntity
  8
sidewalls_second_layer
  6
ByLayer
 62
  256
370
   -1
100
AcDbLine
 10
150
 20
89.5
 11
324
 21
89.5
  0
CIRCLE
  5
24D
100
AcDbEntity
  8
sidewalls_second_layer
  6
ByLayer
 62
  256
370
   -1
100
AcDbCircle
 10
301
 20
56
 40
2.5
  0
CIRCLE
  5
24E
100
AcDbEntity
  8
sidewalls_second_layer
  6
ByLayer
 62
  256
370
   -1
100
AcDbCircle
 10
301
 20
85.5
 40
2.5
  0
LINE
  5
24F
100
AcDbEntity
  8
sidewalls_second_layer
  6
ByLayer
 62
  256
370
   -1
100
AcDbLine
 10
304
 20
159.4999999999996
 11
304
 21
119.9999999999998
  0
LINE
  5
250
100
AcDbEntity
  8
sidewalls_second_layer
  6
ByLayer
 62
  256
370
   -1
100
AcDbLine
 10
304
 20
119.9999999999998
 11
-49.99999999999977
 21
120
  0
LINE
  5
251
100
AcDbEntity
  8
sidewalls_second_layer
  6
ByLayer
 62
  256
370
   -1
100
AcDbLine
 10
-49.99999999999977
 20
120
 11
-49.99999999999977
 21
159.5000000000001
  0
LINE
  5
252
100
AcDbEntity
  8
sidewalls_second_layer
  6
ByLayer
 62
  256
370
   -1
100
AcDbLine
 10
-49.99999999999977
 20
159.5000000000001
 11
304
 21
159.4999999999999
  0
CIRCLE
  5
253
100
AcDbEntity
  8
sidewalls_second_layer
  6
ByLayer
 62
  256
370
   -1
100
AcDbCircle
 10
276.9999999999995
 20
125.9999999999997
 40
2.49999999999994
  0
CIRCLE
  5
254
100
AcDbEntity
  8
sidewalls_second_layer
  6
ByLayer
 62
  256
370
   -1
100
AcDbCircle
 10
276.9999999999995
 20
155.4999999999997
 40
2.5
  0
CIRCLE
  5
255
100
AcDbEntity
  8
sidewalls_second_layer
  6
ByLayer
 62
  256
370
   -1
100
AcDbCircle
 10
-23.00000000000045
 20
125.9999999999999
 40
2.5
  0
CIRCLE
  5
256
100
AcDbEntity
  8
sidewalls_second_layer
  6
ByLayer
 62
  256
370
   -1
100
AcDbCircle
 10
-23.00000000000045
 20
155.5
 40
2.49999999999998
  0
LINE
  5
257
100
AcDbEntity
  8
sidewalls_second_layer
  6
ByLayer
 62
  256
370
   -1
100
AcDbLine
 10
-50
 20
174.9999999999999
 11
-50
 21
214.4999999999999
  0
LINE
  5
258
100
AcDbEntity
  8
sidewalls_second_layer
  6
ByLayer
 62
  256
370
   -1
100
AcDbLine
 10
-50
 20
214.4999999999999
 11
304
 21
214.4999999999999
  0
LINE
  5
259
100
AcDbEntity
  8
sidewalls_second_layer
  6
ByLayer
 62
  256
370
   -1
100
AcDbLine
 10
304
 20
214.4999999999999
 11
304
 21
174.9999999999999
  0
LINE
  5
25A
100
AcDbEntity
  8
sidewalls_second_layer
  6
ByLayer
 62
  256
370
   -1
100
AcDbLine
 10
304
 20
174.9999999999999
 11
-50
 21
174.9999999999999
  0
CIRCLE
  5
25B
100
AcDbEntity
  8
sidewalls_second_layer
  6
ByLayer
 62
  256
370
   -1
100
AcDbCircle
 10
-23
 20
181.0000000000001
 40
2.5
  0
CIRCLE
  5
25C
100
AcDbEntity
  8
sidewalls_second_layer
  6
ByLayer
 62
  256
370
   -1
100
AcDbCircle
 10
-23
 20
210.5000000000001
 40
2.5
  0
CIRCLE
  5
25D
100
AcDbEntity
  8
sidewalls_second_layer
  6
ByLayer
 62
  256
370
   -1
100
AcDbCircle
 10
135
 20
197.4999999999999
 40
10
  0
CIRCLE
  5
25E
100
AcDbEntity
  8
sidewalls_second_layer
  6
ByLayer
 62
  256
370
   -1
100
AcDbCircle
 10
277
 20
181.0000000000001
 40
2.5
  0
CIRCLE
  5
25F
100
AcDbEntity
  8
sidewalls_second_layer
  6
ByLayer
 62
  256
370
   -1
100
AcDbCircle
 10
277
 20
210.5000000000001
 40
2.5
  0
CIRCLE
  5
260
100
AcDbEntity
  8
Sidewalls
  6
ByLayer
 62
  256
370
   -1
100
AcDbCircle
 10
95.99999999999977
 20
246
 40
2.5
  0
CIRCLE
  5
261
100
AcDbEntity
  8
Sidewalls
  6
ByLayer
 62
  256
370
   -1
100
AcDbCircle
 10
95.99999999999977
 20
275.5
 40
2.49999999999996
  0
CIRCLE
  5
262
100
AcDbEntity
  8
Sidewalls
  6
ByLayer
 62
  256
370
   -1
100
AcDbCircle
 10
69.49999999999977
 20
260
 40
12.5
  0
LINE
  5
263
100
AcDbEntity
  8
Sidewalls
  6
ByLayer
 62
  256
370
   -1
100
AcDbLine
 10
124
 20
239.9999999999995
 11
124
 21
285
  0
LINE
  5
264
100
AcDbEntity
  8
Sidewalls
  6
ByLayer
 62
  256
370
   -1
100
AcDbLine
 10
-60
 20
240
 11
124
 21
240
  0
LINE
  5
265
100
AcDbEntity
  8
Sidewalls
  6
ByLayer
 62
  256
370
   -1
100
AcDbLine
 10
-60
 20
240
 11
-60
 21
285
  0
LINE
  5
266
100
AcDbEntity
  8
Sidewalls
  6
ByLayer
 62
  256
370
   -1
100
AcDbLine
 10
-60
 20
285
 11
124
 21
285
  0
CIRCLE
  5
267
100
AcDbEntity
  8
Sidewalls
  6
ByLayer
 62
  256
370
   -1
100
AcDbCircle
 10
-32.00000000000023
 20
246
 40
2.49999999999996
  0
CIRCLE
  5
268
100
AcDbEntity
  8
Sidewalls
  6
ByLayer
 62
  256
370
   -1
100
AcDbCircle
 10
-32.00000000000023
 20
275.5
 40
2.49999999999996
  0
CIRCLE
  5
269
100
AcDbEntity
  8
Sidewalls
  6
ByLayer
 62
  256
370
   -1
100
AcDbCircle
 10
178
 20
245.9999999999999
 40
2.5
  0
CIRCLE
  5
26A
100
AcDbEntity
  8
Sidewalls
  6
ByLayer
 62
  256
370
   -1
100
AcDbCircle
 10
178
 20
275.4999999999999
 40
2.5
  0
CIRCLE
  5
26B
100
AcDbEntity
  8
Sidewalls
  6
ByLayer
 62
  256
370
   -1
100
AcDbCircle
 10
280.5
 20
259.9999999999999
 40
12.5
  0
CIRCLE
  5
26C
100
AcDbEntity
  8
Sidewalls
  6
ByLayer
 62
  256
370
   -1
100
AcDbCircle
 10
240.5
 20
259.9999999999999
 40
12.5
  0
CIRCLE
  5
26D
100
AcDbEntity
  8
Sidewalls
  6
ByLayer
 62
  256
370
   -1
100
AcDbCircle
 10
200.5
 20
259.9999999999999
 40
12.5
  0
LINE
  5
26E
100
AcDbEntity
  8
Sidewalls
  6
ByLayer
 62
  256
370
   -1
100
AcDbLine
 10
150
 20
240
 11
150
 21
284.9999999999999
  0
LINE
  5
26F
100
AcDbEntity
  8
Sidewalls
  6
ByLayer
 62
  256
370
   -1
100
AcDbLine
 10
150
 20
240.0000000000001
 11
334
 21
240.0000000000001
  0
LINE
  5
270
100
AcDbEntity
  8
Sidewalls
  6
ByLayer
 62
  256
370
   -1
100
AcDbLine
 10
334
 20
240.0000000000001
 11
334
 21
284.9999999999999
  0
LINE
  5
271
100
AcDbEntity
  8
Sidewalls
  6
ByLayer
 62
  256
370
   -1
100
AcDbLine
 10
334
 20
284.9999999999999
 11
150
 21
284.9999999999999
  0
CIRCLE
  5
272
100
AcDbEntity
  8
Sidewalls
  6
ByLayer
 62
  256
370
   -1
100
AcDbCircle
 10
306
 20
245.9999999999999
 40
2.5
  0
CIRCLE
  5
273
100
AcDbEntity
  8
Sidewalls
  6
ByLayer
 62
  256
370
   -1
100
AcDbCircle
 10
306
 20
275.4999999999999
 40
2.5
  0
LINE
  5
274
100
AcDbEntity
  8
Sidewalls
  6
ByLayer
 62
  256
370
   -1
100
AcDbLine
 10
310
 20
309.9999999999999
 11
310
 21
354.9999999999999
  0
CIRCLE
  5
275
100
AcDbEntity
  8
Sidewalls
  6
ByLayer
 62
  256
370
   -1
100
AcDbCircle
 10
280
 20
315.9999999999999
 40
2.49999999999994
  0
CIRCLE
  5
276
100
AcDbEntity
  8
Sidewalls
  6
ByLayer
 62
  256
370
   -1
100
AcDbCircle
 10
280
 20
345.4999999999999
 40
2.5
  0
LINE
  5
277
100
AcDbEntity
  8
Sidewalls
  6
ByLayer
 62
  256
370
   -1
100
AcDbLine
 10
310
 20
354.9999999999999
 11
-50
 21
355
  0
LINE
  5
278
100
AcDbEntity
  8
Sidewalls
  6
ByLayer
 62
  256
370
   -1
100
AcDbLine
 10
-50
 20
355
 11
-50
 21
310
  0
LINE
  5
279
100
AcDbEntity
  8
Sidewalls
  6
ByLayer
 62
  256
370
   -1
100
AcDbLine
 10
-50
 20
310
 11
310
 21
309.9999999999999
  0
CIRCLE
  5
27A
100
AcDbEntity
  8
Sidewalls
  6
ByLayer
 62
  256
370
   -1
100
AcDbCircle
 10
-20
 20
316.0000000000002
 40
2.5
  0
CIRCLE
  5
27B
100
AcDbEntity
  8
Sidewalls
  6
ByLayer
 62
  256
370
   -1
100
AcDbCircle
 10
-20
 20
345.5000000000002
 40
2.49999999999998
  0
CIRCLE
  5
27C
100
AcDbEntity
  8
Sidewalls
  6
ByLayer
 62
  256
370
   -1
100
AcDbCircle
 10
138
 20
392.5
 40
7.8
  0
LINE
  5
27D
100
AcDbEntity
  8
Sidewalls
  6
ByLayer
 62
  256
370
   -1
100
AcDbLine
 10
-50
 20
370
 11
-50
 21
415
  0
CIRCLE
  5
27E
100
AcDbEntity
  8
Sidewalls
  6
ByLayer
 62
  256
370
   -1
100
AcDbCircle
 10
-20
 20
376
 40
2.5
  0
CIRCLE
  5
27F
100
AcDbEntity
  8
Sidewalls
  6
ByLayer
 62
  256
370
   -1
100
AcDbCircle
 10
-20
 20
405.5
 40
2.5
  0
LINE
  5
280
100
AcDbEntity
  8
Sidewalls
  6
ByLayer
 62
  256
370
   -1
100
AcDbLine
 10
-50
 20
370
 11
310
 21
370
  0
LINE
  5
281
100
AcDbEntity
  8
Sidewalls
  6
ByLayer
 62
  256
370
   -1
100
AcDbLine
 10
310
 20
370
 11
310
 21
415
  0
LINE
  5
282
100
AcDbEntity
  8
Sidewalls
  6
ByLayer
 62
  256
370
   -1
100
AcDbLine
 10
310
 20
415
 11
-50
 21
415
  0
CIRCLE
  5
283
100
AcDbEntity
  8
Sidewalls
  6
ByLayer
 62
  256
370
   -1
100
AcDbCircle
 10
280
 20
376
 40
2.5
  0
CIRCLE
  5
284
100
AcDbEntity
  8
Sidewalls
  6
ByLayer
 62
  256
370
   -1
100
AcDbCircle
 10
280
 20
405.5
 40
2.5
  0
ENDSEC
  0
SECTION
  2
OBJECTS
  0
DICTIONARY
  5
C
330
0
100
AcDbDictionary
281
    1
  3
ACAD_GROUP
350
D
  0
DICTIONARY
  5
D
330
C
100
AcDbDictionary
281
    1
  0
PLOTSETTINGS
  5
285
100
AcDbPlotSettings
  6
1x1
 40
0
 41
0
 42
0
 43
0
  0
ENDSEC
  0
EOF
