999
dxfrw 0.6.3
  0
SECTION
  2
HEADER
  9
$ACADVER
  1
AC1021
  9
$DWGCODEPAGE
  3
ANSI_1252
  9
$INSBASE
 10
0
 20
0
 30
0
  9
$EXTMIN
 10
-587
 20
-285.232
 30
0
  9
$EXTMAX
 10
587.4285724444444
 20
478
 30
0
  9
$LIMMIN
 10
0
 20
0
  9
$LIMMAX
 10
420
 20
297
  9
$ORTHOMODE
 70
    0
  9
$REGENMODE
 70
    1
  9
$FILLMODE
 70
    1
  9
$QTEXTMODE
 70
    0
  9
$MIRRTEXT
 70
    0
  9
$LTSCALE
 40
1
  9
$ATTMODE
 70
    0
  9
$TEXTSIZE
 40
2.5
  9
$TRACEWID
 40
15.68
  9
$TEXTSTYLE
  7
STANDARD
  9
$CLAYER
  8
0
  9
$CELTYPE
  6
BYLAYER
  9
$CECOLOR
 62
  256
  9
$CELTSCALE
 40
1
  9
$DISPSILH
 70
    0
  9
$DIMSCALE
 40
1
  9
$DIMASZ
 40
2.5
  9
$DIMEXO
 40
0.625
  9
$DIMDLI
 40
3.75
  9
$DIMRND
 40
0
  9
$DIMDLE
 40
0
  9
$DIMEXE
 40
1.25
  9
$DIMTP
 40
0
  9
$DIMTM
 40
0
  9
$DIMTXT
 40
2.5
  9
$DIMCEN
 40
2.5
  9
$DIMTSZ
 40
0
  9
$DIMTOL
 70
    0
  9
$DIMLIM
 70
    0
  9
$DIMTIH
 70
    0
  9
$DIMTOH
 70
    0
  9
$DIMSE1
 70
    0
  9
$DIMSE2
 70
    0
  9
$DIMTAD
 70
    1
  9
$DIMZIN
 70
    8
  9
$DIMBLK
  1

  9
$DIMASO
 70
    1
  9
$DIMSHO
 70
    1
  9
$DIMPOST
  1

  9
$DIMAPOST
  1

  9
$DIMALT
 70
    0
  9
$DIMALTD
 70
    3
  9
$DIMALTF
 40
0.03937
  9
$DIMLFAC
 40
1
  9
$DIMTOFL
 70
    1
  9
$DIMTVP
 40
0
  9
$DIMTIX
 70
    0
  9
$DIMSOXD
 70
    0
  9
$DIMSAH
 70
    0
  9
$DIMBLK1
  1

  9
$DIMBLK2
  1

  9
$DIMSTYLE
  2
STANDARD
  9
$DIMCLRD
 70
    0
  9
$DIMCLRE
 70
    0
  9
$DIMCLRT
 70
    0
  9
$DIMTFAC
 40
1
  9
$DIMGAP
 40
0.625
  9
$DIMJUST
 70
    0
  9
$DIMSD1
 70
    0
  9
$DIMSD2
 70
    0
  9
$DIMTOLJ
 70
    0
  9
$DIMTZIN
 70
    8
  9
$DIMALTZ
 70
    0
  9
$DIMALTTZ
 70
    0
  9
$DIMUPT
 70
    0
  9
$DIMDEC
 70
    2
  9
$DIMTDEC
 70
    2
  9
$DIMALTU
 70
    2
  9
$DIMALTTD
 70
    3
  9
$DIMTXSTY
  7
STANDARD
  9
$DIMAUNIT
 70
    0
  9
$DIMADEC
 70
    0
  9
$DIMALTRND
 40
0
  9
$DIMAZIN
 70
    0
  9
$DIMDSEP
 70
   44
  9
$DIMATFIT
 70
    3
  9
$DIMFRAC
 70
    0
  9
$DIMLDRBLK
  1
STANDARD
  9
$DIMLUNIT
 70
    2
  9
$DIMLWD
 70
   -2
  9
$DIMLWE
 70
   -2
  9
$DIMTMOVE
 70
    0
  9
$DIMFXL
 40
1
  9
$DIMFXLON
 70
    0
  9
$DIMJOGANG
 40
0.7854
  9
$DIMTFILL
 70
    0
  9
$DIMTFILLCLR
 70
    0
  9
$DIMARCSYM
 70
    0
  9
$DIMLTYPE
  6

  9
$DIMLTEX1
  6

  9
$DIMLTEX2
  6

  9
$LUNITS
 70
    2
  9
$LUPREC
 70
    4
  9
$SKETCHINC
 40
1
  9
$FILLETRAD
 40
0
  9
$AUNITS
 70
    0
  9
$AUPREC
 70
    2
  9
$MENU
  1
.
  9
$ELEVATION
 40
0
  9
$PELEVATION
 40
0
  9
$THICKNESS
 40
0
  9
$LIMCHECK
 70
    0
  9
$CHAMFERA
 40
0
  9
$CHAMFERB
 40
0
  9
$CHAMFERC
 40
0
  9
$CHAMFERD
 40
0
  9
$SKPOLY
 70
    0
  9
$USRTIMER
 70
    1
  9
$ANGBASE
 50
0
  9
$ANGDIR
 70
    0
  9
$PDMODE
 70
   34
  9
$PDSIZE
 40
0
  9
$PLINEWID
 40
0
  9
$SPLFRAME
 70
    0
  9
$SPLINETYPE
 70
    2
  9
$SPLINESEGS
 70
    8
  9
$HANDSEED
  5
20000
  9
$SURFTAB1
 70
    6
  9
$SURFTAB2
 70
    6
  9
$SURFTYPE
 70
    6
  9
$SURFU
 70
    6
  9
$SURFV
 70
    6
  9
$UCSBASE
  2

  9
$UCSNAME
  2

  9
$UCSORG
 10
0
 20
0
 30
0
  9
$UCSXDIR
 10
1
 20
0
 30
0
  9
$UCSYDIR
 10
0
 20
1
 30
0
  9
$UCSORTHOREF
  2

  9
$UCSORTHOVIEW
 70
    0
  9
$UCSORGTOP
 10
0
 20
0
 30
0
  9
$UCSORGBOTTOM
 10
0
 20
0
 30
0
  9
$UCSORGLEFT
 10
0
 20
0
 30
0
  9
$UCSORGRIGHT
 10
0
 20
0
 30
0
  9
$UCSORGFRONT
 10
0
 20
0
 30
0
  9
$UCSORGBACK
 10
0
 20
0
 30
0
  9
$PUCSBASE
  2

  9
$PUCSNAME
  2

  9
$PUCSORG
 10
0
 20
0
 30
0
  9
$PUCSXDIR
 10
1
 20
0
 30
0
  9
$PUCSYDIR
 10
0
 20
1
 30
0
  9
$PUCSORTHOREF
  2

  9
$PUCSORTHOVIEW
 70
    0
  9
$PUCSORGTOP
 10
0
 20
0
 30
0
  9
$PUCSORGBOTTOM
 10
0
 20
0
 30
0
  9
$PUCSORGLEFT
 10
0
 20
0
 30
0
  9
$PUCSORGRIGHT
 10
0
 20
0
 30
0
  9
$PUCSORGFRONT
 10
0
 20
0
 30
0
  9
$PUCSORGBACK
 10
0
 20
0
 30
0
  9
$USERI1
 70
    0
  9
$USERI2
 70
    0
  9
$USERI3
 70
    0
  9
$USERI4
 70
    0
  9
$USERI5
 70
    0
  9
$USERR1
 40
0
  9
$USERR2
 40
0
  9
$USERR3
 40
0
  9
$USERR4
 40
0
  9
$USERR5
 40
0
  9
$WORLDVIEW
 70
    1
  9
$SHADEDGE
 70
    3
  9
$SHADEDIF
 70
   70
  9
$TILEMODE
 70
    1
  9
$MAXACTVP
 70
   64
  9
$PINSBASE
 10
0
 20
0
 30
0
  9
$PLIMCHECK
 70
    0
  9
$PEXTMIN
 10
0
 20
0
 30
0
  9
$PEXTMAX
 10
0
 20
0
 30
0
  9
$GRIDMODE
 70
    1
  9
$SNAPSTYLE
 70
    0
  9
$PLIMMIN
 10
0
 20
0
  9
$PLIMMAX
 10
210
 20
297
  9
$UNITMODE
 70
    0
  9
$VISRETAIN
 70
    1
  9
$PLINEGEN
 70
    0
  9
$PSLTSCALE
 70
    1
  9
$TREEDEPTH
 70
 3020
  9
$CMLSTYLE
  2
Standard
  9
$CMLJUST
 70
    0
  9
$CMLSCALE
 40
20
  9
$PROXYGRAPHICS
 70
    1
  9
$MEASUREMENT
 70
    1
  9
$CELWEIGHT
370
   -1
  9
$ENDCAPS
280
    0
  9
$JOINSTYLE
280
    0
  9
$LWDISPLAY
290
    0
  9
$INSUNITS
 70
    4
  9
$HYPERLINKBASE
  1

  9
$STYLESHEET
  1

  9
$XEDIT
290
    1
  9
$CEPSNTYPE
380
    0
  9
$PSTYLEMODE
290
    1
  9
$EXTNAMES
290
    1
  9
$PSVPSCALE
 40
1
  9
$OLESTARTUP
290
    0
  9
$SORTENTS
280
  127
  9
$INDEXCTL
280
    0
  9
$HIDETEXT
280
    1
  9
$XCLIPFRAME
290
    0
  9
$HALOGAP
280
    0
  9
$OBSCOLOR
 70
  257
  9
$OBSLTYPE
280
    0
  9
$INTERSECTIONDISPLAY
280
    0
  9
$INTERSECTIONCOLOR
 70
  257
  9
$DIMASSOC
280
    1
  9
$PROJECTNAME
  1

  9
$CAMERADISPLAY
290
    0
  9
$LENSLENGTH
 40
50
  9
$CAMERAHEIGHT
 40
0
  9
$STEPSPERSEC
 40
2
  9
$STEPSIZE
 40
50
  9
$3DDWFPREC
 40
2
  9
$PSOLWIDTH
 40
5
  9
$PSOLHEIGHT
 40
80
  9
$LOFTANG1
 40
1.570796326794897
  9
$LOFTANG2
 40
1.570796326794897
  9
$LOFTMAG1
 40
0
  9
$LOFTMAG2
 40
0
  9
$LOFTPARAM
 70
    7
  9
$LOFTNORMALS
280
    1
  9
$LATITUDE
 40
1
  9
$LONGITUDE
 40
1
  9
$NORTHDIRECTION
 40
0
  9
$TIMEZONE
 70
-8000
  9
$LIGHTGLYPHDISPLAY
280
    1
  9
$TILEMODELIGHTSYNCH
280
    1
  9
$SOLIDHIST
280
    1
  9
$SHOWHIST
280
    1
  9
$DWFFRAME
280
    2
  9
$DGNFRAME
280
    0
  9
$REALWORLDSCALE
290
    1
  9
$INTERFERECOLOR
 62
    1
  9
$CSHADOW
280
    0
  9
$SHADOWPLANELOCATION
 40
0
  0
ENDSEC
  0
SECTION
  2
CLASSES
  0
ENDSEC
  0
SECTION
  2
TABLES
  0
TABLE
  2
VPORT
  5
8
330
0
100
AcDbSymbolTable
 70
    1
  0
VPORT
  5
31
330
2
100
AcDbSymbolTableRecord
100
AcDbViewportTableRecord
  2
*ACTIVE
 70
    0
 10
0
 20
0
 11
1
 21
1
 12
967.5259355852071
 22
505.9802300171528
 13
0
 23
0
 14
10
 24
10
 15
10
 25
10
 16
0
 26
0
 36
1
 17
0
 27
0
 37
0
 40
2479.733138610975
 41
1.780346820809249
 42
50
 43
0
 44
0
 50
0
 51
0
 71
    0
 72
  100
 73
    1
 74
    3
 75
    0
 76
    1
 77
    0
 78
    0
281
    0
 65
    1
110
0
120
0
130
0
111
1
121
0
131
0
112
0
122
1
132
0
 79
    0
146
0
348
10020
 60
    7
 61
    5
292
1
282
    1
141
0
142
0
 63
  250
421
3358443
  0
ENDTAB
  0
TABLE
  2
LTYPE
  5
5
330
0
100
AcDbSymbolTable
 70
    4
  0
LTYPE
  5
14
330
5
100
AcDbSymbolTableRecord
100
AcDbLinetypeTableRecord
  2
ByBlock
 70
    0
  3

 72
   65
 73
    0
 40
0
  0
LTYPE
  5
15
330
5
100
AcDbSymbolTableRecord
100
AcDbLinetypeTableRecord
  2
ByLayer
 70
    0
  3

 72
   65
 73
    0
 40
0
  0
LTYPE
  5
16
330
5
100
AcDbSymbolTableRecord
100
AcDbLinetypeTableRecord
  2
Continuous
 70
    0
  3
Solid line
 72
   65
 73
    0
 40
0
  0
LTYPE
  5
32
330
5
100
AcDbSymbolTableRecord
100
AcDbLinetypeTableRecord
  2
DOT
 70
    0
  3
Dot . . . . . . . . . . . . . . . . . . . . . .
 72
   65
 73
    2
 40
6.35
 49
0
 74
    0
 49
-6.35
 74
    0
  0
LTYPE
  5
33
330
5
100
AcDbSymbolTableRecord
100
AcDbLinetypeTableRecord
  2
DOTTINY
 70
    0
  3
Dot (.15x) .....................................
 72
   65
 73
    2
 40
0.9525
 49
0
 74
    0
 49
-0.9525
 74
    0
  0
LTYPE
  5
34
330
5
100
AcDbSymbolTableRecord
100
AcDbLinetypeTableRecord
  2
DOT2
 70
    0
  3
Dot (.5x) .....................................
 72
   65
 73
    2
 40
3.175
 49
0
 74
    0
 49
-3.175
 74
    0
  0
LTYPE
  5
35
330
5
100
AcDbSymbolTableRecord
100
AcDbLinetypeTableRecord
  2
DOTX2
 70
    0
  3
Dot (2x) .  .  .  .  .  .  .  .  .  .  .  .  .
 72
   65
 73
    2
 40
12.7
 49
0
 74
    0
 49
-12.7
 74
    0
  0
LTYPE
  5
36
330
5
100
AcDbSymbolTableRecord
100
AcDbLinetypeTableRecord
  2
DASHED
 70
    0
  3
Dashed _ _ _ _ _ _ _ _ _ _ _ _ _ _ _ _ _
 72
   65
 73
    2
 40
19.05
 49
12.7
 74
    0
 49
-6.35
 74
    0
  0
LTYPE
  5
37
330
5
100
AcDbSymbolTableRecord
100
AcDbLinetypeTableRecord
  2
DASHEDTINY
 70
    0
  3
Dashed (.15x) _ _ _ _ _ _ _ _ _ _ _ _ _ _ _ _ _
 72
   65
 73
    2
 40
2.8575
 49
1.905
 74
    0
 49
-0.9525
 74
    0
  0
LTYPE
  5
38
330
5
100
AcDbSymbolTableRecord
100
AcDbLinetypeTableRecord
  2
DASHED2
 70
    0
  3
Dashed (.5x) _ _ _ _ _ _ _ _ _ _ _ _ _ _ _ _ _
 72
   65
 73
    2
 40
9.524999999999999
 49
6.35
 74
    0
 49
-3.175
 74
    0
  0
LTYPE
  5
39
330
5
100
AcDbSymbolTableRecord
100
AcDbLinetypeTableRecord
  2
DASHEDX2
 70
    0
  3
Dashed (2x) ____  ____  ____  ____  ____  ___
 72
   65
 73
    2
 40
38.09999999999999
 49
25.4
 74
    0
 49
-12.7
 74
    0
  0
LTYPE
  5
3A
330
5
100
AcDbSymbolTableRecord
100
AcDbLinetypeTableRecord
  2
DASHDOT
 70
    0
  3
Dash dot __ . __ . __ . __ . __ . __ . __ . __
 72
   65
 73
    4
 40
25.4
 49
12.7
 74
    0
 49
-6.35
 74
    0
 49
0
 74
    0
 49
-6.35
 74
    0
  0
LTYPE
  5
3B
330
5
100
AcDbSymbolTableRecord
100
AcDbLinetypeTableRecord
  2
DASHDOTTINY
 70
    0
  3
Dash dot (.15x) _._._._._._._._._._._._._._._.
 72
   65
 73
    4
 40
3.81
 49
1.905
 74
    0
 49
-0.9525
 74
    0
 49
0
 74
    0
 49
-0.9525
 74
    0
  0
LTYPE
  5
3C
330
5
100
AcDbSymbolTableRecord
100
AcDbLinetypeTableRecord
  2
DASHDOT2
 70
    0
  3
Dash dot (.5x) _._._._._._._._._._._._._._._.
 72
   65
 73
    4
 40
12.7
 49
6.35
 74
    0
 49
-3.175
 74
    0
 49
0
 74
    0
 49
-3.175
 74
    0
  0
LTYPE
  5
3D
330
5
100
AcDbSymbolTableRecord
100
AcDbLinetypeTableRecord
  2
DASHDOTX2
 70
    0
  3
Dash dot (2x) ____  .  ____  .  ____  .  ___
 72
   65
 73
    4
 40
50.8
 49
25.4
 74
    0
 49
-12.7
 74
    0
 49
0
 74
    0
 49
-12.7
 74
    0
  0
LTYPE
  5
3E
330
5
100
AcDbSymbolTableRecord
100
AcDbLinetypeTableRecord
  2
DIVIDE
 70
    0
  3
Divide ____ . . ____ . . ____ . . ____ . . ____
 72
   65
 73
    6
 40
31.75
 49
12.7
 74
    0
 49
-6.35
 74
    0
 49
0
 74
    0
 49
-6.35
 74
    0
 49
0
 74
    0
 49
-6.35
 74
    0
  0
LTYPE
  5
3F
330
5
100
AcDbSymbolTableRecord
100
AcDbLinetypeTableRecord
  2
DIVIDETINY
 70
    0
  3
Divide (.15x) __..__..__..__..__..__..__..__.._
 72
   65
 73
    6
 40
4.7625
 49
1.905
 74
    0
 49
-0.9525
 74
    0
 49
0
 74
    0
 49
-0.9525
 74
    0
 49
0
 74
    0
 49
-0.9525
 74
    0
  0
LTYPE
  5
40
330
5
100
AcDbSymbolTableRecord
100
AcDbLinetypeTableRecord
  2
DIVIDE2
 70
    0
  3
Divide (.5x) __..__..__..__..__..__..__..__.._
 72
   65
 73
    6
 40
15.875
 49
6.35
 74
    0
 49
-3.175
 74
    0
 49
0
 74
    0
 49
-3.175
 74
    0
 49
0
 74
    0
 49
-3.175
 74
    0
  0
LTYPE
  5
41
330
5
100
AcDbSymbolTableRecord
100
AcDbLinetypeTableRecord
  2
DIVIDEX2
 70
    0
  3
Divide (2x) ________  .  .  ________  .  .  _
 72
   65
 73
    6
 40
63.5
 49
25.4
 74
    0
 49
-12.7
 74
    0
 49
0
 74
    0
 49
-12.7
 74
    0
 49
0
 74
    0
 49
-12.7
 74
    0
  0
LTYPE
  5
42
330
5
100
AcDbSymbolTableRecord
100
AcDbLinetypeTableRecord
  2
BORDER
 70
    0
  3
Border __ __ . __ __ . __ __ . __ __ . __ __ .
 72
   65
 73
    6
 40
44.45
 49
12.7
 74
    0
 49
-6.35
 74
    0
 49
12.7
 74
    0
 49
-6.35
 74
    0
 49
0
 74
    0
 49
-6.35
 74
    0
  0
LTYPE
  5
43
330
5
100
AcDbSymbolTableRecord
100
AcDbLinetypeTableRecord
  2
BORDERTINY
 70
    0
  3
Border (.15x) __.__.__.__.__.__.__.__.__.__.__.
 72
   65
 73
    6
 40
6.6675
 49
1.905
 74
    0
 49
-0.9525
 74
    0
 49
1.905
 74
    0
 49
-0.9525
 74
    0
 49
0
 74
    0
 49
-0.9525
 74
    0
  0
LTYPE
  5
44
330
5
100
AcDbSymbolTableRecord
100
AcDbLinetypeTableRecord
  2
BORDER2
 70
    0
  3
Border (.5x) __.__.__.__.__.__.__.__.__.__.__.
 72
   65
 73
    6
 40
22.225
 49
6.35
 74
    0
 49
-3.175
 74
    0
 49
6.35
 74
    0
 49
-3.175
 74
    0
 49
0
 74
    0
 49
-3.175
 74
    0
  0
LTYPE
  5
45
330
5
100
AcDbSymbolTableRecord
100
AcDbLinetypeTableRecord
  2
BORDERX2
 70
    0
  3
Border (2x) ____  ____  .  ____  ____  .  ___
 72
   65
 73
    6
 40
88.89999999999999
 49
25.4
 74
    0
 49
-12.7
 74
    0
 49
25.4
 74
    0
 49
-12.7
 74
    0
 49
0
 74
    0
 49
-12.7
 74
    0
  0
LTYPE
  5
46
330
5
100
AcDbSymbolTableRecord
100
AcDbLinetypeTableRecord
  2
CENTER
 70
    0
  3
Center ____ _ ____ _ ____ _ ____ _ ____ _ ____
 72
   65
 73
    4
 40
50.8
 49
31.75
 74
    0
 49
-6.35
 74
    0
 49
6.35
 74
    0
 49
-6.35
 74
    0
  0
LTYPE
  5
47
330
5
100
AcDbSymbolTableRecord
100
AcDbLinetypeTableRecord
  2
CENTERTINY
 70
    0
  3
Center (.15x) ___ _ ___ _ ___ _ ___ _ ___ _ ___
 72
   65
 73
    4
 40
7.619999999999999
 49
4.7625
 74
    0
 49
-0.9525
 74
    0
 49
0.9525
 74
    0
 49
-0.9525
 74
    0
  0
LTYPE
  5
48
330
5
100
AcDbSymbolTableRecord
100
AcDbLinetypeTableRecord
  2
CENTER2
 70
    0
  3
Center (.5x) ___ _ ___ _ ___ _ ___ _ ___ _ ___
 72
   65
 73
    4
 40
28.575
 49
19.05
 74
    0
 49
-3.175
 74
    0
 49
3.175
 74
    0
 49
-3.175
 74
    0
  0
LTYPE
  5
49
330
5
100
AcDbSymbolTableRecord
100
AcDbLinetypeTableRecord
  2
CENTERX2
 70
    0
  3
Center (2x) ________  __  ________  __  _____
 72
   65
 73
    4
 40
101.6
 49
63.5
 74
    0
 49
-12.7
 74
    0
 49
12.7
 74
    0
 49
-12.7
 74
    0
  0
ENDTAB
  0
TABLE
  2
LAYER
  5
2
330
0
100
AcDbSymbolTable
 70
    1
  0
LAYER
  5
10
330
2
100
AcDbSymbolTableRecord
100
AcDbLayerTableRecord
  2
0
 70
    4
 62
    7
  6
CONTINUOUS
370
    0
390
F
  0
LAYER
  5
4A
330
2
100
AcDbSymbolTableRecord
100
AcDbLayerTableRecord
  2
Sidewalls
 70
    4
 62
    2
  6
CONTINUOUS
370
   -3
390
F
  0
LAYER
  5
4B
330
2
100
AcDbSymbolTableRecord
100
AcDbLayerTableRecord
  2
corner_standoffs
 70
    4
 62
    1
  6
CONTINUOUS
370
    0
390
F
  0
LAYER
  5
4C
330
2
100
AcDbSymbolTableRecord
100
AcDbLayerTableRecord
  2
sidewalls_second_layer
 70
    4
 62
    5
  6
CONTINUOUS
370
    0
390
F
  0
ENDTAB
  0
TABLE
  2
STYLE
  5
3
330
0
100
AcDbSymbolTable
 70
    3
  0
STYLE
  5
4D
330
2
100
AcDbSymbolTableRecord
100
AcDbTextStyleTableRecord
  2
opengosttypea-regular
 70
    0
 40
0
 41
1
 50
0
 71
    0
 42
1
  3
opengosttypea-regular
  4

  0
STYLE
  5
4E
330
2
100
AcDbSymbolTableRecord
100
AcDbTextStyleTableRecord
  2
Standard
 70
    0
 40
0
 41
1
 50
0
 71
    0
 42
1
  3
txt
  4

  0
ENDTAB
  0
TABLE
  2
VIEW
  5
6
330
0
100
AcDbSymbolTable
 70
    0
  0
ENDTAB
  0
TABLE
  2
UCS
  5
7
330
0
100
AcDbSymbolTable
 70
    0
  0
ENDTAB
  0
TABLE
  2
APPID
  5
9
330
0
100
AcDbSymbolTable
 70
    1
  0
APPID
  5
12
330
9
100
AcDbSymbolTableRecord
100
AcDbRegAppTableRecord
  2
ACAD
 70
    0
  0
APPID
  5
4F
330
9
100
AcDbSymbolTableRecord
100
AcDbRegAppTableRecord
  2
LibreCad
 70
    0
  0
ENDTAB
  0
TABLE
  2
DIMSTYLE
  5
A
330
0
100
AcDbSymbolTable
 70
    1
100
AcDbDimStyleTable
 71
    1
  0
DIMSTYLE
105
50
330
A
100
AcDbSymbolTableRecord
100
AcDbDimStyleTableRecord
  2
Standard
 70
    0
 40
1
 41
2.5
 42
0.625
 43
0.38
 44
1.25
 45
0
 46
0
 47
0
 48
0
 49
1
140
2.5
141
0.09
142
0
143
25.4
144
1
145
0
146
1
147
0.625
148
0
 71
    0
 72
    0
 73
    0
 74
    1
 75
    0
 76
    0
 77
    0
 78
    8
 79
    0
170
    0
171
    2
172
    0
173
    0
174
    0
175
    0
176
    0
177
    0
178
    0
179
    0
271
    2
272
    4
273
    2
274
    2
275
    0
276
    0
277
    2
278
   44
279
    0
280
    0
281
    0
282
    0
283
    1
284
    0
285
    0
286
    0
288
    0
289
    3
340
STANDARD
341

371
   -2
372
   -2
  0
ENDTAB
  0
TABLE
  2
BLOCK_RECORD
  5
1
330
0
100
AcDbSymbolTable
 70
    2
  0
BLOCK_RECORD
  5
1F
330
1
100
AcDbSymbolTableRecord
100
AcDbBlockTableRecord
  2
*Model_Space
 70
    0
280
    1
281
    0
  0
BLOCK_RECORD
  5
1E
330
1
100
AcDbSymbolTableRecord
100
AcDbBlockTableRecord
  2
*Paper_Space
 70
    0
280
    1
281
    0
  0
ENDTAB
  0
ENDSEC
  0
SECTION
  2
BLOCKS
  0
BLOCK
  5
20
330
1F
100
AcDbEntity
  8
0
100
AcDbBlockBegin
  2
*Model_Space
 70
    0
 10
0
 20
0
 30
0
  3
*Model_Space
  1

  0
ENDBLK
  5
21
330
1F
100
AcDbEntity
  8
0
100
AcDbBlockEnd
  0
BLOCK
  5
1C
330
1B
100
AcDbEntity
  8
0
100
AcDbBlockBegin
  2
*Paper_Space
 70
    0
 10
0
 20
0
 30
0
  3
*Paper_Space
  1

  0
ENDBLK
  5
1D
330
1F
100
AcDbEntity
  8
0
100
AcDbBlockEnd
  0
ENDSEC
  0
SECTION
  2
ENTITIES
  0
LINE
  5
51
100
AcDbEntity
  8
Sidewalls
  6
ByLayer
 62
  256
370
   -1
100
AcDbLine
 10
10
 20
478
 11
380
 21
478
  0
LINE
  5
52
100
AcDbEntity
  8
Sidewalls
  6
ByLayer
 62
  256
370
   -1
100
AcDbLine
 10
36
 20
425
 11
10
 21
425
  0
LINE
  5
53
100
AcDbEntity
  8
Sidewalls
  6
ByLayer
 62
  256
370
   -1
100
AcDbLine
 10
380
 20
425
 11
354
 21
425
  0
LINE
  5
54
100
AcDbEntity
  8
Sidewalls
  6
ByLayer
 62
  256
370
   -1
100
AcDbLine
 10
10
 20
425
 11
10
 21
478
  0
LINE
  5
55
100
AcDbEntity
  8
Sidewalls
  6
ByLayer
 62
  256
370
   -1
100
AcDbLine
 10
380
 20
478
 11
380
 21
425
  0
LINE
  5
56
100
AcDbEntity
  8
Sidewalls
  6
ByLayer
 62
  256
370
   -1
100
AcDbLine
 10
36
 20
425
 11
36
 21
421
  0
LINE
  5
57
100
AcDbEntity
  8
Sidewalls
  6
ByLayer
 62
  256
370
   -1
100
AcDbLine
 10
36
 20
421
 11
37
 21
420
  0
LINE
  5
58
100
AcDbEntity
  8
Sidewalls
  6
ByLayer
 62
  256
370
   -1
100
AcDbLine
 10
56
 20
421
 11
56
 21
425
  0
LINE
  5
59
100
AcDbEntity
  8
Sidewalls
  6
ByLayer
 62
  256
370
   -1
100
AcDbLine
 10
37
 20
420
 11
55
 21
420
  0
LINE
  5
5A
100
AcDbEntity
  8
Sidewalls
  6
ByLayer
 62
  256
370
   -1
100
AcDbLine
 10
56
 20
421
 11
55
 21
420
  0
LINE
  5
5B
100
AcDbEntity
  8
Sidewalls
  6
ByLayer
 62
  256
370
   -1
100
AcDbLine
 10
334
 20
421
 11
334
 21
425
  0
LINE
  5
5C
100
AcDbEntity
  8
Sidewalls
  6
ByLayer
 62
  256
370
   -1
100
AcDbLine
 10
334
 20
421
 11
335
 21
420
  0
LINE
  5
5D
100
AcDbEntity
  8
Sidewalls
  6
ByLayer
 62
  256
370
   -1
100
AcDbLine
 10
354
 20
425
 11
354
 21
421
  0
LINE
  5
5E
100
AcDbEntity
  8
Sidewalls
  6
ByLayer
 62
  256
370
   -1
100
AcDbLine
 10
335
 20
420
 11
353
 21
420
  0
LINE
  5
5F
100
AcDbEntity
  8
Sidewalls
  6
ByLayer
 62
  256
370
   -1
100
AcDbLine
 10
354
 20
421
 11
353
 21
420
  0
CIRCLE
  5
60
100
AcDbEntity
  8
Sidewalls
  6
ByLayer
 62
  256
370
   -1
100
AcDbCircle
 10
195
 20
451.5
 40
11.8
  0
LINE
  5
61
100
AcDbEntity
  8
Sidewalls
  6
ByLayer
 62
  256
370
   -1
100
AcDbLine
 10
10
 20
398
 11
380
 21
398
  0
LINE
  5
62
100
AcDbEntity
  8
Sidewalls
  6
ByLayer
 62
  256
370
   -1
100
AcDbLine
 10
36
 20
345
 11
10
 21
345
  0
LINE
  5
63
100
AcDbEntity
  8
Sidewalls
  6
ByLayer
 62
  256
370
   -1
100
AcDbLine
 10
380
 20
345
 11
354
 21
345
  0
LINE
  5
64
100
AcDbEntity
  8
Sidewalls
  6
ByLayer
 62
  256
370
   -1
100
AcDbLine
 10
10
 20
345
 11
10
 21
398
  0
LINE
  5
65
100
AcDbEntity
  8
Sidewalls
  6
ByLayer
 62
  256
370
   -1
100
AcDbLine
 10
380
 20
398
 11
380
 21
345
  0
LINE
  5
66
100
AcDbEntity
  8
Sidewalls
  6
ByLayer
 62
  256
370
   -1
100
AcDbLine
 10
56
 20
345
 11
66
 21
345
  0
LINE
  5
67
100
AcDbEntity
  8
Sidewalls
  6
ByLayer
 62
  256
370
   -1
100
AcDbLine
 10
334
 20
345
 11
324
 21
345
  0
LINE
  5
68
100
AcDbEntity
  8
Sidewalls
  6
ByLayer
 62
  256
370
   -1
100
AcDbLine
 10
36
 20
345
 11
36
 21
341
  0
LINE
  5
69
100
AcDbEntity
  8
Sidewalls
  6
ByLayer
 62
  256
370
   -1
100
AcDbLine
 10
36
 20
341
 11
37
 21
340
  0
LINE
  5
6A
100
AcDbEntity
  8
Sidewalls
  6
ByLayer
 62
  256
370
   -1
100
AcDbLine
 10
56
 20
341
 11
56
 21
345
  0
LINE
  5
6B
100
AcDbEntity
  8
Sidewalls
  6
ByLayer
 62
  256
370
   -1
100
AcDbLine
 10
37
 20
340
 11
55
 21
340
  0
LINE
  5
6C
100
AcDbEntity
  8
Sidewalls
  6
ByLayer
 62
  256
370
   -1
100
AcDbLine
 10
56
 20
341
 11
55
 21
340
  0
LINE
  5
6D
100
AcDbEntity
  8
Sidewalls
  6
ByLayer
 62
  256
370
   -1
100
AcDbLine
 10
334
 20
341
 11
334
 21
345
  0
LINE
  5
6E
100
AcDbEntity
  8
Sidewalls
  6
ByLayer
 62
  256
370
   -1
100
AcDbLine
 10
334
 20
341
 11
335
 21
340
  0
LINE
  5
6F
100
AcDbEntity
  8
Sidewalls
  6
ByLayer
 62
  256
370
   -1
100
AcDbLine
 10
354
 20
345
 11
354
 21
341
  0
LINE
  5
70
100
AcDbEntity
  8
Sidewalls
  6
ByLayer
 62
  256
370
   -1
100
AcDbLine
 10
335
 20
340
 11
353
 21
340
  0
LINE
  5
71
100
AcDbEntity
  8
Sidewalls
  6
ByLayer
 62
  256
370
   -1
100
AcDbLine
 10
354
 20
341
 11
353
 21
340
  0
LINE
  5
72
100
AcDbEntity
  8
Sidewalls
  6
ByLayer
 62
  256
370
   -1
100
AcDbLine
 10
36
 20
265
 11
10
 21
265
  0
LINE
  5
73
100
AcDbEntity
  8
Sidewalls
  6
ByLayer
 62
  256
370
   -1
100
AcDbLine
 10
380
 20
265
 11
354
 21
265
  0
LINE
  5
74
100
AcDbEntity
  8
Sidewalls
  6
ByLayer
 62
  256
370
   -1
100
AcDbLine
 10
56
 20
265
 11
66
 21
265
  0
LINE
  5
75
100
AcDbEntity
  8
Sidewalls
  6
ByLayer
 62
  256
370
   -1
100
AcDbLine
 10
334
 20
265
 11
324
 21
265
  0
LINE
  5
76
100
AcDbEntity
  8
Sidewalls
  6
ByLayer
 62
  256
370
   -1
100
AcDbLine
 10
36
 20
265
 11
36
 21
261
  0
LINE
  5
77
100
AcDbEntity
  8
Sidewalls
  6
ByLayer
 62
  256
370
   -1
100
AcDbLine
 10
36
 20
261
 11
37
 21
260
  0
LINE
  5
78
100
AcDbEntity
  8
Sidewalls
  6
ByLayer
 62
  256
370
   -1
100
AcDbLine
 10
56
 20
261
 11
56
 21
265
  0
LINE
  5
79
100
AcDbEntity
  8
Sidewalls
  6
ByLayer
 62
  256
370
   -1
100
AcDbLine
 10
37
 20
260
 11
55
 21
260
  0
LINE
  5
7A
100
AcDbEntity
  8
Sidewalls
  6
ByLayer
 62
  256
370
   -1
100
AcDbLine
 10
56
 20
261
 11
55
 21
260
  0
LINE
  5
7B
100
AcDbEntity
  8
Sidewalls
  6
ByLayer
 62
  256
370
   -1
100
AcDbLine
 10
334
 20
261
 11
334
 21
265
  0
LINE
  5
7C
100
AcDbEntity
  8
Sidewalls
  6
ByLayer
 62
  256
370
   -1
100
AcDbLine
 10
334
 20
261
 11
335
 21
260
  0
LINE
  5
7D
100
AcDbEntity
  8
Sidewalls
  6
ByLayer
 62
  256
370
   -1
100
AcDbLine
 10
354
 20
265
 11
354
 21
261
  0
LINE
  5
7E
100
AcDbEntity
  8
Sidewalls
  6
ByLayer
 62
  256
370
   -1
100
AcDbLine
 10
335
 20
260
 11
353
 21
260
  0
LINE
  5
7F
100
AcDbEntity
  8
Sidewalls
  6
ByLayer
 62
  256
370
   -1
100
AcDbLine
 10
354
 20
261
 11
353
 21
260
  0
LINE
  5
80
100
AcDbEntity
  8
Sidewalls
  6
ByLayer
 62
  256
370
   -1
100
AcDbLine
 10
10
 20
308
 11
380
 21
308
  0
LINE
  5
81
100
AcDbEntity
  8
Sidewalls
  6
ByLayer
 62
  256
370
   -1
100
AcDbLine
 10
380
 20
308
 11
380
 21
265
  0
LINE
  5
82
100
AcDbEntity
  8
Sidewalls
  6
ByLayer
 62
  256
370
   -1
100
AcDbLine
 10
10
 20
265
 11
10
 21
308
  0
MTEXT
  5
83
100
AcDbEntity
  8
0
  6
ByLayer
 62
  256
370
   -1
100
AcDbMText
 10
400
 20
130
 30
0
 40
8
 41
95.14285599999998
 71
    1
 72
    1
  1
Sidewalls - 3 mm
  7
opengosttypea-regular
210
0
220
0
230
1
 50
0
 73
    2
 44
1
  0
MTEXT
  5
84
100
AcDbEntity
  8
0
  6
ByLayer
 62
  256
370
   -1
100
AcDbMText
 10
400
 20
470
 30
0
 40
8
 41
102.8571431111111
 71
    1
 72
    1
  1
Front Wall - 3 mm
  7
opengosttypea-regular
210
0
220
0
230
1
 50
0
 73
    2
 44
1
  0
MTEXT
  5
85
100
AcDbEntity
  8
0
  6
ByLayer
 62
  256
370
   -1
100
AcDbMText
 10
400
 20
380
 30
0
 40
8
 41
99.04761866666664
 71
    1
 72
    1
  1
Back Wall - 3 mm
  7
opengosttypea-regular
210
0
220
0
230
1
 50
0
 73
    2
 44
1
  0
MTEXT
  5
86
100
AcDbEntity
  8
0
  6
ByLayer
 62
  256
370
   -1
100
AcDbMText
 10
400
 20
300
 30
0
 40
8
 41
178.0952391111111
 71
    1
 72
    1
  1
Back Wall Second Layer - 6 mm
  7
opengosttypea-regular
210
0
220
0
230
1
 50
0
 73
    2
 44
1
  0
MTEXT
  5
87
100
AcDbEntity
  8
0
  6
ByLayer
 62
  256
370
   -1
100
AcDbMText
 10
400
 20
220
 30
0
 40
8
 41
181.9047635555555
 71
    1
 72
    1
  1
Front Wall Second Layer - 6 mm
  7
opengosttypea-regular
210
0
220
0
230
1
 50
0
 73
    2
 44
1
  0
MTEXT
  5
88
100
AcDbEntity
  8
0
  6
ByLayer
 62
  256
370
   -1
100
AcDbMText
 10
400
 20
50
 30
0
 40
8
 41
187.4285724444445
 71
    1
 72
    1
  1
Side Walls Second Layers - 6 mm
  7
opengosttypea-regular
210
0
220
0
230
1
 50
0
 73
    2
 44
1
  0
CIRCLE
  5
89
100
AcDbEntity
  8
Sidewalls
  6
ByLayer
 62
  256
370
   -1
100
AcDbCircle
 10
185.5
 20
463.3
 40
1.55
  0
CIRCLE
  5
8A
100
AcDbEntity
  8
Sidewalls
  6
ByLayer
 62
  256
370
   -1
100
AcDbCircle
 10
204.5
 20
439.7
 40
1.55
  0
LINE
  5
8B
100
AcDbEntity
  8
Sidewalls
  6
ByLayer
 62
  256
370
   -1
100
AcDbLine
 10
56
 20
425
 11
74
 21
425
  0
LINE
  5
8C
100
AcDbEntity
  8
Sidewalls
  6
ByLayer
 62
  256
370
   -1
100
AcDbLine
 10
74
 20
425
 11
74
 21
421
  0
LINE
  5
8D
100
AcDbEntity
  8
Sidewalls
  6
ByLayer
 62
  256
370
   -1
100
AcDbLine
 10
74
 20
421
 11
75
 21
420
  0
LINE
  5
8E
100
AcDbEntity
  8
Sidewalls
  6
ByLayer
 62
  256
370
   -1
100
AcDbLine
 10
334
 20
425
 11
316
 21
425
  0
LINE
  5
8F
100
AcDbEntity
  8
Sidewalls
  6
ByLayer
 62
  256
370
   -1
100
AcDbLine
 10
316
 20
425
 11
316
 21
421
  0
LINE
  5
90
100
AcDbEntity
  8
Sidewalls
  6
ByLayer
 62
  256
370
   -1
100
AcDbLine
 10
75
 20
420
 11
315
 21
420
  0
LINE
  5
91
100
AcDbEntity
  8
Sidewalls
  6
ByLayer
 62
  256
370
   -1
100
AcDbLine
 10
316
 20
421
 11
315
 21
420
  0
LINE
  5
92
100
AcDbEntity
  8
Sidewalls
  6
ByLayer
 62
  256
370
   -1
100
AcDbLine
 10
56
 20
345
 11
74
 21
345
  0
LINE
  5
93
100
AcDbEntity
  8
Sidewalls
  6
ByLayer
 62
  256
370
   -1
100
AcDbLine
 10
74
 20
345
 11
74
 21
341
  0
LINE
  5
94
100
AcDbEntity
  8
Sidewalls
  6
ByLayer
 62
  256
370
   -1
100
AcDbLine
 10
74
 20
341
 11
75
 21
340
  0
LINE
  5
95
100
AcDbEntity
  8
Sidewalls
  6
ByLayer
 62
  256
370
   -1
100
AcDbLine
 10
334
 20
345
 11
316
 21
345
  0
LINE
  5
96
100
AcDbEntity
  8
Sidewalls
  6
ByLayer
 62
  256
370
   -1
100
AcDbLine
 10
316
 20
345
 11
316
 21
341
  0
LINE
  5
97
100
AcDbEntity
  8
Sidewalls
  6
ByLayer
 62
  256
370
   -1
100
AcDbLine
 10
75
 20
340
 11
315
 21
340
  0
LINE
  5
98
100
AcDbEntity
  8
Sidewalls
  6
ByLayer
 62
  256
370
   -1
100
AcDbLine
 10
316
 20
341
 11
315
 21
340
  0
LINE
  5
99
100
AcDbEntity
  8
Sidewalls
  6
ByLayer
 62
  256
370
   -1
100
AcDbLine
 10
56
 20
265
 11
74
 21
265
  0
LINE
  5
9A
100
AcDbEntity
  8
Sidewalls
  6
ByLayer
 62
  256
370
   -1
100
AcDbLine
 10
334
 20
265
 11
316
 21
265
  0
LINE
  5
9B
100
AcDbEntity
  8
Sidewalls
  6
ByLayer
 62
  256
370
   -1
100
AcDbLine
 10
316
 20
265
 11
316
 21
261
  0
LINE
  5
9C
100
AcDbEntity
  8
Sidewalls
  6
ByLayer
 62
  256
370
   -1
100
AcDbLine
 10
316
 20
261
 11
315
 21
260
  0
LINE
  5
9D
100
AcDbEntity
  8
Sidewalls
  6
ByLayer
 62
  256
370
   -1
100
AcDbLine
 10
74
 20
265
 11
74
 21
261
  0
LINE
  5
9E
100
AcDbEntity
  8
Sidewalls
  6
ByLayer
 62
  256
370
   -1
100
AcDbLine
 10
75
 20
260
 11
315
 21
260
  0
LINE
  5
9F
100
AcDbEntity
  8
Sidewalls
  6
ByLayer
 62
  256
370
   -1
100
AcDbLine
 10
74
 20
261
 11
75
 21
260
  0
CIRCLE
  5
A0
100
AcDbEntity
  8
Sidewalls
  6
ByLayer
 62
  256
370
   -1
100
AcDbCircle
 10
195
 20
211.5
 40
11.8
  0
CIRCLE
  5
A1
100
AcDbEntity
  8
Sidewalls
  6
ByLayer
 62
  256
370
   -1
100
AcDbCircle
 10
185.5
 20
223.3
 40
1.55
  0
CIRCLE
  5
A2
100
AcDbEntity
  8
Sidewalls
  6
ByLayer
 62
  256
370
   -1
100
AcDbCircle
 10
204.5
 20
199.7
 40
1.55
  0
LINE
  5
A3
100
AcDbEntity
  8
Sidewalls
  6
ByLayer
 62
  256
370
   -1
100
AcDbLine
 10
36
 20
185
 11
10
 21
185
  0
LINE
  5
A4
100
AcDbEntity
  8
Sidewalls
  6
ByLayer
 62
  256
370
   -1
100
AcDbLine
 10
380
 20
185
 11
354
 21
185
  0
LINE
  5
A5
100
AcDbEntity
  8
Sidewalls
  6
ByLayer
 62
  256
370
   -1
100
AcDbLine
 10
56
 20
185
 11
66
 21
185
  0
LINE
  5
A6
100
AcDbEntity
  8
Sidewalls
  6
ByLayer
 62
  256
370
   -1
100
AcDbLine
 10
334
 20
185
 11
324
 21
185
  0
LINE
  5
A7
100
AcDbEntity
  8
Sidewalls
  6
ByLayer
 62
  256
370
   -1
100
AcDbLine
 10
36
 20
185
 11
36
 21
181
  0
LINE
  5
A8
100
AcDbEntity
  8
Sidewalls
  6
ByLayer
 62
  256
370
   -1
100
AcDbLine
 10
36
 20
181
 11
37
 21
180
  0
LINE
  5
A9
100
AcDbEntity
  8
Sidewalls
  6
ByLayer
 62
  256
370
   -1
100
AcDbLine
 10
56
 20
181
 11
56
 21
185
  0
LINE
  5
AA
100
AcDbEntity
  8
Sidewalls
  6
ByLayer
 62
  256
370
   -1
100
AcDbLine
 10
37
 20
180
 11
55
 21
180
  0
LINE
  5
AB
100
AcDbEntity
  8
Sidewalls
  6
ByLayer
 62
  256
370
   -1
100
AcDbLine
 10
56
 20
181
 11
55
 21
180
  0
LINE
  5
AC
100
AcDbEntity
  8
Sidewalls
  6
ByLayer
 62
  256
370
   -1
100
AcDbLine
 10
334
 20
181
 11
334
 21
185
  0
LINE
  5
AD
100
AcDbEntity
  8
Sidewalls
  6
ByLayer
 62
  256
370
   -1
100
AcDbLine
 10
334
 20
181
 11
335
 21
180
  0
LINE
  5
AE
100
AcDbEntity
  8
Sidewalls
  6
ByLayer
 62
  256
370
   -1
100
AcDbLine
 10
354
 20
185
 11
354
 21
181
  0
LINE
  5
AF
100
AcDbEntity
  8
Sidewalls
  6
ByLayer
 62
  256
370
   -1
100
AcDbLine
 10
335
 20
180
 11
353
 21
180
  0
LINE
  5
B0
100
AcDbEntity
  8
Sidewalls
  6
ByLayer
 62
  256
370
   -1
100
AcDbLine
 10
354
 20
181
 11
353
 21
180
  0
LINE
  5
B1
100
AcDbEntity
  8
Sidewalls
  6
ByLayer
 62
  256
370
   -1
100
AcDbLine
 10
10
 20
228
 11
380
 21
228
  0
LINE
  5
B2
100
AcDbEntity
  8
Sidewalls
  6
ByLayer
 62
  256
370
   -1
100
AcDbLine
 10
380
 20
228
 11
380
 21
185
  0
LINE
  5
B3
100
AcDbEntity
  8
Sidewalls
  6
ByLayer
 62
  256
370
   -1
100
AcDbLine
 10
10
 20
185
 11
10
 21
228
  0
LINE
  5
B4
100
AcDbEntity
  8
Sidewalls
  6
ByLayer
 62
  256
370
   -1
100
AcDbLine
 10
56
 20
185
 11
74
 21
185
  0
LINE
  5
B5
100
AcDbEntity
  8
Sidewalls
  6
ByLayer
 62
  256
370
   -1
100
AcDbLine
 10
334
 20
185
 11
316
 21
185
  0
LINE
  5
B6
100
AcDbEntity
  8
Sidewalls
  6
ByLayer
 62
  256
370
   -1
100
AcDbLine
 10
316
 20
185
 11
316
 21
181
  0
LINE
  5
B7
100
AcDbEntity
  8
Sidewalls
  6
ByLayer
 62
  256
370
   -1
100
AcDbLine
 10
316
 20
181
 11
315
 21
180
  0
LINE
  5
B8
100
AcDbEntity
  8
Sidewalls
  6
ByLayer
 62
  256
370
   -1
100
AcDbLine
 10
74
 20
185
 11
74
 21
181
  0
LINE
  5
B9
100
AcDbEntity
  8
Sidewalls
  6
ByLayer
 62
  256
370
   -1
100
AcDbLine
 10
75
 20
180
 11
315
 21
180
  0
LINE
  5
BA
100
AcDbEntity
  8
Sidewalls
  6
ByLayer
 62
  256
370
   -1
100
AcDbLine
 10
74
 20
181
 11
75
 21
180
  0
MTEXT
  5
BB
100
AcDbEntity
  8
0
  6
ByLayer
 62
  256
370
   -1
100
AcDbMText
 10
190
 20
-70
 30
0
 40
8
 41
137.714288
 71
    1
 72
    1
  1
Corner Standoffs - 6 mm
  7
opengosttypea-regular
210
0
220
0
230
1
 50
0
 73
    2
 44
1
  0
LINE
  5
BC
100
AcDbEntity
  8
Sidewalls
  6
ByLayer
 62
  256
370
   -1
100
AcDbLine
 10
10
 20
58
 11
190
 21
58
  0
LINE
  5
BD
100
AcDbEntity
  8
Sidewalls
  6
ByLayer
 62
  256
370
   -1
100
AcDbLine
 10
190
 20
58
 11
190
 21
15
  0
LINE
  5
BE
100
AcDbEntity
  8
Sidewalls
  6
ByLayer
 62
  256
370
   -1
100
AcDbLine
 10
10
 20
15
 11
10
 21
58
  0
ARC
  5
BF
100
AcDbEntity
  8
Sidewalls
  6
ByLayer
 62
  256
370
   -1
100
AcDbCircle
 10
71.33794193046479
 20
40
 40
16
100
AcDbArc
 50
20.3641348063178
 51
339.6358651936822
  0
ARC
  5
C0
100
AcDbEntity
  8
Sidewalls
  6
ByLayer
 62
  256
370
   -1
100
AcDbCircle
 10
131.3379419304648
 20
40
 40
16
100
AcDbArc
 50
200.3641348063178
 51
519.6358651936822
  0
ARC
  5
C1
100
AcDbEntity
  8
Sidewalls
  6
ByLayer
 62
  256
370
   -1
100
AcDbCircle
 10
101.3379419304648
 20
40
 40
16
100
AcDbArc
 50
200.3641348063178
 51
339.6358651936822
  0
ARC
  5
C2
100
AcDbEntity
  8
Sidewalls
  6
ByLayer
 62
  256
370
   -1
100
AcDbCircle
 10
101.3379419304648
 20
40
 40
16
100
AcDbArc
 50
20.3641348063178
 51
159.6358651936822
  0
LINE
  5
C3
100
AcDbEntity
  8
Sidewalls
  6
ByLayer
 62
  256
370
   -1
100
AcDbLine
 10
388.6620580695352
 20
148
 11
208.6620580695352
 21
148
  0
LINE
  5
C4
100
AcDbEntity
  8
Sidewalls
  6
ByLayer
 62
  256
370
   -1
100
AcDbLine
 10
208.6620580695352
 20
148
 11
208.6620580695352
 21
95
  0
LINE
  5
C5
100
AcDbEntity
  8
Sidewalls
  6
ByLayer
 62
  256
370
   -1
100
AcDbLine
 10
388.6620580695352
 20
95
 11
388.6620580695352
 21
148
  0
LINE
  5
C6
100
AcDbEntity
  8
Sidewalls
  6
ByLayer
 62
  256
370
   -1
100
AcDbLine
 10
273.6620580695352
 20
90
 11
323.6620580695352
 21
90
  0
CIRCLE
  5
C7
100
AcDbEntity
  8
Sidewalls
  6
ByLayer
 62
  256
370
   -1
100
AcDbCircle
 10
270
 20
120
 40
12.25
  0
LINE
  5
C8
100
AcDbEntity
  8
Sidewalls
  6
ByLayer
 62
  256
370
   -1
100
AcDbLine
 10
208.6620580695352
 20
58
 11
388.6620580695352
 21
58
  0
LINE
  5
C9
100
AcDbEntity
  8
Sidewalls
  6
ByLayer
 62
  256
370
   -1
100
AcDbLine
 10
208.6620580695352
 20
58
 11
208.6620580695352
 21
15
  0
LINE
  5
CA
100
AcDbEntity
  8
Sidewalls
  6
ByLayer
 62
  256
370
   -1
100
AcDbLine
 10
388.6620580695352
 20
15
 11
388.6620580695352
 21
58
  0
CIRCLE
  5
CB
100
AcDbEntity
  8
Sidewalls
  6
ByLayer
 62
  256
370
   -1
100
AcDbCircle
 10
270
 20
40
 40
16
  0
LINE
  5
CC
100
AcDbEntity
  8
Sidewalls
  6
ByLayer
 62
  256
370
   -1
100
AcDbLine
 10
208.6620580695352
 20
95
 11
225.6620580695352
 21
95
  0
LINE
  5
CD
100
AcDbEntity
  8
Sidewalls
  6
ByLayer
 62
  256
370
   -1
100
AcDbLine
 10
245.6620580695352
 20
95
 11
263.6620580695352
 21
95
  0
LINE
  5
CE
100
AcDbEntity
  8
Sidewalls
  6
ByLayer
 62
  256
370
   -1
100
AcDbLine
 10
333.6620580695352
 20
95
 11
351.6620580695352
 21
95
  0
LINE
  5
CF
100
AcDbEntity
  8
Sidewalls
  6
ByLayer
 62
  256
370
   -1
100
AcDbLine
 10
371.6620580695352
 20
95
 11
388.6620580695352
 21
95
  0
LINE
  5
D0
100
AcDbEntity
  8
Sidewalls
  6
ByLayer
 62
  256
370
   -1
100
AcDbLine
 10
225.6620580695352
 20
95
 11
225.6620580695352
 21
91
  0
LINE
  5
D1
100
AcDbEntity
  8
Sidewalls
  6
ByLayer
 62
  256
370
   -1
100
AcDbLine
 10
225.6620580695352
 20
91
 11
226.6620580695352
 21
90
  0
LINE
  5
D2
100
AcDbEntity
  8
Sidewalls
  6
ByLayer
 62
  256
370
   -1
100
AcDbLine
 10
226.6620580695352
 20
90
 11
244.6620580695352
 21
90
  0
LINE
  5
D3
100
AcDbEntity
  8
Sidewalls
  6
ByLayer
 62
  256
370
   -1
100
AcDbLine
 10
245.6620580695352
 20
91
 11
245.6620580695352
 21
95
  0
LINE
  5
D4
100
AcDbEntity
  8
Sidewalls
  6
ByLayer
 62
  256
370
   -1
100
AcDbLine
 10
244.6620580695352
 20
90
 11
245.6620580695352
 21
91
  0
LINE
  5
D5
100
AcDbEntity
  8
Sidewalls
  6
ByLayer
 62
  256
370
   -1
100
AcDbLine
 10
263.6620580695352
 20
95
 11
263.6620580695352
 21
91
  0
LINE
  5
D6
100
AcDbEntity
  8
Sidewalls
  6
ByLayer
 62
  256
370
   -1
100
AcDbLine
 10
263.6620580695352
 20
91
 11
264.6620580695352
 21
90
  0
LINE
  5
D7
100
AcDbEntity
  8
Sidewalls
  6
ByLayer
 62
  256
370
   -1
100
AcDbLine
 10
264.6620580695352
 20
90
 11
332.6620580695352
 21
90
  0
LINE
  5
D8
100
AcDbEntity
  8
Sidewalls
  6
ByLayer
 62
  256
370
   -1
100
AcDbLine
 10
333.6620580695352
 20
91
 11
333.6620580695352
 21
95
  0
LINE
  5
D9
100
AcDbEntity
  8
Sidewalls
  6
ByLayer
 62
  256
370
   -1
100
AcDbLine
 10
332.6620580695352
 20
90
 11
333.6620580695352
 21
91
  0
LINE
  5
DA
100
AcDbEntity
  8
Sidewalls
  6
ByLayer
 62
  256
370
   -1
100
AcDbLine
 10
351.6620580695352
 20
95
 11
351.6620580695352
 21
91
  0
LINE
  5
DB
100
AcDbEntity
  8
Sidewalls
  6
ByLayer
 62
  256
370
   -1
100
AcDbLine
 10
351.6620580695352
 20
91
 11
352.6620580695352
 21
90
  0
LINE
  5
DC
100
AcDbEntity
  8
Sidewalls
  6
ByLayer
 62
  256
370
   -1
100
AcDbLine
 10
352.6620580695352
 20
90
 11
370.6620580695352
 21
90
  0
LINE
  5
DD
100
AcDbEntity
  8
Sidewalls
  6
ByLayer
 62
  256
370
   -1
100
AcDbLine
 10
371.6620580695352
 20
91
 11
371.6620580695352
 21
95
  0
LINE
  5
DE
100
AcDbEntity
  8
Sidewalls
  6
ByLayer
 62
  256
370
   -1
100
AcDbLine
 10
370.6620580695352
 20
90
 11
371.6620580695352
 21
91
  0
LINE
  5
DF
100
AcDbEntity
  8
Sidewalls
  6
ByLayer
 62
  256
370
   -1
100
AcDbLine
 10
10
 20
15
 11
27
 21
15
  0
LINE
  5
E0
100
AcDbEntity
  8
Sidewalls
  6
ByLayer
 62
  256
370
   -1
100
AcDbLine
 10
47
 20
15
 11
65
 21
15
  0
LINE
  5
E1
100
AcDbEntity
  8
Sidewalls
  6
ByLayer
 62
  256
370
   -1
100
AcDbLine
 10
135
 20
15
 11
153
 21
15
  0
LINE
  5
E2
100
AcDbEntity
  8
Sidewalls
  6
ByLayer
 62
  256
370
   -1
100
AcDbLine
 10
173
 20
15
 11
190
 21
15
  0
LINE
  5
E3
100
AcDbEntity
  8
Sidewalls
  6
ByLayer
 62
  256
370
   -1
100
AcDbLine
 10
27
 20
15
 11
27
 21
11
  0
LINE
  5
E4
100
AcDbEntity
  8
Sidewalls
  6
ByLayer
 62
  256
370
   -1
100
AcDbLine
 10
27
 20
11
 11
28
 21
10
  0
LINE
  5
E5
100
AcDbEntity
  8
Sidewalls
  6
ByLayer
 62
  256
370
   -1
100
AcDbLine
 10
28
 20
10
 11
46
 21
10
  0
LINE
  5
E6
100
AcDbEntity
  8
Sidewalls
  6
ByLayer
 62
  256
370
   -1
100
AcDbLine
 10
47
 20
11
 11
47
 21
15
  0
LINE
  5
E7
100
AcDbEntity
  8
Sidewalls
  6
ByLayer
 62
  256
370
   -1
100
AcDbLine
 10
46
 20
10
 11
47
 21
11
  0
LINE
  5
E8
100
AcDbEntity
  8
Sidewalls
  6
ByLayer
 62
  256
370
   -1
100
AcDbLine
 10
65
 20
15
 11
65
 21
11
  0
LINE
  5
E9
100
AcDbEntity
  8
Sidewalls
  6
ByLayer
 62
  256
370
   -1
100
AcDbLine
 10
65
 20
11
 11
66
 21
10
  0
LINE
  5
EA
100
AcDbEntity
  8
Sidewalls
  6
ByLayer
 62
  256
370
   -1
100
AcDbLine
 10
66
 20
10
 11
134
 21
10
  0
LINE
  5
EB
100
AcDbEntity
  8
Sidewalls
  6
ByLayer
 62
  256
370
   -1
100
AcDbLine
 10
135
 20
11
 11
135
 21
15
  0
LINE
  5
EC
100
AcDbEntity
  8
Sidewalls
  6
ByLayer
 62
  256
370
   -1
100
AcDbLine
 10
134
 20
10
 11
135
 21
11
  0
LINE
  5
ED
100
AcDbEntity
  8
Sidewalls
  6
ByLayer
 62
  256
370
   -1
100
AcDbLine
 10
153
 20
15
 11
153
 21
11
  0
LINE
  5
EE
100
AcDbEntity
  8
Sidewalls
  6
ByLayer
 62
  256
370
   -1
100
AcDbLine
 10
153
 20
11
 11
154
 21
10
  0
LINE
  5
EF
100
AcDbEntity
  8
Sidewalls
  6
ByLayer
 62
  256
370
   -1
100
AcDbLine
 10
154
 20
10
 11
172
 21
10
  0
LINE
  5
F0
100
AcDbEntity
  8
Sidewalls
  6
ByLayer
 62
  256
370
   -1
100
AcDbLine
 10
173
 20
11
 11
173
 21
15
  0
LINE
  5
F1
100
AcDbEntity
  8
Sidewalls
  6
ByLayer
 62
  256
370
   -1
100
AcDbLine
 10
172
 20
10
 11
173
 21
11
  0
LINE
  5
F2
100
AcDbEntity
  8
Sidewalls
  6
ByLayer
 62
  256
370
   -1
100
AcDbLine
 10
208.6620580695352
 20
15
 11
225.6620580695352
 21
15
  0
LINE
  5
F3
100
AcDbEntity
  8
Sidewalls
  6
ByLayer
 62
  256
370
   -1
100
AcDbLine
 10
245.6620580695352
 20
15
 11
263.6620580695352
 21
15
  0
LINE
  5
F4
100
AcDbEntity
  8
Sidewalls
  6
ByLayer
 62
  256
370
   -1
100
AcDbLine
 10
333.6620580695352
 20
15
 11
351.6620580695352
 21
15
  0
LINE
  5
F5
100
AcDbEntity
  8
Sidewalls
  6
ByLayer
 62
  256
370
   -1
100
AcDbLine
 10
371.6620580695352
 20
15
 11
388.6620580695351
 21
15
  0
LINE
  5
F6
100
AcDbEntity
  8
Sidewalls
  6
ByLayer
 62
  256
370
   -1
100
AcDbLine
 10
225.6620580695352
 20
15
 11
225.6620580695352
 21
11
  0
LINE
  5
F7
100
AcDbEntity
  8
Sidewalls
  6
ByLayer
 62
  256
370
   -1
100
AcDbLine
 10
225.6620580695352
 20
11
 11
226.6620580695352
 21
10
  0
LINE
  5
F8
100
AcDbEntity
  8
Sidewalls
  6
ByLayer
 62
  256
370
   -1
100
AcDbLine
 10
226.6620580695352
 20
10
 11
244.6620580695352
 21
10
  0
LINE
  5
F9
100
AcDbEntity
  8
Sidewalls
  6
ByLayer
 62
  256
370
   -1
100
AcDbLine
 10
245.6620580695352
 20
11
 11
245.6620580695352
 21
15
  0
LINE
  5
FA
100
AcDbEntity
  8
Sidewalls
  6
ByLayer
 62
  256
370
   -1
100
AcDbLine
 10
244.6620580695352
 20
10
 11
245.6620580695352
 21
11
  0
LINE
  5
FB
100
AcDbEntity
  8
Sidewalls
  6
ByLayer
 62
  256
370
   -1
100
AcDbLine
 10
263.6620580695352
 20
15
 11
263.6620580695352
 21
11
  0
LINE
  5
FC
100
AcDbEntity
  8
Sidewalls
  6
ByLayer
 62
  256
370
   -1
100
AcDbLine
 10
263.6620580695352
 20
11
 11
264.6620580695352
 21
10
  0
LINE
  5
FD
100
AcDbEntity
  8
Sidewalls
  6
ByLayer
 62
  256
370
   -1
100
AcDbLine
 10
264.6620580695352
 20
10
 11
332.6620580695352
 21
10
  0
LINE
  5
FE
100
AcDbEntity
  8
Sidewalls
  6
ByLayer
 62
  256
370
   -1
100
AcDbLine
 10
333.6620580695352
 20
11
 11
333.6620580695352
 21
15
  0
LINE
  5
FF
100
AcDbEntity
  8
Sidewalls
  6
ByLayer
 62
  256
370
   -1
100
AcDbLine
 10
332.6620580695352
 20
10
 11
333.6620580695352
 21
11
  0
LINE
  5
100
100
AcDbEntity
  8
Sidewalls
  6
ByLayer
 62
  256
370
   -1
100
AcDbLine
 10
351.6620580695352
 20
15
 11
351.6620580695352
 21
11
  0
LINE
  5
101
100
AcDbEntity
  8
Sidewalls
  6
ByLayer
 62
  256
370
   -1
100
AcDbLine
 10
351.6620580695352
 20
11
 11
352.6620580695352
 21
10
  0
LINE
  5
102
100
AcDbEntity
  8
Sidewalls
  6
ByLayer
 62
  256
370
   -1
100
AcDbLine
 10
352.6620580695352
 20
10
 11
370.6620580695352
 21
10
  0
LINE
  5
103
100
AcDbEntity
  8
Sidewalls
  6
ByLayer
 62
  256
370
   -1
100
AcDbLine
 10
371.6620580695352
 20
11
 11
371.6620580695352
 21
15
  0
LINE
  5
104
100
AcDbEntity
  8
Sidewalls
  6
ByLayer
 62
  256
370
   -1
100
AcDbLine
 10
370.6620580695352
 20
10
 11
371.6620580695352
 21
11
  0
LINE
  5
105
100
AcDbEntity
  8
Sidewalls
  6
ByLayer
 62
  256
370
   -1
100
AcDbLine
 10
10
 20
148
 11
190
 21
148
  0
LINE
  5
106
100
AcDbEntity
  8
Sidewalls
  6
ByLayer
 62
  256
370
   -1
100
AcDbLine
 10
190
 20
148
 11
190
 21
95
  0
LINE
  5
107
100
AcDbEntity
  8
Sidewalls
  6
ByLayer
 62
  256
370
   -1
100
AcDbLine
 10
10
 20
95
 11
10
 21
148
  0
LINE
  5
108
100
AcDbEntity
  8
Sidewalls
  6
ByLayer
 62
  256
370
   -1
100
AcDbLine
 10
10
 20
95
 11
27
 21
95
  0
LINE
  5
109
100
AcDbEntity
  8
Sidewalls
  6
ByLayer
 62
  256
370
   -1
100
AcDbLine
 10
47
 20
95
 11
65
 21
95
  0
LINE
  5
10A
100
AcDbEntity
  8
Sidewalls
  6
ByLayer
 62
  256
370
   -1
100
AcDbLine
 10
190
 20
95
 11
173
 21
95
  0
LINE
  5
10B
100
AcDbEntity
  8
Sidewalls
  6
ByLayer
 62
  256
370
   -1
100
AcDbLine
 10
153
 20
95
 11
135
 21
95
  0
LINE
  5
10C
100
AcDbEntity
  8
Sidewalls
  6
ByLayer
 62
  256
370
   -1
100
AcDbLine
 10
27
 20
95
 11
27
 21
91
  0
LINE
  5
10D
100
AcDbEntity
  8
Sidewalls
  6
ByLayer
 62
  256
370
   -1
100
AcDbLine
 10
27
 20
91
 11
28
 21
90
  0
LINE
  5
10E
100
AcDbEntity
  8
Sidewalls
  6
ByLayer
 62
  256
370
   -1
100
AcDbLine
 10
28
 20
90
 11
46
 21
90
  0
LINE
  5
10F
100
AcDbEntity
  8
Sidewalls
  6
ByLayer
 62
  256
370
   -1
100
AcDbLine
 10
47
 20
91
 11
47
 21
95
  0
LINE
  5
110
100
AcDbEntity
  8
Sidewalls
  6
ByLayer
 62
  256
370
   -1
100
AcDbLine
 10
46
 20
90
 11
47
 21
91
  0
LINE
  5
111
100
AcDbEntity
  8
Sidewalls
  6
ByLayer
 62
  256
370
   -1
100
AcDbLine
 10
65
 20
95
 11
65
 21
91
  0
LINE
  5
112
100
AcDbEntity
  8
Sidewalls
  6
ByLayer
 62
  256
370
   -1
100
AcDbLine
 10
65
 20
91
 11
66
 21
90
  0
LINE
  5
113
100
AcDbEntity
  8
Sidewalls
  6
ByLayer
 62
  256
370
   -1
100
AcDbLine
 10
134
 20
90
 11
66
 21
90
  0
LINE
  5
114
100
AcDbEntity
  8
Sidewalls
  6
ByLayer
 62
  256
370
   -1
100
AcDbLine
 10
135
 20
95
 11
135
 21
91
  0
LINE
  5
115
100
AcDbEntity
  8
Sidewalls
  6
ByLayer
 62
  256
370
   -1
100
AcDbLine
 10
134
 20
90
 11
135
 21
91
  0
LINE
  5
116
100
AcDbEntity
  8
Sidewalls
  6
ByLayer
 62
  256
370
   -1
100
AcDbLine
 10
153
 20
91
 11
153
 21
95
  0
LINE
  5
117
100
AcDbEntity
  8
Sidewalls
  6
ByLayer
 62
  256
370
   -1
100
AcDbLine
 10
153
 20
91
 11
154
 21
90
  0
LINE
  5
118
100
AcDbEntity
  8
Sidewalls
  6
ByLayer
 62
  256
370
   -1
100
AcDbLine
 10
172
 20
90
 11
154
 21
90
  0
LINE
  5
119
100
AcDbEntity
  8
Sidewalls
  6
ByLayer
 62
  256
370
   -1
100
AcDbLine
 10
173
 20
95
 11
173
 21
91
  0
LINE
  5
11A
100
AcDbEntity
  8
Sidewalls
  6
ByLayer
 62
  256
370
   -1
100
AcDbLine
 10
172
 20
90
 11
173
 21
91
  0
CIRCLE
  5
11B
100
AcDbEntity
  8
Sidewalls
  6
ByLayer
 62
  256
370
   -1
100
AcDbCircle
 10
131.3379419304648
 20
120
 40
12.25
  0
CIRCLE
  5
11C
100
AcDbEntity
  8
Sidewalls
  6
ByLayer
 62
  256
370
   -1
100
AcDbCircle
 10
101.3379419304648
 20
120
 40
12.25
  0
CIRCLE
  5
11D
100
AcDbEntity
  8
Sidewalls
  6
ByLayer
 62
  256
370
   -1
100
AcDbCircle
 10
71.33794193046479
 20
120
 40
12.25
  0
LINE
  5
11E
100
AcDbEntity
  8
corner_standoffs
  6
ByLayer
 62
  256
370
   -1
100
AcDbLine
 10
70
 20
-89.00000000000006
 11
75.10000000000002
 21
-89.00000000000006
  0
LINE
  5
11F
100
AcDbEntity
  8
corner_standoffs
  6
ByLayer
 62
  256
370
   -1
100
AcDbLine
 10
75.10000000000002
 20
-95.00000000000006
 11
76.60000000000002
 21
-95.00000000000006
  0
LINE
  5
120
100
AcDbEntity
  8
corner_standoffs
  6
ByLayer
 62
  256
370
   -1
100
AcDbLine
 10
76.60000000000002
 20
-95.00000000000006
 11
76.60000000000002
 21
-90.89999999999998
  0
LINE
  5
121
100
AcDbEntity
  8
corner_standoffs
  6
ByLayer
 62
  256
370
   -1
100
AcDbLine
 10
76.60000000000002
 20
-90.89999999999998
 11
75.10000000000002
 21
-90.89999999999998
  0
LINE
  5
122
100
AcDbEntity
  8
corner_standoffs
  6
ByLayer
 62
  256
370
   -1
100
AcDbLine
 10
70
 20
-90.89999999999998
 11
68.5
 21
-90.89999999999998
  0
LINE
  5
123
100
AcDbEntity
  8
corner_standoffs
  6
ByLayer
 62
  256
370
   -1
100
AcDbLine
 10
68.5
 20
-90.89999999999998
 11
68.5
 21
-95
  0
LINE
  5
124
100
AcDbEntity
  8
corner_standoffs
  6
ByLayer
 62
  256
370
   -1
100
AcDbLine
 10
68.5
 20
-95
 11
70
 21
-95
  0
LINE
  5
125
100
AcDbEntity
  8
corner_standoffs
  6
ByLayer
 62
  256
370
   -1
100
AcDbLine
 10
70
 20
-100.0000000000001
 11
70
 21
-95
  0
LINE
  5
126
100
AcDbEntity
  8
corner_standoffs
  6
ByLayer
 62
  256
370
   -1
100
AcDbLine
 10
70
 20
-90.89999999999998
 11
70
 21
-89.00000000000006
  0
LINE
  5
127
100
AcDbEntity
  8
corner_standoffs
  6
ByLayer
 62
  256
370
   -1
100
AcDbLine
 10
75.10000000000002
 20
-89.00000000000006
 11
75.10000000000002
 21
-90.89999999999998
  0
LINE
  5
128
100
AcDbEntity
  8
corner_standoffs
  6
ByLayer
 62
  256
370
   -1
100
AcDbLine
 10
75.10000000000002
 20
-95.00000000000006
 11
75.10000000000002
 21
-100.0000000000001
  0
LINE
  5
129
100
AcDbEntity
  8
corner_standoffs
  6
ByLayer
 62
  256
370
   -1
100
AcDbLine
 10
100
 20
-55.10000000000008
 11
75.10000000000002
 21
-55.10000000000008
  0
LINE
  5
12A
100
AcDbEntity
  8
corner_standoffs
  6
ByLayer
 62
  256
370
   -1
100
AcDbLine
 10
55.10000000000002
 20
-75.10000000000008
 11
55.10000000000002
 21
-100.0000000000001
  0
LINE
  5
12B
100
AcDbEntity
  8
corner_standoffs
  6
ByLayer
 62
  256
370
   -1
100
AcDbLine
 10
75.10000000000002
 20
-55.10000000000008
 11
55.10000000000002
 21
-75.10000000000008
  0
LINE
  5
12C
100
AcDbEntity
  8
corner_standoffs
  6
ByLayer
 62
  256
370
   -1
100
AcDbLine
 10
110.9999999999999
 20
-70.00000000000006
 11
110.9999999999999
 21
-75.10000000000008
  0
LINE
  5
12D
100
AcDbEntity
  8
corner_standoffs
  6
ByLayer
 62
  256
370
   -1
100
AcDbLine
 10
104.9999999999999
 20
-75.10000000000008
 11
104.9999999999999
 21
-76.60000000000008
  0
LINE
  5
12E
100
AcDbEntity
  8
corner_standoffs
  6
ByLayer
 62
  256
370
   -1
100
AcDbLine
 10
104.9999999999999
 20
-76.60000000000008
 11
109.1
 21
-76.60000000000008
  0
LINE
  5
12F
100
AcDbEntity
  8
corner_standoffs
  6
ByLayer
 62
  256
370
   -1
100
AcDbLine
 10
109.1
 20
-76.60000000000008
 11
109.1
 21
-75.10000000000008
  0
LINE
  5
130
100
AcDbEntity
  8
corner_standoffs
  6
ByLayer
 62
  256
370
   -1
100
AcDbLine
 10
109.1
 20
-70.00000000000006
 11
109.1
 21
-68.50000000000006
  0
LINE
  5
131
100
AcDbEntity
  8
corner_standoffs
  6
ByLayer
 62
  256
370
   -1
100
AcDbLine
 10
109.1
 20
-68.50000000000006
 11
105
 21
-68.50000000000006
  0
LINE
  5
132
100
AcDbEntity
  8
corner_standoffs
  6
ByLayer
 62
  256
370
   -1
100
AcDbLine
 10
105
 20
-68.50000000000006
 11
105
 21
-70.00000000000006
  0
LINE
  5
133
100
AcDbEntity
  8
corner_standoffs
  6
ByLayer
 62
  256
370
   -1
100
AcDbLine
 10
99.99999999999994
 20
-70.00000000000006
 11
105
 21
-70.00000000000006
  0
LINE
  5
134
100
AcDbEntity
  8
corner_standoffs
  6
ByLayer
 62
  256
370
   -1
100
AcDbLine
 10
109.1
 20
-70.00000000000006
 11
110.9999999999999
 21
-70.00000000000006
  0
LINE
  5
135
100
AcDbEntity
  8
corner_standoffs
  6
ByLayer
 62
  256
370
   -1
100
AcDbLine
 10
110.9999999999999
 20
-75.10000000000008
 11
109.1
 21
-75.10000000000008
  0
LINE
  5
136
100
AcDbEntity
  8
corner_standoffs
  6
ByLayer
 62
  256
370
   -1
100
AcDbLine
 10
104.9999999999999
 20
-75.10000000000008
 11
99.99999999999994
 21
-75.10000000000008
  0
LINE
  5
137
100
AcDbEntity
  8
corner_standoffs
  6
ByLayer
 62
  256
370
   -1
100
AcDbLine
 10
144.8999999999999
 20
-100.0000000000001
 11
144.8999999999999
 21
-75.10000000000008
  0
LINE
  5
138
100
AcDbEntity
  8
corner_standoffs
  6
ByLayer
 62
  256
370
   -1
100
AcDbLine
 10
124.8999999999999
 20
-55.10000000000008
 11
99.99999999999994
 21
-55.10000000000008
  0
LINE
  5
139
100
AcDbEntity
  8
corner_standoffs
  6
ByLayer
 62
  256
370
   -1
100
AcDbLine
 10
144.8999999999999
 20
-75.10000000000008
 11
124.8999999999999
 21
-55.10000000000008
  0
LINE
  5
13A
100
AcDbEntity
  8
corner_standoffs
  6
ByLayer
 62
  256
370
   -1
100
AcDbLine
 10
89
 20
-69.99999999999994
 11
89
 21
-75.10000000000008
  0
LINE
  5
13B
100
AcDbEntity
  8
corner_standoffs
  6
ByLayer
 62
  256
370
   -1
100
AcDbLine
 10
95
 20
-75.09999999999997
 11
95
 21
-76.59999999999997
  0
LINE
  5
13C
100
AcDbEntity
  8
corner_standoffs
  6
ByLayer
 62
  256
370
   -1
100
AcDbLine
 10
95
 20
-76.59999999999997
 11
90.89999999999998
 21
-76.59999999999997
  0
LINE
  5
13D
100
AcDbEntity
  8
corner_standoffs
  6
ByLayer
 62
  256
370
   -1
100
AcDbLine
 10
90.89999999999998
 20
-76.59999999999997
 11
90.89999999999998
 21
-75.09999999999997
  0
LINE
  5
13E
100
AcDbEntity
  8
corner_standoffs
  6
ByLayer
 62
  256
370
   -1
100
AcDbLine
 10
90.89999999999998
 20
-70.00000000000006
 11
90.89999999999998
 21
-68.50000000000006
  0
LINE
  5
13F
100
AcDbEntity
  8
corner_standoffs
  6
ByLayer
 62
  256
370
   -1
100
AcDbLine
 10
90.89999999999998
 20
-68.50000000000006
 11
95
 21
-68.50000000000006
  0
LINE
  5
140
100
AcDbEntity
  8
corner_standoffs
  6
ByLayer
 62
  256
370
   -1
100
AcDbLine
 10
95
 20
-68.50000000000006
 11
95
 21
-69.99999999999994
  0
LINE
  5
141
100
AcDbEntity
  8
corner_standoffs
  6
ByLayer
 62
  256
370
   -1
100
AcDbLine
 10
100
 20
-69.99999999999994
 11
95
 21
-69.99999999999994
  0
LINE
  5
142
100
AcDbEntity
  8
corner_standoffs
  6
ByLayer
 62
  256
370
   -1
100
AcDbLine
 10
90.89999999999998
 20
-69.99999999999994
 11
89
 21
-69.99999999999994
  0
LINE
  5
143
100
AcDbEntity
  8
corner_standoffs
  6
ByLayer
 62
  256
370
   -1
100
AcDbLine
 10
89
 20
-75.10000000000008
 11
90.89999999999998
 21
-75.10000000000008
  0
LINE
  5
144
100
AcDbEntity
  8
corner_standoffs
  6
ByLayer
 62
  256
370
   -1
100
AcDbLine
 10
95
 20
-75.09999999999997
 11
100
 21
-75.10000000000008
  0
LINE
  5
145
100
AcDbEntity
  8
corner_standoffs
  6
ByLayer
 62
  256
370
   -1
100
AcDbLine
 10
100
 20
-75.10000000000008
 11
100
 21
-100
  0
LINE
  5
146
100
AcDbEntity
  8
corner_standoffs
  6
ByLayer
 62
  256
370
   -1
100
AcDbLine
 10
100
 20
-69.99999999999994
 11
100
 21
-55.10000000000008
  0
LINE
  5
147
100
AcDbEntity
  8
corner_standoffs
  6
ByLayer
 62
  256
370
   -1
100
AcDbLine
 10
89
 20
-130
 11
89
 21
-124.9
  0
LINE
  5
148
100
AcDbEntity
  8
corner_standoffs
  6
ByLayer
 62
  256
370
   -1
100
AcDbLine
 10
95
 20
-124.9
 11
95
 21
-123.4
  0
LINE
  5
149
100
AcDbEntity
  8
corner_standoffs
  6
ByLayer
 62
  256
370
   -1
100
AcDbLine
 10
95
 20
-123.4
 11
90.89999999999998
 21
-123.4
  0
LINE
  5
14A
100
AcDbEntity
  8
corner_standoffs
  6
ByLayer
 62
  256
370
   -1
100
AcDbLine
 10
90.89999999999998
 20
-123.4
 11
90.89999999999998
 21
-124.9
  0
LINE
  5
14B
100
AcDbEntity
  8
corner_standoffs
  6
ByLayer
 62
  256
370
   -1
100
AcDbLine
 10
90.89999999999998
 20
-130
 11
90.89999999999998
 21
-131.5
  0
LINE
  5
14C
100
AcDbEntity
  8
corner_standoffs
  6
ByLayer
 62
  256
370
   -1
100
AcDbLine
 10
90.89999999999998
 20
-131.5
 11
94.99999999999989
 21
-131.5
  0
LINE
  5
14D
100
AcDbEntity
  8
corner_standoffs
  6
ByLayer
 62
  256
370
   -1
100
AcDbLine
 10
94.99999999999989
 20
-131.5
 11
94.99999999999989
 21
-130
  0
LINE
  5
14E
100
AcDbEntity
  8
corner_standoffs
  6
ByLayer
 62
  256
370
   -1
100
AcDbLine
 10
100
 20
-130
 11
94.99999999999989
 21
-130
  0
LINE
  5
14F
100
AcDbEntity
  8
corner_standoffs
  6
ByLayer
 62
  256
370
   -1
100
AcDbLine
 10
90.89999999999998
 20
-130
 11
89
 21
-130
  0
LINE
  5
150
100
AcDbEntity
  8
corner_standoffs
  6
ByLayer
 62
  256
370
   -1
100
AcDbLine
 10
89
 20
-124.9
 11
90.89999999999998
 21
-124.9
  0
LINE
  5
151
100
AcDbEntity
  8
corner_standoffs
  6
ByLayer
 62
  256
370
   -1
100
AcDbLine
 10
95
 20
-124.9
 11
100
 21
-124.9
  0
LINE
  5
152
100
AcDbEntity
  8
corner_standoffs
  6
ByLayer
 62
  256
370
   -1
100
AcDbLine
 10
55.10000000000002
 20
-100
 11
55.10000000000002
 21
-124.9
  0
LINE
  5
153
100
AcDbEntity
  8
corner_standoffs
  6
ByLayer
 62
  256
370
   -1
100
AcDbLine
 10
75.10000000000002
 20
-144.9
 11
100
 21
-144.9
  0
LINE
  5
154
100
AcDbEntity
  8
corner_standoffs
  6
ByLayer
 62
  256
370
   -1
100
AcDbLine
 10
55.10000000000002
 20
-124.9
 11
75.10000000000002
 21
-144.9
  0
LINE
  5
155
100
AcDbEntity
  8
corner_standoffs
  6
ByLayer
 62
  256
370
   -1
100
AcDbLine
 10
130
 20
-111
 11
124.9
 21
-111
  0
LINE
  5
156
100
AcDbEntity
  8
corner_standoffs
  6
ByLayer
 62
  256
370
   -1
100
AcDbLine
 10
124.9
 20
-105
 11
123.4
 21
-105
  0
LINE
  5
157
100
AcDbEntity
  8
corner_standoffs
  6
ByLayer
 62
  256
370
   -1
100
AcDbLine
 10
123.4
 20
-105
 11
123.4
 21
-109.1000000000001
  0
LINE
  5
158
100
AcDbEntity
  8
corner_standoffs
  6
ByLayer
 62
  256
370
   -1
100
AcDbLine
 10
123.4
 20
-109.1000000000001
 11
124.9
 21
-109.1000000000001
  0
LINE
  5
159
100
AcDbEntity
  8
corner_standoffs
  6
ByLayer
 62
  256
370
   -1
100
AcDbLine
 10
130
 20
-109.1000000000001
 11
131.5
 21
-109.1000000000001
  0
LINE
  5
15A
100
AcDbEntity
  8
corner_standoffs
  6
ByLayer
 62
  256
370
   -1
100
AcDbLine
 10
131.5
 20
-109.1000000000001
 11
131.5
 21
-105.0000000000001
  0
LINE
  5
15B
100
AcDbEntity
  8
corner_standoffs
  6
ByLayer
 62
  256
370
   -1
100
AcDbLine
 10
131.5
 20
-105.0000000000001
 11
130
 21
-105.0000000000001
  0
LINE
  5
15C
100
AcDbEntity
  8
corner_standoffs
  6
ByLayer
 62
  256
370
   -1
100
AcDbLine
 10
130
 20
-99.99999999999997
 11
130
 21
-105.0000000000001
  0
LINE
  5
15D
100
AcDbEntity
  8
corner_standoffs
  6
ByLayer
 62
  256
370
   -1
100
AcDbLine
 10
130
 20
-109.1000000000001
 11
130
 21
-111
  0
LINE
  5
15E
100
AcDbEntity
  8
corner_standoffs
  6
ByLayer
 62
  256
370
   -1
100
AcDbLine
 10
124.9
 20
-111
 11
124.9
 21
-109.1000000000001
  0
LINE
  5
15F
100
AcDbEntity
  8
corner_standoffs
  6
ByLayer
 62
  256
370
   -1
100
AcDbLine
 10
124.9
 20
-105
 11
124.9
 21
-99.99999999999997
  0
LINE
  5
160
100
AcDbEntity
  8
corner_standoffs
  6
ByLayer
 62
  256
370
   -1
100
AcDbLine
 10
100
 20
-144.9
 11
124.9
 21
-144.9
  0
LINE
  5
161
100
AcDbEntity
  8
corner_standoffs
  6
ByLayer
 62
  256
370
   -1
100
AcDbLine
 10
144.9
 20
-124.9
 11
144.9
 21
-99.99999999999997
  0
LINE
  5
162
100
AcDbEntity
  8
corner_standoffs
  6
ByLayer
 62
  256
370
   -1
100
AcDbLine
 10
124.9
 20
-144.9
 11
144.9
 21
-124.9
  0
LINE
  5
163
100
AcDbEntity
  8
corner_standoffs
  6
ByLayer
 62
  256
370
   -1
100
AcDbLine
 10
111
 20
-130.0000000000001
 11
111
 21
-124.9
  0
LINE
  5
164
100
AcDbEntity
  8
corner_standoffs
  6
ByLayer
 62
  256
370
   -1
100
AcDbLine
 10
105
 20
-124.9000000000001
 11
105
 21
-123.4000000000001
  0
LINE
  5
165
100
AcDbEntity
  8
corner_standoffs
  6
ByLayer
 62
  256
370
   -1
100
AcDbLine
 10
105
 20
-123.4000000000001
 11
109.1
 21
-123.4000000000001
  0
LINE
  5
166
100
AcDbEntity
  8
corner_standoffs
  6
ByLayer
 62
  256
370
   -1
100
AcDbLine
 10
109.1
 20
-123.4000000000001
 11
109.1
 21
-124.9000000000001
  0
LINE
  5
167
100
AcDbEntity
  8
corner_standoffs
  6
ByLayer
 62
  256
370
   -1
100
AcDbLine
 10
109.1
 20
-130
 11
109.1
 21
-131.5
  0
LINE
  5
168
100
AcDbEntity
  8
corner_standoffs
  6
ByLayer
 62
  256
370
   -1
100
AcDbLine
 10
109.1
 20
-131.5
 11
105
 21
-131.5
  0
LINE
  5
169
100
AcDbEntity
  8
corner_standoffs
  6
ByLayer
 62
  256
370
   -1
100
AcDbLine
 10
105
 20
-131.5
 11
105
 21
-130.0000000000001
  0
LINE
  5
16A
100
AcDbEntity
  8
corner_standoffs
  6
ByLayer
 62
  256
370
   -1
100
AcDbLine
 10
100
 20
-130.0000000000001
 11
105
 21
-130.0000000000001
  0
LINE
  5
16B
100
AcDbEntity
  8
corner_standoffs
  6
ByLayer
 62
  256
370
   -1
100
AcDbLine
 10
109.1
 20
-130.0000000000001
 11
111
 21
-130.0000000000001
  0
LINE
  5
16C
100
AcDbEntity
  8
corner_standoffs
  6
ByLayer
 62
  256
370
   -1
100
AcDbLine
 10
111
 20
-124.9
 11
109.1
 21
-124.9
  0
LINE
  5
16D
100
AcDbEntity
  8
corner_standoffs
  6
ByLayer
 62
  256
370
   -1
100
AcDbLine
 10
105
 20
-124.9000000000001
 11
100
 21
-124.9
  0
LINE
  5
16E
100
AcDbEntity
  8
corner_standoffs
  6
ByLayer
 62
  256
370
   -1
100
AcDbLine
 10
100
 20
-124.9
 11
100
 21
-100
  0
LINE
  5
16F
100
AcDbEntity
  8
corner_standoffs
  6
ByLayer
 62
  256
370
   -1
100
AcDbLine
 10
100
 20
-130.0000000000001
 11
100
 21
-144.9
  0
LINE
  5
170
100
AcDbEntity
  8
corner_standoffs
  6
ByLayer
 62
  256
370
   -1
100
AcDbLine
 10
70
 20
-111
 11
75.10000000000014
 21
-111
  0
LINE
  5
171
100
AcDbEntity
  8
corner_standoffs
  6
ByLayer
 62
  256
370
   -1
100
AcDbLine
 10
75.10000000000002
 20
-105
 11
76.60000000000002
 21
-105
  0
LINE
  5
172
100
AcDbEntity
  8
corner_standoffs
  6
ByLayer
 62
  256
370
   -1
100
AcDbLine
 10
76.60000000000002
 20
-105
 11
76.60000000000002
 21
-109.1
  0
LINE
  5
173
100
AcDbEntity
  8
corner_standoffs
  6
ByLayer
 62
  256
370
   -1
100
AcDbLine
 10
76.60000000000002
 20
-109.1
 11
75.10000000000002
 21
-109.1
  0
LINE
  5
174
100
AcDbEntity
  8
corner_standoffs
  6
ByLayer
 62
  256
370
   -1
100
AcDbLine
 10
70.00000000000011
 20
-109.1
 11
68.50000000000011
 21
-109.1
  0
LINE
  5
175
100
AcDbEntity
  8
corner_standoffs
  6
ByLayer
 62
  256
370
   -1
100
AcDbLine
 10
68.50000000000011
 20
-109.1
 11
68.50000000000011
 21
-105
  0
LINE
  5
176
100
AcDbEntity
  8
corner_standoffs
  6
ByLayer
 62
  256
370
   -1
100
AcDbLine
 10
68.50000000000011
 20
-105
 11
70
 21
-105
  0
LINE
  5
177
100
AcDbEntity
  8
corner_standoffs
  6
ByLayer
 62
  256
370
   -1
100
AcDbLine
 10
70
 20
-100
 11
70
 21
-105
  0
LINE
  5
178
100
AcDbEntity
  8
corner_standoffs
  6
ByLayer
 62
  256
370
   -1
100
AcDbLine
 10
70
 20
-109.1
 11
70
 21
-111
  0
LINE
  5
179
100
AcDbEntity
  8
corner_standoffs
  6
ByLayer
 62
  256
370
   -1
100
AcDbLine
 10
75.10000000000014
 20
-111
 11
75.10000000000014
 21
-109.1
  0
LINE
  5
17A
100
AcDbEntity
  8
corner_standoffs
  6
ByLayer
 62
  256
370
   -1
100
AcDbLine
 10
75.10000000000002
 20
-105
 11
75.10000000000014
 21
-100
  0
LINE
  5
17B
100
AcDbEntity
  8
corner_standoffs
  6
ByLayer
 62
  256
370
   -1
100
AcDbLine
 10
70
 20
-100
 11
55.10000000000002
 21
-100
  0
LINE
  5
17C
100
AcDbEntity
  8
corner_standoffs
  6
ByLayer
 62
  256
370
   -1
100
AcDbLine
 10
75.10000000000002
 20
-100
 11
100
 21
-100
  0
LINE
  5
17D
100
AcDbEntity
  8
corner_standoffs
  6
ByLayer
 62
  256
370
   -1
100
AcDbLine
 10
130
 20
-89.00000000000006
 11
124.8999999999999
 21
-89.00000000000006
  0
LINE
  5
17E
100
AcDbEntity
  8
corner_standoffs
  6
ByLayer
 62
  256
370
   -1
100
AcDbLine
 10
124.9
 20
-95.00000000000006
 11
123.4
 21
-95.00000000000006
  0
LINE
  5
17F
100
AcDbEntity
  8
corner_standoffs
  6
ByLayer
 62
  256
370
   -1
100
AcDbLine
 10
123.4
 20
-95.00000000000006
 11
123.4
 21
-90.90000000000009
  0
LINE
  5
180
100
AcDbEntity
  8
corner_standoffs
  6
ByLayer
 62
  256
370
   -1
100
AcDbLine
 10
123.4
 20
-90.90000000000009
 11
124.9
 21
-90.90000000000009
  0
LINE
  5
181
100
AcDbEntity
  8
corner_standoffs
  6
ByLayer
 62
  256
370
   -1
100
AcDbLine
 10
129.9999999999999
 20
-90.90000000000009
 11
131.4999999999999
 21
-90.90000000000009
  0
LINE
  5
182
100
AcDbEntity
  8
corner_standoffs
  6
ByLayer
 62
  256
370
   -1
100
AcDbLine
 10
131.4999999999999
 20
-90.90000000000009
 11
131.4999999999999
 21
-95.00000000000006
  0
LINE
  5
183
100
AcDbEntity
  8
corner_standoffs
  6
ByLayer
 62
  256
370
   -1
100
AcDbLine
 10
131.4999999999999
 20
-95.00000000000006
 11
130
 21
-95.00000000000006
  0
LINE
  5
184
100
AcDbEntity
  8
corner_standoffs
  6
ByLayer
 62
  256
370
   -1
100
AcDbLine
 10
130
 20
-100.0000000000001
 11
130
 21
-95.00000000000006
  0
LINE
  5
185
100
AcDbEntity
  8
corner_standoffs
  6
ByLayer
 62
  256
370
   -1
100
AcDbLine
 10
130
 20
-90.90000000000009
 11
130
 21
-89.00000000000006
  0
LINE
  5
186
100
AcDbEntity
  8
corner_standoffs
  6
ByLayer
 62
  256
370
   -1
100
AcDbLine
 10
124.8999999999999
 20
-89.00000000000006
 11
124.8999999999999
 21
-90.90000000000009
  0
LINE
  5
187
100
AcDbEntity
  8
corner_standoffs
  6
ByLayer
 62
  256
370
   -1
100
AcDbLine
 10
124.9
 20
-95.00000000000006
 11
124.8999999999999
 21
-100.0000000000001
  0
LINE
  5
188
100
AcDbEntity
  8
corner_standoffs
  6
ByLayer
 62
  256
370
   -1
100
AcDbLine
 10
124.9
 20
-100
 11
100
 21
-100
  0
LINE
  5
189
100
AcDbEntity
  8
corner_standoffs
  6
ByLayer
 62
  256
370
   -1
100
AcDbLine
 10
130
 20
-100
 11
144.9
 21
-100
  0
LINE
  5
18A
100
AcDbEntity
  8
corner_standoffs
  6
ByLayer
 62
  256
370
   -1
100
AcDbLine
 10
79.20000000000005
 20
-48.10000000000008
 11
85.20000000000005
 21
-42.10000000000008
  0
LINE
  5
18B
100
AcDbEntity
  8
corner_standoffs
  6
ByLayer
 62
  256
370
   -1
100
AcDbLine
 10
54.20000000000005
 20
-48.10000000000008
 11
79.20000000000005
 21
-48.10000000000008
  0
LINE
  5
18C
100
AcDbEntity
  8
corner_standoffs
  6
ByLayer
 62
  256
370
   -1
100
AcDbLine
 10
48.20000000000005
 20
-54.10000000000008
 11
54.20000000000005
 21
-48.10000000000008
  0
LINE
  5
18D
100
AcDbEntity
  8
corner_standoffs
  6
ByLayer
 62
  256
370
   -1
100
AcDbLine
 10
47.20000000000005
 20
-30.20000000000016
 11
47.20000000000005
 21
-21.2000000000001
  0
LINE
  5
18E
100
AcDbEntity
  8
corner_standoffs
  6
ByLayer
 62
  256
370
   -1
100
AcDbLine
 10
47.20000000000005
 20
-21.2000000000001
 11
67.20000000000005
 21
-21.2000000000001
  0
LINE
  5
18F
100
AcDbEntity
  8
corner_standoffs
  6
ByLayer
 62
  256
370
   -1
100
AcDbLine
 10
67.20000000000005
 20
-21.2000000000001
 11
67.20000000000005
 21
-30.20000000000016
  0
LINE
  5
190
100
AcDbEntity
  8
corner_standoffs
  6
ByLayer
 62
  256
370
   -1
100
AcDbLine
 10
67.20000000000005
 20
-30.20000000000016
 11
47.20000000000005
 21
-30.20000000000016
  0
LINE
  5
191
100
AcDbEntity
  8
corner_standoffs
  6
ByLayer
 62
  256
370
   -1
100
AcDbLine
 10
30.20000000000005
 20
-47.2000000000001
 11
21.20000000000005
 21
-47.2000000000001
  0
LINE
  5
192
100
AcDbEntity
  8
corner_standoffs
  6
ByLayer
 62
  256
370
   -1
100
AcDbLine
 10
21.20000000000005
 20
-47.2000000000001
 11
21.20000000000005
 21
-67.19999999999999
  0
LINE
  5
193
100
AcDbEntity
  8
corner_standoffs
  6
ByLayer
 62
  256
370
   -1
100
AcDbLine
 10
21.20000000000005
 20
-67.19999999999999
 11
30.20000000000005
 21
-67.19999999999999
  0
LINE
  5
194
100
AcDbEntity
  8
corner_standoffs
  6
ByLayer
 62
  256
370
   -1
100
AcDbLine
 10
30.20000000000005
 20
-47.2000000000001
 11
30.20000000000005
 21
-67.19999999999999
  0
LINE
  5
195
100
AcDbEntity
  8
corner_standoffs
  6
ByLayer
 62
  256
370
   -1
100
AcDbLine
 10
85.20000000000005
 20
-42.10000000000008
 11
85.20000000000005
 21
-25.10000000000008
  0
LINE
  5
196
100
AcDbEntity
  8
corner_standoffs
  6
ByLayer
 62
  256
370
   -1
100
AcDbLine
 10
79.20000000000005
 20
-19.10000000000008
 11
85.20000000000005
 21
-25.10000000000008
  0
LINE
  5
197
100
AcDbEntity
  8
corner_standoffs
  6
ByLayer
 62
  256
370
   -1
100
AcDbLine
 10
48.20000000000005
 20
-79.2000000000001
 11
48.20000000000005
 21
-54.10000000000008
  0
LINE
  5
198
100
AcDbEntity
  8
corner_standoffs
  6
ByLayer
 62
  256
370
   -1
100
AcDbLine
 10
42.20000000000005
 20
-85.2000000000001
 11
48.20000000000005
 21
-79.2000000000001
  0
LINE
  5
199
100
AcDbEntity
  8
corner_standoffs
  6
ByLayer
 62
  256
370
   -1
100
AcDbLine
 10
25.10000000000002
 20
-85.2000000000001
 11
42.20000000000005
 21
-85.2000000000001
  0
LINE
  5
19A
100
AcDbEntity
  8
corner_standoffs
  6
ByLayer
 62
  256
370
   -1
100
AcDbLine
 10
25.10000000000002
 20
-85.2000000000001
 11
19.10000000000002
 21
-79.2000000000001
  0
LINE
  5
19B
100
AcDbEntity
  8
corner_standoffs
  6
ByLayer
 62
  256
370
   -1
100
AcDbLine
 10
19.10000000000002
 20
-29.10000000000008
 11
19.10000000000002
 21
-79.2000000000001
  0
LINE
  5
19C
100
AcDbEntity
  8
corner_standoffs
  6
ByLayer
 62
  256
370
   -1
100
AcDbLine
 10
79.20000000000005
 20
-19.10000000000008
 11
29.10000000000002
 21
-19.10000000000008
  0
ARC
  5
19D
100
AcDbEntity
  8
corner_standoffs
  6
ByLayer
 62
  256
370
   -1
100
AcDbCircle
 10
29.10000000000002
 20
-29.10000000000008
 40
10
100
AcDbArc
 50
90
 51
180
  0
LINE
  5
19E
100
AcDbEntity
  8
corner_standoffs
  6
ByLayer
 62
  256
370
   -1
100
AcDbLine
 10
48.10000000000002
 20
-121.0000000000001
 11
42.10000000000002
 21
-115.0000000000001
  0
LINE
  5
19F
100
AcDbEntity
  8
corner_standoffs
  6
ByLayer
 62
  256
370
   -1
100
AcDbLine
 10
48.10000000000002
 20
-146.0000000000001
 11
48.10000000000002
 21
-121.0000000000001
  0
LINE
  5
1A0
100
AcDbEntity
  8
corner_standoffs
  6
ByLayer
 62
  256
370
   -1
100
AcDbLine
 10
54.10000000000002
 20
-152.0000000000001
 11
48.10000000000002
 21
-146.0000000000001
  0
LINE
  5
1A1
100
AcDbEntity
  8
corner_standoffs
  6
ByLayer
 62
  256
370
   -1
100
AcDbLine
 10
30.2000000000001
 20
-153.0000000000001
 11
21.20000000000005
 21
-153.0000000000001
  0
LINE
  5
1A2
100
AcDbEntity
  8
corner_standoffs
  6
ByLayer
 62
  256
370
   -1
100
AcDbLine
 10
21.20000000000005
 20
-153.0000000000001
 11
21.20000000000005
 21
-133.0000000000001
  0
LINE
  5
1A3
100
AcDbEntity
  8
corner_standoffs
  6
ByLayer
 62
  256
370
   -1
100
AcDbLine
 10
21.20000000000005
 20
-133.0000000000001
 11
30.2000000000001
 21
-133.0000000000001
  0
LINE
  5
1A4
100
AcDbEntity
  8
corner_standoffs
  6
ByLayer
 62
  256
370
   -1
100
AcDbLine
 10
30.2000000000001
 20
-133.0000000000001
 11
30.2000000000001
 21
-153.0000000000001
  0
LINE
  5
1A5
100
AcDbEntity
  8
corner_standoffs
  6
ByLayer
 62
  256
370
   -1
100
AcDbLine
 10
47.20000000000005
 20
-170.0000000000001
 11
47.20000000000005
 21
-179.0000000000001
  0
LINE
  5
1A6
100
AcDbEntity
  8
corner_standoffs
  6
ByLayer
 62
  256
370
   -1
100
AcDbLine
 10
47.20000000000005
 20
-179.0000000000001
 11
67.19999999999993
 21
-179.0000000000001
  0
LINE
  5
1A7
100
AcDbEntity
  8
corner_standoffs
  6
ByLayer
 62
  256
370
   -1
100
AcDbLine
 10
67.19999999999993
 20
-179.0000000000001
 11
67.19999999999993
 21
-170.0000000000001
  0
LINE
  5
1A8
100
AcDbEntity
  8
corner_standoffs
  6
ByLayer
 62
  256
370
   -1
100
AcDbLine
 10
47.20000000000005
 20
-170.0000000000001
 11
67.19999999999993
 21
-170.0000000000001
  0
LINE
  5
1A9
100
AcDbEntity
  8
corner_standoffs
  6
ByLayer
 62
  256
370
   -1
100
AcDbLine
 10
42.10000000000002
 20
-115.0000000000001
 11
25.10000000000002
 21
-115.0000000000001
  0
LINE
  5
1AA
100
AcDbEntity
  8
corner_standoffs
  6
ByLayer
 62
  256
370
   -1
100
AcDbLine
 10
19.10000000000002
 20
-121.0000000000001
 11
25.10000000000002
 21
-115.0000000000001
  0
LINE
  5
1AB
100
AcDbEntity
  8
corner_standoffs
  6
ByLayer
 62
  256
370
   -1
100
AcDbLine
 10
79.20000000000005
 20
-152.0000000000001
 11
54.10000000000002
 21
-152.0000000000001
  0
LINE
  5
1AC
100
AcDbEntity
  8
corner_standoffs
  6
ByLayer
 62
  256
370
   -1
100
AcDbLine
 10
85.20000000000005
 20
-158.0000000000001
 11
79.20000000000005
 21
-152.0000000000001
  0
LINE
  5
1AD
100
AcDbEntity
  8
corner_standoffs
  6
ByLayer
 62
  256
370
   -1
100
AcDbLine
 10
85.20000000000005
 20
-175.1000000000001
 11
85.20000000000005
 21
-158.0000000000001
  0
LINE
  5
1AE
100
AcDbEntity
  8
corner_standoffs
  6
ByLayer
 62
  256
370
   -1
100
AcDbLine
 10
85.20000000000005
 20
-175.1000000000001
 11
79.20000000000005
 21
-181.1000000000001
  0
LINE
  5
1AF
100
AcDbEntity
  8
corner_standoffs
  6
ByLayer
 62
  256
370
   -1
100
AcDbLine
 10
29.10000000000002
 20
-181.1000000000001
 11
79.20000000000005
 21
-181.1000000000001
  0
LINE
  5
1B0
100
AcDbEntity
  8
corner_standoffs
  6
ByLayer
 62
  256
370
   -1
100
AcDbLine
 10
19.10000000000002
 20
-121.0000000000001
 11
19.10000000000002
 21
-171.1000000000001
  0
ARC
  5
1B1
100
AcDbEntity
  8
corner_standoffs
  6
ByLayer
 62
  256
370
   -1
100
AcDbCircle
 10
29.10000000000002
 20
-171.1000000000001
 40
10
100
AcDbArc
 50
180
 51
270
  0
LINE
  5
1B2
100
AcDbEntity
  8
corner_standoffs
  6
ByLayer
 62
  256
370
   -1
100
AcDbLine
 10
121
 20
-152.1000000000001
 11
115
 21
-158.1000000000001
  0
LINE
  5
1B3
100
AcDbEntity
  8
corner_standoffs
  6
ByLayer
 62
  256
370
   -1
100
AcDbLine
 10
146
 20
-152.1000000000001
 11
121
 21
-152.1000000000001
  0
LINE
  5
1B4
100
AcDbEntity
  8
corner_standoffs
  6
ByLayer
 62
  256
370
   -1
100
AcDbLine
 10
152
 20
-146.1000000000001
 11
146
 21
-152.1000000000001
  0
LINE
  5
1B5
100
AcDbEntity
  8
corner_standoffs
  6
ByLayer
 62
  256
370
   -1
100
AcDbLine
 10
153
 20
-170
 11
153
 21
-179.0000000000001
  0
LINE
  5
1B6
100
AcDbEntity
  8
corner_standoffs
  6
ByLayer
 62
  256
370
   -1
100
AcDbLine
 10
153
 20
-179.0000000000001
 11
133
 21
-179.0000000000001
  0
LINE
  5
1B7
100
AcDbEntity
  8
corner_standoffs
  6
ByLayer
 62
  256
370
   -1
100
AcDbLine
 10
133
 20
-179.0000000000001
 11
133
 21
-170
  0
LINE
  5
1B8
100
AcDbEntity
  8
corner_standoffs
  6
ByLayer
 62
  256
370
   -1
100
AcDbLine
 10
133
 20
-170
 11
153
 21
-170
  0
LINE
  5
1B9
100
AcDbEntity
  8
corner_standoffs
  6
ByLayer
 62
  256
370
   -1
100
AcDbLine
 10
170
 20
-153.0000000000001
 11
179
 21
-153.0000000000001
  0
LINE
  5
1BA
100
AcDbEntity
  8
corner_standoffs
  6
ByLayer
 62
  256
370
   -1
100
AcDbLine
 10
179
 20
-153.0000000000001
 11
179
 21
-133.0000000000002
  0
LINE
  5
1BB
100
AcDbEntity
  8
corner_standoffs
  6
ByLayer
 62
  256
370
   -1
100
AcDbLine
 10
179
 20
-133.0000000000002
 11
170
 21
-133.0000000000002
  0
LINE
  5
1BC
100
AcDbEntity
  8
corner_standoffs
  6
ByLayer
 62
  256
370
   -1
100
AcDbLine
 10
170
 20
-153.0000000000001
 11
170
 21
-133.0000000000002
  0
LINE
  5
1BD
100
AcDbEntity
  8
corner_standoffs
  6
ByLayer
 62
  256
370
   -1
100
AcDbLine
 10
115
 20
-158.1000000000001
 11
115
 21
-175.1000000000001
  0
LINE
  5
1BE
100
AcDbEntity
  8
corner_standoffs
  6
ByLayer
 62
  256
370
   -1
100
AcDbLine
 10
121
 20
-181.1000000000001
 11
115
 21
-175.1000000000001
  0
LINE
  5
1BF
100
AcDbEntity
  8
corner_standoffs
  6
ByLayer
 62
  256
370
   -1
100
AcDbLine
 10
152
 20
-121.0000000000001
 11
152
 21
-146.1000000000001
  0
LINE
  5
1C0
100
AcDbEntity
  8
corner_standoffs
  6
ByLayer
 62
  256
370
   -1
100
AcDbLine
 10
158
 20
-115.0000000000001
 11
152
 21
-121.0000000000001
  0
LINE
  5
1C1
100
AcDbEntity
  8
corner_standoffs
  6
ByLayer
 62
  256
370
   -1
100
AcDbLine
 10
175.1
 20
-115.0000000000001
 11
158
 21
-115.0000000000001
  0
LINE
  5
1C2
100
AcDbEntity
  8
corner_standoffs
  6
ByLayer
 62
  256
370
   -1
100
AcDbLine
 10
175.1
 20
-115.0000000000001
 11
181.1
 21
-121.0000000000001
  0
LINE
  5
1C3
100
AcDbEntity
  8
corner_standoffs
  6
ByLayer
 62
  256
370
   -1
100
AcDbLine
 10
181.1
 20
-171.1000000000001
 11
181.1
 21
-121.0000000000001
  0
LINE
  5
1C4
100
AcDbEntity
  8
corner_standoffs
  6
ByLayer
 62
  256
370
   -1
100
AcDbLine
 10
121
 20
-181.1000000000001
 11
171.1
 21
-181.1000000000001
  0
ARC
  5
1C5
100
AcDbEntity
  8
corner_standoffs
  6
ByLayer
 62
  256
370
   -1
100
AcDbCircle
 10
171.1
 20
-171.1000000000001
 40
10
100
AcDbArc
 50
270
 51
0
  0
LINE
  5
1C6
100
AcDbEntity
  8
corner_standoffs
  6
ByLayer
 62
  256
370
   -1
100
AcDbLine
 10
152.1
 20
-79.2000000000001
 11
158.1
 21
-85.2000000000001
  0
LINE
  5
1C7
100
AcDbEntity
  8
corner_standoffs
  6
ByLayer
 62
  256
370
   -1
100
AcDbLine
 10
152.1
 20
-54.2000000000001
 11
152.1
 21
-79.2000000000001
  0
LINE
  5
1C8
100
AcDbEntity
  8
corner_standoffs
  6
ByLayer
 62
  256
370
   -1
100
AcDbLine
 10
146.1
 20
-48.2000000000001
 11
152.1
 21
-54.2000000000001
  0
LINE
  5
1C9
100
AcDbEntity
  8
corner_standoffs
  6
ByLayer
 62
  256
370
   -1
100
AcDbLine
 10
169.9999999999999
 20
-47.2000000000001
 11
179
 21
-47.2000000000001
  0
LINE
  5
1CA
100
AcDbEntity
  8
corner_standoffs
  6
ByLayer
 62
  256
370
   -1
100
AcDbLine
 10
179
 20
-47.2000000000001
 11
179
 21
-67.2000000000001
  0
LINE
  5
1CB
100
AcDbEntity
  8
corner_standoffs
  6
ByLayer
 62
  256
370
   -1
100
AcDbLine
 10
179
 20
-67.2000000000001
 11
169.9999999999999
 21
-67.2000000000001
  0
LINE
  5
1CC
100
AcDbEntity
  8
corner_standoffs
  6
ByLayer
 62
  256
370
   -1
100
AcDbLine
 10
169.9999999999999
 20
-67.2000000000001
 11
169.9999999999999
 21
-47.2000000000001
  0
LINE
  5
1CD
100
AcDbEntity
  8
corner_standoffs
  6
ByLayer
 62
  256
370
   -1
100
AcDbLine
 10
153
 20
-30.2000000000001
 11
153
 21
-21.2000000000001
  0
LINE
  5
1CE
100
AcDbEntity
  8
corner_standoffs
  6
ByLayer
 62
  256
370
   -1
100
AcDbLine
 10
153
 20
-21.2000000000001
 11
133.0000000000001
 21
-21.2000000000001
  0
LINE
  5
1CF
100
AcDbEntity
  8
corner_standoffs
  6
ByLayer
 62
  256
370
   -1
100
AcDbLine
 10
133.0000000000001
 20
-21.2000000000001
 11
133.0000000000001
 21
-30.2000000000001
  0
LINE
  5
1D0
100
AcDbEntity
  8
corner_standoffs
  6
ByLayer
 62
  256
370
   -1
100
AcDbLine
 10
153
 20
-30.2000000000001
 11
133.0000000000001
 21
-30.2000000000001
  0
LINE
  5
1D1
100
AcDbEntity
  8
corner_standoffs
  6
ByLayer
 62
  256
370
   -1
100
AcDbLine
 10
158.1
 20
-85.2000000000001
 11
175.1
 21
-85.2000000000001
  0
LINE
  5
1D2
100
AcDbEntity
  8
corner_standoffs
  6
ByLayer
 62
  256
370
   -1
100
AcDbLine
 10
181.1
 20
-79.2000000000001
 11
175.1
 21
-85.2000000000001
  0
LINE
  5
1D3
100
AcDbEntity
  8
corner_standoffs
  6
ByLayer
 62
  256
370
   -1
100
AcDbLine
 10
121
 20
-48.2000000000001
 11
146.1
 21
-48.2000000000001
  0
LINE
  5
1D4
100
AcDbEntity
  8
corner_standoffs
  6
ByLayer
 62
  256
370
   -1
100
AcDbLine
 10
115
 20
-42.2000000000001
 11
121
 21
-48.2000000000001
  0
LINE
  5
1D5
100
AcDbEntity
  8
corner_standoffs
  6
ByLayer
 62
  256
370
   -1
100
AcDbLine
 10
115
 20
-25.10000000000008
 11
115
 21
-42.2000000000001
  0
LINE
  5
1D6
100
AcDbEntity
  8
corner_standoffs
  6
ByLayer
 62
  256
370
   -1
100
AcDbLine
 10
115
 20
-25.10000000000008
 11
121
 21
-19.10000000000008
  0
LINE
  5
1D7
100
AcDbEntity
  8
corner_standoffs
  6
ByLayer
 62
  256
370
   -1
100
AcDbLine
 10
171.1
 20
-19.10000000000008
 11
121
 21
-19.10000000000008
  0
LINE
  5
1D8
100
AcDbEntity
  8
corner_standoffs
  6
ByLayer
 62
  256
370
   -1
100
AcDbLine
 10
181.1
 20
-79.2000000000001
 11
181.1
 21
-29.10000000000008
  0
ARC
  5
1D9
100
AcDbEntity
  8
corner_standoffs
  6
ByLayer
 62
  256
370
   -1
100
AcDbCircle
 10
171.1
 20
-29.10000000000008
 40
10
100
AcDbArc
 50
0
 51
90
  0
CIRCLE
  5
1DA
100
AcDbEntity
  8
corner_standoffs
  6
ByLayer
 62
  256
370
   -1
100
AcDbCircle
 10
155.1
 20
-45.10000000000008
 40
2.5
  0
CIRCLE
  5
1DB
100
AcDbEntity
  8
corner_standoffs
  6
ByLayer
 62
  256
370
   -1
100
AcDbCircle
 10
45.10000000000002
 20
-45.10000000000008
 40
2.5
  0
CIRCLE
  5
1DC
100
AcDbEntity
  8
corner_standoffs
  6
ByLayer
 62
  256
370
   -1
100
AcDbCircle
 10
85.10000000000002
 20
-85.10000000000008
 40
2.5
  0
CIRCLE
  5
1DD
100
AcDbEntity
  8
corner_standoffs
  6
ByLayer
 62
  256
370
   -1
100
AcDbCircle
 10
114.8999999999999
 20
-85.10000000000008
 40
2.5
  0
CIRCLE
  5
1DE
100
AcDbEntity
  8
corner_standoffs
  6
ByLayer
 62
  256
370
   -1
100
AcDbCircle
 10
114.9
 20
-114.9
 40
2.5
  0
CIRCLE
  5
1DF
100
AcDbEntity
  8
corner_standoffs
  6
ByLayer
 62
  256
370
   -1
100
AcDbCircle
 10
85.10000000000002
 20
-114.9
 40
2.5
  0
CIRCLE
  5
1E0
100
AcDbEntity
  8
corner_standoffs
  6
ByLayer
 62
  256
370
   -1
100
AcDbCircle
 10
45.10000000000002
 20
-155.1000000000001
 40
2.5
  0
CIRCLE
  5
1E1
100
AcDbEntity
  8
corner_standoffs
  6
ByLayer
 62
  256
370
   -1
100
AcDbCircle
 10
155.1
 20
-155.1000000000001
 40
2.5
  0
CIRCLE
  5
1E2
100
AcDbEntity
  8
Sidewalls
  6
ByLayer
 62
  256
370
   -1
100
AcDbCircle
 10
46.45000000000001
 20
460
 40
2.5
  0
CIRCLE
  5
1E3
100
AcDbEntity
  8
Sidewalls
  6
ByLayer
 62
  256
370
   -1
100
AcDbCircle
 10
343.55
 20
460
 40
2.5
  0
CIRCLE
  5
1E4
100
AcDbEntity
  8
Sidewalls
  6
ByLayer
 62
  256
370
   -1
100
AcDbCircle
 10
343.55
 20
380
 40
2.5
  0
CIRCLE
  5
1E5
100
AcDbEntity
  8
Sidewalls
  6
ByLayer
 62
  256
370
   -1
100
AcDbCircle
 10
46.45000000000001
 20
380
 40
2.5
  0
CIRCLE
  5
1E6
100
AcDbEntity
  8
Sidewalls
  6
ByLayer
 62
  256
370
   -1
100
AcDbCircle
 10
46.45000000000001
 20
300
 40
2.5
  0
CIRCLE
  5
1E7
100
AcDbEntity
  8
Sidewalls
  6
ByLayer
 62
  256
370
   -1
100
AcDbCircle
 10
343.55
 20
300
 40
2.5
  0
CIRCLE
  5
1E8
100
AcDbEntity
  8
Sidewalls
  6
ByLayer
 62
  256
370
   -1
100
AcDbCircle
 10
343.55
 20
220
 40
2.5
  0
CIRCLE
  5
1E9
100
AcDbEntity
  8
Sidewalls
  6
ByLayer
 62
  256
370
   -1
100
AcDbCircle
 10
46.45000000000001
 20
220
 40
2.5
  0
CIRCLE
  5
1EA
100
AcDbEntity
  8
Sidewalls
  6
ByLayer
 62
  256
370
   -1
100
AcDbCircle
 10
37.45
 20
130
 40
2.5
  0
CIRCLE
  5
1EB
100
AcDbEntity
  8
Sidewalls
  6
ByLayer
 62
  256
370
   -1
100
AcDbCircle
 10
162.55
 20
130
 40
2.5
  0
CIRCLE
  5
1EC
100
AcDbEntity
  8
Sidewalls
  6
ByLayer
 62
  256
370
   -1
100
AcDbCircle
 10
236.1120580695352
 20
130
 40
2.5
  0
CIRCLE
  5
1ED
100
AcDbEntity
  8
Sidewalls
  6
ByLayer
 62
  256
370
   -1
100
AcDbCircle
 10
361.2120580695351
 20
130
 40
2.5
  0
CIRCLE
  5
1EE
100
AcDbEntity
  8
Sidewalls
  6
ByLayer
 62
  256
370
   -1
100
AcDbCircle
 10
361.2120580695351
 20
50
 40
2.5
  0
CIRCLE
  5
1EF
100
AcDbEntity
  8
Sidewalls
  6
ByLayer
 62
  256
370
   -1
100
AcDbCircle
 10
236.1120580695352
 20
50
 40
2.5
  0
CIRCLE
  5
1F0
100
AcDbEntity
  8
Sidewalls
  6
ByLayer
 62
  256
370
   -1
100
AcDbCircle
 10
162.55
 20
50
 40
2.5
  0
CIRCLE
  5
1F1
100
AcDbEntity
  8
Sidewalls
  6
ByLayer
 62
  256
370
   -1
100
AcDbCircle
 10
37.45
 20
50
 40
2.5
  0
LINE
  5
1F2
100
AcDbEntity
  8
sidewalls_second_layer
  6
ByLayer
 62
  256
370
   -1
100
AcDbLine
 10
-587
 20
248
 11
-587
 21
200
  0
LINE
  5
1F3
100
AcDbEntity
  8
sidewalls_second_layer
  6
ByLayer
 62
  256
370
   -1
100
AcDbLine
 10
-227.1999999999998
 20
200
 11
-227.1999999999998
 21
248
  0
LINE
  5
1F4
100
AcDbEntity
  8
sidewalls_second_layer
  6
ByLayer
 62
  256
370
   -1
100
AcDbLine
 10
-587
 20
200
 11
-227.1999999999998
 21
200
  0
LINE
  5
1F5
100
AcDbEntity
  8
sidewalls_second_layer
  6
ByLayer
 62
  256
370
   -1
100
AcDbLine
 10
-227.1999999999998
 20
248
 11
-587
 21
248
  0
CIRCLE
  5
1F6
100
AcDbEntity
  8
sidewalls_second_layer
  6
ByLayer
 62
  256
370
   -1
100
AcDbCircle
 10
-259.5999999999999
 20
244.5
 40
2.5
  0
CIRCLE
  5
1F7
100
AcDbEntity
  8
sidewalls_second_layer
  6
ByLayer
 62
  256
370
   -1
100
AcDbCircle
 10
-554.5999999999999
 20
244.5
 40
2.5
  0
CIRCLE
  5
1F8
100
AcDbEntity
  8
sidewalls_second_layer
  6
ByLayer
 62
  256
370
   -1
100
AcDbCircle
 10
-405
 20
226.5
 40
13
  0
CIRCLE
  5
1F9
100
AcDbEntity
  8
sidewalls_second_layer
  6
ByLayer
 62
  256
370
   -1
100
AcDbCircle
 10
-554.5999999999999
 20
203.3
 40
2.5
  0
CIRCLE
  5
1FA
100
AcDbEntity
  8
sidewalls_second_layer
  6
ByLayer
 62
  256
370
   -1
100
AcDbCircle
 10
-259.5999999999999
 20
203.3
 40
2.5
  0
LINE
  5
1FB
100
AcDbEntity
  8
sidewalls_second_layer
  6
ByLayer
 62
  256
370
   -1
100
AcDbLine
 10
-587
 20
194
 11
-587
 21
146
  0
LINE
  5
1FC
100
AcDbEntity
  8
sidewalls_second_layer
  6
ByLayer
 62
  256
370
   -1
100
AcDbLine
 10
-227.1999999999998
 20
193.9999999999999
 11
-227.1999999999998
 21
145.9999999999999
  0
LINE
  5
1FD
100
AcDbEntity
  8
sidewalls_second_layer
  6
ByLayer
 62
  256
370
   -1
100
AcDbLine
 10
-587
 20
146
 11
-227.1999999999998
 21
145.9999999999999
  0
LINE
  5
1FE
100
AcDbEntity
  8
sidewalls_second_layer
  6
ByLayer
 62
  256
370
   -1
100
AcDbLine
 10
-227.1999999999998
 20
193.9999999999999
 11
-587
 21
194
  0
CIRCLE
  5
1FF
100
AcDbEntity
  8
sidewalls_second_layer
  6
ByLayer
 62
  256
370
   -1
100
AcDbCircle
 10
-259.5950687444274
 20
190.4999999999999
 40
2.5
  0
CIRCLE
  5
200
100
AcDbEntity
  8
sidewalls_second_layer
  6
ByLayer
 62
  256
370
   -1
100
AcDbCircle
 10
-554.6000000000001
 20
190.5
 40
2.5
  0
CIRCLE
  5
201
100
AcDbEntity
  8
sidewalls_second_layer
  6
ByLayer
 62
  256
370
   -1
100
AcDbCircle
 10
-554.6000000000001
 20
149.2999999999999
 40
2.5
  0
CIRCLE
  5
202
100
AcDbEntity
  8
sidewalls_second_layer
  6
ByLayer
 62
  256
370
   -1
100
AcDbCircle
 10
-259.6
 20
149.2999999999999
 40
2.5
  0
LINE
  5
203
100
AcDbEntity
  8
sidewalls_second_layer
  6
ByLayer
 62
  256
370
   -1
100
AcDbLine
 10
-587
 20
-23.79999999999995
 11
-539
 21
-23.79999999999995
  0
LINE
  5
204
100
AcDbEntity
  8
sidewalls_second_layer
  6
ByLayer
 62
  256
370
   -1
100
AcDbLine
 10
-539
 20
-23.79999999999995
 11
-539
 21
136
  0
LINE
  5
205
100
AcDbEntity
  8
sidewalls_second_layer
  6
ByLayer
 62
  256
370
   -1
100
AcDbLine
 10
-539
 20
136
 11
-587
 21
136
  0
LINE
  5
206
100
AcDbEntity
  8
sidewalls_second_layer
  6
ByLayer
 62
  256
370
   -1
100
AcDbLine
 10
-587
 20
136
 11
-587
 21
-23.79999999999995
  0
CIRCLE
  5
207
100
AcDbEntity
  8
sidewalls_second_layer
  6
ByLayer
 62
  256
370
   -1
100
AcDbCircle
 10
-583.5
 20
3.70109658262561
 40
2.5
  0
CIRCLE
  5
208
100
AcDbEntity
  8
sidewalls_second_layer
  6
ByLayer
 62
  256
370
   -1
100
AcDbCircle
 10
-583.5
 20
108.5010965826257
 40
2.5
  0
CIRCLE
  5
209
100
AcDbEntity
  8
sidewalls_second_layer
  6
ByLayer
 62
  256
370
   -1
100
AcDbCircle
 10
-564
 20
87.53794193046474
 40
16
  0
CIRCLE
  5
20A
100
AcDbEntity
  8
sidewalls_second_layer
  6
ByLayer
 62
  256
370
   -1
100
AcDbCircle
 10
-542.3
 20
108.5010965826257
 40
2.5
  0
CIRCLE
  5
20B
100
AcDbEntity
  8
sidewalls_second_layer
  6
ByLayer
 62
  256
370
   -1
100
AcDbCircle
 10
-542.3
 20
3.691232388622268
 40
2.5
  0
LINE
  5
20C
100
AcDbEntity
  8
sidewalls_second_layer
  6
ByLayer
 62
  256
370
   -1
100
AcDbLine
 10
-470.64
 20
136
 11
-518.64
 21
136
  0
LINE
  5
20D
100
AcDbEntity
  8
sidewalls_second_layer
  6
ByLayer
 62
  256
370
   -1
100
AcDbLine
 10
-518.64
 20
136
 11
-518.64
 21
-23.80000000000007
  0
LINE
  5
20E
100
AcDbEntity
  8
sidewalls_second_layer
  6
ByLayer
 62
  256
370
   -1
100
AcDbLine
 10
-518.64
 20
-23.80000000000007
 11
-470.64
 21
-23.80000000000007
  0
LINE
  5
20F
100
AcDbEntity
  8
sidewalls_second_layer
  6
ByLayer
 62
  256
370
   -1
100
AcDbLine
 10
-470.64
 20
-23.80000000000007
 11
-470.64
 21
136
  0
ARC
  5
210
100
AcDbEntity
  8
sidewalls_second_layer
  6
ByLayer
 62
  256
370
   -1
100
AcDbCircle
 10
-493.64
 20
84.66205806953519
 40
16
100
AcDbArc
 50
290.3641348063178
 51
249.6358651936822
  0
ARC
  5
211
100
AcDbEntity
  8
sidewalls_second_layer
  6
ByLayer
 62
  256
370
   -1
100
AcDbCircle
 10
-493.64
 20
24.66205806953519
 40
16
100
AcDbArc
 50
110.3641348063178
 51
69.63586519368219
  0
ARC
  5
212
100
AcDbEntity
  8
sidewalls_second_layer
  6
ByLayer
 62
  256
370
   -1
100
AcDbCircle
 10
-493.64
 20
54.66205806953519
 40
16
100
AcDbArc
 50
110.3641348063178
 51
249.6358651936822
  0
ARC
  5
213
100
AcDbEntity
  8
sidewalls_second_layer
  6
ByLayer
 62
  256
370
   -1
100
AcDbCircle
 10
-493.64
 20
54.66205806953519
 40
16
100
AcDbArc
 50
290.3641348063178
 51
69.63586519368219
  0
CIRCLE
  5
214
100
AcDbEntity
  8
sidewalls_second_layer
  6
ByLayer
 62
  256
370
   -1
100
AcDbCircle
 10
-474.14
 20
108.5109607766292
 40
2.5
  0
CIRCLE
  5
215
100
AcDbEntity
  8
sidewalls_second_layer
  6
ByLayer
 62
  256
370
   -1
100
AcDbCircle
 10
-474.035310865677
 20
3.701096582625723
 40
2.5
  0
CIRCLE
  5
216
100
AcDbEntity
  8
sidewalls_second_layer
  6
ByLayer
 62
  256
370
   -1
100
AcDbCircle
 10
-515.3399999999999
 20
3.701096582625723
 40
2.5
  0
CIRCLE
  5
217
100
AcDbEntity
  8
sidewalls_second_layer
  6
ByLayer
 62
  256
370
   -1
100
AcDbCircle
 10
-515.3399999999999
 20
108.5109607766292
 40
2.5
  0
LINE
  5
218
100
AcDbEntity
  8
Sidewalls
  6
ByLayer
 62
  256
370
   -1
100
AcDbLine
 10
-221.1999999999999
 20
325
 11
-221.1999999999999
 21
272
  0
LINE
  5
219
100
AcDbEntity
  8
Sidewalls
  6
ByLayer
 62
  256
370
   -1
100
AcDbLine
 10
-221.1999999999999
 20
325
 11
-587
 21
325
  0
LINE
  5
21A
100
AcDbEntity
  8
Sidewalls
  6
ByLayer
 62
  256
370
   -1
100
AcDbLine
 10
-587
 20
325
 11
-587
 21
272
  0
LINE
  5
21B
100
AcDbEntity
  8
Sidewalls
  6
ByLayer
 62
  256
370
   -1
100
AcDbLine
 10
-587
 20
272
 11
-221.1999999999999
 21
272
  0
CIRCLE
  5
21C
100
AcDbEntity
  8
Sidewalls
  6
ByLayer
 62
  256
370
   -1
100
AcDbCircle
 10
-551.5999999999999
 20
316.5000000000001
 40
2.5
  0
CIRCLE
  5
21D
100
AcDbEntity
  8
Sidewalls
  6
ByLayer
 62
  256
370
   -1
100
AcDbCircle
 10
-256.5999999999999
 20
316.5
 40
2.5
  0
CIRCLE
  5
21E
100
AcDbEntity
  8
Sidewalls
  6
ByLayer
 62
  256
370
   -1
100
AcDbCircle
 10
-256.5999999999998
 20
275.3
 40
2.5
  0
CIRCLE
  5
21F
100
AcDbEntity
  8
Sidewalls
  6
ByLayer
 62
  256
370
   -1
100
AcDbCircle
 10
-551.5999999999999
 20
275.3
 40
2.5
  0
LINE
  5
220
100
AcDbEntity
  8
Sidewalls
  6
ByLayer
 62
  256
370
   -1
100
AcDbLine
 10
-587
 20
339
 11
-587
 21
392
  0
CIRCLE
  5
221
100
AcDbEntity
  8
Sidewalls
  6
ByLayer
 62
  256
370
   -1
100
AcDbCircle
 10
-402
 20
365.5
 40
9.5
  0
CIRCLE
  5
222
100
AcDbEntity
  8
Sidewalls
  6
ByLayer
 62
  256
370
   -1
100
AcDbCircle
 10
-551.5999999999999
 20
383.5
 40
2.5
  0
LINE
  5
223
100
AcDbEntity
  8
Sidewalls
  6
ByLayer
 62
  256
370
   -1
100
AcDbLine
 10
-221.1999999999999
 20
339
 11
-221.1999999999999
 21
392.0000000000001
  0
LINE
  5
224
100
AcDbEntity
  8
Sidewalls
  6
ByLayer
 62
  256
370
   -1
100
AcDbLine
 10
-221.1999999999999
 20
392.0000000000001
 11
-587
 21
392
  0
LINE
  5
225
100
AcDbEntity
  8
Sidewalls
  6
ByLayer
 62
  256
370
   -1
100
AcDbLine
 10
-587
 20
339
 11
-221.1999999999999
 21
339
  0
CIRCLE
  5
226
100
AcDbEntity
  8
Sidewalls
  6
ByLayer
 62
  256
370
   -1
100
AcDbCircle
 10
-256.5999999999999
 20
383.5
 40
2.5
  0
CIRCLE
  5
227
100
AcDbEntity
  8
Sidewalls
  6
ByLayer
 62
  256
370
   -1
100
AcDbCircle
 10
-256.5999999999999
 20
342.3
 40
2.5
  0
CIRCLE
  5
228
100
AcDbEntity
  8
Sidewalls
  6
ByLayer
 62
  256
370
   -1
100
AcDbCircle
 10
-551.5999999999999
 20
342.3
 40
2.5
  0
LINE
  5
229
100
AcDbEntity
  8
Sidewalls
  6
ByLayer
 62
  256
370
   -1
100
AcDbLine
 10
-395
 20
136
 11
-448
 21
136
  0
LINE
  5
22A
100
AcDbEntity
  8
Sidewalls
  6
ByLayer
 62
  256
370
   -1
100
AcDbLine
 10
-395
 20
136
 11
-395
 21
-33.79999999999995
  0
LINE
  5
22B
100
AcDbEntity
  8
Sidewalls
  6
ByLayer
 62
  256
370
   -1
100
AcDbLine
 10
-395
 20
-33.79999999999995
 11
-448
 21
-33.79999999999995
  0
LINE
  5
22C
100
AcDbEntity
  8
Sidewalls
  6
ByLayer
 62
  256
370
   -1
100
AcDbLine
 10
-448
 20
-33.79999999999995
 11
-448
 21
136
  0
CIRCLE
  5
22D
100
AcDbEntity
  8
Sidewalls
  6
ByLayer
 62
  256
370
   -1
100
AcDbCircle
 10
-439.5
 20
-1.298903417374277
 40
2.5
  0
CIRCLE
  5
22E
100
AcDbEntity
  8
Sidewalls
  6
ByLayer
 62
  256
370
   -1
100
AcDbCircle
 10
-439.5
 20
103.5010965826258
 40
2.5
  0
CIRCLE
  5
22F
100
AcDbEntity
  8
Sidewalls
  6
ByLayer
 62
  256
370
   -1
100
AcDbCircle
 10
-420
 20
82.53794193046485
 40
12.25
  0
CIRCLE
  5
230
100
AcDbEntity
  8
Sidewalls
  6
ByLayer
 62
  256
370
   -1
100
AcDbCircle
 10
-398.3
 20
103.5010965826258
 40
2.5
  0
CIRCLE
  5
231
100
AcDbEntity
  8
Sidewalls
  6
ByLayer
 62
  256
370
   -1
100
AcDbCircle
 10
-398.3
 20
-1.308767611377618
 40
2.5
  0
CIRCLE
  5
232
100
AcDbEntity
  8
Sidewalls
  6
ByLayer
 62
  256
370
   -1
100
AcDbCircle
 10
-325
 20
19.66205806953519
 40
12.25
  0
CIRCLE
  5
233
100
AcDbEntity
  8
Sidewalls
  6
ByLayer
 62
  256
370
   -1
100
AcDbCircle
 10
-325
 20
49.66205806953519
 40
12.25
  0
CIRCLE
  5
234
100
AcDbEntity
  8
Sidewalls
  6
ByLayer
 62
  256
370
   -1
100
AcDbCircle
 10
-325
 20
79.66205806953519
 40
12.25
  0
LINE
  5
235
100
AcDbEntity
  8
Sidewalls
  6
ByLayer
 62
  256
370
   -1
100
AcDbLine
 10
-297
 20
136
 11
-350
 21
136
  0
LINE
  5
236
100
AcDbEntity
  8
Sidewalls
  6
ByLayer
 62
  256
370
   -1
100
AcDbLine
 10
-350
 20
136
 11
-350
 21
-33.79999999999995
  0
LINE
  5
237
100
AcDbEntity
  8
Sidewalls
  6
ByLayer
 62
  256
370
   -1
100
AcDbLine
 10
-350
 20
-33.79999999999995
 11
-297
 21
-33.79999999999995
  0
LINE
  5
238
100
AcDbEntity
  8
Sidewalls
  6
ByLayer
 62
  256
370
   -1
100
AcDbLine
 10
-297
 20
-33.79999999999995
 11
-297
 21
136
  0
CIRCLE
  5
239
100
AcDbEntity
  8
Sidewalls
  6
ByLayer
 62
  256
370
   -1
100
AcDbCircle
 10
-305.5
 20
103.5109607766292
 40
2.5
  0
CIRCLE
  5
23A
100
AcDbEntity
  8
Sidewalls
  6
ByLayer
 62
  256
370
   -1
100
AcDbCircle
 10
-305.5
 20
-1.298903417374277
 40
2.5
  0
CIRCLE
  5
23B
100
AcDbEntity
  8
Sidewalls
  6
ByLayer
 62
  256
370
   -1
100
AcDbCircle
 10
-346.6999999999999
 20
-1.298903417374277
 40
2.5
  0
CIRCLE
  5
23C
100
AcDbEntity
  8
Sidewalls
  6
ByLayer
 62
  256
370
   -1
100
AcDbCircle
 10
-346.6999999999999
 20
103.5109607766292
 40
2.5
  0
LINE
  5
23D
100
AcDbEntity
  8
corner_standoffs
  6
ByLayer
 62
  256
370
   -1
100
AcDbLine
 10
44.90000000000009
 20
-210.3319999999999
 11
44.90000000000009
 21
-195.4319999999999
  0
LINE
  5
23E
100
AcDbEntity
  8
corner_standoffs
  6
ByLayer
 62
  256
370
   -1
100
AcDbLine
 10
14.90000000000009
 20
-240.3319999999999
 11
0
 21
-240.3319999999999
  0
LINE
  5
23F
100
AcDbEntity
  8
corner_standoffs
  6
ByLayer
 62
  256
370
   -1
100
AcDbLine
 10
44.90000000000009
 20
-195.4319999999999
 11
20
 21
-195.4319999999999
  0
LINE
  5
240
100
AcDbEntity
  8
corner_standoffs
  6
ByLayer
 62
  256
370
   -1
100
AcDbLine
 10
0
 20
-215.4319999999999
 11
0
 21
-240.332
  0
LINE
  5
241
100
AcDbEntity
  8
corner_standoffs
  6
ByLayer
 62
  256
370
   -1
100
AcDbLine
 10
20
 20
-195.4319999999999
 11
0
 21
-215.4319999999999
  0
CIRCLE
  5
242
100
AcDbEntity
  8
corner_standoffs
  6
ByLayer
 62
  256
370
   -1
100
AcDbCircle
 10
30
 20
-225.4319999999999
 40
2.5
  0
LINE
  5
243
100
AcDbEntity
  8
corner_standoffs
  6
ByLayer
 62
  256
370
   -1
100
AcDbLine
 10
44.90000000000009
 20
-215.3319999999998
 11
39.90000000000009
 21
-215.3319999999997
  0
LINE
  5
244
100
AcDbEntity
  8
corner_standoffs
  6
ByLayer
 62
  256
370
   -1
100
AcDbLine
 10
44.90000000000009
 20
-210.3319999999999
 11
39.90000000000009
 21
-210.3319999999999
  0
LINE
  5
245
100
AcDbEntity
  8
corner_standoffs
  6
ByLayer
 62
  256
370
   -1
100
AcDbLine
 10
39.90000000000009
 20
-210.3319999999999
 11
39.90000000000009
 21
-208.2319999999999
  0
LINE
  5
246
100
AcDbEntity
  8
corner_standoffs
  6
ByLayer
 62
  256
370
   -1
100
AcDbLine
 10
39.90000000000009
 20
-215.3319999999999
 11
39.90000000000009
 21
-217.4319999999999
  0
LINE
  5
247
100
AcDbEntity
  8
corner_standoffs
  6
ByLayer
 62
  256
370
   -1
100
AcDbLine
 10
39.90000000000009
 20
-208.2319999999999
 11
34.89999999999992
 21
-208.2319999999999
  0
LINE
  5
248
100
AcDbEntity
  8
corner_standoffs
  6
ByLayer
 62
  256
370
   -1
100
AcDbLine
 10
34.89999999999992
 20
-215.3319999999999
 11
34.89999999999992
 21
-217.432
  0
LINE
  5
249
100
AcDbEntity
  8
corner_standoffs
  6
ByLayer
 62
  256
370
   -1
100
AcDbLine
 10
34.89999999999992
 20
-217.432
 11
39.90000000000003
 21
-217.432
  0
LINE
  5
24A
100
AcDbEntity
  8
corner_standoffs
  6
ByLayer
 62
  256
370
   -1
100
AcDbLine
 10
34.89999999999992
 20
-210.3319999999999
 11
34.89999999999992
 21
-208.2319999999999
  0
LINE
  5
24B
100
AcDbEntity
  8
corner_standoffs
  6
ByLayer
 62
  256
370
   -1
100
AcDbLine
 10
14.90000000000009
 20
-240.3319999999998
 11
14.9000000000002
 21
-235.3319999999998
  0
LINE
  5
24C
100
AcDbEntity
  8
corner_standoffs
  6
ByLayer
 62
  256
370
   -1
100
AcDbLine
 10
19.89999999999998
 20
-240.3319999999999
 11
19.89999999999998
 21
-235.3319999999999
  0
LINE
  5
24D
100
AcDbEntity
  8
corner_standoffs
  6
ByLayer
 62
  256
370
   -1
100
AcDbLine
 10
19.89999999999992
 20
-235.3319999999999
 11
21.99999999999994
 21
-235.3319999999999
  0
LINE
  5
24E
100
AcDbEntity
  8
corner_standoffs
  6
ByLayer
 62
  256
370
   -1
100
AcDbLine
 10
14.89999999999998
 20
-235.3319999999998
 11
12.79999999999995
 21
-235.3319999999998
  0
LINE
  5
24F
100
AcDbEntity
  8
corner_standoffs
  6
ByLayer
 62
  256
370
   -1
100
AcDbLine
 10
21.99999999999994
 20
-235.3319999999999
 11
21.99999999999994
 21
-230.3319999999997
  0
LINE
  5
250
100
AcDbEntity
  8
corner_standoffs
  6
ByLayer
 62
  256
370
   -1
100
AcDbLine
 10
14.89999999999998
 20
-230.3319999999997
 11
12.7999999999999
 21
-230.3319999999997
  0
LINE
  5
251
100
AcDbEntity
  8
corner_standoffs
  6
ByLayer
 62
  256
370
   -1
100
AcDbLine
 10
12.7999999999999
 20
-230.3319999999997
 11
12.7999999999999
 21
-235.3319999999998
  0
LINE
  5
252
100
AcDbEntity
  8
corner_standoffs
  6
ByLayer
 62
  256
370
   -1
100
AcDbLine
 10
19.89999999999998
 20
-230.3319999999997
 11
21.99999999999994
 21
-230.3319999999997
  0
LINE
  5
253
100
AcDbEntity
  8
corner_standoffs
  6
ByLayer
 62
  256
370
   -1
100
AcDbLine
 10
19.89999999999998
 20
-240.3319999999999
 11
44.90000000000009
 21
-240.3319999999999
  0
LINE
  5
254
100
AcDbEntity
  8
corner_standoffs
  6
ByLayer
 62
  256
370
   -1
100
AcDbLine
 10
44.90000000000009
 20
-215.3319999999999
 11
44.90000000000009
 21
-240.3319999999999
  0
LINE
  5
255
100
AcDbEntity
  8
corner_standoffs
  6
ByLayer
 62
  256
370
   -1
100
AcDbLine
 10
29.90000000000003
 20
-210.3319999999999
 11
34.89999999999992
 21
-210.3319999999999
  0
LINE
  5
256
100
AcDbEntity
  8
corner_standoffs
  6
ByLayer
 62
  256
370
   -1
100
AcDbLine
 10
34.89999999999992
 20
-215.3319999999999
 11
29.90000000000003
 21
-215.3319999999999
  0
LINE
  5
257
100
AcDbEntity
  8
corner_standoffs
  6
ByLayer
 62
  256
370
   -1
100
AcDbLine
 10
29.90000000000003
 20
-215.3319999999999
 11
29.90000000000003
 21
-210.3319999999999
  0
LINE
  5
258
100
AcDbEntity
  8
corner_standoffs
  6
ByLayer
 62
  256
370
   -1
100
AcDbLine
 10
14.89999999999998
 20
-230.3319999999997
 11
14.89999999999998
 21
-225.3319999999999
  0
LINE
  5
259
100
AcDbEntity
  8
corner_standoffs
  6
ByLayer
 62
  256
370
   -1
100
AcDbLine
 10
14.89999999999998
 20
-225.3319999999999
 11
19.89999999999998
 21
-225.3319999999999
  0
LINE
  5
25A
100
AcDbEntity
  8
corner_standoffs
  6
ByLayer
 62
  256
370
   -1
100
AcDbLine
 10
19.90000000000009
 20
-225.3319999999999
 11
19.90000000000009
 21
-230.3319999999997
  0
LINE
  5
25B
100
AcDbEntity
  8
corner_standoffs
  6
ByLayer
 62
  256
370
   -1
100
AcDbLine
 10
74.90000000000015
 20
-240.332
 11
89.80000000000013
 21
-240.332
  0
LINE
  5
25C
100
AcDbEntity
  8
corner_standoffs
  6
ByLayer
 62
  256
370
   -1
100
AcDbLine
 10
89.80000000000013
 20
-240.332
 11
89.80000000000013
 21
-215.4319999999999
  0
LINE
  5
25D
100
AcDbEntity
  8
corner_standoffs
  6
ByLayer
 62
  256
370
   -1
100
AcDbLine
 10
69.80000000000013
 20
-195.4319999999999
 11
44.90000000000003
 21
-195.4319999999999
  0
LINE
  5
25E
100
AcDbEntity
  8
corner_standoffs
  6
ByLayer
 62
  256
370
   -1
100
AcDbLine
 10
89.80000000000013
 20
-215.4319999999999
 11
69.80000000000013
 21
-195.4319999999999
  0
CIRCLE
  5
25F
100
AcDbEntity
  8
corner_standoffs
  6
ByLayer
 62
  256
370
   -1
100
AcDbCircle
 10
59.80000000000013
 20
-225.4319999999999
 40
2.5
  0
LINE
  5
260
100
AcDbEntity
  8
corner_standoffs
  6
ByLayer
 62
  256
370
   -1
100
AcDbLine
 10
69.90000000000026
 20
-240.332
 11
69.90000000000038
 21
-235.332
  0
LINE
  5
261
100
AcDbEntity
  8
corner_standoffs
  6
ByLayer
 62
  256
370
   -1
100
AcDbLine
 10
74.90000000000015
 20
-240.332
 11
74.90000000000015
 21
-235.332
  0
LINE
  5
262
100
AcDbEntity
  8
corner_standoffs
  6
ByLayer
 62
  256
370
   -1
100
AcDbLine
 10
74.90000000000009
 20
-235.332
 11
77.00000000000011
 21
-235.332
  0
LINE
  5
263
100
AcDbEntity
  8
corner_standoffs
  6
ByLayer
 62
  256
370
   -1
100
AcDbLine
 10
69.90000000000015
 20
-235.332
 11
67.80000000000013
 21
-235.332
  0
LINE
  5
264
100
AcDbEntity
  8
corner_standoffs
  6
ByLayer
 62
  256
370
   -1
100
AcDbLine
 10
77.00000000000011
 20
-235.332
 11
77.00000000000011
 21
-230.3319999999998
  0
LINE
  5
265
100
AcDbEntity
  8
corner_standoffs
  6
ByLayer
 62
  256
370
   -1
100
AcDbLine
 10
69.90000000000015
 20
-230.3319999999998
 11
67.80000000000007
 21
-230.3319999999998
  0
LINE
  5
266
100
AcDbEntity
  8
corner_standoffs
  6
ByLayer
 62
  256
370
   -1
100
AcDbLine
 10
67.80000000000007
 20
-230.3319999999998
 11
67.80000000000007
 21
-235.3319999999999
  0
LINE
  5
267
100
AcDbEntity
  8
corner_standoffs
  6
ByLayer
 62
  256
370
   -1
100
AcDbLine
 10
74.90000000000015
 20
-230.3319999999998
 11
77.00000000000011
 21
-230.3319999999998
  0
LINE
  5
268
100
AcDbEntity
  8
corner_standoffs
  6
ByLayer
 62
  256
370
   -1
100
AcDbLine
 10
44.9000000000002
 20
-210.332
 11
49.9000000000002
 21
-210.3320000000001
  0
LINE
  5
269
100
AcDbEntity
  8
corner_standoffs
  6
ByLayer
 62
  256
370
   -1
100
AcDbLine
 10
44.90000000000015
 20
-215.3319999999999
 11
49.90000000000015
 21
-215.3319999999999
  0
LINE
  5
26A
100
AcDbEntity
  8
corner_standoffs
  6
ByLayer
 62
  256
370
   -1
100
AcDbLine
 10
49.90000000000015
 20
-215.3319999999998
 11
49.90000000000015
 21
-217.4319999999998
  0
LINE
  5
26B
100
AcDbEntity
  8
corner_standoffs
  6
ByLayer
 62
  256
370
   -1
100
AcDbLine
 10
49.9000000000002
 20
-210.3319999999999
 11
49.9000000000002
 21
-208.2319999999999
  0
LINE
  5
26C
100
AcDbEntity
  8
corner_standoffs
  6
ByLayer
 62
  256
370
   -1
100
AcDbLine
 10
49.90000000000015
 20
-217.4319999999998
 11
54.90000000000038
 21
-217.4319999999998
  0
LINE
  5
26D
100
AcDbEntity
  8
corner_standoffs
  6
ByLayer
 62
  256
370
   -1
100
AcDbLine
 10
54.90000000000038
 20
-210.3319999999999
 11
54.90000000000038
 21
-208.2319999999998
  0
LINE
  5
26E
100
AcDbEntity
  8
corner_standoffs
  6
ByLayer
 62
  256
370
   -1
100
AcDbLine
 10
54.90000000000038
 20
-208.2319999999998
 11
49.90000000000026
 21
-208.2319999999998
  0
LINE
  5
26F
100
AcDbEntity
  8
corner_standoffs
  6
ByLayer
 62
  256
370
   -1
100
AcDbLine
 10
54.90000000000038
 20
-215.3319999999999
 11
54.90000000000038
 21
-217.4319999999998
  0
LINE
  5
270
100
AcDbEntity
  8
corner_standoffs
  6
ByLayer
 62
  256
370
   -1
100
AcDbLine
 10
74.90000000000015
 20
-225.3319999999999
 11
74.90000000000015
 21
-230.3319999999998
  0
LINE
  5
271
100
AcDbEntity
  8
corner_standoffs
  6
ByLayer
 62
  256
370
   -1
100
AcDbLine
 10
69.90000000000015
 20
-230.3319999999998
 11
69.90000000000015
 21
-225.3319999999999
  0
LINE
  5
272
100
AcDbEntity
  8
corner_standoffs
  6
ByLayer
 62
  256
370
   -1
100
AcDbLine
 10
69.90000000000015
 20
-225.3319999999999
 11
74.90000000000015
 21
-225.3319999999999
  0
LINE
  5
273
100
AcDbEntity
  8
corner_standoffs
  6
ByLayer
 62
  256
370
   -1
100
AcDbLine
 10
54.90000000000038
 20
-210.3319999999999
 11
59.90000000000009
 21
-210.3319999999999
  0
LINE
  5
274
100
AcDbEntity
  8
corner_standoffs
  6
ByLayer
 62
  256
370
   -1
100
AcDbLine
 10
59.90000000000009
 20
-210.3319999999999
 11
59.90000000000009
 21
-215.3319999999999
  0
LINE
  5
275
100
AcDbEntity
  8
corner_standoffs
  6
ByLayer
 62
  256
370
   -1
100
AcDbLine
 10
59.90000000000009
 20
-215.332
 11
54.90000000000038
 21
-215.332
  0
LINE
  5
276
100
AcDbEntity
  8
corner_standoffs
  6
ByLayer
 62
  256
370
   -1
100
AcDbLine
 10
44.90000000000015
 20
-285.232
 11
69.80000000000024
 21
-285.232
  0
LINE
  5
277
100
AcDbEntity
  8
corner_standoffs
  6
ByLayer
 62
  256
370
   -1
100
AcDbLine
 10
89.80000000000024
 20
-265.232
 11
89.80000000000024
 21
-240.3319999999999
  0
LINE
  5
278
100
AcDbEntity
  8
corner_standoffs
  6
ByLayer
 62
  256
370
   -1
100
AcDbLine
 10
69.80000000000024
 20
-285.232
 11
89.80000000000024
 21
-265.232
  0
CIRCLE
  5
279
100
AcDbEntity
  8
corner_standoffs
  6
ByLayer
 62
  256
370
   -1
100
AcDbCircle
 10
59.80000000000024
 20
-255.232
 40
2.5
  0
LINE
  5
27A
100
AcDbEntity
  8
corner_standoffs
  6
ByLayer
 62
  256
370
   -1
100
AcDbLine
 10
44.90000000000015
 20
-265.3320000000001
 11
49.90000000000015
 21
-265.3320000000002
  0
LINE
  5
27B
100
AcDbEntity
  8
corner_standoffs
  6
ByLayer
 62
  256
370
   -1
100
AcDbLine
 10
44.90000000000015
 20
-270.332
 11
49.90000000000015
 21
-270.332
  0
LINE
  5
27C
100
AcDbEntity
  8
corner_standoffs
  6
ByLayer
 62
  256
370
   -1
100
AcDbLine
 10
49.90000000000015
 20
-270.3319999999999
 11
49.90000000000015
 21
-272.432
  0
LINE
  5
27D
100
AcDbEntity
  8
corner_standoffs
  6
ByLayer
 62
  256
370
   -1
100
AcDbLine
 10
49.90000000000015
 20
-265.332
 11
49.90000000000015
 21
-263.232
  0
LINE
  5
27E
100
AcDbEntity
  8
corner_standoffs
  6
ByLayer
 62
  256
370
   -1
100
AcDbLine
 10
49.90000000000015
 20
-272.432
 11
54.90000000000038
 21
-272.432
  0
LINE
  5
27F
100
AcDbEntity
  8
corner_standoffs
  6
ByLayer
 62
  256
370
   -1
100
AcDbLine
 10
54.90000000000038
 20
-265.332
 11
54.90000000000038
 21
-263.232
  0
LINE
  5
280
100
AcDbEntity
  8
corner_standoffs
  6
ByLayer
 62
  256
370
   -1
100
AcDbLine
 10
54.90000000000038
 20
-263.232
 11
49.9000000000002
 21
-263.232
  0
LINE
  5
281
100
AcDbEntity
  8
corner_standoffs
  6
ByLayer
 62
  256
370
   -1
100
AcDbLine
 10
54.90000000000038
 20
-270.332
 11
54.90000000000038
 21
-272.432
  0
LINE
  5
282
100
AcDbEntity
  8
corner_standoffs
  6
ByLayer
 62
  256
370
   -1
100
AcDbLine
 10
74.90000000000015
 20
-240.3320000000001
 11
74.90000000000003
 21
-245.3320000000001
  0
LINE
  5
283
100
AcDbEntity
  8
corner_standoffs
  6
ByLayer
 62
  256
370
   -1
100
AcDbLine
 10
69.90000000000026
 20
-240.332
 11
69.90000000000026
 21
-245.332
  0
LINE
  5
284
100
AcDbEntity
  8
corner_standoffs
  6
ByLayer
 62
  256
370
   -1
100
AcDbLine
 10
69.90000000000032
 20
-245.332
 11
67.8000000000003
 21
-245.332
  0
LINE
  5
285
100
AcDbEntity
  8
corner_standoffs
  6
ByLayer
 62
  256
370
   -1
100
AcDbLine
 10
74.90000000000026
 20
-245.3320000000001
 11
77.00000000000028
 21
-245.3320000000001
  0
LINE
  5
286
100
AcDbEntity
  8
corner_standoffs
  6
ByLayer
 62
  256
370
   -1
100
AcDbLine
 10
67.8000000000003
 20
-245.332
 11
67.8000000000003
 21
-250.3320000000002
  0
LINE
  5
287
100
AcDbEntity
  8
corner_standoffs
  6
ByLayer
 62
  256
370
   -1
100
AcDbLine
 10
74.90000000000026
 20
-250.3320000000002
 11
77.00000000000034
 21
-250.3320000000002
  0
LINE
  5
288
100
AcDbEntity
  8
corner_standoffs
  6
ByLayer
 62
  256
370
   -1
100
AcDbLine
 10
77.00000000000034
 20
-250.3320000000002
 11
77.00000000000034
 21
-245.3320000000001
  0
LINE
  5
289
100
AcDbEntity
  8
corner_standoffs
  6
ByLayer
 62
  256
370
   -1
100
AcDbLine
 10
69.90000000000026
 20
-250.3320000000002
 11
67.8000000000003
 21
-250.3320000000002
  0
LINE
  5
28A
100
AcDbEntity
  8
corner_standoffs
  6
ByLayer
 62
  256
370
   -1
100
AcDbLine
 10
69.90000000000026
 20
-240.3319999999999
 11
44.90000000000015
 21
-240.3319999999999
  0
LINE
  5
28B
100
AcDbEntity
  8
corner_standoffs
  6
ByLayer
 62
  256
370
   -1
100
AcDbLine
 10
44.90000000000015
 20
-265.332
 11
44.90000000000015
 21
-240.332
  0
LINE
  5
28C
100
AcDbEntity
  8
corner_standoffs
  6
ByLayer
 62
  256
370
   -1
100
AcDbLine
 10
59.9000000000002
 20
-270.332
 11
54.90000000000038
 21
-270.332
  0
LINE
  5
28D
100
AcDbEntity
  8
corner_standoffs
  6
ByLayer
 62
  256
370
   -1
100
AcDbLine
 10
54.90000000000038
 20
-265.332
 11
59.9000000000002
 21
-265.332
  0
LINE
  5
28E
100
AcDbEntity
  8
corner_standoffs
  6
ByLayer
 62
  256
370
   -1
100
AcDbLine
 10
59.9000000000002
 20
-265.332
 11
59.9000000000002
 21
-270.332
  0
LINE
  5
28F
100
AcDbEntity
  8
corner_standoffs
  6
ByLayer
 62
  256
370
   -1
100
AcDbLine
 10
74.90000000000026
 20
-250.3320000000002
 11
74.90000000000026
 21
-255.3319999999999
  0
LINE
  5
290
100
AcDbEntity
  8
corner_standoffs
  6
ByLayer
 62
  256
370
   -1
100
AcDbLine
 10
74.90000000000026
 20
-255.3319999999999
 11
69.90000000000026
 21
-255.3319999999999
  0
LINE
  5
291
100
AcDbEntity
  8
corner_standoffs
  6
ByLayer
 62
  256
370
   -1
100
AcDbLine
 10
69.90000000000015
 20
-255.3319999999999
 11
69.90000000000015
 21
-250.3320000000002
  0
LINE
  5
292
100
AcDbEntity
  8
corner_standoffs
  6
ByLayer
 62
  256
370
   -1
100
AcDbLine
 10
44.90000000000009
 20
-270.3319999999999
 11
44.90000000000009
 21
-285.232
  0
LINE
  5
293
100
AcDbEntity
  8
corner_standoffs
  6
ByLayer
 62
  256
370
   -1
100
AcDbLine
 10
1.13686837721616e-13
 20
-240.3319999999999
 11
1.13686837721616e-13
 21
-265.232
  0
LINE
  5
294
100
AcDbEntity
  8
corner_standoffs
  6
ByLayer
 62
  256
370
   -1
100
AcDbLine
 10
20.00000000000011
 20
-285.232
 11
44.9000000000002
 21
-285.232
  0
LINE
  5
295
100
AcDbEntity
  8
corner_standoffs
  6
ByLayer
 62
  256
370
   -1
100
AcDbLine
 10
1.13686837721616e-13
 20
-265.232
 11
20.00000000000011
 21
-285.232
  0
CIRCLE
  5
296
100
AcDbEntity
  8
corner_standoffs
  6
ByLayer
 62
  256
370
   -1
100
AcDbCircle
 10
30.00000000000011
 20
-255.232
 40
2.5
  0
LINE
  5
297
100
AcDbEntity
  8
corner_standoffs
  6
ByLayer
 62
  256
370
   -1
100
AcDbLine
 10
19.89999999999998
 20
-240.3319999999999
 11
19.89999999999986
 21
-245.3319999999999
  0
LINE
  5
298
100
AcDbEntity
  8
corner_standoffs
  6
ByLayer
 62
  256
370
   -1
100
AcDbLine
 10
14.90000000000009
 20
-240.3319999999999
 11
14.90000000000009
 21
-245.3319999999999
  0
LINE
  5
299
100
AcDbEntity
  8
corner_standoffs
  6
ByLayer
 62
  256
370
   -1
100
AcDbLine
 10
14.90000000000015
 20
-245.3319999999999
 11
12.80000000000013
 21
-245.3319999999999
  0
LINE
  5
29A
100
AcDbEntity
  8
corner_standoffs
  6
ByLayer
 62
  256
370
   -1
100
AcDbLine
 10
19.90000000000009
 20
-245.3319999999999
 11
22.00000000000011
 21
-245.3319999999999
  0
LINE
  5
29B
100
AcDbEntity
  8
corner_standoffs
  6
ByLayer
 62
  256
370
   -1
100
AcDbLine
 10
12.80000000000013
 20
-245.3319999999999
 11
12.80000000000013
 21
-250.3320000000001
  0
LINE
  5
29C
100
AcDbEntity
  8
corner_standoffs
  6
ByLayer
 62
  256
370
   -1
100
AcDbLine
 10
19.90000000000009
 20
-250.3320000000001
 11
22.00000000000017
 21
-250.3320000000001
  0
LINE
  5
29D
100
AcDbEntity
  8
corner_standoffs
  6
ByLayer
 62
  256
370
   -1
100
AcDbLine
 10
22.00000000000017
 20
-250.3320000000001
 11
22.00000000000017
 21
-245.3319999999999
  0
LINE
  5
29E
100
AcDbEntity
  8
corner_standoffs
  6
ByLayer
 62
  256
370
   -1
100
AcDbLine
 10
14.90000000000009
 20
-250.3320000000001
 11
12.80000000000013
 21
-250.3320000000001
  0
LINE
  5
29F
100
AcDbEntity
  8
corner_standoffs
  6
ByLayer
 62
  256
370
   -1
100
AcDbLine
 10
44.90000000000003
 20
-270.3319999999999
 11
39.90000000000003
 21
-270.3319999999998
  0
LINE
  5
2A0
100
AcDbEntity
  8
corner_standoffs
  6
ByLayer
 62
  256
370
   -1
100
AcDbLine
 10
44.90000000000009
 20
-265.332
 11
39.90000000000009
 21
-265.332
  0
LINE
  5
2A1
100
AcDbEntity
  8
corner_standoffs
  6
ByLayer
 62
  256
370
   -1
100
AcDbLine
 10
39.90000000000009
 20
-265.3320000000001
 11
39.90000000000009
 21
-263.232
  0
LINE
  5
2A2
100
AcDbEntity
  8
corner_standoffs
  6
ByLayer
 62
  256
370
   -1
100
AcDbLine
 10
39.90000000000003
 20
-270.332
 11
39.90000000000003
 21
-272.432
  0
LINE
  5
2A3
100
AcDbEntity
  8
corner_standoffs
  6
ByLayer
 62
  256
370
   -1
100
AcDbLine
 10
39.90000000000009
 20
-263.232
 11
34.89999999999986
 21
-263.232
  0
LINE
  5
2A4
100
AcDbEntity
  8
corner_standoffs
  6
ByLayer
 62
  256
370
   -1
100
AcDbLine
 10
34.89999999999986
 20
-270.332
 11
34.89999999999986
 21
-272.432
  0
LINE
  5
2A5
100
AcDbEntity
  8
corner_standoffs
  6
ByLayer
 62
  256
370
   -1
100
AcDbLine
 10
34.89999999999986
 20
-272.432
 11
39.89999999999998
 21
-272.432
  0
LINE
  5
2A6
100
AcDbEntity
  8
corner_standoffs
  6
ByLayer
 62
  256
370
   -1
100
AcDbLine
 10
34.89999999999986
 20
-265.332
 11
34.89999999999986
 21
-263.232
  0
LINE
  5
2A7
100
AcDbEntity
  8
corner_standoffs
  6
ByLayer
 62
  256
370
   -1
100
AcDbLine
 10
14.90000000000009
 20
-255.3319999999999
 11
14.90000000000009
 21
-250.3320000000001
  0
LINE
  5
2A8
100
AcDbEntity
  8
corner_standoffs
  6
ByLayer
 62
  256
370
   -1
100
AcDbLine
 10
19.90000000000009
 20
-250.3320000000001
 11
19.90000000000009
 21
-255.3319999999999
  0
LINE
  5
2A9
100
AcDbEntity
  8
corner_standoffs
  6
ByLayer
 62
  256
370
   -1
100
AcDbLine
 10
19.90000000000009
 20
-255.3319999999999
 11
14.90000000000009
 21
-255.3319999999999
  0
LINE
  5
2AA
100
AcDbEntity
  8
corner_standoffs
  6
ByLayer
 62
  256
370
   -1
100
AcDbLine
 10
34.89999999999986
 20
-270.332
 11
29.90000000000015
 21
-270.332
  0
LINE
  5
2AB
100
AcDbEntity
  8
corner_standoffs
  6
ByLayer
 62
  256
370
   -1
100
AcDbLine
 10
29.90000000000015
 20
-270.332
 11
29.90000000000015
 21
-265.332
  0
LINE
  5
2AC
100
AcDbEntity
  8
corner_standoffs
  6
ByLayer
 62
  256
370
   -1
100
AcDbLine
 10
29.90000000000015
 20
-265.3319999999999
 11
34.89999999999986
 21
-265.3319999999999
  0
LINE
  5
2AD
100
AcDbEntity
  8
corner_standoffs
  6
ByLayer
 62
  256
370
   -1
100
AcDbLine
 10
180.1000000000001
 20
-210.3319999999999
 11
180.1000000000001
 21
-195.432
  0
LINE
  5
2AE
100
AcDbEntity
  8
corner_standoffs
  6
ByLayer
 62
  256
370
   -1
100
AcDbLine
 10
150.1000000000001
 20
-240.3319999999999
 11
135.2
 21
-240.3319999999999
  0
LINE
  5
2AF
100
AcDbEntity
  8
corner_standoffs
  6
ByLayer
 62
  256
370
   -1
100
AcDbLine
 10
180.1000000000001
 20
-195.432
 11
155.2
 21
-195.432
  0
LINE
  5
2B0
100
AcDbEntity
  8
corner_standoffs
  6
ByLayer
 62
  256
370
   -1
100
AcDbLine
 10
135.2
 20
-215.432
 11
135.2
 21
-240.3320000000001
  0
LINE
  5
2B1
100
AcDbEntity
  8
corner_standoffs
  6
ByLayer
 62
  256
370
   -1
100
AcDbLine
 10
155.2
 20
-195.432
 11
135.2
 21
-215.432
  0
LINE
  5
2B2
100
AcDbEntity
  8
corner_standoffs
  6
ByLayer
 62
  256
370
   -1
100
AcDbLine
 10
180.1000000000001
 20
-215.3319999999998
 11
175.1000000000001
 21
-215.3319999999997
  0
LINE
  5
2B3
100
AcDbEntity
  8
corner_standoffs
  6
ByLayer
 62
  256
370
   -1
100
AcDbLine
 10
180.1000000000001
 20
-210.3319999999999
 11
175.1000000000001
 21
-210.3319999999999
  0
LINE
  5
2B4
100
AcDbEntity
  8
corner_standoffs
  6
ByLayer
 62
  256
370
   -1
100
AcDbLine
 10
175.1000000000001
 20
-210.332
 11
175.1000000000001
 21
-208.232
  0
LINE
  5
2B5
100
AcDbEntity
  8
corner_standoffs
  6
ByLayer
 62
  256
370
   -1
100
AcDbLine
 10
175.1000000000001
 20
-215.3319999999999
 11
175.1000000000001
 21
-217.432
  0
LINE
  5
2B6
100
AcDbEntity
  8
corner_standoffs
  6
ByLayer
 62
  256
370
   -1
100
AcDbLine
 10
175.1000000000001
 20
-208.232
 11
170.0999999999999
 21
-208.232
  0
LINE
  5
2B7
100
AcDbEntity
  8
corner_standoffs
  6
ByLayer
 62
  256
370
   -1
100
AcDbLine
 10
170.0999999999999
 20
-215.3319999999999
 11
170.0999999999999
 21
-217.432
  0
LINE
  5
2B8
100
AcDbEntity
  8
corner_standoffs
  6
ByLayer
 62
  256
370
   -1
100
AcDbLine
 10
170.0999999999999
 20
-217.432
 11
175.1
 21
-217.432
  0
LINE
  5
2B9
100
AcDbEntity
  8
corner_standoffs
  6
ByLayer
 62
  256
370
   -1
100
AcDbLine
 10
170.0999999999999
 20
-210.3319999999999
 11
170.0999999999999
 21
-208.232
  0
LINE
  5
2BA
100
AcDbEntity
  8
corner_standoffs
  6
ByLayer
 62
  256
370
   -1
100
AcDbLine
 10
150.1000000000001
 20
-240.3319999999999
 11
150.1000000000002
 21
-235.3319999999999
  0
LINE
  5
2BB
100
AcDbEntity
  8
corner_standoffs
  6
ByLayer
 62
  256
370
   -1
100
AcDbLine
 10
155.1
 20
-240.3319999999999
 11
155.1
 21
-235.3319999999999
  0
LINE
  5
2BC
100
AcDbEntity
  8
corner_standoffs
  6
ByLayer
 62
  256
370
   -1
100
AcDbLine
 10
155.0999999999999
 20
-235.3319999999999
 11
157.1999999999999
 21
-235.3319999999999
  0
LINE
  5
2BD
100
AcDbEntity
  8
corner_standoffs
  6
ByLayer
 62
  256
370
   -1
100
AcDbLine
 10
150.1
 20
-235.3319999999999
 11
147.9999999999999
 21
-235.3319999999999
  0
LINE
  5
2BE
100
AcDbEntity
  8
corner_standoffs
  6
ByLayer
 62
  256
370
   -1
100
AcDbLine
 10
157.1999999999999
 20
-235.3319999999999
 11
157.1999999999999
 21
-230.3319999999997
  0
LINE
  5
2BF
100
AcDbEntity
  8
corner_standoffs
  6
ByLayer
 62
  256
370
   -1
100
AcDbLine
 10
150.1
 20
-230.3319999999997
 11
147.9999999999999
 21
-230.3319999999997
  0
LINE
  5
2C0
100
AcDbEntity
  8
corner_standoffs
  6
ByLayer
 62
  256
370
   -1
100
AcDbLine
 10
147.9999999999999
 20
-230.3319999999997
 11
147.9999999999999
 21
-235.3319999999998
  0
LINE
  5
2C1
100
AcDbEntity
  8
corner_standoffs
  6
ByLayer
 62
  256
370
   -1
100
AcDbLine
 10
155.1
 20
-230.3319999999997
 11
157.1999999999999
 21
-230.3319999999997
  0
LINE
  5
2C2
100
AcDbEntity
  8
corner_standoffs
  6
ByLayer
 62
  256
370
   -1
100
AcDbLine
 10
155.1
 20
-240.332
 11
180.1000000000001
 21
-240.332
  0
LINE
  5
2C3
100
AcDbEntity
  8
corner_standoffs
  6
ByLayer
 62
  256
370
   -1
100
AcDbLine
 10
180.1000000000001
 20
-215.3319999999999
 11
180.1000000000001
 21
-240.3319999999999
  0
LINE
  5
2C4
100
AcDbEntity
  8
corner_standoffs
  6
ByLayer
 62
  256
370
   -1
100
AcDbLine
 10
165.1
 20
-210.3319999999999
 11
170.0999999999999
 21
-210.3319999999999
  0
LINE
  5
2C5
100
AcDbEntity
  8
corner_standoffs
  6
ByLayer
 62
  256
370
   -1
100
AcDbLine
 10
170.0999999999999
 20
-215.3319999999999
 11
165.1
 21
-215.3319999999999
  0
LINE
  5
2C6
100
AcDbEntity
  8
corner_standoffs
  6
ByLayer
 62
  256
370
   -1
100
AcDbLine
 10
165.1
 20
-215.3319999999999
 11
165.1
 21
-210.3319999999999
  0
LINE
  5
2C7
100
AcDbEntity
  8
corner_standoffs
  6
ByLayer
 62
  256
370
   -1
100
AcDbLine
 10
150.1
 20
-230.3319999999997
 11
150.1
 21
-225.332
  0
LINE
  5
2C8
100
AcDbEntity
  8
corner_standoffs
  6
ByLayer
 62
  256
370
   -1
100
AcDbLine
 10
150.1
 20
-225.332
 11
155.1
 21
-225.332
  0
LINE
  5
2C9
100
AcDbEntity
  8
corner_standoffs
  6
ByLayer
 62
  256
370
   -1
100
AcDbLine
 10
155.1000000000001
 20
-225.332
 11
155.1000000000001
 21
-230.3319999999997
  0
LINE
  5
2CA
100
AcDbEntity
  8
corner_standoffs
  6
ByLayer
 62
  256
370
   -1
100
AcDbLine
 10
210.1000000000001
 20
-240.3320000000001
 11
225.0000000000001
 21
-240.3320000000001
  0
LINE
  5
2CB
100
AcDbEntity
  8
corner_standoffs
  6
ByLayer
 62
  256
370
   -1
100
AcDbLine
 10
225.0000000000001
 20
-240.3320000000001
 11
225.0000000000001
 21
-215.432
  0
LINE
  5
2CC
100
AcDbEntity
  8
corner_standoffs
  6
ByLayer
 62
  256
370
   -1
100
AcDbLine
 10
205.0000000000001
 20
-195.432
 11
180.1
 21
-195.432
  0
LINE
  5
2CD
100
AcDbEntity
  8
corner_standoffs
  6
ByLayer
 62
  256
370
   -1
100
AcDbLine
 10
225.0000000000001
 20
-215.432
 11
205.0000000000001
 21
-195.432
  0
LINE
  5
2CE
100
AcDbEntity
  8
corner_standoffs
  6
ByLayer
 62
  256
370
   -1
100
AcDbLine
 10
205.1000000000003
 20
-240.3320000000001
 11
205.1000000000004
 21
-235.3320000000001
  0
LINE
  5
2CF
100
AcDbEntity
  8
corner_standoffs
  6
ByLayer
 62
  256
370
   -1
100
AcDbLine
 10
210.1000000000001
 20
-240.3320000000001
 11
210.1000000000001
 21
-235.3320000000001
  0
LINE
  5
2D0
100
AcDbEntity
  8
corner_standoffs
  6
ByLayer
 62
  256
370
   -1
100
AcDbLine
 10
210.1000000000001
 20
-235.3320000000001
 11
212.2000000000001
 21
-235.3320000000001
  0
LINE
  5
2D1
100
AcDbEntity
  8
corner_standoffs
  6
ByLayer
 62
  256
370
   -1
100
AcDbLine
 10
205.1000000000001
 20
-235.3320000000001
 11
203.0000000000001
 21
-235.3320000000001
  0
LINE
  5
2D2
100
AcDbEntity
  8
corner_standoffs
  6
ByLayer
 62
  256
370
   -1
100
AcDbLine
 10
212.2000000000001
 20
-235.3320000000001
 11
212.2000000000001
 21
-230.3319999999999
  0
LINE
  5
2D3
100
AcDbEntity
  8
corner_standoffs
  6
ByLayer
 62
  256
370
   -1
100
AcDbLine
 10
205.1000000000001
 20
-230.3319999999999
 11
203.0000000000001
 21
-230.3319999999999
  0
LINE
  5
2D4
100
AcDbEntity
  8
corner_standoffs
  6
ByLayer
 62
  256
370
   -1
100
AcDbLine
 10
203.0000000000001
 20
-230.3319999999999
 11
203.0000000000001
 21
-235.332
  0
LINE
  5
2D5
100
AcDbEntity
  8
corner_standoffs
  6
ByLayer
 62
  256
370
   -1
100
AcDbLine
 10
210.1000000000001
 20
-230.3319999999999
 11
212.2000000000001
 21
-230.3319999999999
  0
LINE
  5
2D6
100
AcDbEntity
  8
corner_standoffs
  6
ByLayer
 62
  256
370
   -1
100
AcDbLine
 10
180.1000000000002
 20
-210.3320000000001
 11
185.1000000000002
 21
-210.3320000000002
  0
LINE
  5
2D7
100
AcDbEntity
  8
corner_standoffs
  6
ByLayer
 62
  256
370
   -1
100
AcDbLine
 10
180.1000000000001
 20
-215.3319999999999
 11
185.1000000000001
 21
-215.3319999999999
  0
LINE
  5
2D8
100
AcDbEntity
  8
corner_standoffs
  6
ByLayer
 62
  256
370
   -1
100
AcDbLine
 10
185.1000000000001
 20
-215.3319999999999
 11
185.1000000000001
 21
-217.4319999999999
  0
LINE
  5
2D9
100
AcDbEntity
  8
corner_standoffs
  6
ByLayer
 62
  256
370
   -1
100
AcDbLine
 10
185.1000000000002
 20
-210.3319999999999
 11
185.1000000000002
 21
-208.2319999999999
  0
LINE
  5
2DA
100
AcDbEntity
  8
corner_standoffs
  6
ByLayer
 62
  256
370
   -1
100
AcDbLine
 10
185.1000000000001
 20
-217.4319999999999
 11
190.1000000000004
 21
-217.4319999999999
  0
LINE
  5
2DB
100
AcDbEntity
  8
corner_standoffs
  6
ByLayer
 62
  256
370
   -1
100
AcDbLine
 10
190.1000000000004
 20
-210.3319999999999
 11
190.1000000000004
 21
-208.2319999999999
  0
LINE
  5
2DC
100
AcDbEntity
  8
corner_standoffs
  6
ByLayer
 62
  256
370
   -1
100
AcDbLine
 10
190.1000000000004
 20
-208.2319999999999
 11
185.1000000000003
 21
-208.2319999999999
  0
LINE
  5
2DD
100
AcDbEntity
  8
corner_standoffs
  6
ByLayer
 62
  256
370
   -1
100
AcDbLine
 10
190.1000000000004
 20
-215.3319999999999
 11
190.1000000000004
 21
-217.4319999999999
  0
LINE
  5
2DE
100
AcDbEntity
  8
corner_standoffs
  6
ByLayer
 62
  256
370
   -1
100
AcDbLine
 10
210.1000000000001
 20
-225.332
 11
210.1000000000001
 21
-230.3319999999999
  0
LINE
  5
2DF
100
AcDbEntity
  8
corner_standoffs
  6
ByLayer
 62
  256
370
   -1
100
AcDbLine
 10
205.1000000000001
 20
-230.3319999999999
 11
205.1000000000001
 21
-225.332
  0
LINE
  5
2E0
100
AcDbEntity
  8
corner_standoffs
  6
ByLayer
 62
  256
370
   -1
100
AcDbLine
 10
205.1000000000001
 20
-225.332
 11
210.1000000000001
 21
-225.332
  0
LINE
  5
2E1
100
AcDbEntity
  8
corner_standoffs
  6
ByLayer
 62
  256
370
   -1
100
AcDbLine
 10
190.1000000000004
 20
-210.3319999999999
 11
195.1000000000001
 21
-210.3319999999999
  0
LINE
  5
2E2
100
AcDbEntity
  8
corner_standoffs
  6
ByLayer
 62
  256
370
   -1
100
AcDbLine
 10
195.1000000000001
 20
-210.3319999999999
 11
195.1000000000001
 21
-215.3319999999999
  0
LINE
  5
2E3
100
AcDbEntity
  8
corner_standoffs
  6
ByLayer
 62
  256
370
   -1
100
AcDbLine
 10
195.1000000000001
 20
-215.3320000000001
 11
190.1000000000004
 21
-215.3320000000001
  0
LINE
  5
2E4
100
AcDbEntity
  8
corner_standoffs
  6
ByLayer
 62
  256
370
   -1
100
AcDbLine
 10
180.1000000000001
 20
-285.232
 11
205.0000000000002
 21
-285.232
  0
LINE
  5
2E5
100
AcDbEntity
  8
corner_standoffs
  6
ByLayer
 62
  256
370
   -1
100
AcDbLine
 10
225.0000000000002
 20
-265.232
 11
225.0000000000002
 21
-240.3319999999999
  0
LINE
  5
2E6
100
AcDbEntity
  8
corner_standoffs
  6
ByLayer
 62
  256
370
   -1
100
AcDbLine
 10
205.0000000000002
 20
-285.232
 11
225.0000000000002
 21
-265.232
  0
LINE
  5
2E7
100
AcDbEntity
  8
corner_standoffs
  6
ByLayer
 62
  256
370
   -1
100
AcDbLine
 10
180.1000000000001
 20
-265.3320000000001
 11
185.1000000000001
 21
-265.3320000000003
  0
LINE
  5
2E8
100
AcDbEntity
  8
corner_standoffs
  6
ByLayer
 62
  256
370
   -1
100
AcDbLine
 10
180.1000000000001
 20
-270.3320000000001
 11
185.1000000000001
 21
-270.3320000000001
  0
LINE
  5
2E9
100
AcDbEntity
  8
corner_standoffs
  6
ByLayer
 62
  256
370
   -1
100
AcDbLine
 10
185.1000000000001
 20
-270.3319999999999
 11
185.1000000000001
 21
-272.432
  0
LINE
  5
2EA
100
AcDbEntity
  8
corner_standoffs
  6
ByLayer
 62
  256
370
   -1
100
AcDbLine
 10
185.1000000000001
 20
-265.3320000000001
 11
185.1000000000001
 21
-263.232
  0
LINE
  5
2EB
100
AcDbEntity
  8
corner_standoffs
  6
ByLayer
 62
  256
370
   -1
100
AcDbLine
 10
185.1000000000001
 20
-272.432
 11
190.1000000000004
 21
-272.432
  0
LINE
  5
2EC
100
AcDbEntity
  8
corner_standoffs
  6
ByLayer
 62
  256
370
   -1
100
AcDbLine
 10
190.1000000000004
 20
-265.3320000000001
 11
190.1000000000004
 21
-263.232
  0
LINE
  5
2ED
100
AcDbEntity
  8
corner_standoffs
  6
ByLayer
 62
  256
370
   -1
100
AcDbLine
 10
190.1000000000004
 20
-263.232
 11
185.1000000000002
 21
-263.232
  0
LINE
  5
2EE
100
AcDbEntity
  8
corner_standoffs
  6
ByLayer
 62
  256
370
   -1
100
AcDbLine
 10
190.1000000000004
 20
-270.3320000000001
 11
190.1000000000004
 21
-272.432
  0
LINE
  5
2EF
100
AcDbEntity
  8
corner_standoffs
  6
ByLayer
 62
  256
370
   -1
100
AcDbLine
 10
210.1000000000001
 20
-240.3320000000001
 11
210.1
 21
-245.3320000000001
  0
LINE
  5
2F0
100
AcDbEntity
  8
corner_standoffs
  6
ByLayer
 62
  256
370
   -1
100
AcDbLine
 10
205.1000000000003
 20
-240.3320000000001
 11
205.1000000000003
 21
-245.3320000000001
  0
LINE
  5
2F1
100
AcDbEntity
  8
corner_standoffs
  6
ByLayer
 62
  256
370
   -1
100
AcDbLine
 10
205.1000000000003
 20
-245.3320000000001
 11
203.0000000000003
 21
-245.3320000000001
  0
LINE
  5
2F2
100
AcDbEntity
  8
corner_standoffs
  6
ByLayer
 62
  256
370
   -1
100
AcDbLine
 10
210.1000000000003
 20
-245.3320000000001
 11
212.2000000000003
 21
-245.3320000000001
  0
LINE
  5
2F3
100
AcDbEntity
  8
corner_standoffs
  6
ByLayer
 62
  256
370
   -1
100
AcDbLine
 10
203.0000000000003
 20
-245.3320000000001
 11
203.0000000000003
 21
-250.3320000000003
  0
LINE
  5
2F4
100
AcDbEntity
  8
corner_standoffs
  6
ByLayer
 62
  256
370
   -1
100
AcDbLine
 10
210.1000000000003
 20
-250.3320000000003
 11
212.2000000000003
 21
-250.3320000000003
  0
LINE
  5
2F5
100
AcDbEntity
  8
corner_standoffs
  6
ByLayer
 62
  256
370
   -1
100
AcDbLine
 10
212.2000000000003
 20
-250.3320000000003
 11
212.2000000000003
 21
-245.3320000000002
  0
LINE
  5
2F6
100
AcDbEntity
  8
corner_standoffs
  6
ByLayer
 62
  256
370
   -1
100
AcDbLine
 10
205.1000000000003
 20
-250.3320000000003
 11
203.0000000000003
 21
-250.3320000000003
  0
LINE
  5
2F7
100
AcDbEntity
  8
corner_standoffs
  6
ByLayer
 62
  256
370
   -1
100
AcDbLine
 10
205.1000000000003
 20
-240.332
 11
180.1000000000001
 21
-240.332
  0
LINE
  5
2F8
100
AcDbEntity
  8
corner_standoffs
  6
ByLayer
 62
  256
370
   -1
100
AcDbLine
 10
180.1000000000001
 20
-265.3320000000001
 11
180.1000000000001
 21
-240.3320000000001
  0
LINE
  5
2F9
100
AcDbEntity
  8
corner_standoffs
  6
ByLayer
 62
  256
370
   -1
100
AcDbLine
 10
195.1000000000002
 20
-270.3320000000001
 11
190.1000000000004
 21
-270.3320000000001
  0
LINE
  5
2FA
100
AcDbEntity
  8
corner_standoffs
  6
ByLayer
 62
  256
370
   -1
100
AcDbLine
 10
190.1000000000004
 20
-265.3320000000001
 11
195.1000000000002
 21
-265.3320000000001
  0
LINE
  5
2FB
100
AcDbEntity
  8
corner_standoffs
  6
ByLayer
 62
  256
370
   -1
100
AcDbLine
 10
195.1000000000002
 20
-265.3320000000001
 11
195.1000000000002
 21
-270.3320000000001
  0
LINE
  5
2FC
100
AcDbEntity
  8
corner_standoffs
  6
ByLayer
 62
  256
370
   -1
100
AcDbLine
 10
210.1000000000003
 20
-250.3320000000003
 11
210.1000000000003
 21
-255.3319999999999
  0
LINE
  5
2FD
100
AcDbEntity
  8
corner_standoffs
  6
ByLayer
 62
  256
370
   -1
100
AcDbLine
 10
210.1000000000003
 20
-255.3319999999999
 11
205.1000000000003
 21
-255.3319999999999
  0
LINE
  5
2FE
100
AcDbEntity
  8
corner_standoffs
  6
ByLayer
 62
  256
370
   -1
100
AcDbLine
 10
205.1000000000001
 20
-255.3319999999999
 11
205.1000000000001
 21
-250.3320000000003
  0
LINE
  5
2FF
100
AcDbEntity
  8
corner_standoffs
  6
ByLayer
 62
  256
370
   -1
100
AcDbLine
 10
180.1000000000001
 20
-270.3319999999999
 11
180.1000000000001
 21
-285.232
  0
LINE
  5
300
100
AcDbEntity
  8
corner_standoffs
  6
ByLayer
 62
  256
370
   -1
100
AcDbLine
 10
135.2000000000001
 20
-240.3319999999999
 11
135.2000000000001
 21
-265.232
  0
LINE
  5
301
100
AcDbEntity
  8
corner_standoffs
  6
ByLayer
 62
  256
370
   -1
100
AcDbLine
 10
155.2000000000001
 20
-285.232
 11
180.1000000000002
 21
-285.232
  0
LINE
  5
302
100
AcDbEntity
  8
corner_standoffs
  6
ByLayer
 62
  256
370
   -1
100
AcDbLine
 10
135.2000000000001
 20
-265.232
 11
155.2000000000001
 21
-285.232
  0
LINE
  5
303
100
AcDbEntity
  8
corner_standoffs
  6
ByLayer
 62
  256
370
   -1
100
AcDbLine
 10
155.1
 20
-240.3319999999999
 11
155.0999999999999
 21
-245.3319999999999
  0
LINE
  5
304
100
AcDbEntity
  8
corner_standoffs
  6
ByLayer
 62
  256
370
   -1
100
AcDbLine
 10
150.1000000000001
 20
-240.3319999999999
 11
150.1000000000001
 21
-245.3319999999999
  0
LINE
  5
305
100
AcDbEntity
  8
corner_standoffs
  6
ByLayer
 62
  256
370
   -1
100
AcDbLine
 10
150.1000000000001
 20
-245.3319999999999
 11
148.0000000000001
 21
-245.3319999999999
  0
LINE
  5
306
100
AcDbEntity
  8
corner_standoffs
  6
ByLayer
 62
  256
370
   -1
100
AcDbLine
 10
155.1000000000001
 20
-245.3319999999999
 11
157.2000000000001
 21
-245.3319999999999
  0
LINE
  5
307
100
AcDbEntity
  8
corner_standoffs
  6
ByLayer
 62
  256
370
   -1
100
AcDbLine
 10
148.0000000000001
 20
-245.3319999999999
 11
148.0000000000001
 21
-250.3320000000001
  0
LINE
  5
308
100
AcDbEntity
  8
corner_standoffs
  6
ByLayer
 62
  256
370
   -1
100
AcDbLine
 10
155.1000000000001
 20
-250.3320000000001
 11
157.2000000000002
 21
-250.3320000000001
  0
LINE
  5
309
100
AcDbEntity
  8
corner_standoffs
  6
ByLayer
 62
  256
370
   -1
100
AcDbLine
 10
157.2000000000002
 20
-250.3320000000001
 11
157.2000000000002
 21
-245.332
  0
LINE
  5
30A
100
AcDbEntity
  8
corner_standoffs
  6
ByLayer
 62
  256
370
   -1
100
AcDbLine
 10
150.1000000000001
 20
-250.3320000000001
 11
148.0000000000001
 21
-250.3320000000001
  0
LINE
  5
30B
100
AcDbEntity
  8
corner_standoffs
  6
ByLayer
 62
  256
370
   -1
100
AcDbLine
 10
180.1
 20
-270.3319999999999
 11
175.1
 21
-270.3319999999999
  0
LINE
  5
30C
100
AcDbEntity
  8
corner_standoffs
  6
ByLayer
 62
  256
370
   -1
100
AcDbLine
 10
180.1000000000001
 20
-265.3320000000001
 11
175.1000000000001
 21
-265.3320000000001
  0
LINE
  5
30D
100
AcDbEntity
  8
corner_standoffs
  6
ByLayer
 62
  256
370
   -1
100
AcDbLine
 10
175.1000000000001
 20
-265.3320000000001
 11
175.1000000000001
 21
-263.232
  0
LINE
  5
30E
100
AcDbEntity
  8
corner_standoffs
  6
ByLayer
 62
  256
370
   -1
100
AcDbLine
 10
175.1
 20
-270.3320000000001
 11
175.1
 21
-272.432
  0
LINE
  5
30F
100
AcDbEntity
  8
corner_standoffs
  6
ByLayer
 62
  256
370
   -1
100
AcDbLine
 10
175.1000000000001
 20
-263.232
 11
170.0999999999999
 21
-263.232
  0
LINE
  5
310
100
AcDbEntity
  8
corner_standoffs
  6
ByLayer
 62
  256
370
   -1
100
AcDbLine
 10
170.0999999999999
 20
-270.3320000000001
 11
170.0999999999999
 21
-272.432
  0
LINE
  5
311
100
AcDbEntity
  8
corner_standoffs
  6
ByLayer
 62
  256
370
   -1
100
AcDbLine
 10
170.0999999999999
 20
-272.432
 11
175.1
 21
-272.432
  0
LINE
  5
312
100
AcDbEntity
  8
corner_standoffs
  6
ByLayer
 62
  256
370
   -1
100
AcDbLine
 10
170.0999999999999
 20
-265.3320000000001
 11
170.0999999999999
 21
-263.232
  0
LINE
  5
313
100
AcDbEntity
  8
corner_standoffs
  6
ByLayer
 62
  256
370
   -1
100
AcDbLine
 10
150.1000000000001
 20
-255.3319999999999
 11
150.1000000000001
 21
-250.3320000000001
  0
LINE
  5
314
100
AcDbEntity
  8
corner_standoffs
  6
ByLayer
 62
  256
370
   -1
100
AcDbLine
 10
155.1000000000001
 20
-250.3320000000001
 11
155.1000000000001
 21
-255.3319999999999
  0
LINE
  5
315
100
AcDbEntity
  8
corner_standoffs
  6
ByLayer
 62
  256
370
   -1
100
AcDbLine
 10
155.1000000000001
 20
-255.3319999999999
 11
150.1000000000001
 21
-255.3319999999999
  0
LINE
  5
316
100
AcDbEntity
  8
corner_standoffs
  6
ByLayer
 62
  256
370
   -1
100
AcDbLine
 10
170.0999999999999
 20
-270.3320000000001
 11
165.1000000000001
 21
-270.3320000000001
  0
LINE
  5
317
100
AcDbEntity
  8
corner_standoffs
  6
ByLayer
 62
  256
370
   -1
100
AcDbLine
 10
165.1000000000001
 20
-270.3320000000001
 11
165.1000000000001
 21
-265.3320000000001
  0
LINE
  5
318
100
AcDbEntity
  8
corner_standoffs
  6
ByLayer
 62
  256
370
   -1
100
AcDbLine
 10
165.1000000000001
 20
-265.3319999999999
 11
170.0999999999999
 21
-265.3319999999999
  0
CIRCLE
  5
319
100
AcDbEntity
  8
corner_standoffs
  6
ByLayer
 62
  256
370
   -1
100
AcDbCircle
 10
165.2000000000001
 20
-255.232
 40
4.55
  0
CIRCLE
  5
31A
100
AcDbEntity
  8
corner_standoffs
  6
ByLayer
 62
  256
370
   -1
100
AcDbCircle
 10
195.0000000000002
 20
-255.232
 40
4.55
  0
CIRCLE
  5
31B
100
AcDbEntity
  8
corner_standoffs
  6
ByLayer
 62
  256
370
   -1
100
AcDbCircle
 10
195.0000000000001
 20
-225.432
 40
4.55
  0
CIRCLE
  5
31C
100
AcDbEntity
  8
corner_standoffs
  6
ByLayer
 62
  256
370
   -1
100
AcDbCircle
 10
165.2
 20
-225.432
 40
4.55
  0
ENDSEC
  0
SECTION
  2
OBJECTS
  0
DICTIONARY
  5
C
330
0
100
AcDbDictionary
281
    1
  3
ACAD_GROUP
350
D
  0
DICTIONARY
  5
D
330
C
100
AcDbDictionary
281
    1
  0
PLOTSETTINGS
  5
31D
100
AcDbPlotSettings
  6
1x1
 40
0
 41
0
 42
0
 43
0
  0
ENDSEC
  0
EOF
