999
dxfrw 0.6.3
  0
SECTION
  2
HEADER
  9
$ACADVER
  1
AC1021
  9
$DWGCODEPAGE
  3
ANSI_1252
  9
$INSBASE
 10
0
 20
0
 30
0
  9
$EXTMIN
 10
-549.1000000000001
 20
-640.1
 30
0
  9
$EXTMAX
 10
587.4285724444444
 20
478
 30
0
  9
$LIMMIN
 10
0
 20
0
  9
$LIMMAX
 10
420
 20
297
  9
$ORTHOMODE
 70
    0
  9
$REGENMODE
 70
    1
  9
$FILLMODE
 70
    1
  9
$QTEXTMODE
 70
    0
  9
$MIRRTEXT
 70
    0
  9
$LTSCALE
 40
1
  9
$ATTMODE
 70
    0
  9
$TEXTSIZE
 40
2.5
  9
$TRACEWID
 40
15.68
  9
$TEXTSTYLE
  7
STANDARD
  9
$CLAYER
  8
upper_corner_standoffs
  9
$CELTYPE
  6
BYLAYER
  9
$CECOLOR
 62
  256
  9
$CELTSCALE
 40
1
  9
$DISPSILH
 70
    0
  9
$DIMSCALE
 40
1
  9
$DIMASZ
 40
2.5
  9
$DIMEXO
 40
0.625
  9
$DIMDLI
 40
3.75
  9
$DIMRND
 40
0
  9
$DIMDLE
 40
0
  9
$DIMEXE
 40
1.25
  9
$DIMTP
 40
0
  9
$DIMTM
 40
0
  9
$DIMTXT
 40
2.5
  9
$DIMCEN
 40
2.5
  9
$DIMTSZ
 40
0
  9
$DIMTOL
 70
    0
  9
$DIMLIM
 70
    0
  9
$DIMTIH
 70
    0
  9
$DIMTOH
 70
    0
  9
$DIMSE1
 70
    0
  9
$DIMSE2
 70
    0
  9
$DIMTAD
 70
    1
  9
$DIMZIN
 70
    8
  9
$DIMBLK
  1

  9
$DIMASO
 70
    1
  9
$DIMSHO
 70
    1
  9
$DIMPOST
  1

  9
$DIMAPOST
  1

  9
$DIMALT
 70
    0
  9
$DIMALTD
 70
    3
  9
$DIMALTF
 40
0.03937
  9
$DIMLFAC
 40
1
  9
$DIMTOFL
 70
    1
  9
$DIMTVP
 40
0
  9
$DIMTIX
 70
    0
  9
$DIMSOXD
 70
    0
  9
$DIMSAH
 70
    0
  9
$DIMBLK1
  1

  9
$DIMBLK2
  1

  9
$DIMSTYLE
  2
STANDARD
  9
$DIMCLRD
 70
    0
  9
$DIMCLRE
 70
    0
  9
$DIMCLRT
 70
    0
  9
$DIMTFAC
 40
1
  9
$DIMGAP
 40
0.625
  9
$DIMJUST
 70
    0
  9
$DIMSD1
 70
    0
  9
$DIMSD2
 70
    0
  9
$DIMTOLJ
 70
    0
  9
$DIMTZIN
 70
    8
  9
$DIMALTZ
 70
    0
  9
$DIMALTTZ
 70
    0
  9
$DIMUPT
 70
    0
  9
$DIMDEC
 70
    2
  9
$DIMTDEC
 70
    2
  9
$DIMALTU
 70
    2
  9
$DIMALTTD
 70
    3
  9
$DIMTXSTY
  7
STANDARD
  9
$DIMAUNIT
 70
    0
  9
$DIMADEC
 70
    0
  9
$DIMALTRND
 40
0
  9
$DIMAZIN
 70
    0
  9
$DIMDSEP
 70
   44
  9
$DIMATFIT
 70
    3
  9
$DIMFRAC
 70
    0
  9
$DIMLDRBLK
  1
STANDARD
  9
$DIMLUNIT
 70
    2
  9
$DIMLWD
 70
   -2
  9
$DIMLWE
 70
   -2
  9
$DIMTMOVE
 70
    0
  9
$DIMFXL
 40
1
  9
$DIMFXLON
 70
    0
  9
$DIMJOGANG
 40
0.7854
  9
$DIMTFILL
 70
    0
  9
$DIMTFILLCLR
 70
    0
  9
$DIMARCSYM
 70
    0
  9
$DIMLTYPE
  6

  9
$DIMLTEX1
  6

  9
$DIMLTEX2
  6

  9
$LUNITS
 70
    2
  9
$LUPREC
 70
    4
  9
$SKETCHINC
 40
1
  9
$FILLETRAD
 40
0
  9
$AUNITS
 70
    0
  9
$AUPREC
 70
    2
  9
$MENU
  1
.
  9
$ELEVATION
 40
0
  9
$PELEVATION
 40
0
  9
$THICKNESS
 40
0
  9
$LIMCHECK
 70
    0
  9
$CHAMFERA
 40
0
  9
$CHAMFERB
 40
0
  9
$CHAMFERC
 40
0
  9
$CHAMFERD
 40
0
  9
$SKPOLY
 70
    0
  9
$USRTIMER
 70
    1
  9
$ANGBASE
 50
0
  9
$ANGDIR
 70
    0
  9
$PDMODE
 70
   34
  9
$PDSIZE
 40
0
  9
$PLINEWID
 40
0
  9
$SPLFRAME
 70
    0
  9
$SPLINETYPE
 70
    2
  9
$SPLINESEGS
 70
    8
  9
$HANDSEED
  5
20000
  9
$SURFTAB1
 70
    6
  9
$SURFTAB2
 70
    6
  9
$SURFTYPE
 70
    6
  9
$SURFU
 70
    6
  9
$SURFV
 70
    6
  9
$UCSBASE
  2

  9
$UCSNAME
  2

  9
$UCSORG
 10
0
 20
0
 30
0
  9
$UCSXDIR
 10
1
 20
0
 30
0
  9
$UCSYDIR
 10
0
 20
1
 30
0
  9
$UCSORTHOREF
  2

  9
$UCSORTHOVIEW
 70
    0
  9
$UCSORGTOP
 10
0
 20
0
 30
0
  9
$UCSORGBOTTOM
 10
0
 20
0
 30
0
  9
$UCSORGLEFT
 10
0
 20
0
 30
0
  9
$UCSORGRIGHT
 10
0
 20
0
 30
0
  9
$UCSORGFRONT
 10
0
 20
0
 30
0
  9
$UCSORGBACK
 10
0
 20
0
 30
0
  9
$PUCSBASE
  2

  9
$PUCSNAME
  2

  9
$PUCSORG
 10
0
 20
0
 30
0
  9
$PUCSXDIR
 10
1
 20
0
 30
0
  9
$PUCSYDIR
 10
0
 20
1
 30
0
  9
$PUCSORTHOREF
  2

  9
$PUCSORTHOVIEW
 70
    0
  9
$PUCSORGTOP
 10
0
 20
0
 30
0
  9
$PUCSORGBOTTOM
 10
0
 20
0
 30
0
  9
$PUCSORGLEFT
 10
0
 20
0
 30
0
  9
$PUCSORGRIGHT
 10
0
 20
0
 30
0
  9
$PUCSORGFRONT
 10
0
 20
0
 30
0
  9
$PUCSORGBACK
 10
0
 20
0
 30
0
  9
$USERI1
 70
    0
  9
$USERI2
 70
    0
  9
$USERI3
 70
    0
  9
$USERI4
 70
    0
  9
$USERI5
 70
    0
  9
$USERR1
 40
0
  9
$USERR2
 40
0
  9
$USERR3
 40
0
  9
$USERR4
 40
0
  9
$USERR5
 40
0
  9
$WORLDVIEW
 70
    1
  9
$SHADEDGE
 70
    3
  9
$SHADEDIF
 70
   70
  9
$TILEMODE
 70
    1
  9
$MAXACTVP
 70
   64
  9
$PINSBASE
 10
0
 20
0
 30
0
  9
$PLIMCHECK
 70
    0
  9
$PEXTMIN
 10
0
 20
0
 30
0
  9
$PEXTMAX
 10
0
 20
0
 30
0
  9
$GRIDMODE
 70
    1
  9
$SNAPSTYLE
 70
    0
  9
$PLIMMIN
 10
0
 20
0
  9
$PLIMMAX
 10
210
 20
297
  9
$UNITMODE
 70
    0
  9
$VISRETAIN
 70
    1
  9
$PLINEGEN
 70
    0
  9
$PSLTSCALE
 70
    1
  9
$TREEDEPTH
 70
 3020
  9
$CMLSTYLE
  2
Standard
  9
$CMLJUST
 70
    0
  9
$CMLSCALE
 40
20
  9
$PROXYGRAPHICS
 70
    1
  9
$MEASUREMENT
 70
    1
  9
$CELWEIGHT
370
   -1
  9
$ENDCAPS
280
    0
  9
$JOINSTYLE
280
    0
  9
$LWDISPLAY
290
    0
  9
$INSUNITS
 70
    4
  9
$HYPERLINKBASE
  1

  9
$STYLESHEET
  1

  9
$XEDIT
290
    1
  9
$CEPSNTYPE
380
    0
  9
$PSTYLEMODE
290
    1
  9
$EXTNAMES
290
    1
  9
$PSVPSCALE
 40
1
  9
$OLESTARTUP
290
    0
  9
$SORTENTS
280
  127
  9
$INDEXCTL
280
    0
  9
$HIDETEXT
280
    1
  9
$XCLIPFRAME
290
    0
  9
$HALOGAP
280
    0
  9
$OBSCOLOR
 70
  257
  9
$OBSLTYPE
280
    0
  9
$INTERSECTIONDISPLAY
280
    0
  9
$INTERSECTIONCOLOR
 70
  257
  9
$DIMASSOC
280
    1
  9
$PROJECTNAME
  1

  9
$CAMERADISPLAY
290
    0
  9
$LENSLENGTH
 40
50
  9
$CAMERAHEIGHT
 40
0
  9
$STEPSPERSEC
 40
2
  9
$STEPSIZE
 40
50
  9
$3DDWFPREC
 40
2
  9
$PSOLWIDTH
 40
5
  9
$PSOLHEIGHT
 40
80
  9
$LOFTANG1
 40
1.570796326794897
  9
$LOFTANG2
 40
1.570796326794897
  9
$LOFTMAG1
 40
0
  9
$LOFTMAG2
 40
0
  9
$LOFTPARAM
 70
    7
  9
$LOFTNORMALS
280
    1
  9
$LATITUDE
 40
1
  9
$LONGITUDE
 40
1
  9
$NORTHDIRECTION
 40
0
  9
$TIMEZONE
 70
-8000
  9
$LIGHTGLYPHDISPLAY
280
    1
  9
$TILEMODELIGHTSYNCH
280
    1
  9
$SOLIDHIST
280
    1
  9
$SHOWHIST
280
    1
  9
$DWFFRAME
280
    2
  9
$DGNFRAME
280
    0
  9
$REALWORLDSCALE
290
    1
  9
$INTERFERECOLOR
 62
    1
  9
$CSHADOW
280
    0
  9
$SHADOWPLANELOCATION
 40
0
  0
ENDSEC
  0
SECTION
  2
CLASSES
  0
ENDSEC
  0
SECTION
  2
TABLES
  0
TABLE
  2
VPORT
  5
8
330
0
100
AcDbSymbolTable
 70
    1
  0
VPORT
  5
31
330
2
100
AcDbSymbolTableRecord
100
AcDbViewportTableRecord
  2
*ACTIVE
 70
    0
 10
0
 20
0
 11
1
 21
1
 12
62.25000005426526
 22
-110.8750000966532
 13
0
 23
0
 14
10
 24
10
 15
10
 25
10
 16
0
 26
0
 36
1
 17
0
 27
0
 37
0
 40
216.2500001885118
 41
1.780346820809249
 42
50
 43
0
 44
0
 50
0
 51
0
 71
    0
 72
  100
 73
    1
 74
    3
 75
    0
 76
    1
 77
    0
 78
    0
281
    0
 65
    1
110
0
120
0
130
0
111
1
121
0
131
0
112
0
122
1
132
0
 79
    0
146
0
348
10020
 60
    7
 61
    5
292
1
282
    1
141
0
142
0
 63
  250
421
3358443
  0
ENDTAB
  0
TABLE
  2
LTYPE
  5
5
330
0
100
AcDbSymbolTable
 70
    4
  0
LTYPE
  5
14
330
5
100
AcDbSymbolTableRecord
100
AcDbLinetypeTableRecord
  2
ByBlock
 70
    0
  3

 72
   65
 73
    0
 40
0
  0
LTYPE
  5
15
330
5
100
AcDbSymbolTableRecord
100
AcDbLinetypeTableRecord
  2
ByLayer
 70
    0
  3

 72
   65
 73
    0
 40
0
  0
LTYPE
  5
16
330
5
100
AcDbSymbolTableRecord
100
AcDbLinetypeTableRecord
  2
Continuous
 70
    0
  3
Solid line
 72
   65
 73
    0
 40
0
  0
LTYPE
  5
32
330
5
100
AcDbSymbolTableRecord
100
AcDbLinetypeTableRecord
  2
DOT
 70
    0
  3
Dot . . . . . . . . . . . . . . . . . . . . . .
 72
   65
 73
    2
 40
6.35
 49
0
 74
    0
 49
-6.35
 74
    0
  0
LTYPE
  5
33
330
5
100
AcDbSymbolTableRecord
100
AcDbLinetypeTableRecord
  2
DOTTINY
 70
    0
  3
Dot (.15x) .....................................
 72
   65
 73
    2
 40
0.9525
 49
0
 74
    0
 49
-0.9525
 74
    0
  0
LTYPE
  5
34
330
5
100
AcDbSymbolTableRecord
100
AcDbLinetypeTableRecord
  2
DOT2
 70
    0
  3
Dot (.5x) .....................................
 72
   65
 73
    2
 40
3.175
 49
0
 74
    0
 49
-3.175
 74
    0
  0
LTYPE
  5
35
330
5
100
AcDbSymbolTableRecord
100
AcDbLinetypeTableRecord
  2
DOTX2
 70
    0
  3
Dot (2x) .  .  .  .  .  .  .  .  .  .  .  .  .
 72
   65
 73
    2
 40
12.7
 49
0
 74
    0
 49
-12.7
 74
    0
  0
LTYPE
  5
36
330
5
100
AcDbSymbolTableRecord
100
AcDbLinetypeTableRecord
  2
DASHED
 70
    0
  3
Dashed _ _ _ _ _ _ _ _ _ _ _ _ _ _ _ _ _
 72
   65
 73
    2
 40
19.05
 49
12.7
 74
    0
 49
-6.35
 74
    0
  0
LTYPE
  5
37
330
5
100
AcDbSymbolTableRecord
100
AcDbLinetypeTableRecord
  2
DASHEDTINY
 70
    0
  3
Dashed (.15x) _ _ _ _ _ _ _ _ _ _ _ _ _ _ _ _ _
 72
   65
 73
    2
 40
2.8575
 49
1.905
 74
    0
 49
-0.9525
 74
    0
  0
LTYPE
  5
38
330
5
100
AcDbSymbolTableRecord
100
AcDbLinetypeTableRecord
  2
DASHED2
 70
    0
  3
Dashed (.5x) _ _ _ _ _ _ _ _ _ _ _ _ _ _ _ _ _
 72
   65
 73
    2
 40
9.524999999999999
 49
6.35
 74
    0
 49
-3.175
 74
    0
  0
LTYPE
  5
39
330
5
100
AcDbSymbolTableRecord
100
AcDbLinetypeTableRecord
  2
DASHEDX2
 70
    0
  3
Dashed (2x) ____  ____  ____  ____  ____  ___
 72
   65
 73
    2
 40
38.09999999999999
 49
25.4
 74
    0
 49
-12.7
 74
    0
  0
LTYPE
  5
3A
330
5
100
AcDbSymbolTableRecord
100
AcDbLinetypeTableRecord
  2
DASHDOT
 70
    0
  3
Dash dot __ . __ . __ . __ . __ . __ . __ . __
 72
   65
 73
    4
 40
25.4
 49
12.7
 74
    0
 49
-6.35
 74
    0
 49
0
 74
    0
 49
-6.35
 74
    0
  0
LTYPE
  5
3B
330
5
100
AcDbSymbolTableRecord
100
AcDbLinetypeTableRecord
  2
DASHDOTTINY
 70
    0
  3
Dash dot (.15x) _._._._._._._._._._._._._._._.
 72
   65
 73
    4
 40
3.81
 49
1.905
 74
    0
 49
-0.9525
 74
    0
 49
0
 74
    0
 49
-0.9525
 74
    0
  0
LTYPE
  5
3C
330
5
100
AcDbSymbolTableRecord
100
AcDbLinetypeTableRecord
  2
DASHDOT2
 70
    0
  3
Dash dot (.5x) _._._._._._._._._._._._._._._.
 72
   65
 73
    4
 40
12.7
 49
6.35
 74
    0
 49
-3.175
 74
    0
 49
0
 74
    0
 49
-3.175
 74
    0
  0
LTYPE
  5
3D
330
5
100
AcDbSymbolTableRecord
100
AcDbLinetypeTableRecord
  2
DASHDOTX2
 70
    0
  3
Dash dot (2x) ____  .  ____  .  ____  .  ___
 72
   65
 73
    4
 40
50.8
 49
25.4
 74
    0
 49
-12.7
 74
    0
 49
0
 74
    0
 49
-12.7
 74
    0
  0
LTYPE
  5
3E
330
5
100
AcDbSymbolTableRecord
100
AcDbLinetypeTableRecord
  2
DIVIDE
 70
    0
  3
Divide ____ . . ____ . . ____ . . ____ . . ____
 72
   65
 73
    6
 40
31.75
 49
12.7
 74
    0
 49
-6.35
 74
    0
 49
0
 74
    0
 49
-6.35
 74
    0
 49
0
 74
    0
 49
-6.35
 74
    0
  0
LTYPE
  5
3F
330
5
100
AcDbSymbolTableRecord
100
AcDbLinetypeTableRecord
  2
DIVIDETINY
 70
    0
  3
Divide (.15x) __..__..__..__..__..__..__..__.._
 72
   65
 73
    6
 40
4.7625
 49
1.905
 74
    0
 49
-0.9525
 74
    0
 49
0
 74
    0
 49
-0.9525
 74
    0
 49
0
 74
    0
 49
-0.9525
 74
    0
  0
LTYPE
  5
40
330
5
100
AcDbSymbolTableRecord
100
AcDbLinetypeTableRecord
  2
DIVIDE2
 70
    0
  3
Divide (.5x) __..__..__..__..__..__..__..__.._
 72
   65
 73
    6
 40
15.875
 49
6.35
 74
    0
 49
-3.175
 74
    0
 49
0
 74
    0
 49
-3.175
 74
    0
 49
0
 74
    0
 49
-3.175
 74
    0
  0
LTYPE
  5
41
330
5
100
AcDbSymbolTableRecord
100
AcDbLinetypeTableRecord
  2
DIVIDEX2
 70
    0
  3
Divide (2x) ________  .  .  ________  .  .  _
 72
   65
 73
    6
 40
63.5
 49
25.4
 74
    0
 49
-12.7
 74
    0
 49
0
 74
    0
 49
-12.7
 74
    0
 49
0
 74
    0
 49
-12.7
 74
    0
  0
LTYPE
  5
42
330
5
100
AcDbSymbolTableRecord
100
AcDbLinetypeTableRecord
  2
BORDER
 70
    0
  3
Border __ __ . __ __ . __ __ . __ __ . __ __ .
 72
   65
 73
    6
 40
44.45
 49
12.7
 74
    0
 49
-6.35
 74
    0
 49
12.7
 74
    0
 49
-6.35
 74
    0
 49
0
 74
    0
 49
-6.35
 74
    0
  0
LTYPE
  5
43
330
5
100
AcDbSymbolTableRecord
100
AcDbLinetypeTableRecord
  2
BORDERTINY
 70
    0
  3
Border (.15x) __.__.__.__.__.__.__.__.__.__.__.
 72
   65
 73
    6
 40
6.6675
 49
1.905
 74
    0
 49
-0.9525
 74
    0
 49
1.905
 74
    0
 49
-0.9525
 74
    0
 49
0
 74
    0
 49
-0.9525
 74
    0
  0
LTYPE
  5
44
330
5
100
AcDbSymbolTableRecord
100
AcDbLinetypeTableRecord
  2
BORDER2
 70
    0
  3
Border (.5x) __.__.__.__.__.__.__.__.__.__.__.
 72
   65
 73
    6
 40
22.225
 49
6.35
 74
    0
 49
-3.175
 74
    0
 49
6.35
 74
    0
 49
-3.175
 74
    0
 49
0
 74
    0
 49
-3.175
 74
    0
  0
LTYPE
  5
45
330
5
100
AcDbSymbolTableRecord
100
AcDbLinetypeTableRecord
  2
BORDERX2
 70
    0
  3
Border (2x) ____  ____  .  ____  ____  .  ___
 72
   65
 73
    6
 40
88.89999999999999
 49
25.4
 74
    0
 49
-12.7
 74
    0
 49
25.4
 74
    0
 49
-12.7
 74
    0
 49
0
 74
    0
 49
-12.7
 74
    0
  0
LTYPE
  5
46
330
5
100
AcDbSymbolTableRecord
100
AcDbLinetypeTableRecord
  2
CENTER
 70
    0
  3
Center ____ _ ____ _ ____ _ ____ _ ____ _ ____
 72
   65
 73
    4
 40
50.8
 49
31.75
 74
    0
 49
-6.35
 74
    0
 49
6.35
 74
    0
 49
-6.35
 74
    0
  0
LTYPE
  5
47
330
5
100
AcDbSymbolTableRecord
100
AcDbLinetypeTableRecord
  2
CENTERTINY
 70
    0
  3
Center (.15x) ___ _ ___ _ ___ _ ___ _ ___ _ ___
 72
   65
 73
    4
 40
7.619999999999999
 49
4.7625
 74
    0
 49
-0.9525
 74
    0
 49
0.9525
 74
    0
 49
-0.9525
 74
    0
  0
LTYPE
  5
48
330
5
100
AcDbSymbolTableRecord
100
AcDbLinetypeTableRecord
  2
CENTER2
 70
    0
  3
Center (.5x) ___ _ ___ _ ___ _ ___ _ ___ _ ___
 72
   65
 73
    4
 40
28.575
 49
19.05
 74
    0
 49
-3.175
 74
    0
 49
3.175
 74
    0
 49
-3.175
 74
    0
  0
LTYPE
  5
49
330
5
100
AcDbSymbolTableRecord
100
AcDbLinetypeTableRecord
  2
CENTERX2
 70
    0
  3
Center (2x) ________  __  ________  __  _____
 72
   65
 73
    4
 40
101.6
 49
63.5
 74
    0
 49
-12.7
 74
    0
 49
12.7
 74
    0
 49
-12.7
 74
    0
  0
ENDTAB
  0
TABLE
  2
LAYER
  5
2
330
0
100
AcDbSymbolTable
 70
    1
  0
LAYER
  5
10
330
2
100
AcDbSymbolTableRecord
100
AcDbLayerTableRecord
  2
0
 70
    4
 62
    7
  6
CONTINUOUS
370
    0
390
F
  0
LAYER
  5
4A
330
2
100
AcDbSymbolTableRecord
100
AcDbLayerTableRecord
  2
Buttons-stick
 70
    4
 62
    3
  6
CONTINUOUS
370
   -3
390
F
  0
LAYER
  5
4B
330
2
100
AcDbSymbolTableRecord
100
AcDbLayerTableRecord
  2
Sidewalls
 70
    0
 62
    2
  6
CONTINUOUS
370
   -3
390
F
  0
LAYER
  5
4C
330
2
100
AcDbSymbolTableRecord
100
AcDbLayerTableRecord
  2
corner_standoffs
 70
    4
 62
    1
  6
CONTINUOUS
370
    0
390
F
  0
LAYER
  5
4D
330
2
100
AcDbSymbolTableRecord
100
AcDbLayerTableRecord
  2
sidewall_top_view
 70
    4
 62
  176
420
  128
  6
CONTINUOUS
370
    0
390
F
  0
LAYER
  5
4E
330
2
100
AcDbSymbolTableRecord
100
AcDbLayerTableRecord
  2
upper_corner_standoffs
 70
    0
 62
    4
  6
CONTINUOUS
370
    0
390
F
  0
ENDTAB
  0
TABLE
  2
STYLE
  5
3
330
0
100
AcDbSymbolTable
 70
    3
  0
STYLE
  5
4F
330
2
100
AcDbSymbolTableRecord
100
AcDbTextStyleTableRecord
  2
opengosttypea-regular
 70
    0
 40
0
 41
1
 50
0
 71
    0
 42
1
  3
opengosttypea-regular
  4

  0
STYLE
  5
50
330
2
100
AcDbSymbolTableRecord
100
AcDbTextStyleTableRecord
  2
Standard
 70
    0
 40
0
 41
1
 50
0
 71
    0
 42
1
  3
txt
  4

  0
ENDTAB
  0
TABLE
  2
VIEW
  5
6
330
0
100
AcDbSymbolTable
 70
    0
  0
ENDTAB
  0
TABLE
  2
UCS
  5
7
330
0
100
AcDbSymbolTable
 70
    0
  0
ENDTAB
  0
TABLE
  2
APPID
  5
9
330
0
100
AcDbSymbolTable
 70
    1
  0
APPID
  5
12
330
9
100
AcDbSymbolTableRecord
100
AcDbRegAppTableRecord
  2
ACAD
 70
    0
  0
APPID
  5
51
330
9
100
AcDbSymbolTableRecord
100
AcDbRegAppTableRecord
  2
LibreCad
 70
    0
  0
ENDTAB
  0
TABLE
  2
DIMSTYLE
  5
A
330
0
100
AcDbSymbolTable
 70
    1
100
AcDbDimStyleTable
 71
    1
  0
DIMSTYLE
105
52
330
A
100
AcDbSymbolTableRecord
100
AcDbDimStyleTableRecord
  2
Standard
 70
    0
 40
1
 41
2.5
 42
0.625
 43
0.38
 44
1.25
 45
0
 46
0
 47
0
 48
0
 49
1
140
2.5
141
0.09
142
0
143
25.4
144
1
145
0
146
1
147
0.625
148
0
 71
    0
 72
    0
 73
    0
 74
    1
 75
    0
 76
    0
 77
    0
 78
    8
 79
    0
170
    0
171
    2
172
    0
173
    0
174
    0
175
    0
176
    0
177
    0
178
    0
179
    0
271
    2
272
    4
273
    2
274
    2
275
    0
276
    0
277
    2
278
   44
279
    0
280
    0
281
    0
282
    0
283
    1
284
    0
285
    0
286
    0
288
    0
289
    3
340
STANDARD
341

371
   -2
372
   -2
  0
ENDTAB
  0
TABLE
  2
BLOCK_RECORD
  5
1
330
0
100
AcDbSymbolTable
 70
    2
  0
BLOCK_RECORD
  5
1F
330
1
100
AcDbSymbolTableRecord
100
AcDbBlockTableRecord
  2
*Model_Space
 70
    0
280
    1
281
    0
  0
BLOCK_RECORD
  5
1E
330
1
100
AcDbSymbolTableRecord
100
AcDbBlockTableRecord
  2
*Paper_Space
 70
    0
280
    1
281
    0
  0
BLOCK_RECORD
  5
53
330
1
100
AcDbSymbolTableRecord
100
AcDbBlockTableRecord
  2
*D1
 70
    0
280
    1
281
    0
  0
BLOCK_RECORD
  5
56
330
1
100
AcDbSymbolTableRecord
100
AcDbBlockTableRecord
  2
*D9
 70
    0
280
    1
281
    0
  0
BLOCK_RECORD
  5
59
330
1
100
AcDbSymbolTableRecord
100
AcDbBlockTableRecord
  2
*D10
 70
    0
280
    1
281
    0
  0
BLOCK_RECORD
  5
5C
330
1
100
AcDbSymbolTableRecord
100
AcDbBlockTableRecord
  2
*D4
 70
    0
280
    1
281
    0
  0
BLOCK_RECORD
  5
5F
330
1
100
AcDbSymbolTableRecord
100
AcDbBlockTableRecord
  2
*D3
 70
    0
280
    1
281
    0
  0
BLOCK_RECORD
  5
62
330
1
100
AcDbSymbolTableRecord
100
AcDbBlockTableRecord
  2
*D5
 70
    0
280
    1
281
    0
  0
BLOCK_RECORD
  5
65
330
1
100
AcDbSymbolTableRecord
100
AcDbBlockTableRecord
  2
*D8
 70
    0
280
    1
281
    0
  0
BLOCK_RECORD
  5
68
330
1
100
AcDbSymbolTableRecord
100
AcDbBlockTableRecord
  2
*D6
 70
    0
280
    1
281
    0
  0
BLOCK_RECORD
  5
6B
330
1
100
AcDbSymbolTableRecord
100
AcDbBlockTableRecord
  2
*D7
 70
    0
280
    1
281
    0
  0
BLOCK_RECORD
  5
6E
330
1
100
AcDbSymbolTableRecord
100
AcDbBlockTableRecord
  2
*D2
 70
    0
280
    1
281
    0
  0
ENDTAB
  0
ENDSEC
  0
SECTION
  2
BLOCKS
  0
BLOCK
  5
20
330
1F
100
AcDbEntity
  8
0
100
AcDbBlockBegin
  2
*Model_Space
 70
    0
 10
0
 20
0
 30
0
  3
*Model_Space
  1

  0
ENDBLK
  5
21
330
1F
100
AcDbEntity
  8
0
100
AcDbBlockEnd
  0
BLOCK
  5
1C
330
1B
100
AcDbEntity
  8
0
100
AcDbBlockBegin
  2
*Paper_Space
 70
    0
 10
0
 20
0
 30
0
  3
*Paper_Space
  1

  0
ENDBLK
  5
1D
330
1F
100
AcDbEntity
  8
0
100
AcDbBlockEnd
  0
BLOCK
  5
54
330
53
100
AcDbEntity
  8
0
100
AcDbBlockBegin
  2
*D1
 70
    1
 10
0
 20
0
  3
*D1
  1

  0
LINE
  5
71
100
AcDbEntity
  8
Sidewalls
  6
ByBlock
 62
    0
370
   -2
100
AcDbLine
 10
-40
 20
265
 11
-40
 21
300
  0
MTEXT
  5
72
100
AcDbEntity
  8
Sidewalls
  6
CONTINUOUS
 62
    0
370
   -2
100
AcDbMText
 10
-41.875
 20
282.5
 30
0
 40
2.5
 41
3.055555555555866
 71
    5
 72
    1
  1
35
  7
STANDARD
210
0
220
0
230
1
 50
90
 73
    2
 44
1
  0
SOLID
  5
73
100
AcDbEntity
  8
Sidewalls
  6
ByBlock
 62
    0
370
   -2
100
AcDbTrace
 10
-40
 20
265
 30
0
 11
-40.41628465777284
 21
267.5
 31
0
 12
-39.58371534222716
 22
267.5
 32
0
 13
-39.58371534222716
 23
267.5
 33
0
  0
SOLID
  5
74
100
AcDbEntity
  8
Sidewalls
  6
ByBlock
 62
    0
370
   -2
100
AcDbTrace
 10
-40
 20
300
 30
0
 11
-39.58371534222716
 21
297.5
 31
0
 12
-40.41628465777284
 22
297.5
 32
0
 13
-40.41628465777284
 23
297.5
 33
0
  0
LINE
  5
75
100
AcDbEntity
  8
Sidewalls
  6
ByBlock
 62
    0
370
   -2
100
AcDbLine
 10
35.375
 20
265
 11
-41.25
 21
265
  0
LINE
  5
76
100
AcDbEntity
  8
Sidewalls
  6
ByBlock
 62
    0
370
   -2
100
AcDbLine
 10
35.375
 20
300
 11
-41.25
 21
300
  0
ENDBLK
  5
55
330
53
100
AcDbEntity
  8
0
100
AcDbBlockEnd
  0
BLOCK
  5
57
330
56
100
AcDbEntity
  8
0
100
AcDbBlockBegin
  2
*D9
 70
    1
 10
0
 20
0
  3
*D9
  1

  0
LINE
  5
77
100
AcDbEntity
  8
upper_corner_standoffs
  6
ByBlock
 62
    0
370
   -2
100
AcDbLine
 10
-89
 20
-351.1
 11
-89
 21
-344.1
  0
MTEXT
  5
78
100
AcDbEntity
  8
upper_corner_standoffs
  6
CONTINUOUS
 62
    0
370
   -2
100
AcDbMText
 10
-90.875
 20
-347.6
 30
0
 40
2.5
 41
1.111111111111111
 71
    5
 72
    1
  1
7
  7
STANDARD
210
0
220
0
230
1
 50
90
 73
    2
 44
1
  0
SOLID
  5
79
100
AcDbEntity
  8
upper_corner_standoffs
  6
ByBlock
 62
    0
370
   -2
100
AcDbTrace
 10
-89
 20
-351.1
 30
0
 11
-89.41628465777283
 21
-348.6
 31
0
 12
-88.58371534222717
 22
-348.6
 32
0
 13
-88.58371534222717
 23
-348.6
 33
0
  0
SOLID
  5
7A
100
AcDbEntity
  8
upper_corner_standoffs
  6
ByBlock
 62
    0
370
   -2
100
AcDbTrace
 10
-89
 20
-344.1
 30
0
 11
-88.58371534222717
 21
-346.6
 31
0
 12
-89.41628465777283
 22
-346.6
 32
0
 13
-89.41628465777283
 23
-346.6
 33
0
  0
LINE
  5
7B
100
AcDbEntity
  8
upper_corner_standoffs
  6
ByBlock
 62
    0
370
   -2
100
AcDbLine
 10
-75.52499999999998
 20
-351.1
 11
-90.25
 21
-351.1
  0
LINE
  5
7C
100
AcDbEntity
  8
upper_corner_standoffs
  6
ByBlock
 62
    0
370
   -2
100
AcDbLine
 10
-75.52499999999998
 20
-344.1
 11
-90.25
 21
-344.1
  0
ENDBLK
  5
58
330
56
100
AcDbEntity
  8
0
100
AcDbBlockEnd
  0
BLOCK
  5
5A
330
59
100
AcDbEntity
  8
0
100
AcDbBlockBegin
  2
*D10
 70
    1
 10
0
 20
0
  3
*D10
  1

  0
LINE
  5
7D
100
AcDbEntity
  8
upper_corner_standoffs
  6
ByBlock
 62
    0
370
   -2
100
AcDbLine
 10
-91
 20
-349.1
 11
-91
 21
-334
  0
MTEXT
  5
7E
100
AcDbEntity
  8
upper_corner_standoffs
  6
CONTINUOUS
 62
    0
370
   -2
100
AcDbMText
 10
-92.875
 20
-341.55
 30
0
 40
2.5
 41
3.472222222222377
 71
    5
 72
    1
  1
5,1
  7
STANDARD
210
0
220
0
230
1
 50
90
 73
    2
 44
1
  0
SOLID
  5
7F
100
AcDbEntity
  8
upper_corner_standoffs
  6
ByBlock
 62
    0
370
   -2
100
AcDbTrace
 10
-91
 20
-344.1
 30
0
 11
-90.58371534222717
 21
-346.6
 31
0
 12
-91.41628465777283
 22
-346.6
 32
0
 13
-91.41628465777283
 23
-346.6
 33
0
  0
SOLID
  5
80
100
AcDbEntity
  8
upper_corner_standoffs
  6
ByBlock
 62
    0
370
   -2
100
AcDbTrace
 10
-91
 20
-339
 30
0
 11
-91.41628465777283
 21
-336.5
 31
0
 12
-90.58371534222717
 22
-336.5
 32
0
 13
-90.58371534222717
 23
-336.5
 33
0
  0
LINE
  5
81
100
AcDbEntity
  8
upper_corner_standoffs
  6
ByBlock
 62
    0
370
   -2
100
AcDbLine
 10
-75.52499999999999
 20
-344.1
 11
-92.25
 21
-344.1
  0
LINE
  5
82
100
AcDbEntity
  8
upper_corner_standoffs
  6
ByBlock
 62
    0
370
   -2
100
AcDbLine
 10
-75.52499999999999
 20
-339
 11
-92.25
 21
-339
  0
ENDBLK
  5
5B
330
59
100
AcDbEntity
  8
0
100
AcDbBlockEnd
  0
BLOCK
  5
5D
330
5C
100
AcDbEntity
  8
0
100
AcDbBlockBegin
  2
*D4
 70
    1
 10
0
 20
0
  3
*D4
  1

  0
LINE
  5
83
100
AcDbEntity
  8
Sidewalls
  6
ByBlock
 62
    0
370
   -2
100
AcDbLine
 10
390
 20
265
 11
390
 21
300
  0
MTEXT
  5
84
100
AcDbEntity
  8
Sidewalls
  6
CONTINUOUS
 62
    0
370
   -2
100
AcDbMText
 10
388.125
 20
282.5
 30
0
 40
2.5
 41
3.055555555555866
 71
    5
 72
    1
  1
35
  7
STANDARD
210
0
220
0
230
1
 50
90
 73
    2
 44
1
  0
SOLID
  5
85
100
AcDbEntity
  8
Sidewalls
  6
ByBlock
 62
    0
370
   -2
100
AcDbTrace
 10
390
 20
265
 30
0
 11
389.5837153422272
 21
267.5
 31
0
 12
390.4162846577728
 22
267.5
 32
0
 13
390.4162846577728
 23
267.5
 33
0
  0
SOLID
  5
86
100
AcDbEntity
  8
Sidewalls
  6
ByBlock
 62
    0
370
   -2
100
AcDbTrace
 10
390
 20
300
 30
0
 11
390.4162846577728
 21
297.5
 31
0
 12
389.5837153422272
 22
297.5
 32
0
 13
389.5837153422272
 23
297.5
 33
0
  0
LINE
  5
87
100
AcDbEntity
  8
Sidewalls
  6
ByBlock
 62
    0
370
   -2
100
AcDbLine
 10
354.625
 20
265
 11
391.25
 21
265
  0
LINE
  5
88
100
AcDbEntity
  8
Sidewalls
  6
ByBlock
 62
    0
370
   -2
100
AcDbLine
 10
354.625
 20
300
 11
391.25
 21
300
  0
ENDBLK
  5
5E
330
5C
100
AcDbEntity
  8
0
100
AcDbBlockEnd
  0
BLOCK
  5
60
330
5F
100
AcDbEntity
  8
0
100
AcDbBlockBegin
  2
*D3
 70
    1
 10
0
 20
0
  3
*D3
  1

  0
LINE
  5
89
100
AcDbEntity
  8
Sidewalls
  6
ByBlock
 62
    0
370
   -2
100
AcDbLine
 10
390
 20
345
 11
390
 21
380
  0
MTEXT
  5
8A
100
AcDbEntity
  8
Sidewalls
  6
CONTINUOUS
 62
    0
370
   -2
100
AcDbMText
 10
388.125
 20
362.5
 30
0
 40
2.5
 41
3.055555555555866
 71
    5
 72
    1
  1
35
  7
STANDARD
210
0
220
0
230
1
 50
90
 73
    2
 44
1
  0
SOLID
  5
8B
100
AcDbEntity
  8
Sidewalls
  6
ByBlock
 62
    0
370
   -2
100
AcDbTrace
 10
390
 20
345
 30
0
 11
389.5837153422272
 21
347.5
 31
0
 12
390.4162846577728
 22
347.5
 32
0
 13
390.4162846577728
 23
347.5
 33
0
  0
SOLID
  5
8C
100
AcDbEntity
  8
Sidewalls
  6
ByBlock
 62
    0
370
   -2
100
AcDbTrace
 10
390
 20
380
 30
0
 11
390.4162846577728
 21
377.5
 31
0
 12
389.5837153422272
 22
377.5
 32
0
 13
389.5837153422272
 23
377.5
 33
0
  0
LINE
  5
8D
100
AcDbEntity
  8
Sidewalls
  6
ByBlock
 62
    0
370
   -2
100
AcDbLine
 10
354.625
 20
345
 11
391.25
 21
345
  0
LINE
  5
8E
100
AcDbEntity
  8
Sidewalls
  6
ByBlock
 62
    0
370
   -2
100
AcDbLine
 10
354.625
 20
380
 11
391.25
 21
380
  0
ENDBLK
  5
61
330
5F
100
AcDbEntity
  8
0
100
AcDbBlockEnd
  0
BLOCK
  5
63
330
62
100
AcDbEntity
  8
0
100
AcDbBlockBegin
  2
*D5
 70
    1
 10
0
 20
0
  3
*D5
  1

  0
LINE
  5
8F
100
AcDbEntity
  8
Sidewalls
  6
ByBlock
 62
    0
370
   -2
100
AcDbLine
 10
36
 20
240
 11
56
 21
240
  0
MTEXT
  5
90
100
AcDbEntity
  8
Sidewalls
  6
CONTINUOUS
 62
    0
370
   -2
100
AcDbMText
 10
46
 20
241.875
 30
0
 40
2.5
 41
3.055555555555556
 71
    5
 72
    1
  1
20
  7
STANDARD
210
0
220
0
230
1
 50
0
 73
    2
 44
1
  0
SOLID
  5
91
100
AcDbEntity
  8
Sidewalls
  6
ByBlock
 62
    0
370
   -2
100
AcDbTrace
 10
36
 20
240
 30
0
 11
38.5
 21
240.4162846577728
 31
0
 12
38.5
 22
239.5837153422272
 32
0
 13
38.5
 23
239.5837153422272
 33
0
  0
SOLID
  5
92
100
AcDbEntity
  8
Sidewalls
  6
ByBlock
 62
    0
370
   -2
100
AcDbTrace
 10
56
 20
240
 30
0
 11
53.5
 21
239.5837153422272
 31
0
 12
53.5
 22
240.4162846577728
 32
0
 13
53.5
 23
240.4162846577728
 33
0
  0
LINE
  5
93
100
AcDbEntity
  8
Sidewalls
  6
ByBlock
 62
    0
370
   -2
100
AcDbLine
 10
36
 20
264.375
 11
36
 21
238.75
  0
LINE
  5
94
100
AcDbEntity
  8
Sidewalls
  6
ByBlock
 62
    0
370
   -2
100
AcDbLine
 10
56
 20
264.375
 11
56
 21
238.75
  0
ENDBLK
  5
64
330
62
100
AcDbEntity
  8
0
100
AcDbBlockEnd
  0
BLOCK
  5
66
330
65
100
AcDbEntity
  8
0
100
AcDbBlockBegin
  2
*D8
 70
    1
 10
0
 20
0
  3
*D8
  1

  0
LINE
  5
95
100
AcDbEntity
  8
Sidewalls
  6
ByBlock
 62
    0
370
   -2
100
AcDbLine
 10
10
 20
85
 11
36
 21
85
  0
MTEXT
  5
96
100
AcDbEntity
  8
Sidewalls
  6
CONTINUOUS
 62
    0
370
   -2
100
AcDbMText
 10
23
 20
86.875
 30
0
 40
2.5
 41
3.055555555555711
 71
    5
 72
    1
  1
26
  7
STANDARD
210
0
220
0
230
1
 50
0
 73
    2
 44
1
  0
SOLID
  5
97
100
AcDbEntity
  8
Sidewalls
  6
ByBlock
 62
    0
370
   -2
100
AcDbTrace
 10
10
 20
85
 30
0
 11
12.5
 21
85.41628465777283
 31
0
 12
12.5
 22
84.58371534222717
 32
0
 13
12.5
 23
84.58371534222717
 33
0
  0
SOLID
  5
98
100
AcDbEntity
  8
Sidewalls
  6
ByBlock
 62
    0
370
   -2
100
AcDbTrace
 10
36
 20
85
 30
0
 11
33.5
 21
84.58371534222717
 31
0
 12
33.5
 22
85.41628465777283
 32
0
 13
33.5
 23
85.41628465777283
 33
0
  0
LINE
  5
99
100
AcDbEntity
  8
Sidewalls
  6
ByBlock
 62
    0
370
   -2
100
AcDbLine
 10
10
 20
94.375
 11
10
 21
83.75
  0
LINE
  5
9A
100
AcDbEntity
  8
Sidewalls
  6
ByBlock
 62
    0
370
   -2
100
AcDbLine
 10
36
 20
94.375
 11
36
 21
83.75
  0
ENDBLK
  5
67
330
65
100
AcDbEntity
  8
0
100
AcDbBlockEnd
  0
BLOCK
  5
69
330
68
100
AcDbEntity
  8
0
100
AcDbBlockBegin
  2
*D6
 70
    1
 10
0
 20
0
  3
*D6
  1

  0
LINE
  5
9B
100
AcDbEntity
  8
Sidewalls
  6
ByBlock
 62
    0
370
   -2
100
AcDbLine
 10
56
 20
250
 11
74
 21
250
  0
MTEXT
  5
9C
100
AcDbEntity
  8
Sidewalls
  6
CONTINUOUS
 62
    0
370
   -2
100
AcDbMText
 10
65
 20
251.875
 30
0
 40
2.5
 41
2.5
 71
    5
 72
    1
  1
18
  7
STANDARD
210
0
220
0
230
1
 50
0
 73
    2
 44
1
  0
SOLID
  5
9D
100
AcDbEntity
  8
Sidewalls
  6
ByBlock
 62
    0
370
   -2
100
AcDbTrace
 10
56
 20
250
 30
0
 11
58.5
 21
250.4162846577728
 31
0
 12
58.5
 22
249.5837153422272
 32
0
 13
58.5
 23
249.5837153422272
 33
0
  0
SOLID
  5
9E
100
AcDbEntity
  8
Sidewalls
  6
ByBlock
 62
    0
370
   -2
100
AcDbTrace
 10
74
 20
250
 30
0
 11
71.5
 21
249.5837153422272
 31
0
 12
71.5
 22
250.4162846577728
 32
0
 13
71.5
 23
250.4162846577728
 33
0
  0
LINE
  5
9F
100
AcDbEntity
  8
Sidewalls
  6
ByBlock
 62
    0
370
   -2
100
AcDbLine
 10
56
 20
264.375
 11
56
 21
248.75
  0
LINE
  5
A0
100
AcDbEntity
  8
Sidewalls
  6
ByBlock
 62
    0
370
   -2
100
AcDbLine
 10
74
 20
264.375
 11
74
 21
248.75
  0
ENDBLK
  5
6A
330
68
100
AcDbEntity
  8
0
100
AcDbBlockEnd
  0
BLOCK
  5
6C
330
6B
100
AcDbEntity
  8
0
100
AcDbBlockBegin
  2
*D7
 70
    1
 10
0
 20
0
  3
*D7
  1

  0
LINE
  5
A1
100
AcDbEntity
  8
Sidewalls
  6
ByBlock
 62
    0
370
   -2
100
AcDbLine
 10
10
 20
250
 11
36
 21
250
  0
MTEXT
  5
A2
100
AcDbEntity
  8
Sidewalls
  6
CONTINUOUS
 62
    0
370
   -2
100
AcDbMText
 10
23
 20
251.875
 30
0
 40
2.5
 41
3.055555555555711
 71
    5
 72
    1
  1
26
  7
STANDARD
210
0
220
0
230
1
 50
0
 73
    2
 44
1
  0
SOLID
  5
A3
100
AcDbEntity
  8
Sidewalls
  6
ByBlock
 62
    0
370
   -2
100
AcDbTrace
 10
10
 20
250
 30
0
 11
12.5
 21
250.4162846577728
 31
0
 12
12.5
 22
249.5837153422272
 32
0
 13
12.5
 23
249.5837153422272
 33
0
  0
SOLID
  5
A4
100
AcDbEntity
  8
Sidewalls
  6
ByBlock
 62
    0
370
   -2
100
AcDbTrace
 10
36
 20
250
 30
0
 11
33.5
 21
249.5837153422272
 31
0
 12
33.5
 22
250.4162846577728
 32
0
 13
33.5
 23
250.4162846577728
 33
0
  0
LINE
  5
A5
100
AcDbEntity
  8
Sidewalls
  6
ByBlock
 62
    0
370
   -2
100
AcDbLine
 10
10
 20
264.375
 11
10
 21
248.75
  0
LINE
  5
A6
100
AcDbEntity
  8
Sidewalls
  6
ByBlock
 62
    0
370
   -2
100
AcDbLine
 10
36
 20
264.375
 11
36
 21
248.75
  0
ENDBLK
  5
6D
330
6B
100
AcDbEntity
  8
0
100
AcDbBlockEnd
  0
BLOCK
  5
6F
330
6E
100
AcDbEntity
  8
0
100
AcDbBlockBegin
  2
*D2
 70
    1
 10
0
 20
0
  3
*D2
  1

  0
LINE
  5
A7
100
AcDbEntity
  8
Sidewalls
  6
ByBlock
 62
    0
370
   -2
100
AcDbLine
 10
-10
 20
345
 11
-10
 21
380
  0
MTEXT
  5
A8
100
AcDbEntity
  8
Sidewalls
  6
CONTINUOUS
 62
    0
370
   -2
100
AcDbMText
 10
-11.875
 20
362.5
 30
0
 40
2.5
 41
3.055555555555866
 71
    5
 72
    1
  1
35
  7
STANDARD
210
0
220
0
230
1
 50
90
 73
    2
 44
1
  0
SOLID
  5
A9
100
AcDbEntity
  8
Sidewalls
  6
ByBlock
 62
    0
370
   -2
100
AcDbTrace
 10
-10
 20
345
 30
0
 11
-10.41628465777284
 21
347.5
 31
0
 12
-9.58371534222716
 22
347.5
 32
0
 13
-9.58371534222716
 23
347.5
 33
0
  0
SOLID
  5
AA
100
AcDbEntity
  8
Sidewalls
  6
ByBlock
 62
    0
370
   -2
100
AcDbTrace
 10
-10
 20
380
 30
0
 11
-9.58371534222716
 21
377.5
 31
0
 12
-10.41628465777284
 22
377.5
 32
0
 13
-10.41628465777284
 23
377.5
 33
0
  0
LINE
  5
AB
100
AcDbEntity
  8
Sidewalls
  6
ByBlock
 62
    0
370
   -2
100
AcDbLine
 10
35.375
 20
345
 11
-11.25
 21
345
  0
LINE
  5
AC
100
AcDbEntity
  8
Sidewalls
  6
ByBlock
 62
    0
370
   -2
100
AcDbLine
 10
35.375
 20
380
 11
-11.25
 21
380
  0
ENDBLK
  5
70
330
6E
100
AcDbEntity
  8
0
100
AcDbBlockEnd
  0
ENDSEC
  0
SECTION
  2
ENTITIES
  0
LINE
  5
AD
100
AcDbEntity
  8
Sidewalls
  6
ByLayer
 62
  256
370
   -1
100
AcDbLine
 10
10
 20
478
 11
380
 21
478
  0
LINE
  5
AE
100
AcDbEntity
  8
Sidewalls
  6
ByLayer
 62
  256
370
   -1
100
AcDbLine
 10
36
 20
425
 11
10
 21
425
  0
LINE
  5
AF
100
AcDbEntity
  8
Sidewalls
  6
ByLayer
 62
  256
370
   -1
100
AcDbLine
 10
380
 20
425
 11
354
 21
425
  0
LINE
  5
B0
100
AcDbEntity
  8
Sidewalls
  6
ByLayer
 62
  256
370
   -1
100
AcDbLine
 10
10
 20
425
 11
10
 21
478
  0
LINE
  5
B1
100
AcDbEntity
  8
Sidewalls
  6
ByLayer
 62
  256
370
   -1
100
AcDbLine
 10
380
 20
478
 11
380
 21
425
  0
LINE
  5
B2
100
AcDbEntity
  8
Sidewalls
  6
ByLayer
 62
  256
370
   -1
100
AcDbLine
 10
36
 20
425
 11
36
 21
421
  0
LINE
  5
B3
100
AcDbEntity
  8
Sidewalls
  6
ByLayer
 62
  256
370
   -1
100
AcDbLine
 10
36
 20
421
 11
37
 21
420
  0
LINE
  5
B4
100
AcDbEntity
  8
Sidewalls
  6
ByLayer
 62
  256
370
   -1
100
AcDbLine
 10
56
 20
421
 11
56
 21
425
  0
LINE
  5
B5
100
AcDbEntity
  8
Sidewalls
  6
ByLayer
 62
  256
370
   -1
100
AcDbLine
 10
37
 20
420
 11
55
 21
420
  0
LINE
  5
B6
100
AcDbEntity
  8
Sidewalls
  6
ByLayer
 62
  256
370
   -1
100
AcDbLine
 10
56
 20
421
 11
55
 21
420
  0
LINE
  5
B7
100
AcDbEntity
  8
Sidewalls
  6
ByLayer
 62
  256
370
   -1
100
AcDbLine
 10
334
 20
421
 11
334
 21
425
  0
LINE
  5
B8
100
AcDbEntity
  8
Sidewalls
  6
ByLayer
 62
  256
370
   -1
100
AcDbLine
 10
334
 20
421
 11
335
 21
420
  0
LINE
  5
B9
100
AcDbEntity
  8
Sidewalls
  6
ByLayer
 62
  256
370
   -1
100
AcDbLine
 10
354
 20
425
 11
354
 21
421
  0
LINE
  5
BA
100
AcDbEntity
  8
Sidewalls
  6
ByLayer
 62
  256
370
   -1
100
AcDbLine
 10
335
 20
420
 11
353
 21
420
  0
LINE
  5
BB
100
AcDbEntity
  8
Sidewalls
  6
ByLayer
 62
  256
370
   -1
100
AcDbLine
 10
354
 20
421
 11
353
 21
420
  0
CIRCLE
  5
BC
100
AcDbEntity
  8
Sidewalls
  6
ByLayer
 62
  256
370
   -1
100
AcDbCircle
 10
195
 20
451.5
 40
11.8
  0
LINE
  5
BD
100
AcDbEntity
  8
Sidewalls
  6
ByLayer
 62
  256
370
   -1
100
AcDbLine
 10
10
 20
398
 11
380
 21
398
  0
LINE
  5
BE
100
AcDbEntity
  8
Sidewalls
  6
ByLayer
 62
  256
370
   -1
100
AcDbLine
 10
36
 20
345
 11
10
 21
345
  0
LINE
  5
BF
100
AcDbEntity
  8
Sidewalls
  6
ByLayer
 62
  256
370
   -1
100
AcDbLine
 10
380
 20
345
 11
354
 21
345
  0
LINE
  5
C0
100
AcDbEntity
  8
Sidewalls
  6
ByLayer
 62
  256
370
   -1
100
AcDbLine
 10
10
 20
345
 11
10
 21
398
  0
LINE
  5
C1
100
AcDbEntity
  8
Sidewalls
  6
ByLayer
 62
  256
370
   -1
100
AcDbLine
 10
380
 20
398
 11
380
 21
345
  0
LINE
  5
C2
100
AcDbEntity
  8
Sidewalls
  6
ByLayer
 62
  256
370
   -1
100
AcDbLine
 10
56
 20
345
 11
66
 21
345
  0
LINE
  5
C3
100
AcDbEntity
  8
Sidewalls
  6
ByLayer
 62
  256
370
   -1
100
AcDbLine
 10
334
 20
345
 11
324
 21
345
  0
LINE
  5
C4
100
AcDbEntity
  8
Sidewalls
  6
ByLayer
 62
  256
370
   -1
100
AcDbLine
 10
36
 20
345
 11
36
 21
341
  0
LINE
  5
C5
100
AcDbEntity
  8
Sidewalls
  6
ByLayer
 62
  256
370
   -1
100
AcDbLine
 10
36
 20
341
 11
37
 21
340
  0
LINE
  5
C6
100
AcDbEntity
  8
Sidewalls
  6
ByLayer
 62
  256
370
   -1
100
AcDbLine
 10
56
 20
341
 11
56
 21
345
  0
LINE
  5
C7
100
AcDbEntity
  8
Sidewalls
  6
ByLayer
 62
  256
370
   -1
100
AcDbLine
 10
37
 20
340
 11
55
 21
340
  0
LINE
  5
C8
100
AcDbEntity
  8
Sidewalls
  6
ByLayer
 62
  256
370
   -1
100
AcDbLine
 10
56
 20
341
 11
55
 21
340
  0
LINE
  5
C9
100
AcDbEntity
  8
Sidewalls
  6
ByLayer
 62
  256
370
   -1
100
AcDbLine
 10
334
 20
341
 11
334
 21
345
  0
LINE
  5
CA
100
AcDbEntity
  8
Sidewalls
  6
ByLayer
 62
  256
370
   -1
100
AcDbLine
 10
334
 20
341
 11
335
 21
340
  0
LINE
  5
CB
100
AcDbEntity
  8
Sidewalls
  6
ByLayer
 62
  256
370
   -1
100
AcDbLine
 10
354
 20
345
 11
354
 21
341
  0
LINE
  5
CC
100
AcDbEntity
  8
Sidewalls
  6
ByLayer
 62
  256
370
   -1
100
AcDbLine
 10
335
 20
340
 11
353
 21
340
  0
LINE
  5
CD
100
AcDbEntity
  8
Sidewalls
  6
ByLayer
 62
  256
370
   -1
100
AcDbLine
 10
354
 20
341
 11
353
 21
340
  0
LINE
  5
CE
100
AcDbEntity
  8
Sidewalls
  6
ByLayer
 62
  256
370
   -1
100
AcDbLine
 10
36
 20
265
 11
10
 21
265
  0
LINE
  5
CF
100
AcDbEntity
  8
Sidewalls
  6
ByLayer
 62
  256
370
   -1
100
AcDbLine
 10
380
 20
265
 11
354
 21
265
  0
LINE
  5
D0
100
AcDbEntity
  8
Sidewalls
  6
ByLayer
 62
  256
370
   -1
100
AcDbLine
 10
56
 20
265
 11
66
 21
265
  0
LINE
  5
D1
100
AcDbEntity
  8
Sidewalls
  6
ByLayer
 62
  256
370
   -1
100
AcDbLine
 10
334
 20
265
 11
324
 21
265
  0
LINE
  5
D2
100
AcDbEntity
  8
Sidewalls
  6
ByLayer
 62
  256
370
   -1
100
AcDbLine
 10
36
 20
265
 11
36
 21
261
  0
LINE
  5
D3
100
AcDbEntity
  8
Sidewalls
  6
ByLayer
 62
  256
370
   -1
100
AcDbLine
 10
36
 20
261
 11
37
 21
260
  0
LINE
  5
D4
100
AcDbEntity
  8
Sidewalls
  6
ByLayer
 62
  256
370
   -1
100
AcDbLine
 10
56
 20
261
 11
56
 21
265
  0
LINE
  5
D5
100
AcDbEntity
  8
Sidewalls
  6
ByLayer
 62
  256
370
   -1
100
AcDbLine
 10
37
 20
260
 11
55
 21
260
  0
LINE
  5
D6
100
AcDbEntity
  8
Sidewalls
  6
ByLayer
 62
  256
370
   -1
100
AcDbLine
 10
56
 20
261
 11
55
 21
260
  0
LINE
  5
D7
100
AcDbEntity
  8
Sidewalls
  6
ByLayer
 62
  256
370
   -1
100
AcDbLine
 10
334
 20
261
 11
334
 21
265
  0
LINE
  5
D8
100
AcDbEntity
  8
Sidewalls
  6
ByLayer
 62
  256
370
   -1
100
AcDbLine
 10
334
 20
261
 11
335
 21
260
  0
LINE
  5
D9
100
AcDbEntity
  8
Sidewalls
  6
ByLayer
 62
  256
370
   -1
100
AcDbLine
 10
354
 20
265
 11
354
 21
261
  0
LINE
  5
DA
100
AcDbEntity
  8
Sidewalls
  6
ByLayer
 62
  256
370
   -1
100
AcDbLine
 10
335
 20
260
 11
353
 21
260
  0
LINE
  5
DB
100
AcDbEntity
  8
Sidewalls
  6
ByLayer
 62
  256
370
   -1
100
AcDbLine
 10
354
 20
261
 11
353
 21
260
  0
LINE
  5
DC
100
AcDbEntity
  8
Sidewalls
  6
ByLayer
 62
  256
370
   -1
100
AcDbLine
 10
10
 20
308
 11
380
 21
308
  0
LINE
  5
DD
100
AcDbEntity
  8
Sidewalls
  6
ByLayer
 62
  256
370
   -1
100
AcDbLine
 10
380
 20
308
 11
380
 21
265
  0
LINE
  5
DE
100
AcDbEntity
  8
Sidewalls
  6
ByLayer
 62
  256
370
   -1
100
AcDbLine
 10
10
 20
265
 11
10
 21
308
  0
LINE
  5
DF
100
AcDbEntity
  8
Sidewalls
  6
ByLayer
 62
  256
370
   -1
100
AcDbLine
 10
10
 20
148
 11
190
 21
148
  0
LINE
  5
E0
100
AcDbEntity
  8
Sidewalls
  6
ByLayer
 62
  256
370
   -1
100
AcDbLine
 10
10
 20
95
 11
36
 21
95
  0
LINE
  5
E1
100
AcDbEntity
  8
Sidewalls
  6
ByLayer
 62
  256
370
   -1
100
AcDbLine
 10
164
 20
95
 11
190
 21
95
  0
LINE
  5
E2
100
AcDbEntity
  8
Sidewalls
  6
ByLayer
 62
  256
370
   -1
100
AcDbLine
 10
190
 20
148
 11
190
 21
95
  0
LINE
  5
E3
100
AcDbEntity
  8
Sidewalls
  6
ByLayer
 62
  256
370
   -1
100
AcDbLine
 10
10
 20
95
 11
10
 21
148
  0
LINE
  5
E4
100
AcDbEntity
  8
Sidewalls
  6
ByLayer
 62
  256
370
   -1
100
AcDbLine
 10
56
 20
95
 11
66
 21
95
  0
LINE
  5
E5
100
AcDbEntity
  8
Sidewalls
  6
ByLayer
 62
  256
370
   -1
100
AcDbLine
 10
144
 20
95
 11
134
 21
95
  0
LINE
  5
E6
100
AcDbEntity
  8
Sidewalls
  6
ByLayer
 62
  256
370
   -1
100
AcDbLine
 10
36
 20
95
 11
36
 21
91
  0
LINE
  5
E7
100
AcDbEntity
  8
Sidewalls
  6
ByLayer
 62
  256
370
   -1
100
AcDbLine
 10
36
 20
91
 11
37
 21
90
  0
LINE
  5
E8
100
AcDbEntity
  8
Sidewalls
  6
ByLayer
 62
  256
370
   -1
100
AcDbLine
 10
56
 20
91
 11
56
 21
95
  0
LINE
  5
E9
100
AcDbEntity
  8
Sidewalls
  6
ByLayer
 62
  256
370
   -1
100
AcDbLine
 10
55
 20
90
 11
37
 21
90
  0
LINE
  5
EA
100
AcDbEntity
  8
Sidewalls
  6
ByLayer
 62
  256
370
   -1
100
AcDbLine
 10
56
 20
91
 11
55
 21
90
  0
LINE
  5
EB
100
AcDbEntity
  8
Sidewalls
  6
ByLayer
 62
  256
370
   -1
100
AcDbLine
 10
144
 20
91
 11
144
 21
95
  0
LINE
  5
EC
100
AcDbEntity
  8
Sidewalls
  6
ByLayer
 62
  256
370
   -1
100
AcDbLine
 10
144
 20
91
 11
145
 21
90
  0
LINE
  5
ED
100
AcDbEntity
  8
Sidewalls
  6
ByLayer
 62
  256
370
   -1
100
AcDbLine
 10
163
 20
90
 11
145
 21
90
  0
LINE
  5
EE
100
AcDbEntity
  8
Sidewalls
  6
ByLayer
 62
  256
370
   -1
100
AcDbLine
 10
164
 20
95
 11
164
 21
91
  0
LINE
  5
EF
100
AcDbEntity
  8
Sidewalls
  6
ByLayer
 62
  256
370
   -1
100
AcDbLine
 10
163
 20
90
 11
164
 21
91
  0
CIRCLE
  5
F0
100
AcDbEntity
  8
Sidewalls
  6
ByLayer
 62
  256
370
   -1
100
AcDbCircle
 10
140
 20
120
 40
12.25
  0
CIRCLE
  5
F1
100
AcDbEntity
  8
Sidewalls
  6
ByLayer
 62
  256
370
   -1
100
AcDbCircle
 10
110
 20
120
 40
12.25
  0
CIRCLE
  5
F2
100
AcDbEntity
  8
Sidewalls
  6
ByLayer
 62
  256
370
   -1
100
AcDbCircle
 10
80
 20
120
 40
12.25
  0
LINE
  5
F3
100
AcDbEntity
  8
Sidewalls
  6
ByLayer
 62
  256
370
   -1
100
AcDbLine
 10
390
 20
148
 11
210
 21
148
  0
LINE
  5
F4
100
AcDbEntity
  8
Sidewalls
  6
ByLayer
 62
  256
370
   -1
100
AcDbLine
 10
390
 20
95
 11
364
 21
95
  0
LINE
  5
F5
100
AcDbEntity
  8
Sidewalls
  6
ByLayer
 62
  256
370
   -1
100
AcDbLine
 10
236
 20
95
 11
210
 21
95
  0
LINE
  5
F6
100
AcDbEntity
  8
Sidewalls
  6
ByLayer
 62
  256
370
   -1
100
AcDbLine
 10
210
 20
148
 11
210
 21
95
  0
LINE
  5
F7
100
AcDbEntity
  8
Sidewalls
  6
ByLayer
 62
  256
370
   -1
100
AcDbLine
 10
390
 20
95
 11
390
 21
148
  0
LINE
  5
F8
100
AcDbEntity
  8
Sidewalls
  6
ByLayer
 62
  256
370
   -1
100
AcDbLine
 10
344
 20
95
 11
334
 21
95
  0
LINE
  5
F9
100
AcDbEntity
  8
Sidewalls
  6
ByLayer
 62
  256
370
   -1
100
AcDbLine
 10
256
 20
95
 11
266
 21
95
  0
LINE
  5
FA
100
AcDbEntity
  8
Sidewalls
  6
ByLayer
 62
  256
370
   -1
100
AcDbLine
 10
364
 20
95
 11
364
 21
91
  0
LINE
  5
FB
100
AcDbEntity
  8
Sidewalls
  6
ByLayer
 62
  256
370
   -1
100
AcDbLine
 10
364
 20
91
 11
363
 21
90
  0
LINE
  5
FC
100
AcDbEntity
  8
Sidewalls
  6
ByLayer
 62
  256
370
   -1
100
AcDbLine
 10
344
 20
91
 11
344
 21
95
  0
LINE
  5
FD
100
AcDbEntity
  8
Sidewalls
  6
ByLayer
 62
  256
370
   -1
100
AcDbLine
 10
345
 20
90
 11
363
 21
90
  0
LINE
  5
FE
100
AcDbEntity
  8
Sidewalls
  6
ByLayer
 62
  256
370
   -1
100
AcDbLine
 10
344
 20
91
 11
345
 21
90
  0
LINE
  5
FF
100
AcDbEntity
  8
Sidewalls
  6
ByLayer
 62
  256
370
   -1
100
AcDbLine
 10
256
 20
91
 11
256
 21
95
  0
LINE
  5
100
100
AcDbEntity
  8
Sidewalls
  6
ByLayer
 62
  256
370
   -1
100
AcDbLine
 10
256
 20
91
 11
255
 21
90
  0
LINE
  5
101
100
AcDbEntity
  8
Sidewalls
  6
ByLayer
 62
  256
370
   -1
100
AcDbLine
 10
237
 20
90
 11
255
 21
90
  0
LINE
  5
102
100
AcDbEntity
  8
Sidewalls
  6
ByLayer
 62
  256
370
   -1
100
AcDbLine
 10
236
 20
95
 11
236
 21
91
  0
LINE
  5
103
100
AcDbEntity
  8
Sidewalls
  6
ByLayer
 62
  256
370
   -1
100
AcDbLine
 10
237
 20
90
 11
236
 21
91
  0
CIRCLE
  5
104
100
AcDbEntity
  8
Sidewalls
  6
ByLayer
 62
  256
370
   -1
100
AcDbCircle
 10
260
 20
120
 40
12.25
  0
MTEXT
  5
105
100
AcDbEntity
  8
0
  6
ByLayer
 62
  256
370
   -1
100
AcDbMText
 10
400
 20
130
 30
0
 40
8
 41
95.14285599999998
 71
    1
 72
    1
  1
Sidewalls - 3 mm
  7
opengosttypea-regular
210
0
220
0
230
1
 50
0
 73
    2
 44
1
  0
MTEXT
  5
106
100
AcDbEntity
  8
0
  6
ByLayer
 62
  256
370
   -1
100
AcDbMText
 10
400
 20
470
 30
0
 40
8
 41
102.8571431111111
 71
    1
 72
    1
  1
Front Wall - 3 mm
  7
opengosttypea-regular
210
0
220
0
230
1
 50
0
 73
    2
 44
1
  0
MTEXT
  5
107
100
AcDbEntity
  8
0
  6
ByLayer
 62
  256
370
   -1
100
AcDbMText
 10
400
 20
380
 30
0
 40
8
 41
99.04761866666664
 71
    1
 72
    1
  1
Back Wall - 3 mm
  7
opengosttypea-regular
210
0
220
0
230
1
 50
0
 73
    2
 44
1
  0
MTEXT
  5
108
100
AcDbEntity
  8
0
  6
ByLayer
 62
  256
370
   -1
100
AcDbMText
 10
400
 20
300
 30
0
 40
8
 41
178.0952391111111
 71
    1
 72
    1
  1
Back Wall Second Layer - 6 mm
  7
opengosttypea-regular
210
0
220
0
230
1
 50
0
 73
    2
 44
1
  0
MTEXT
  5
109
100
AcDbEntity
  8
0
  6
ByLayer
 62
  256
370
   -1
100
AcDbMText
 10
400
 20
220
 30
0
 40
8
 41
181.9047635555555
 71
    1
 72
    1
  1
Front Wall Second Layer - 6 mm
  7
opengosttypea-regular
210
0
220
0
230
1
 50
0
 73
    2
 44
1
  0
LINE
  5
10A
100
AcDbEntity
  8
Sidewalls
  6
ByLayer
 62
  256
370
   -1
100
AcDbLine
 10
390
 20
15
 11
364
 21
15
  0
LINE
  5
10B
100
AcDbEntity
  8
Sidewalls
  6
ByLayer
 62
  256
370
   -1
100
AcDbLine
 10
236
 20
15
 11
210
 21
15
  0
LINE
  5
10C
100
AcDbEntity
  8
Sidewalls
  6
ByLayer
 62
  256
370
   -1
100
AcDbLine
 10
344
 20
15
 11
334
 21
15
  0
LINE
  5
10D
100
AcDbEntity
  8
Sidewalls
  6
ByLayer
 62
  256
370
   -1
100
AcDbLine
 10
256
 20
15
 11
266
 21
15
  0
LINE
  5
10E
100
AcDbEntity
  8
Sidewalls
  6
ByLayer
 62
  256
370
   -1
100
AcDbLine
 10
364
 20
15
 11
364
 21
11
  0
LINE
  5
10F
100
AcDbEntity
  8
Sidewalls
  6
ByLayer
 62
  256
370
   -1
100
AcDbLine
 10
364
 20
11
 11
363
 21
10
  0
LINE
  5
110
100
AcDbEntity
  8
Sidewalls
  6
ByLayer
 62
  256
370
   -1
100
AcDbLine
 10
344
 20
11
 11
344
 21
15
  0
LINE
  5
111
100
AcDbEntity
  8
Sidewalls
  6
ByLayer
 62
  256
370
   -1
100
AcDbLine
 10
345
 20
10
 11
363
 21
10
  0
LINE
  5
112
100
AcDbEntity
  8
Sidewalls
  6
ByLayer
 62
  256
370
   -1
100
AcDbLine
 10
344
 20
11
 11
345
 21
10
  0
LINE
  5
113
100
AcDbEntity
  8
Sidewalls
  6
ByLayer
 62
  256
370
   -1
100
AcDbLine
 10
256
 20
11
 11
256
 21
15
  0
LINE
  5
114
100
AcDbEntity
  8
Sidewalls
  6
ByLayer
 62
  256
370
   -1
100
AcDbLine
 10
256
 20
11
 11
255
 21
10
  0
LINE
  5
115
100
AcDbEntity
  8
Sidewalls
  6
ByLayer
 62
  256
370
   -1
100
AcDbLine
 10
237
 20
10
 11
255
 21
10
  0
LINE
  5
116
100
AcDbEntity
  8
Sidewalls
  6
ByLayer
 62
  256
370
   -1
100
AcDbLine
 10
236
 20
15
 11
236
 21
11
  0
LINE
  5
117
100
AcDbEntity
  8
Sidewalls
  6
ByLayer
 62
  256
370
   -1
100
AcDbLine
 10
237
 20
10
 11
236
 21
11
  0
LINE
  5
118
100
AcDbEntity
  8
Sidewalls
  6
ByLayer
 62
  256
370
   -1
100
AcDbLine
 10
210
 20
58
 11
390
 21
58
  0
LINE
  5
119
100
AcDbEntity
  8
Sidewalls
  6
ByLayer
 62
  256
370
   -1
100
AcDbLine
 10
210
 20
58
 11
210
 21
15
  0
LINE
  5
11A
100
AcDbEntity
  8
Sidewalls
  6
ByLayer
 62
  256
370
   -1
100
AcDbLine
 10
390
 20
15
 11
390
 21
58
  0
CIRCLE
  5
11B
100
AcDbEntity
  8
Sidewalls
  6
ByLayer
 62
  256
370
   -1
100
AcDbCircle
 10
260
 20
40
 40
16
  0
MTEXT
  5
11C
100
AcDbEntity
  8
0
  6
ByLayer
 62
  256
370
   -1
100
AcDbMText
 10
400
 20
50
 30
0
 40
8
 41
187.4285724444445
 71
    1
 72
    1
  1
Side Walls Second Layers - 6 mm
  7
opengosttypea-regular
210
0
220
0
230
1
 50
0
 73
    2
 44
1
  0
CIRCLE
  5
11D
100
AcDbEntity
  8
Sidewalls
  6
ByLayer
 62
  256
370
   -1
100
AcDbCircle
 10
185.5
 20
463.3
 40
1.55
  0
CIRCLE
  5
11E
100
AcDbEntity
  8
Sidewalls
  6
ByLayer
 62
  256
370
   -1
100
AcDbCircle
 10
204.5
 20
439.7
 40
1.55
  0
LINE
  5
11F
100
AcDbEntity
  8
Sidewalls
  6
ByLayer
 62
  256
370
   -1
100
AcDbLine
 10
56
 20
425
 11
74
 21
425
  0
LINE
  5
120
100
AcDbEntity
  8
Sidewalls
  6
ByLayer
 62
  256
370
   -1
100
AcDbLine
 10
74
 20
425
 11
74
 21
421
  0
LINE
  5
121
100
AcDbEntity
  8
Sidewalls
  6
ByLayer
 62
  256
370
   -1
100
AcDbLine
 10
74
 20
421
 11
75
 21
420
  0
LINE
  5
122
100
AcDbEntity
  8
Sidewalls
  6
ByLayer
 62
  256
370
   -1
100
AcDbLine
 10
334
 20
425
 11
316
 21
425
  0
LINE
  5
123
100
AcDbEntity
  8
Sidewalls
  6
ByLayer
 62
  256
370
   -1
100
AcDbLine
 10
316
 20
425
 11
316
 21
421
  0
LINE
  5
124
100
AcDbEntity
  8
Sidewalls
  6
ByLayer
 62
  256
370
   -1
100
AcDbLine
 10
75
 20
420
 11
315
 21
420
  0
LINE
  5
125
100
AcDbEntity
  8
Sidewalls
  6
ByLayer
 62
  256
370
   -1
100
AcDbLine
 10
316
 20
421
 11
315
 21
420
  0
LINE
  5
126
100
AcDbEntity
  8
Sidewalls
  6
ByLayer
 62
  256
370
   -1
100
AcDbLine
 10
56
 20
345
 11
74
 21
345
  0
LINE
  5
127
100
AcDbEntity
  8
Sidewalls
  6
ByLayer
 62
  256
370
   -1
100
AcDbLine
 10
74
 20
345
 11
74
 21
341
  0
LINE
  5
128
100
AcDbEntity
  8
Sidewalls
  6
ByLayer
 62
  256
370
   -1
100
AcDbLine
 10
74
 20
341
 11
75
 21
340
  0
LINE
  5
129
100
AcDbEntity
  8
Sidewalls
  6
ByLayer
 62
  256
370
   -1
100
AcDbLine
 10
334
 20
345
 11
316
 21
345
  0
LINE
  5
12A
100
AcDbEntity
  8
Sidewalls
  6
ByLayer
 62
  256
370
   -1
100
AcDbLine
 10
316
 20
345
 11
316
 21
341
  0
LINE
  5
12B
100
AcDbEntity
  8
Sidewalls
  6
ByLayer
 62
  256
370
   -1
100
AcDbLine
 10
75
 20
340
 11
315
 21
340
  0
LINE
  5
12C
100
AcDbEntity
  8
Sidewalls
  6
ByLayer
 62
  256
370
   -1
100
AcDbLine
 10
316
 20
341
 11
315
 21
340
  0
LINE
  5
12D
100
AcDbEntity
  8
Sidewalls
  6
ByLayer
 62
  256
370
   -1
100
AcDbLine
 10
56
 20
265
 11
74
 21
265
  0
LINE
  5
12E
100
AcDbEntity
  8
Sidewalls
  6
ByLayer
 62
  256
370
   -1
100
AcDbLine
 10
334
 20
265
 11
316
 21
265
  0
LINE
  5
12F
100
AcDbEntity
  8
Sidewalls
  6
ByLayer
 62
  256
370
   -1
100
AcDbLine
 10
316
 20
265
 11
316
 21
261
  0
LINE
  5
130
100
AcDbEntity
  8
Sidewalls
  6
ByLayer
 62
  256
370
   -1
100
AcDbLine
 10
316
 20
261
 11
315
 21
260
  0
LINE
  5
131
100
AcDbEntity
  8
Sidewalls
  6
ByLayer
 62
  256
370
   -1
100
AcDbLine
 10
74
 20
265
 11
74
 21
261
  0
LINE
  5
132
100
AcDbEntity
  8
Sidewalls
  6
ByLayer
 62
  256
370
   -1
100
AcDbLine
 10
75
 20
260
 11
315
 21
260
  0
LINE
  5
133
100
AcDbEntity
  8
Sidewalls
  6
ByLayer
 62
  256
370
   -1
100
AcDbLine
 10
74
 20
261
 11
75
 21
260
  0
CIRCLE
  5
134
100
AcDbEntity
  8
Sidewalls
  6
ByLayer
 62
  256
370
   -1
100
AcDbCircle
 10
195
 20
211.5
 40
11.8
  0
CIRCLE
  5
135
100
AcDbEntity
  8
Sidewalls
  6
ByLayer
 62
  256
370
   -1
100
AcDbCircle
 10
185.5
 20
223.3
 40
1.55
  0
CIRCLE
  5
136
100
AcDbEntity
  8
Sidewalls
  6
ByLayer
 62
  256
370
   -1
100
AcDbCircle
 10
204.5
 20
199.7
 40
1.55
  0
LINE
  5
137
100
AcDbEntity
  8
Sidewalls
  6
ByLayer
 62
  256
370
   -1
100
AcDbLine
 10
36
 20
185
 11
10
 21
185
  0
LINE
  5
138
100
AcDbEntity
  8
Sidewalls
  6
ByLayer
 62
  256
370
   -1
100
AcDbLine
 10
380
 20
185
 11
354
 21
185
  0
LINE
  5
139
100
AcDbEntity
  8
Sidewalls
  6
ByLayer
 62
  256
370
   -1
100
AcDbLine
 10
56
 20
185
 11
66
 21
185
  0
LINE
  5
13A
100
AcDbEntity
  8
Sidewalls
  6
ByLayer
 62
  256
370
   -1
100
AcDbLine
 10
334
 20
185
 11
324
 21
185
  0
LINE
  5
13B
100
AcDbEntity
  8
Sidewalls
  6
ByLayer
 62
  256
370
   -1
100
AcDbLine
 10
36
 20
185
 11
36
 21
181
  0
LINE
  5
13C
100
AcDbEntity
  8
Sidewalls
  6
ByLayer
 62
  256
370
   -1
100
AcDbLine
 10
36
 20
181
 11
37
 21
180
  0
LINE
  5
13D
100
AcDbEntity
  8
Sidewalls
  6
ByLayer
 62
  256
370
   -1
100
AcDbLine
 10
56
 20
181
 11
56
 21
185
  0
LINE
  5
13E
100
AcDbEntity
  8
Sidewalls
  6
ByLayer
 62
  256
370
   -1
100
AcDbLine
 10
37
 20
180
 11
55
 21
180
  0
LINE
  5
13F
100
AcDbEntity
  8
Sidewalls
  6
ByLayer
 62
  256
370
   -1
100
AcDbLine
 10
56
 20
181
 11
55
 21
180
  0
LINE
  5
140
100
AcDbEntity
  8
Sidewalls
  6
ByLayer
 62
  256
370
   -1
100
AcDbLine
 10
334
 20
181
 11
334
 21
185
  0
LINE
  5
141
100
AcDbEntity
  8
Sidewalls
  6
ByLayer
 62
  256
370
   -1
100
AcDbLine
 10
334
 20
181
 11
335
 21
180
  0
LINE
  5
142
100
AcDbEntity
  8
Sidewalls
  6
ByLayer
 62
  256
370
   -1
100
AcDbLine
 10
354
 20
185
 11
354
 21
181
  0
LINE
  5
143
100
AcDbEntity
  8
Sidewalls
  6
ByLayer
 62
  256
370
   -1
100
AcDbLine
 10
335
 20
180
 11
353
 21
180
  0
LINE
  5
144
100
AcDbEntity
  8
Sidewalls
  6
ByLayer
 62
  256
370
   -1
100
AcDbLine
 10
354
 20
181
 11
353
 21
180
  0
LINE
  5
145
100
AcDbEntity
  8
Sidewalls
  6
ByLayer
 62
  256
370
   -1
100
AcDbLine
 10
10
 20
228
 11
380
 21
228
  0
LINE
  5
146
100
AcDbEntity
  8
Sidewalls
  6
ByLayer
 62
  256
370
   -1
100
AcDbLine
 10
380
 20
228
 11
380
 21
185
  0
LINE
  5
147
100
AcDbEntity
  8
Sidewalls
  6
ByLayer
 62
  256
370
   -1
100
AcDbLine
 10
10
 20
185
 11
10
 21
228
  0
LINE
  5
148
100
AcDbEntity
  8
Sidewalls
  6
ByLayer
 62
  256
370
   -1
100
AcDbLine
 10
56
 20
185
 11
74
 21
185
  0
LINE
  5
149
100
AcDbEntity
  8
Sidewalls
  6
ByLayer
 62
  256
370
   -1
100
AcDbLine
 10
334
 20
185
 11
316
 21
185
  0
LINE
  5
14A
100
AcDbEntity
  8
Sidewalls
  6
ByLayer
 62
  256
370
   -1
100
AcDbLine
 10
316
 20
185
 11
316
 21
181
  0
LINE
  5
14B
100
AcDbEntity
  8
Sidewalls
  6
ByLayer
 62
  256
370
   -1
100
AcDbLine
 10
316
 20
181
 11
315
 21
180
  0
LINE
  5
14C
100
AcDbEntity
  8
Sidewalls
  6
ByLayer
 62
  256
370
   -1
100
AcDbLine
 10
74
 20
185
 11
74
 21
181
  0
LINE
  5
14D
100
AcDbEntity
  8
Sidewalls
  6
ByLayer
 62
  256
370
   -1
100
AcDbLine
 10
75
 20
180
 11
315
 21
180
  0
LINE
  5
14E
100
AcDbEntity
  8
Sidewalls
  6
ByLayer
 62
  256
370
   -1
100
AcDbLine
 10
74
 20
181
 11
75
 21
180
  0
LINE
  5
14F
100
AcDbEntity
  8
Sidewalls
  6
ByLayer
 62
  256
370
   -1
100
AcDbLine
 10
56
 20
95
 11
74
 21
95
  0
LINE
  5
150
100
AcDbEntity
  8
Sidewalls
  6
ByLayer
 62
  256
370
   -1
100
AcDbLine
 10
144
 20
95
 11
126
 21
95
  0
LINE
  5
151
100
AcDbEntity
  8
Sidewalls
  6
ByLayer
 62
  256
370
   -1
100
AcDbLine
 10
126
 20
95
 11
126
 21
91
  0
LINE
  5
152
100
AcDbEntity
  8
Sidewalls
  6
ByLayer
 62
  256
370
   -1
100
AcDbLine
 10
126
 20
91
 11
125
 21
90
  0
LINE
  5
153
100
AcDbEntity
  8
Sidewalls
  6
ByLayer
 62
  256
370
   -1
100
AcDbLine
 10
74
 20
95
 11
74
 21
91
  0
LINE
  5
154
100
AcDbEntity
  8
Sidewalls
  6
ByLayer
 62
  256
370
   -1
100
AcDbLine
 10
125
 20
90
 11
75
 21
90
  0
LINE
  5
155
100
AcDbEntity
  8
Sidewalls
  6
ByLayer
 62
  256
370
   -1
100
AcDbLine
 10
74
 20
91
 11
75
 21
90
  0
LINE
  5
156
100
AcDbEntity
  8
Sidewalls
  6
ByLayer
 62
  256
370
   -1
100
AcDbLine
 10
256
 20
95
 11
274
 21
95
  0
LINE
  5
157
100
AcDbEntity
  8
Sidewalls
  6
ByLayer
 62
  256
370
   -1
100
AcDbLine
 10
344
 20
95
 11
326
 21
95
  0
LINE
  5
158
100
AcDbEntity
  8
Sidewalls
  6
ByLayer
 62
  256
370
   -1
100
AcDbLine
 10
326
 20
95
 11
326
 21
91
  0
LINE
  5
159
100
AcDbEntity
  8
Sidewalls
  6
ByLayer
 62
  256
370
   -1
100
AcDbLine
 10
325
 20
90
 11
326
 21
91
  0
LINE
  5
15A
100
AcDbEntity
  8
Sidewalls
  6
ByLayer
 62
  256
370
   -1
100
AcDbLine
 10
274
 20
95
 11
274
 21
91
  0
LINE
  5
15B
100
AcDbEntity
  8
Sidewalls
  6
ByLayer
 62
  256
370
   -1
100
AcDbLine
 10
275
 20
90
 11
325
 21
90
  0
LINE
  5
15C
100
AcDbEntity
  8
Sidewalls
  6
ByLayer
 62
  256
370
   -1
100
AcDbLine
 10
274
 20
91
 11
275
 21
90
  0
ARC
  5
15D
100
AcDbEntity
  8
Sidewalls
  6
ByLayer
 62
  256
370
   -1
100
AcDbCircle
 10
80
 20
40
 40
16
100
AcDbArc
 50
20.3641348063178
 51
339.6358651936822
  0
ARC
  5
15E
100
AcDbEntity
  8
Sidewalls
  6
ByLayer
 62
  256
370
   -1
100
AcDbCircle
 10
140
 20
40
 40
16
100
AcDbArc
 50
200.3641348063178
 51
519.6358651936822
  0
ARC
  5
15F
100
AcDbEntity
  8
Sidewalls
  6
ByLayer
 62
  256
370
   -1
100
AcDbCircle
 10
110
 20
40
 40
16
100
AcDbArc
 50
200.3641348063178
 51
339.6358651936822
  0
ARC
  5
160
100
AcDbEntity
  8
Sidewalls
  6
ByLayer
 62
  256
370
   -1
100
AcDbCircle
 10
110
 20
40
 40
16
100
AcDbArc
 50
20.3641348063178
 51
159.6358651936822
  0
LINE
  5
161
100
AcDbEntity
  8
Sidewalls
  6
ByLayer
 62
  256
370
   -1
100
AcDbLine
 10
10
 20
15
 11
36
 21
15
  0
LINE
  5
162
100
AcDbEntity
  8
Sidewalls
  6
ByLayer
 62
  256
370
   -1
100
AcDbLine
 10
164
 20
15
 11
190
 21
15
  0
LINE
  5
163
100
AcDbEntity
  8
Sidewalls
  6
ByLayer
 62
  256
370
   -1
100
AcDbLine
 10
56
 20
15
 11
66
 21
15
  0
LINE
  5
164
100
AcDbEntity
  8
Sidewalls
  6
ByLayer
 62
  256
370
   -1
100
AcDbLine
 10
144
 20
15
 11
134
 21
15
  0
LINE
  5
165
100
AcDbEntity
  8
Sidewalls
  6
ByLayer
 62
  256
370
   -1
100
AcDbLine
 10
36
 20
15
 11
36
 21
11
  0
LINE
  5
166
100
AcDbEntity
  8
Sidewalls
  6
ByLayer
 62
  256
370
   -1
100
AcDbLine
 10
36
 20
11
 11
37
 21
10
  0
LINE
  5
167
100
AcDbEntity
  8
Sidewalls
  6
ByLayer
 62
  256
370
   -1
100
AcDbLine
 10
56
 20
11
 11
56
 21
15
  0
LINE
  5
168
100
AcDbEntity
  8
Sidewalls
  6
ByLayer
 62
  256
370
   -1
100
AcDbLine
 10
55
 20
10
 11
37
 21
10
  0
LINE
  5
169
100
AcDbEntity
  8
Sidewalls
  6
ByLayer
 62
  256
370
   -1
100
AcDbLine
 10
56
 20
11
 11
55
 21
10
  0
LINE
  5
16A
100
AcDbEntity
  8
Sidewalls
  6
ByLayer
 62
  256
370
   -1
100
AcDbLine
 10
144
 20
11
 11
144
 21
15
  0
LINE
  5
16B
100
AcDbEntity
  8
Sidewalls
  6
ByLayer
 62
  256
370
   -1
100
AcDbLine
 10
144
 20
11
 11
145
 21
10
  0
LINE
  5
16C
100
AcDbEntity
  8
Sidewalls
  6
ByLayer
 62
  256
370
   -1
100
AcDbLine
 10
163
 20
10
 11
145
 21
10
  0
LINE
  5
16D
100
AcDbEntity
  8
Sidewalls
  6
ByLayer
 62
  256
370
   -1
100
AcDbLine
 10
164
 20
15
 11
164
 21
11
  0
LINE
  5
16E
100
AcDbEntity
  8
Sidewalls
  6
ByLayer
 62
  256
370
   -1
100
AcDbLine
 10
163
 20
10
 11
164
 21
11
  0
LINE
  5
16F
100
AcDbEntity
  8
Sidewalls
  6
ByLayer
 62
  256
370
   -1
100
AcDbLine
 10
10
 20
58
 11
190
 21
58
  0
LINE
  5
170
100
AcDbEntity
  8
Sidewalls
  6
ByLayer
 62
  256
370
   -1
100
AcDbLine
 10
10
 20
15
 11
10
 21
58
  0
LINE
  5
171
100
AcDbEntity
  8
Sidewalls
  6
ByLayer
 62
  256
370
   -1
100
AcDbLine
 10
190
 20
58
 11
190
 21
15
  0
LINE
  5
172
100
AcDbEntity
  8
Sidewalls
  6
ByLayer
 62
  256
370
   -1
100
AcDbLine
 10
56
 20
15
 11
74
 21
15
  0
LINE
  5
173
100
AcDbEntity
  8
Sidewalls
  6
ByLayer
 62
  256
370
   -1
100
AcDbLine
 10
144
 20
15
 11
126
 21
15
  0
LINE
  5
174
100
AcDbEntity
  8
Sidewalls
  6
ByLayer
 62
  256
370
   -1
100
AcDbLine
 10
126
 20
15
 11
126
 21
11
  0
LINE
  5
175
100
AcDbEntity
  8
Sidewalls
  6
ByLayer
 62
  256
370
   -1
100
AcDbLine
 10
126
 20
11
 11
125
 21
10
  0
LINE
  5
176
100
AcDbEntity
  8
Sidewalls
  6
ByLayer
 62
  256
370
   -1
100
AcDbLine
 10
74
 20
15
 11
74
 21
11
  0
LINE
  5
177
100
AcDbEntity
  8
Sidewalls
  6
ByLayer
 62
  256
370
   -1
100
AcDbLine
 10
125
 20
10
 11
75
 21
10
  0
LINE
  5
178
100
AcDbEntity
  8
Sidewalls
  6
ByLayer
 62
  256
370
   -1
100
AcDbLine
 10
74
 20
11
 11
75
 21
10
  0
LINE
  5
179
100
AcDbEntity
  8
Sidewalls
  6
ByLayer
 62
  256
370
   -1
100
AcDbLine
 10
256
 20
15
 11
274
 21
15
  0
LINE
  5
17A
100
AcDbEntity
  8
Sidewalls
  6
ByLayer
 62
  256
370
   -1
100
AcDbLine
 10
344
 20
15
 11
326
 21
15
  0
LINE
  5
17B
100
AcDbEntity
  8
Sidewalls
  6
ByLayer
 62
  256
370
   -1
100
AcDbLine
 10
326
 20
15
 11
326
 21
11
  0
LINE
  5
17C
100
AcDbEntity
  8
Sidewalls
  6
ByLayer
 62
  256
370
   -1
100
AcDbLine
 10
326
 20
11
 11
325
 21
10
  0
LINE
  5
17D
100
AcDbEntity
  8
Sidewalls
  6
ByLayer
 62
  256
370
   -1
100
AcDbLine
 10
274
 20
15
 11
274
 21
11
  0
LINE
  5
17E
100
AcDbEntity
  8
Sidewalls
  6
ByLayer
 62
  256
370
   -1
100
AcDbLine
 10
275
 20
10
 11
325
 21
10
  0
LINE
  5
17F
100
AcDbEntity
  8
Sidewalls
  6
ByLayer
 62
  256
370
   -1
100
AcDbLine
 10
274
 20
11
 11
275
 21
10
  0
MTEXT
  5
180
100
AcDbEntity
  8
0
  6
ByLayer
 62
  256
370
   -1
100
AcDbMText
 10
190
 20
-70
 30
0
 40
8
 41
137.714288
 71
    1
 72
    1
  1
Corner Standoffs - 6 mm
  7
opengosttypea-regular
210
0
220
0
230
1
 50
0
 73
    2
 44
1
  0
LINE
  5
181
100
AcDbEntity
  8
corner_standoffs
  6
ByLayer
 62
  256
370
   -1
100
AcDbLine
 10
81.00000000000003
 20
-132
 11
61.00000000000002
 21
-132
  0
LINE
  5
182
100
AcDbEntity
  8
corner_standoffs
  6
ByLayer
 62
  256
370
   -1
100
AcDbLine
 10
61.00000000000002
 20
-132
 11
61.00000000000002
 21
-141
  0
LINE
  5
183
100
AcDbEntity
  8
corner_standoffs
  6
ByLayer
 62
  256
370
   -1
100
AcDbLine
 10
61.00000000000002
 20
-141
 11
81.00000000000003
 21
-141
  0
LINE
  5
184
100
AcDbEntity
  8
corner_standoffs
  6
ByLayer
 62
  256
370
   -1
100
AcDbLine
 10
81.00000000000003
 20
-141
 11
81.00000000000003
 21
-132
  0
LINE
  5
185
100
AcDbEntity
  8
corner_standoffs
  6
ByLayer
 62
  256
370
   -1
100
AcDbLine
 10
46.00000000000002
 20
-97
 11
46.00000000000002
 21
-117
  0
LINE
  5
186
100
AcDbEntity
  8
corner_standoffs
  6
ByLayer
 62
  256
370
   -1
100
AcDbLine
 10
46.00000000000002
 20
-117
 11
37.00000000000002
 21
-117
  0
LINE
  5
187
100
AcDbEntity
  8
corner_standoffs
  6
ByLayer
 62
  256
370
   -1
100
AcDbLine
 10
37.00000000000002
 20
-117
 11
37.00000000000002
 21
-97
  0
LINE
  5
188
100
AcDbEntity
  8
corner_standoffs
  6
ByLayer
 62
  256
370
   -1
100
AcDbLine
 10
37.00000000000002
 20
-97
 11
46.00000000000002
 21
-97
  0
LINE
  5
189
100
AcDbEntity
  8
corner_standoffs
  6
ByLayer
 62
  256
370
   -1
100
AcDbLine
 10
93.00000000000003
 20
-143
 11
99.00000000000003
 21
-137
  0
LINE
  5
18A
100
AcDbEntity
  8
corner_standoffs
  6
ByLayer
 62
  256
370
   -1
100
AcDbLine
 10
99.00000000000003
 20
-137
 11
99.00000000000003
 21
-123
  0
LINE
  5
18B
100
AcDbEntity
  8
corner_standoffs
  6
ByLayer
 62
  256
370
   -1
100
AcDbLine
 10
35.00000000000003
 20
-85
 11
41.00000000000002
 21
-79
  0
LINE
  5
18C
100
AcDbEntity
  8
corner_standoffs
  6
ByLayer
 62
  256
370
   -1
100
AcDbLine
 10
47.00000000000002
 20
-143
 11
93.00000000000003
 21
-143
  0
LINE
  5
18D
100
AcDbEntity
  8
corner_standoffs
  6
ByLayer
 62
  256
370
   -1
100
AcDbLine
 10
35.00000000000002
 20
-131
 11
35.00000000000003
 21
-85
  0
ARC
  5
18E
100
AcDbEntity
  8
corner_standoffs
  6
ByLayer
 62
  256
370
   -1
100
AcDbCircle
 10
47.00000000000002
 20
-131
 40
12
100
AcDbArc
 50
180
 51
270
  0
LINE
  5
18F
100
AcDbEntity
  8
corner_standoffs
  6
ByLayer
 62
  256
370
   -1
100
AcDbLine
 10
46.00000000000006
 20
-61
 11
46.00000000000006
 21
-41
  0
LINE
  5
190
100
AcDbEntity
  8
corner_standoffs
  6
ByLayer
 62
  256
370
   -1
100
AcDbLine
 10
46.00000000000006
 20
-41
 11
37.00000000000003
 21
-41
  0
LINE
  5
191
100
AcDbEntity
  8
corner_standoffs
  6
ByLayer
 62
  256
370
   -1
100
AcDbLine
 10
37.00000000000003
 20
-41
 11
37.00000000000003
 21
-61
  0
LINE
  5
192
100
AcDbEntity
  8
corner_standoffs
  6
ByLayer
 62
  256
370
   -1
100
AcDbLine
 10
37.00000000000003
 20
-61
 11
46.00000000000003
 21
-61
  0
LINE
  5
193
100
AcDbEntity
  8
corner_standoffs
  6
ByLayer
 62
  256
370
   -1
100
AcDbLine
 10
81.00000000000003
 20
-26
 11
61.00000000000003
 21
-26
  0
LINE
  5
194
100
AcDbEntity
  8
corner_standoffs
  6
ByLayer
 62
  256
370
   -1
100
AcDbLine
 10
61.00000000000003
 20
-26
 11
61.00000000000003
 21
-17
  0
LINE
  5
195
100
AcDbEntity
  8
corner_standoffs
  6
ByLayer
 62
  256
370
   -1
100
AcDbLine
 10
61.00000000000003
 20
-17
 11
81.00000000000003
 21
-17
  0
LINE
  5
196
100
AcDbEntity
  8
corner_standoffs
  6
ByLayer
 62
  256
370
   -1
100
AcDbLine
 10
81.00000000000003
 20
-17
 11
81.00000000000003
 21
-26
  0
LINE
  5
197
100
AcDbEntity
  8
corner_standoffs
  6
ByLayer
 62
  256
370
   -1
100
AcDbLine
 10
35.00000000000003
 20
-73
 11
41.00000000000003
 21
-79
  0
LINE
  5
198
100
AcDbEntity
  8
corner_standoffs
  6
ByLayer
 62
  256
370
   -1
100
AcDbLine
 10
41.00000000000003
 20
-79
 11
55.00000000000003
 21
-79
  0
LINE
  5
199
100
AcDbEntity
  8
corner_standoffs
  6
ByLayer
 62
  256
370
   -1
100
AcDbLine
 10
99.00000000000003
 20
-21
 11
99.00000000000003
 21
-35
  0
LINE
  5
19A
100
AcDbEntity
  8
corner_standoffs
  6
ByLayer
 62
  256
370
   -1
100
AcDbLine
 10
93.00000000000003
 20
-15
 11
99.00000000000003
 21
-21
  0
LINE
  5
19B
100
AcDbEntity
  8
corner_standoffs
  6
ByLayer
 62
  256
370
   -1
100
AcDbLine
 10
35.00000000000003
 20
-27
 11
35.00000000000003
 21
-73
  0
LINE
  5
19C
100
AcDbEntity
  8
corner_standoffs
  6
ByLayer
 62
  256
370
   -1
100
AcDbLine
 10
47.00000000000003
 20
-15
 11
93.00000000000003
 21
-15
  0
ARC
  5
19D
100
AcDbEntity
  8
corner_standoffs
  6
ByLayer
 62
  256
370
   -1
100
AcDbCircle
 10
47.00000000000003
 20
-27
 40
12
100
AcDbArc
 50
90
 51
180
  0
LINE
  5
19E
100
AcDbEntity
  8
corner_standoffs
  6
ByLayer
 62
  256
370
   -1
100
AcDbLine
 10
117
 20
-26.00000000000003
 11
137
 21
-26.00000000000003
  0
LINE
  5
19F
100
AcDbEntity
  8
corner_standoffs
  6
ByLayer
 62
  256
370
   -1
100
AcDbLine
 10
137
 20
-26.00000000000003
 11
137
 21
-17
  0
LINE
  5
1A0
100
AcDbEntity
  8
corner_standoffs
  6
ByLayer
 62
  256
370
   -1
100
AcDbLine
 10
137
 20
-17
 11
117
 21
-17
  0
LINE
  5
1A1
100
AcDbEntity
  8
corner_standoffs
  6
ByLayer
 62
  256
370
   -1
100
AcDbLine
 10
117
 20
-17
 11
117
 21
-26
  0
LINE
  5
1A2
100
AcDbEntity
  8
corner_standoffs
  6
ByLayer
 62
  256
370
   -1
100
AcDbLine
 10
152
 20
-41
 11
161
 21
-41
  0
LINE
  5
1A3
100
AcDbEntity
  8
corner_standoffs
  6
ByLayer
 62
  256
370
   -1
100
AcDbLine
 10
161
 20
-41
 11
161
 21
-61
  0
LINE
  5
1A4
100
AcDbEntity
  8
corner_standoffs
  6
ByLayer
 62
  256
370
   -1
100
AcDbLine
 10
161
 20
-61
 11
152
 21
-61
  0
LINE
  5
1A5
100
AcDbEntity
  8
corner_standoffs
  6
ByLayer
 62
  256
370
   -1
100
AcDbLine
 10
105
 20
-15
 11
99.00000000000003
 21
-21
  0
LINE
  5
1A6
100
AcDbEntity
  8
corner_standoffs
  6
ByLayer
 62
  256
370
   -1
100
AcDbLine
 10
163
 20
-73
 11
157
 21
-79
  0
LINE
  5
1A7
100
AcDbEntity
  8
corner_standoffs
  6
ByLayer
 62
  256
370
   -1
100
AcDbLine
 10
151
 20
-15
 11
105
 21
-15
  0
LINE
  5
1A8
100
AcDbEntity
  8
corner_standoffs
  6
ByLayer
 62
  256
370
   -1
100
AcDbLine
 10
163
 20
-27
 11
163
 21
-73
  0
ARC
  5
1A9
100
AcDbEntity
  8
corner_standoffs
  6
ByLayer
 62
  256
370
   -1
100
AcDbCircle
 10
151
 20
-27
 40
12
100
AcDbArc
 50
0
 51
90
  0
LINE
  5
1AA
100
AcDbEntity
  8
corner_standoffs
  6
ByLayer
 62
  256
370
   -1
100
AcDbLine
 10
152
 20
-117
 11
161
 21
-117
  0
LINE
  5
1AB
100
AcDbEntity
  8
corner_standoffs
  6
ByLayer
 62
  256
370
   -1
100
AcDbLine
 10
161
 20
-117
 11
161
 21
-97
  0
LINE
  5
1AC
100
AcDbEntity
  8
corner_standoffs
  6
ByLayer
 62
  256
370
   -1
100
AcDbLine
 10
161
 20
-97
 11
152
 21
-97
  0
LINE
  5
1AD
100
AcDbEntity
  8
corner_standoffs
  6
ByLayer
 62
  256
370
   -1
100
AcDbLine
 10
117
 20
-132
 11
137
 21
-132
  0
LINE
  5
1AE
100
AcDbEntity
  8
corner_standoffs
  6
ByLayer
 62
  256
370
   -1
100
AcDbLine
 10
137
 20
-132
 11
137
 21
-141
  0
LINE
  5
1AF
100
AcDbEntity
  8
corner_standoffs
  6
ByLayer
 62
  256
370
   -1
100
AcDbLine
 10
137
 20
-141
 11
117
 21
-141
  0
LINE
  5
1B0
100
AcDbEntity
  8
corner_standoffs
  6
ByLayer
 62
  256
370
   -1
100
AcDbLine
 10
117
 20
-141
 11
117
 21
-132
  0
LINE
  5
1B1
100
AcDbEntity
  8
corner_standoffs
  6
ByLayer
 62
  256
370
   -1
100
AcDbLine
 10
163
 20
-85
 11
157
 21
-79
  0
LINE
  5
1B2
100
AcDbEntity
  8
corner_standoffs
  6
ByLayer
 62
  256
370
   -1
100
AcDbLine
 10
105
 20
-143
 11
99.00000000000003
 21
-137
  0
LINE
  5
1B3
100
AcDbEntity
  8
corner_standoffs
  6
ByLayer
 62
  256
370
   -1
100
AcDbLine
 10
163
 20
-131
 11
163
 21
-85
  0
LINE
  5
1B4
100
AcDbEntity
  8
corner_standoffs
  6
ByLayer
 62
  256
370
   -1
100
AcDbLine
 10
151
 20
-143
 11
105
 21
-143
  0
ARC
  5
1B5
100
AcDbEntity
  8
corner_standoffs
  6
ByLayer
 62
  256
370
   -1
100
AcDbCircle
 10
151
 20
-131
 40
12
100
AcDbArc
 50
270
 51
0
  0
DIMENSION
  5
1B6
100
AcDbEntity
  8
Sidewalls
  6
ByLayer
 62
  256
370
   -1
100
AcDbDimension
  2
*D1
 10
-40
 20
300
 30
0
 11
-41.875
 21
282.5
 31
0
 70
   32
 71
    5
  3
Standard
 53
0
210
0
220
0
230
1
100
AcDbAlignedDimension
 13
36
 23
265
 33
0
 14
36
 24
300
 34
0
 50
90
100
AcDbRotatedDimension
  0
CIRCLE
  5
1B7
100
AcDbEntity
  8
Sidewalls
  6
ByLayer
 62
  256
370
   -1
100
AcDbCircle
 10
44.84999999999999
 20
460
 40
2.550000000000001
  0
CIRCLE
  5
1B8
100
AcDbEntity
  8
Sidewalls
  6
ByLayer
 62
  256
370
   -1
100
AcDbCircle
 10
344.55
 20
460
 40
2.550000000000001
  0
DIMENSION
  5
1B9
100
AcDbEntity
  8
Sidewalls
  6
ByLayer
 62
  256
370
   -1
100
AcDbDimension
  2
*D2
 10
-10
 20
380
 30
0
 11
-11.875
 21
362.5
 31
0
 70
   32
 71
    5
  3
Standard
 53
0
210
0
220
0
230
1
100
AcDbAlignedDimension
 13
36
 23
345
 33
0
 14
36
 24
380
 34
0
 50
90
100
AcDbRotatedDimension
  0
DIMENSION
  5
1BA
100
AcDbEntity
  8
Sidewalls
  6
ByLayer
 62
  256
370
   -1
100
AcDbDimension
  2
*D3
 10
390
 20
380
 30
0
 11
388.125
 21
362.5
 31
0
 70
   32
 71
    5
  3
Standard
 53
0
210
0
220
0
230
1
100
AcDbAlignedDimension
 13
354
 23
345
 33
0
 14
354
 24
380
 34
0
 50
90
100
AcDbRotatedDimension
  0
CIRCLE
  5
1BB
100
AcDbEntity
  8
Sidewalls
  6
ByLayer
 62
  256
370
   -1
100
AcDbCircle
 10
44.84999999999999
 20
380
 40
2.550000000000001
  0
CIRCLE
  5
1BC
100
AcDbEntity
  8
Sidewalls
  6
ByLayer
 62
  256
370
   -1
100
AcDbCircle
 10
344.55
 20
380
 40
2.550000000000001
  0
DIMENSION
  5
1BD
100
AcDbEntity
  8
Sidewalls
  6
ByLayer
 62
  256
370
   -1
100
AcDbDimension
  2
*D4
 10
390
 20
300
 30
0
 11
388.125
 21
282.5
 31
0
 70
   32
 71
    5
  3
Standard
 53
0
210
0
220
0
230
1
100
AcDbAlignedDimension
 13
354
 23
265
 33
0
 14
354
 24
300
 34
0
 50
90
100
AcDbRotatedDimension
  0
CIRCLE
  5
1BE
100
AcDbEntity
  8
corner_standoffs
  6
ByLayer
 62
  256
370
   -1
100
AcDbCircle
 10
57.00000000000002
 20
-121
 40
2.549999999999955
  0
LINE
  5
1BF
100
AcDbEntity
  8
corner_standoffs
  6
ByLayer
 62
  256
370
   -1
100
AcDbLine
 10
99.00000000000003
 20
-123
 11
93.00000000000003
 21
-117
  0
LINE
  5
1C0
100
AcDbEntity
  8
corner_standoffs
  6
ByLayer
 62
  256
370
   -1
100
AcDbLine
 10
67.00000000000003
 20
-117
 11
93.00000000000003
 21
-117
  0
LINE
  5
1C1
100
AcDbEntity
  8
corner_standoffs
  6
ByLayer
 62
  256
370
   -1
100
AcDbLine
 10
61.00000000000002
 20
-111
 11
67.00000000000003
 21
-117
  0
LINE
  5
1C2
100
AcDbEntity
  8
corner_standoffs
  6
ByLayer
 62
  256
370
   -1
100
AcDbLine
 10
61.00000000000002
 20
-111
 11
61.00000000000002
 21
-85
  0
LINE
  5
1C3
100
AcDbEntity
  8
corner_standoffs
  6
ByLayer
 62
  256
370
   -1
100
AcDbLine
 10
61.00000000000002
 20
-85
 11
55.00000000000003
 21
-79
  0
CIRCLE
  5
1C4
100
AcDbEntity
  8
corner_standoffs
  6
ByLayer
 62
  256
370
   -1
100
AcDbCircle
 10
57.00000000000003
 20
-37
 40
2.549999999999955
  0
LINE
  5
1C5
100
AcDbEntity
  8
corner_standoffs
  6
ByLayer
 62
  256
370
   -1
100
AcDbLine
 10
55.00000000000003
 20
-79
 11
61.00000000000003
 21
-73
  0
LINE
  5
1C6
100
AcDbEntity
  8
corner_standoffs
  6
ByLayer
 62
  256
370
   -1
100
AcDbLine
 10
61.00000000000003
 20
-47
 11
61.00000000000003
 21
-73
  0
LINE
  5
1C7
100
AcDbEntity
  8
corner_standoffs
  6
ByLayer
 62
  256
370
   -1
100
AcDbLine
 10
67.00000000000003
 20
-41
 11
61.00000000000003
 21
-47
  0
LINE
  5
1C8
100
AcDbEntity
  8
corner_standoffs
  6
ByLayer
 62
  256
370
   -1
100
AcDbLine
 10
67.00000000000003
 20
-41
 11
93.00000000000003
 21
-41
  0
LINE
  5
1C9
100
AcDbEntity
  8
corner_standoffs
  6
ByLayer
 62
  256
370
   -1
100
AcDbLine
 10
93.00000000000003
 20
-41
 11
99.00000000000003
 21
-35
  0
LINE
  5
1CA
100
AcDbEntity
  8
corner_standoffs
  6
ByLayer
 62
  256
370
   -1
100
AcDbLine
 10
152
 20
-61
 11
152
 21
-41
  0
CIRCLE
  5
1CB
100
AcDbEntity
  8
corner_standoffs
  6
ByLayer
 62
  256
370
   -1
100
AcDbCircle
 10
141
 20
-37
 40
2.549999999999955
  0
LINE
  5
1CC
100
AcDbEntity
  8
corner_standoffs
  6
ByLayer
 62
  256
370
   -1
100
AcDbLine
 10
99.00000000000003
 20
-35
 11
105
 21
-41
  0
LINE
  5
1CD
100
AcDbEntity
  8
corner_standoffs
  6
ByLayer
 62
  256
370
   -1
100
AcDbLine
 10
131
 20
-41
 11
105
 21
-41
  0
LINE
  5
1CE
100
AcDbEntity
  8
corner_standoffs
  6
ByLayer
 62
  256
370
   -1
100
AcDbLine
 10
137
 20
-47
 11
131
 21
-41
  0
LINE
  5
1CF
100
AcDbEntity
  8
corner_standoffs
  6
ByLayer
 62
  256
370
   -1
100
AcDbLine
 10
137
 20
-47
 11
137
 21
-73
  0
LINE
  5
1D0
100
AcDbEntity
  8
corner_standoffs
  6
ByLayer
 62
  256
370
   -1
100
AcDbLine
 10
137
 20
-73
 11
143
 21
-79
  0
LINE
  5
1D1
100
AcDbEntity
  8
corner_standoffs
  6
ByLayer
 62
  256
370
   -1
100
AcDbLine
 10
157
 20
-79
 11
143
 21
-79
  0
LINE
  5
1D2
100
AcDbEntity
  8
corner_standoffs
  6
ByLayer
 62
  256
370
   -1
100
AcDbLine
 10
152
 20
-97
 11
152
 21
-117
  0
CIRCLE
  5
1D3
100
AcDbEntity
  8
corner_standoffs
  6
ByLayer
 62
  256
370
   -1
100
AcDbCircle
 10
141
 20
-121
 40
2.549999999999955
  0
LINE
  5
1D4
100
AcDbEntity
  8
corner_standoffs
  6
ByLayer
 62
  256
370
   -1
100
AcDbLine
 10
143
 20
-79
 11
137
 21
-85
  0
LINE
  5
1D5
100
AcDbEntity
  8
corner_standoffs
  6
ByLayer
 62
  256
370
   -1
100
AcDbLine
 10
137
 20
-111
 11
137
 21
-85
  0
LINE
  5
1D6
100
AcDbEntity
  8
corner_standoffs
  6
ByLayer
 62
  256
370
   -1
100
AcDbLine
 10
131
 20
-117
 11
137
 21
-111
  0
LINE
  5
1D7
100
AcDbEntity
  8
corner_standoffs
  6
ByLayer
 62
  256
370
   -1
100
AcDbLine
 10
131
 20
-117
 11
105
 21
-117
  0
LINE
  5
1D8
100
AcDbEntity
  8
corner_standoffs
  6
ByLayer
 62
  256
370
   -1
100
AcDbLine
 10
105
 20
-117
 11
99.00000000000003
 21
-123
  0
CIRCLE
  5
1D9
100
AcDbEntity
  8
corner_standoffs
  6
ByLayer
 62
  256
370
   -1
100
AcDbCircle
 10
90
 20
-91
 40
2.549999999999955
  0
LINE
  5
1DA
100
AcDbEntity
  8
corner_standoffs
  6
ByLayer
 62
  256
370
   -1
100
AcDbLine
 10
82
 20
-115
 11
66
 21
-99
  0
LINE
  5
1DB
100
AcDbEntity
  8
corner_standoffs
  6
ByLayer
 62
  256
370
   -1
100
AcDbLine
 10
74
 20
-91
 11
68.90000000000001
 21
-91
  0
LINE
  5
1DC
100
AcDbEntity
  8
corner_standoffs
  6
ByLayer
 62
  256
370
   -1
100
AcDbLine
 10
68.90000000000001
 20
-84.89999999999998
 11
67.40000000000001
 21
-84.89999999999998
  0
LINE
  5
1DD
100
AcDbEntity
  8
corner_standoffs
  6
ByLayer
 62
  256
370
   -1
100
AcDbLine
 10
74
 20
-84.89999999999998
 11
75.5
 21
-84.89999999999998
  0
LINE
  5
1DE
100
AcDbEntity
  8
corner_standoffs
  6
ByLayer
 62
  256
370
   -1
100
AcDbLine
 10
67.40000000000001
 20
-84.89999999999998
 11
67.40000000000001
 21
-89
  0
LINE
  5
1DF
100
AcDbEntity
  8
corner_standoffs
  6
ByLayer
 62
  256
370
   -1
100
AcDbLine
 10
67.40000000000001
 20
-89
 11
68.89999999999998
 21
-89
  0
LINE
  5
1E0
100
AcDbEntity
  8
corner_standoffs
  6
ByLayer
 62
  256
370
   -1
100
AcDbLine
 10
75.5
 20
-84.89999999999998
 11
75.5
 21
-89
  0
LINE
  5
1E1
100
AcDbEntity
  8
corner_standoffs
  6
ByLayer
 62
  256
370
   -1
100
AcDbLine
 10
75.5
 20
-89
 11
74
 21
-89
  0
LINE
  5
1E2
100
AcDbEntity
  8
corner_standoffs
  6
ByLayer
 62
  256
370
   -1
100
AcDbLine
 10
74
 20
-91
 11
74
 21
-89
  0
LINE
  5
1E3
100
AcDbEntity
  8
corner_standoffs
  6
ByLayer
 62
  256
370
   -1
100
AcDbLine
 10
74
 20
-84.89999999999992
 11
74
 21
-80
  0
LINE
  5
1E4
100
AcDbEntity
  8
corner_standoffs
  6
ByLayer
 62
  256
370
   -1
100
AcDbLine
 10
68.90000000000001
 20
-91
 11
68.89999999999998
 21
-89
  0
LINE
  5
1E5
100
AcDbEntity
  8
corner_standoffs
  6
ByLayer
 62
  256
370
   -1
100
AcDbLine
 10
68.90000000000001
 20
-84.89999999999998
 11
68.90000000000001
 21
-80
  0
LINE
  5
1E6
100
AcDbEntity
  8
corner_standoffs
  6
ByLayer
 62
  256
370
   -1
100
AcDbLine
 10
100
 20
-115
 11
82
 21
-115
  0
LINE
  5
1E7
100
AcDbEntity
  8
corner_standoffs
  6
ByLayer
 62
  256
370
   -1
100
AcDbLine
 10
89
 20
-112.1
 11
89
 21
-107
  0
LINE
  5
1E8
100
AcDbEntity
  8
corner_standoffs
  6
ByLayer
 62
  256
370
   -1
100
AcDbLine
 10
95.10000000000002
 20
-107
 11
95.10000000000002
 21
-105.5
  0
LINE
  5
1E9
100
AcDbEntity
  8
corner_standoffs
  6
ByLayer
 62
  256
370
   -1
100
AcDbLine
 10
95.10000000000002
 20
-112.1
 11
95.10000000000002
 21
-113.6
  0
LINE
  5
1EA
100
AcDbEntity
  8
corner_standoffs
  6
ByLayer
 62
  256
370
   -1
100
AcDbLine
 10
95.10000000000002
 20
-105.5
 11
91
 21
-105.5
  0
LINE
  5
1EB
100
AcDbEntity
  8
corner_standoffs
  6
ByLayer
 62
  256
370
   -1
100
AcDbLine
 10
91
 20
-105.5
 11
91
 21
-107
  0
LINE
  5
1EC
100
AcDbEntity
  8
corner_standoffs
  6
ByLayer
 62
  256
370
   -1
100
AcDbLine
 10
95.10000000000002
 20
-113.6
 11
91
 21
-113.6
  0
LINE
  5
1ED
100
AcDbEntity
  8
corner_standoffs
  6
ByLayer
 62
  256
370
   -1
100
AcDbLine
 10
91
 20
-113.6
 11
91
 21
-112.1
  0
LINE
  5
1EE
100
AcDbEntity
  8
corner_standoffs
  6
ByLayer
 62
  256
370
   -1
100
AcDbLine
 10
89
 20
-112.1
 11
91
 21
-112.1
  0
LINE
  5
1EF
100
AcDbEntity
  8
corner_standoffs
  6
ByLayer
 62
  256
370
   -1
100
AcDbLine
 10
95.10000000000008
 20
-112.1
 11
100
 21
-112.1
  0
LINE
  5
1F0
100
AcDbEntity
  8
corner_standoffs
  6
ByLayer
 62
  256
370
   -1
100
AcDbLine
 10
89
 20
-107
 11
91
 21
-107
  0
LINE
  5
1F1
100
AcDbEntity
  8
corner_standoffs
  6
ByLayer
 62
  256
370
   -1
100
AcDbLine
 10
95.10000000000002
 20
-107
 11
100
 21
-107
  0
LINE
  5
1F2
100
AcDbEntity
  8
corner_standoffs
  6
ByLayer
 62
  256
370
   -1
100
AcDbLine
 10
100
 20
-80
 11
100
 21
-107
  0
LINE
  5
1F3
100
AcDbEntity
  8
corner_standoffs
  6
ByLayer
 62
  256
370
   -1
100
AcDbLine
 10
100
 20
-112.1
 11
100
 21
-115
  0
CIRCLE
  5
1F4
100
AcDbEntity
  8
corner_standoffs
  6
ByLayer
 62
  256
370
   -1
100
AcDbCircle
 10
111
 20
-91
 40
2.549999999999955
  0
LINE
  5
1F5
100
AcDbEntity
  8
corner_standoffs
  6
ByLayer
 62
  256
370
   -1
100
AcDbLine
 10
135
 20
-99
 11
119
 21
-115
  0
LINE
  5
1F6
100
AcDbEntity
  8
corner_standoffs
  6
ByLayer
 62
  256
370
   -1
100
AcDbLine
 10
111
 20
-107
 11
111
 21
-112.1
  0
LINE
  5
1F7
100
AcDbEntity
  8
corner_standoffs
  6
ByLayer
 62
  256
370
   -1
100
AcDbLine
 10
104.9
 20
-112.1
 11
104.9
 21
-113.6
  0
LINE
  5
1F8
100
AcDbEntity
  8
corner_standoffs
  6
ByLayer
 62
  256
370
   -1
100
AcDbLine
 10
104.9
 20
-107
 11
104.9
 21
-105.5
  0
LINE
  5
1F9
100
AcDbEntity
  8
corner_standoffs
  6
ByLayer
 62
  256
370
   -1
100
AcDbLine
 10
104.9
 20
-113.6
 11
109
 21
-113.6
  0
LINE
  5
1FA
100
AcDbEntity
  8
corner_standoffs
  6
ByLayer
 62
  256
370
   -1
100
AcDbLine
 10
109
 20
-113.6
 11
109
 21
-112.1
  0
LINE
  5
1FB
100
AcDbEntity
  8
corner_standoffs
  6
ByLayer
 62
  256
370
   -1
100
AcDbLine
 10
104.9
 20
-105.5
 11
109
 21
-105.5
  0
LINE
  5
1FC
100
AcDbEntity
  8
corner_standoffs
  6
ByLayer
 62
  256
370
   -1
100
AcDbLine
 10
109
 20
-105.5
 11
109
 21
-107
  0
LINE
  5
1FD
100
AcDbEntity
  8
corner_standoffs
  6
ByLayer
 62
  256
370
   -1
100
AcDbLine
 10
111
 20
-107
 11
109
 21
-107
  0
LINE
  5
1FE
100
AcDbEntity
  8
corner_standoffs
  6
ByLayer
 62
  256
370
   -1
100
AcDbLine
 10
104.9
 20
-107
 11
100
 21
-107
  0
LINE
  5
1FF
100
AcDbEntity
  8
corner_standoffs
  6
ByLayer
 62
  256
370
   -1
100
AcDbLine
 10
111
 20
-112.1
 11
109
 21
-112.1
  0
LINE
  5
200
100
AcDbEntity
  8
corner_standoffs
  6
ByLayer
 62
  256
370
   -1
100
AcDbLine
 10
104.9
 20
-112.1
 11
100
 21
-112.1
  0
LINE
  5
201
100
AcDbEntity
  8
corner_standoffs
  6
ByLayer
 62
  256
370
   -1
100
AcDbLine
 10
100
 20
-112.1
 11
100
 21
-115
  0
LINE
  5
202
100
AcDbEntity
  8
corner_standoffs
  6
ByLayer
 62
  256
370
   -1
100
AcDbLine
 10
132.1
 20
-91
 11
127
 21
-91
  0
LINE
  5
203
100
AcDbEntity
  8
corner_standoffs
  6
ByLayer
 62
  256
370
   -1
100
AcDbLine
 10
127
 20
-84.89999999999998
 11
125.5
 21
-84.89999999999998
  0
LINE
  5
204
100
AcDbEntity
  8
corner_standoffs
  6
ByLayer
 62
  256
370
   -1
100
AcDbLine
 10
132.1
 20
-84.89999999999998
 11
133.6
 21
-84.89999999999998
  0
LINE
  5
205
100
AcDbEntity
  8
corner_standoffs
  6
ByLayer
 62
  256
370
   -1
100
AcDbLine
 10
125.5
 20
-84.89999999999998
 11
125.5
 21
-89
  0
LINE
  5
206
100
AcDbEntity
  8
corner_standoffs
  6
ByLayer
 62
  256
370
   -1
100
AcDbLine
 10
125.5
 20
-89
 11
127
 21
-89
  0
LINE
  5
207
100
AcDbEntity
  8
corner_standoffs
  6
ByLayer
 62
  256
370
   -1
100
AcDbLine
 10
133.6
 20
-84.89999999999998
 11
133.6
 21
-89
  0
LINE
  5
208
100
AcDbEntity
  8
corner_standoffs
  6
ByLayer
 62
  256
370
   -1
100
AcDbLine
 10
133.6
 20
-89
 11
132.1
 21
-89
  0
LINE
  5
209
100
AcDbEntity
  8
corner_standoffs
  6
ByLayer
 62
  256
370
   -1
100
AcDbLine
 10
132.1
 20
-91
 11
132.1
 21
-89
  0
LINE
  5
20A
100
AcDbEntity
  8
corner_standoffs
  6
ByLayer
 62
  256
370
   -1
100
AcDbLine
 10
132.1
 20
-84.89999999999992
 11
132.1
 21
-80
  0
LINE
  5
20B
100
AcDbEntity
  8
corner_standoffs
  6
ByLayer
 62
  256
370
   -1
100
AcDbLine
 10
127
 20
-91
 11
127
 21
-89
  0
LINE
  5
20C
100
AcDbEntity
  8
corner_standoffs
  6
ByLayer
 62
  256
370
   -1
100
AcDbLine
 10
127
 20
-84.89999999999998
 11
127
 21
-80
  0
LINE
  5
20D
100
AcDbEntity
  8
corner_standoffs
  6
ByLayer
 62
  256
370
   -1
100
AcDbLine
 10
100
 20
-80
 11
127
 21
-80
  0
LINE
  5
20E
100
AcDbEntity
  8
corner_standoffs
  6
ByLayer
 62
  256
370
   -1
100
AcDbLine
 10
132.1
 20
-80
 11
135
 21
-80
  0
LINE
  5
20F
100
AcDbEntity
  8
corner_standoffs
  6
ByLayer
 62
  256
370
   -1
100
AcDbLine
 10
74
 20
-80
 11
100
 21
-80
  0
LINE
  5
210
100
AcDbEntity
  8
corner_standoffs
  6
ByLayer
 62
  256
370
   -1
100
AcDbLine
 10
132.1
 20
-80
 11
135
 21
-80
  0
CIRCLE
  5
211
100
AcDbEntity
  8
corner_standoffs
  6
ByLayer
 62
  256
370
   -1
100
AcDbCircle
 10
111
 20
-69
 40
2.549999999999955
  0
LINE
  5
212
100
AcDbEntity
  8
corner_standoffs
  6
ByLayer
 62
  256
370
   -1
100
AcDbLine
 10
119
 20
-45
 11
135
 21
-61
  0
LINE
  5
213
100
AcDbEntity
  8
corner_standoffs
  6
ByLayer
 62
  256
370
   -1
100
AcDbLine
 10
127
 20
-69
 11
132.1
 21
-69
  0
LINE
  5
214
100
AcDbEntity
  8
corner_standoffs
  6
ByLayer
 62
  256
370
   -1
100
AcDbLine
 10
132.1
 20
-75.10000000000002
 11
133.6
 21
-75.10000000000002
  0
LINE
  5
215
100
AcDbEntity
  8
corner_standoffs
  6
ByLayer
 62
  256
370
   -1
100
AcDbLine
 10
127
 20
-75.10000000000002
 11
125.5
 21
-75.10000000000002
  0
LINE
  5
216
100
AcDbEntity
  8
corner_standoffs
  6
ByLayer
 62
  256
370
   -1
100
AcDbLine
 10
133.6
 20
-75.10000000000002
 11
133.6
 21
-71
  0
LINE
  5
217
100
AcDbEntity
  8
corner_standoffs
  6
ByLayer
 62
  256
370
   -1
100
AcDbLine
 10
133.6
 20
-71
 11
132.1
 21
-71
  0
LINE
  5
218
100
AcDbEntity
  8
corner_standoffs
  6
ByLayer
 62
  256
370
   -1
100
AcDbLine
 10
125.5
 20
-75.10000000000002
 11
125.5
 21
-71
  0
LINE
  5
219
100
AcDbEntity
  8
corner_standoffs
  6
ByLayer
 62
  256
370
   -1
100
AcDbLine
 10
125.5
 20
-71
 11
127
 21
-71
  0
LINE
  5
21A
100
AcDbEntity
  8
corner_standoffs
  6
ByLayer
 62
  256
370
   -1
100
AcDbLine
 10
127
 20
-69
 11
127
 21
-71
  0
LINE
  5
21B
100
AcDbEntity
  8
corner_standoffs
  6
ByLayer
 62
  256
370
   -1
100
AcDbLine
 10
127
 20
-75.10000000000002
 11
127
 21
-80
  0
LINE
  5
21C
100
AcDbEntity
  8
corner_standoffs
  6
ByLayer
 62
  256
370
   -1
100
AcDbLine
 10
132.1
 20
-69
 11
132.1
 21
-71
  0
LINE
  5
21D
100
AcDbEntity
  8
corner_standoffs
  6
ByLayer
 62
  256
370
   -1
100
AcDbLine
 10
132.1
 20
-75.10000000000002
 11
132.1
 21
-80
  0
LINE
  5
21E
100
AcDbEntity
  8
corner_standoffs
  6
ByLayer
 62
  256
370
   -1
100
AcDbLine
 10
132.1
 20
-80
 11
135
 21
-80
  0
LINE
  5
21F
100
AcDbEntity
  8
corner_standoffs
  6
ByLayer
 62
  256
370
   -1
100
AcDbLine
 10
101
 20
-45
 11
119
 21
-45
  0
LINE
  5
220
100
AcDbEntity
  8
corner_standoffs
  6
ByLayer
 62
  256
370
   -1
100
AcDbLine
 10
100
 20
-45
 11
101
 21
-45
  0
LINE
  5
221
100
AcDbEntity
  8
corner_standoffs
  6
ByLayer
 62
  256
370
   -1
100
AcDbLine
 10
111
 20
-47.89999999999998
 11
111
 21
-53
  0
LINE
  5
222
100
AcDbEntity
  8
corner_standoffs
  6
ByLayer
 62
  256
370
   -1
100
AcDbLine
 10
104.9
 20
-53
 11
104.9
 21
-54.5
  0
LINE
  5
223
100
AcDbEntity
  8
corner_standoffs
  6
ByLayer
 62
  256
370
   -1
100
AcDbLine
 10
104.9
 20
-47.89999999999998
 11
104.9
 21
-46.39999999999998
  0
LINE
  5
224
100
AcDbEntity
  8
corner_standoffs
  6
ByLayer
 62
  256
370
   -1
100
AcDbLine
 10
104.9
 20
-54.5
 11
109
 21
-54.5
  0
LINE
  5
225
100
AcDbEntity
  8
corner_standoffs
  6
ByLayer
 62
  256
370
   -1
100
AcDbLine
 10
109
 20
-54.5
 11
109
 21
-53
  0
LINE
  5
226
100
AcDbEntity
  8
corner_standoffs
  6
ByLayer
 62
  256
370
   -1
100
AcDbLine
 10
104.9
 20
-46.39999999999998
 11
109
 21
-46.39999999999998
  0
LINE
  5
227
100
AcDbEntity
  8
corner_standoffs
  6
ByLayer
 62
  256
370
   -1
100
AcDbLine
 10
109
 20
-46.39999999999998
 11
109
 21
-47.89999999999998
  0
LINE
  5
228
100
AcDbEntity
  8
corner_standoffs
  6
ByLayer
 62
  256
370
   -1
100
AcDbLine
 10
111
 20
-47.89999999999998
 11
109
 21
-47.89999999999998
  0
LINE
  5
229
100
AcDbEntity
  8
corner_standoffs
  6
ByLayer
 62
  256
370
   -1
100
AcDbLine
 10
104.9
 20
-47.89999999999998
 11
100
 21
-47.89999999999998
  0
LINE
  5
22A
100
AcDbEntity
  8
corner_standoffs
  6
ByLayer
 62
  256
370
   -1
100
AcDbLine
 10
111
 20
-53
 11
109
 21
-53
  0
LINE
  5
22B
100
AcDbEntity
  8
corner_standoffs
  6
ByLayer
 62
  256
370
   -1
100
AcDbLine
 10
104.9
 20
-53
 11
100
 21
-53
  0
LINE
  5
22C
100
AcDbEntity
  8
corner_standoffs
  6
ByLayer
 62
  256
370
   -1
100
AcDbLine
 10
100
 20
-47.89999999999998
 11
100
 21
-45
  0
LINE
  5
22D
100
AcDbEntity
  8
corner_standoffs
  6
ByLayer
 62
  256
370
   -1
100
AcDbLine
 10
100
 20
-80
 11
100
 21
-53
  0
CIRCLE
  5
22E
100
AcDbEntity
  8
corner_standoffs
  6
ByLayer
 62
  256
370
   -1
100
AcDbCircle
 10
89
 20
-69
 40
2.549999999999955
  0
LINE
  5
22F
100
AcDbEntity
  8
corner_standoffs
  6
ByLayer
 62
  256
370
   -1
100
AcDbLine
 10
89
 20
-53
 11
89
 21
-47.90000000000001
  0
LINE
  5
230
100
AcDbEntity
  8
corner_standoffs
  6
ByLayer
 62
  256
370
   -1
100
AcDbLine
 10
95.10000000000002
 20
-47.90000000000001
 11
95.10000000000002
 21
-46.40000000000001
  0
LINE
  5
231
100
AcDbEntity
  8
corner_standoffs
  6
ByLayer
 62
  256
370
   -1
100
AcDbLine
 10
95.10000000000002
 20
-53
 11
95.10000000000002
 21
-54.5
  0
LINE
  5
232
100
AcDbEntity
  8
corner_standoffs
  6
ByLayer
 62
  256
370
   -1
100
AcDbLine
 10
95.10000000000002
 20
-46.40000000000001
 11
91
 21
-46.40000000000001
  0
LINE
  5
233
100
AcDbEntity
  8
corner_standoffs
  6
ByLayer
 62
  256
370
   -1
100
AcDbLine
 10
91
 20
-46.40000000000001
 11
91
 21
-47.89999999999998
  0
LINE
  5
234
100
AcDbEntity
  8
corner_standoffs
  6
ByLayer
 62
  256
370
   -1
100
AcDbLine
 10
95.10000000000002
 20
-54.5
 11
91
 21
-54.5
  0
LINE
  5
235
100
AcDbEntity
  8
corner_standoffs
  6
ByLayer
 62
  256
370
   -1
100
AcDbLine
 10
91
 20
-54.5
 11
91
 21
-53
  0
LINE
  5
236
100
AcDbEntity
  8
corner_standoffs
  6
ByLayer
 62
  256
370
   -1
100
AcDbLine
 10
89
 20
-53
 11
91
 21
-53
  0
LINE
  5
237
100
AcDbEntity
  8
corner_standoffs
  6
ByLayer
 62
  256
370
   -1
100
AcDbLine
 10
95.10000000000002
 20
-53
 11
100
 21
-53
  0
LINE
  5
238
100
AcDbEntity
  8
corner_standoffs
  6
ByLayer
 62
  256
370
   -1
100
AcDbLine
 10
89
 20
-47.90000000000001
 11
91
 21
-47.89999999999998
  0
LINE
  5
239
100
AcDbEntity
  8
corner_standoffs
  6
ByLayer
 62
  256
370
   -1
100
AcDbLine
 10
95.10000000000002
 20
-47.90000000000001
 11
100
 21
-47.90000000000001
  0
LINE
  5
23A
100
AcDbEntity
  8
corner_standoffs
  6
ByLayer
 62
  256
370
   -1
100
AcDbLine
 10
68.89999999999998
 20
-69
 11
74
 21
-69
  0
LINE
  5
23B
100
AcDbEntity
  8
corner_standoffs
  6
ByLayer
 62
  256
370
   -1
100
AcDbLine
 10
74
 20
-75.10000000000002
 11
75.5
 21
-75.10000000000002
  0
LINE
  5
23C
100
AcDbEntity
  8
corner_standoffs
  6
ByLayer
 62
  256
370
   -1
100
AcDbLine
 10
68.89999999999998
 20
-75.10000000000002
 11
67.39999999999998
 21
-75.10000000000002
  0
LINE
  5
23D
100
AcDbEntity
  8
corner_standoffs
  6
ByLayer
 62
  256
370
   -1
100
AcDbLine
 10
75.5
 20
-75.10000000000002
 11
75.5
 21
-71
  0
LINE
  5
23E
100
AcDbEntity
  8
corner_standoffs
  6
ByLayer
 62
  256
370
   -1
100
AcDbLine
 10
75.5
 20
-71
 11
74
 21
-71
  0
LINE
  5
23F
100
AcDbEntity
  8
corner_standoffs
  6
ByLayer
 62
  256
370
   -1
100
AcDbLine
 10
67.39999999999998
 20
-75.10000000000002
 11
67.39999999999998
 21
-71
  0
LINE
  5
240
100
AcDbEntity
  8
corner_standoffs
  6
ByLayer
 62
  256
370
   -1
100
AcDbLine
 10
67.39999999999998
 20
-71
 11
68.89999999999998
 21
-71
  0
LINE
  5
241
100
AcDbEntity
  8
corner_standoffs
  6
ByLayer
 62
  256
370
   -1
100
AcDbLine
 10
68.89999999999998
 20
-69
 11
68.89999999999998
 21
-71
  0
LINE
  5
242
100
AcDbEntity
  8
corner_standoffs
  6
ByLayer
 62
  256
370
   -1
100
AcDbLine
 10
68.89999999999998
 20
-75.10000000000008
 11
68.89999999999998
 21
-80
  0
LINE
  5
243
100
AcDbEntity
  8
corner_standoffs
  6
ByLayer
 62
  256
370
   -1
100
AcDbLine
 10
74
 20
-69
 11
74
 21
-71
  0
LINE
  5
244
100
AcDbEntity
  8
corner_standoffs
  6
ByLayer
 62
  256
370
   -1
100
AcDbLine
 10
74
 20
-75.10000000000002
 11
74
 21
-80
  0
LINE
  5
245
100
AcDbEntity
  8
corner_standoffs
  6
ByLayer
 62
  256
370
   -1
100
AcDbLine
 10
66
 20
-80
 11
66
 21
-61
  0
LINE
  5
246
100
AcDbEntity
  8
corner_standoffs
  6
ByLayer
 62
  256
370
   -1
100
AcDbLine
 10
100
 20
-45
 11
82
 21
-45
  0
LINE
  5
247
100
AcDbEntity
  8
corner_standoffs
  6
ByLayer
 62
  256
370
   -1
100
AcDbLine
 10
66
 20
-61
 11
82
 21
-45
  0
LINE
  5
248
100
AcDbEntity
  8
corner_standoffs
  6
ByLayer
 62
  256
370
   -1
100
AcDbLine
 10
68.89999999999998
 20
-80
 11
66
 21
-80
  0
LINE
  5
249
100
AcDbEntity
  8
corner_standoffs
  6
ByLayer
 62
  256
370
   -1
100
AcDbLine
 10
66
 20
-99
 11
66
 21
-80
  0
LINE
  5
24A
100
AcDbEntity
  8
corner_standoffs
  6
ByLayer
 62
  256
370
   -1
100
AcDbLine
 10
100
 20
-115
 11
119
 21
-115
  0
LINE
  5
24B
100
AcDbEntity
  8
corner_standoffs
  6
ByLayer
 62
  256
370
   -1
100
AcDbLine
 10
135
 20
-80
 11
135
 21
-99
  0
LINE
  5
24C
100
AcDbEntity
  8
corner_standoffs
  6
ByLayer
 62
  256
370
   -1
100
AcDbLine
 10
135
 20
-61
 11
135
 21
-80
  0
ARC
  5
24D
100
AcDbEntity
  8
sidewall_top_view
  6
ByLayer
 62
  256
370
   -1
100
AcDbCircle
 10
-78
 20
-478
 40
12
100
AcDbArc
 50
180
 51
270
  0
LINE
  5
24E
100
AcDbEntity
  8
sidewall_top_view
  6
ByLayer
 62
  256
370
   -1
100
AcDbLine
 10
-90
 20
-302
 11
-90
 21
-478
  0
ARC
  5
24F
100
AcDbEntity
  8
sidewall_top_view
  6
ByLayer
 62
  256
370
   -1
100
AcDbCircle
 10
-78
 20
-302
 40
12
100
AcDbArc
 50
90
 51
180
  0
LINE
  5
250
100
AcDbEntity
  8
sidewall_top_view
  6
ByLayer
 62
  256
370
   -1
100
AcDbLine
 10
288
 20
-290
 11
-78
 21
-290
  0
ARC
  5
251
100
AcDbEntity
  8
sidewall_top_view
  6
ByLayer
 62
  256
370
   -1
100
AcDbCircle
 10
288
 20
-302
 40
12
100
AcDbArc
 50
0
 51
90
  0
LINE
  5
252
100
AcDbEntity
  8
sidewall_top_view
  6
ByLayer
 62
  256
370
   -1
100
AcDbLine
 10
300
 20
-478
 11
300
 21
-302
  0
LINE
  5
253
100
AcDbEntity
  8
sidewall_top_view
  6
ByLayer
 62
  256
370
   -1
100
AcDbLine
 10
-78
 20
-490
 11
288
 21
-490
  0
ARC
  5
254
100
AcDbEntity
  8
sidewall_top_view
  6
ByLayer
 62
  256
370
   -1
100
AcDbCircle
 10
288
 20
-478
 40
12
100
AcDbArc
 50
270
 51
0
  0
CIRCLE
  5
255
100
AcDbEntity
  8
sidewall_top_view
  6
ByLayer
 62
  256
370
   -1
100
AcDbCircle
 10
110
 20
-350
 40
15.5
  0
CIRCLE
  5
256
100
AcDbEntity
  8
sidewall_top_view
  6
ByLayer
 62
  256
370
   -1
100
AcDbCircle
 10
106.53
 20
-388.44
 40
15.5
  0
CIRCLE
  5
257
100
AcDbEntity
  8
sidewall_top_view
  6
ByLayer
 62
  256
370
   -1
100
AcDbCircle
 10
139.38
 20
-376.5
 40
15.5
  0
CIRCLE
  5
258
100
AcDbEntity
  8
sidewall_top_view
  6
ByLayer
 62
  256
370
   -1
100
AcDbCircle
 10
174.8
 20
-380.82
 40
15.5
  0
CIRCLE
  5
259
100
AcDbEntity
  8
sidewall_top_view
  6
ByLayer
 62
  256
370
   -1
100
AcDbCircle
 10
207.14
 20
-395.37
 40
15.5
  0
CIRCLE
  5
25A
100
AcDbEntity
  8
sidewall_top_view
  6
ByLayer
 62
  256
370
   -1
100
AcDbCircle
 10
142.9400000000001
 20
-338.14
 40
15.5
  0
CIRCLE
  5
25B
100
AcDbEntity
  8
sidewall_top_view
  6
ByLayer
 62
  256
370
   -1
100
AcDbCircle
 10
177.54
 20
-342.63
 40
15.5
  0
CIRCLE
  5
25C
100
AcDbEntity
  8
sidewall_top_view
  6
ByLayer
 62
  256
370
   -1
100
AcDbCircle
 10
210.5599999999999
 20
-356.89
 40
15.5
  0
CIRCLE
  5
25D
100
AcDbEntity
  8
sidewall_top_view
  6
ByLayer
 62
  256
370
   -1
100
AcDbCircle
 10
30
 20
-364.56
 40
17.5071414000116
  0
CIRCLE
  5
25E
100
AcDbEntity
  8
sidewall_top_view
  6
ByLayer
 62
  256
370
   -1
100
AcDbCircle
 10
-60
 20
-320
 40
2.55
  0
CIRCLE
  5
25F
100
AcDbEntity
  8
sidewall_top_view
  6
ByLayer
 62
  256
370
   -1
100
AcDbCircle
 10
270
 20
-320
 40
2.55
  0
CIRCLE
  5
260
100
AcDbEntity
  8
sidewall_top_view
  6
ByLayer
 62
  256
370
   -1
100
AcDbCircle
 10
-60
 20
-460
 40
2.55
  0
CIRCLE
  5
261
100
AcDbEntity
  8
sidewall_top_view
  6
ByLayer
 62
  256
370
   -1
100
AcDbCircle
 10
270
 20
-460
 40
2.55
  0
ARC
  5
262
100
AcDbEntity
  8
Buttons-stick
  6
ByLayer
 62
  256
370
   -1
100
AcDbCircle
 10
110
 20
-350
 40
22
100
AcDbArc
 50
57.0815422783909
 51
236.146931194934
  0
ARC
  5
263
100
AcDbEntity
  8
Buttons-stick
  6
ByLayer
 62
  256
370
   -1
100
AcDbCircle
 10
142.94
 20
-338.14
 40
22
100
AcDbArc
 50
30.14338865625181
 51
162.5211378282749
  0
ARC
  5
264
100
AcDbEntity
  8
Buttons-stick
  6
ByLayer
 62
  256
370
   -1
100
AcDbCircle
 10
106.53
 20
-388.44
 40
22
100
AcDbArc
 50
113.5367866195375
 51
342.5712373649263
  0
ARC
  5
265
100
AcDbEntity
  8
Buttons-stick
  6
ByLayer
 62
  256
370
   -1
100
AcDbCircle
 10
139.38
 20
-376.5
 40
22
100
AcDbArc
 50
237.3781697012825
 51
317.2366134270477
  0
ARC
  5
266
100
AcDbEntity
  8
Buttons-stick
  6
ByLayer
 62
  256
370
   -1
100
AcDbCircle
 10
174.8
 20
-380.82
 40
22
100
AcDbArc
 50
208.8559166087311
 51
299.4799813715738
  0
LWPOLYLINE
  5
267
100
AcDbEntity
  8
Buttons-stick
  6
ByLayer
 62
  256
370
   -1
100
AcDbPolyline
 90
    2
 70
    0
 43
0
 10
199.0740955602445
 20
-338.1263649790131
 42
0.5964525184419891
 10
161.9649706028956
 20
-327.0923534832545
 42
0.5964525184419891
  0
ARC
  5
268
100
AcDbEntity
  8
Buttons-stick
  6
ByLayer
 62
  256
370
   -1
100
AcDbCircle
 10
207.14
 20
-395.37
 40
22
100
AcDbArc
 50
192.0733682284908
 51
56.3222194975558
  0
ARC
  5
269
100
AcDbEntity
  8
Buttons-stick
  6
ByLayer
 62
  256
370
   -1
100
AcDbCircle
 10
210.56
 20
-356.89
 40
22
100
AcDbArc
 50
293.5198779420115
 51
121.4723185377816
  0
CIRCLE
  5
26A
100
AcDbEntity
  8
Buttons-stick
  6
ByLayer
 62
  256
370
   -1
100
AcDbCircle
 10
5
 20
-328.06
 40
2.5
  0
CIRCLE
  5
26B
100
AcDbEntity
  8
Buttons-stick
  6
ByLayer
 62
  256
370
   -1
100
AcDbCircle
 10
55
 20
-328.06
 40
2.5
  0
CIRCLE
  5
26C
100
AcDbEntity
  8
Buttons-stick
  6
ByLayer
 62
  256
370
   -1
100
AcDbCircle
 10
55
 20
-401.06
 40
2.5
  0
CIRCLE
  5
26D
100
AcDbEntity
  8
Buttons-stick
  6
ByLayer
 62
  256
370
   -1
100
AcDbCircle
 10
5
 20
-401.06
 40
2.5
  0
LINE
  5
26E
100
AcDbEntity
  8
Buttons-stick
  6
ByLayer
 62
  256
370
   -1
100
AcDbLine
 10
-9
 20
-396.06
 11
69
 21
-396.06
  0
LINE
  5
26F
100
AcDbEntity
  8
Buttons-stick
  6
ByLayer
 62
  256
370
   -1
100
AcDbLine
 10
-9
 20
-333.06
 11
69
 21
-333.06
  0
LINE
  5
270
100
AcDbEntity
  8
Buttons-stick
  6
ByLayer
 62
  256
370
   -1
100
AcDbLine
 10
-9
 20
-396.06
 11
-9
 21
-333.06
  0
LINE
  5
271
100
AcDbEntity
  8
Buttons-stick
  6
ByLayer
 62
  256
370
   -1
100
AcDbLine
 10
69
 20
-396.06
 11
69
 21
-333.06
  0
LINE
  5
272
100
AcDbEntity
  8
Buttons-stick
  6
ByLayer
 62
  256
370
   -1
100
AcDbLine
 10
-74.90000000000001
 20
-474.9
 11
-74.90000000000001
 21
-305.1
  0
LINE
  5
273
100
AcDbEntity
  8
Buttons-stick
  6
ByLayer
 62
  256
370
   -1
100
AcDbLine
 10
284.9
 20
-474.9
 11
-74.90000000000001
 21
-474.9
  0
LINE
  5
274
100
AcDbEntity
  8
Buttons-stick
  6
ByLayer
 62
  256
370
   -1
100
AcDbLine
 10
284.9
 20
-474.9
 11
284.8999999999999
 21
-305.1
  0
LINE
  5
275
100
AcDbEntity
  8
Buttons-stick
  6
ByLayer
 62
  256
370
   -1
100
AcDbLine
 10
284.8999999999999
 20
-305.1
 11
-74.90000000000001
 21
-305.1
  0
CIRCLE
  5
276
100
AcDbEntity
  8
Buttons-stick
  6
ByLayer
 62
  256
370
   -1
100
AcDbCircle
 10
-60
 20
-320
 40
2.549999999999997
  0
CIRCLE
  5
277
100
AcDbEntity
  8
Buttons-stick
  6
ByLayer
 62
  256
370
   -1
100
AcDbCircle
 10
-60
 20
-460
 40
2.549999999999997
  0
CIRCLE
  5
278
100
AcDbEntity
  8
Buttons-stick
  6
ByLayer
 62
  256
370
   -1
100
AcDbCircle
 10
270
 20
-460
 40
2.550000000000011
  0
CIRCLE
  5
279
100
AcDbEntity
  8
Buttons-stick
  6
ByLayer
 62
  256
370
   -1
100
AcDbCircle
 10
270
 20
-320
 40
2.550000000000011
  0
DIMENSION
  5
27A
100
AcDbEntity
  8
Sidewalls
  6
ByLayer
 62
  256
370
   -1
100
AcDbDimension
  2
*D5
 10
56
 20
240
 30
0
 11
46
 21
241.875
 31
0
 70
   32
 71
    5
  3
Standard
 53
0
210
0
220
0
230
1
100
AcDbAlignedDimension
 13
36
 23
265
 33
0
 14
56
 24
265
 34
0
100
AcDbRotatedDimension
  0
DIMENSION
  5
27B
100
AcDbEntity
  8
Sidewalls
  6
ByLayer
 62
  256
370
   -1
100
AcDbDimension
  2
*D6
 10
74
 20
250
 30
0
 11
65
 21
251.875
 31
0
 70
   32
 71
    5
  3
Standard
 53
0
210
0
220
0
230
1
100
AcDbAlignedDimension
 13
56
 23
265
 33
0
 14
74
 24
265
 34
0
100
AcDbRotatedDimension
  0
DIMENSION
  5
27C
100
AcDbEntity
  8
Sidewalls
  6
ByLayer
 62
  256
370
   -1
100
AcDbDimension
  2
*D7
 10
36
 20
250
 30
0
 11
23
 21
251.875
 31
0
 70
   32
 71
    5
  3
Standard
 53
0
210
0
220
0
230
1
100
AcDbAlignedDimension
 13
10
 23
265
 33
0
 14
36
 24
265
 34
0
100
AcDbRotatedDimension
  0
DIMENSION
  5
27D
100
AcDbEntity
  8
Sidewalls
  6
ByLayer
 62
  256
370
   -1
100
AcDbDimension
  2
*D8
 10
36
 20
85
 30
0
 11
23
 21
86.875
 31
0
 70
   32
 71
    5
  3
Standard
 53
0
210
0
220
0
230
1
100
AcDbAlignedDimension
 13
10
 23
95
 33
0
 14
36
 24
95
 34
0
100
AcDbRotatedDimension
  0
LINE
  5
27E
100
AcDbEntity
  8
corner_standoffs
  6
ByLayer
 62
  256
370
   -1
100
AcDbLine
 10
-514.9
 20
-311.1000000000001
 11
-523.9
 21
-311.1000000000001
  0
LINE
  5
27F
100
AcDbEntity
  8
corner_standoffs
  6
ByLayer
 62
  256
370
   -1
100
AcDbLine
 10
-523.9
 20
-311.1000000000001
 11
-523.9
 21
-331.1
  0
LINE
  5
280
100
AcDbEntity
  8
corner_standoffs
  6
ByLayer
 62
  256
370
   -1
100
AcDbLine
 10
-523.9
 20
-331.1
 11
-514.9
 21
-331.1
  0
LINE
  5
281
100
AcDbEntity
  8
corner_standoffs
  6
ByLayer
 62
  256
370
   -1
100
AcDbLine
 10
-514.9
 20
-331.1
 11
-514.9
 21
-311.1000000000001
  0
LINE
  5
282
100
AcDbEntity
  8
corner_standoffs
  6
ByLayer
 62
  256
370
   -1
100
AcDbLine
 10
-497.9
 20
-285.1000000000001
 11
-497.9
 21
-276.1
  0
LINE
  5
283
100
AcDbEntity
  8
corner_standoffs
  6
ByLayer
 62
  256
370
   -1
100
AcDbLine
 10
-497.9
 20
-276.1
 11
-477.9
 21
-276.1
  0
LINE
  5
284
100
AcDbEntity
  8
corner_standoffs
  6
ByLayer
 62
  256
370
   -1
100
AcDbLine
 10
-477.9
 20
-276.1
 11
-477.9
 21
-285.1000000000001
  0
LINE
  5
285
100
AcDbEntity
  8
corner_standoffs
  6
ByLayer
 62
  256
370
   -1
100
AcDbLine
 10
-477.9
 20
-285.1000000000001
 11
-497.9
 21
-285.1000000000001
  0
LINE
  5
286
100
AcDbEntity
  8
corner_standoffs
  6
ByLayer
 62
  256
370
   -1
100
AcDbLine
 10
-525.9
 20
-343.1000000000001
 11
-519.9
 21
-349.1000000000001
  0
LINE
  5
287
100
AcDbEntity
  8
corner_standoffs
  6
ByLayer
 62
  256
370
   -1
100
AcDbLine
 10
-519.9
 20
-349.1000000000001
 11
-497.9
 21
-349.1000000000001
  0
LINE
  5
288
100
AcDbEntity
  8
corner_standoffs
  6
ByLayer
 62
  256
370
   -1
100
AcDbLine
 10
-497.9
 20
-349.1000000000001
 11
-491.9
 21
-343.1000000000001
  0
LINE
  5
289
100
AcDbEntity
  8
corner_standoffs
  6
ByLayer
 62
  256
370
   -1
100
AcDbLine
 10
-491.9
 20
-314.1
 11
-491.9
 21
-343.1000000000001
  0
LINE
  5
28A
100
AcDbEntity
  8
corner_standoffs
  6
ByLayer
 62
  256
370
   -1
100
AcDbLine
 10
-485.9
 20
-308.1
 11
-491.9
 21
-314.1
  0
LINE
  5
28B
100
AcDbEntity
  8
corner_standoffs
  6
ByLayer
 62
  256
370
   -1
100
AcDbLine
 10
-465.9
 20
-308.1
 11
-485.9
 21
-308.1
  0
LINE
  5
28C
100
AcDbEntity
  8
corner_standoffs
  6
ByLayer
 62
  256
370
   -1
100
AcDbLine
 10
-465.9
 20
-308.1
 11
-459.9
 21
-302.1
  0
LINE
  5
28D
100
AcDbEntity
  8
corner_standoffs
  6
ByLayer
 62
  256
370
   -1
100
AcDbLine
 10
-459.9
 20
-280.1
 11
-459.9
 21
-302.1
  0
LINE
  5
28E
100
AcDbEntity
  8
corner_standoffs
  6
ByLayer
 62
  256
370
   -1
100
AcDbLine
 10
-459.9
 20
-280.1
 11
-465.9
 21
-274.1
  0
LINE
  5
28F
100
AcDbEntity
  8
corner_standoffs
  6
ByLayer
 62
  256
370
   -1
100
AcDbLine
 10
-525.9
 20
-343.1000000000001
 11
-525.9
 21
-286.1
  0
LINE
  5
290
100
AcDbEntity
  8
corner_standoffs
  6
ByLayer
 62
  256
370
   -1
100
AcDbLine
 10
-513.9
 20
-274.1
 11
-465.9
 21
-274.1
  0
ARC
  5
291
100
AcDbEntity
  8
corner_standoffs
  6
ByLayer
 62
  256
370
   -1
100
AcDbCircle
 10
-513.9
 20
-286.1
 40
12
100
AcDbArc
 50
90
 51
180
  0
CIRCLE
  5
292
100
AcDbEntity
  8
corner_standoffs
  6
ByLayer
 62
  256
370
   -1
100
AcDbCircle
 10
-500
 20
-300
 40
2.549999999999997
  0
LINE
  5
293
100
AcDbEntity
  8
corner_standoffs
  6
ByLayer
 62
  256
370
   -1
100
AcDbLine
 10
-388.8999999999999
 20
-314.9
 11
-388.8999999999999
 21
-323.9
  0
LINE
  5
294
100
AcDbEntity
  8
corner_standoffs
  6
ByLayer
 62
  256
370
   -1
100
AcDbLine
 10
-388.8999999999999
 20
-323.9
 11
-368.9
 21
-323.9
  0
LINE
  5
295
100
AcDbEntity
  8
corner_standoffs
  6
ByLayer
 62
  256
370
   -1
100
AcDbLine
 10
-368.9
 20
-323.9
 11
-368.9
 21
-314.9
  0
LINE
  5
296
100
AcDbEntity
  8
corner_standoffs
  6
ByLayer
 62
  256
370
   -1
100
AcDbLine
 10
-368.9
 20
-314.9
 11
-388.8999999999999
 21
-314.9
  0
LINE
  5
297
100
AcDbEntity
  8
corner_standoffs
  6
ByLayer
 62
  256
370
   -1
100
AcDbLine
 10
-414.8999999999999
 20
-297.9
 11
-423.9
 21
-297.9
  0
LINE
  5
298
100
AcDbEntity
  8
corner_standoffs
  6
ByLayer
 62
  256
370
   -1
100
AcDbLine
 10
-423.9
 20
-297.9
 11
-423.9
 21
-277.9
  0
LINE
  5
299
100
AcDbEntity
  8
corner_standoffs
  6
ByLayer
 62
  256
370
   -1
100
AcDbLine
 10
-423.9
 20
-277.9
 11
-414.8999999999999
 21
-277.9
  0
LINE
  5
29A
100
AcDbEntity
  8
corner_standoffs
  6
ByLayer
 62
  256
370
   -1
100
AcDbLine
 10
-414.8999999999999
 20
-277.9
 11
-414.8999999999999
 21
-297.9
  0
LINE
  5
29B
100
AcDbEntity
  8
corner_standoffs
  6
ByLayer
 62
  256
370
   -1
100
AcDbLine
 10
-356.8999999999999
 20
-325.9
 11
-350.8999999999999
 21
-319.9
  0
LINE
  5
29C
100
AcDbEntity
  8
corner_standoffs
  6
ByLayer
 62
  256
370
   -1
100
AcDbLine
 10
-350.8999999999999
 20
-319.9
 11
-350.8999999999999
 21
-297.9
  0
LINE
  5
29D
100
AcDbEntity
  8
corner_standoffs
  6
ByLayer
 62
  256
370
   -1
100
AcDbLine
 10
-350.8999999999999
 20
-297.9
 11
-356.8999999999999
 21
-291.9
  0
LINE
  5
29E
100
AcDbEntity
  8
corner_standoffs
  6
ByLayer
 62
  256
370
   -1
100
AcDbLine
 10
-385.9
 20
-291.9
 11
-356.8999999999999
 21
-291.9
  0
LINE
  5
29F
100
AcDbEntity
  8
corner_standoffs
  6
ByLayer
 62
  256
370
   -1
100
AcDbLine
 10
-391.9
 20
-285.9
 11
-385.9
 21
-291.9
  0
LINE
  5
2A0
100
AcDbEntity
  8
corner_standoffs
  6
ByLayer
 62
  256
370
   -1
100
AcDbLine
 10
-391.9
 20
-265.9
 11
-391.9
 21
-285.9
  0
LINE
  5
2A1
100
AcDbEntity
  8
corner_standoffs
  6
ByLayer
 62
  256
370
   -1
100
AcDbLine
 10
-391.9
 20
-265.9
 11
-397.9
 21
-259.9
  0
LINE
  5
2A2
100
AcDbEntity
  8
corner_standoffs
  6
ByLayer
 62
  256
370
   -1
100
AcDbLine
 10
-419.9
 20
-259.9
 11
-397.9
 21
-259.9
  0
LINE
  5
2A3
100
AcDbEntity
  8
corner_standoffs
  6
ByLayer
 62
  256
370
   -1
100
AcDbLine
 10
-419.9
 20
-259.9
 11
-425.9
 21
-265.9
  0
LINE
  5
2A4
100
AcDbEntity
  8
corner_standoffs
  6
ByLayer
 62
  256
370
   -1
100
AcDbLine
 10
-356.8999999999999
 20
-325.9
 11
-413.9
 21
-325.9
  0
LINE
  5
2A5
100
AcDbEntity
  8
corner_standoffs
  6
ByLayer
 62
  256
370
   -1
100
AcDbLine
 10
-425.9
 20
-313.9
 11
-425.9
 21
-265.9
  0
ARC
  5
2A6
100
AcDbEntity
  8
corner_standoffs
  6
ByLayer
 62
  256
370
   -1
100
AcDbCircle
 10
-413.9
 20
-313.9
 40
12
100
AcDbArc
 50
180
 51
270
  0
CIRCLE
  5
2A7
100
AcDbEntity
  8
corner_standoffs
  6
ByLayer
 62
  256
370
   -1
100
AcDbCircle
 10
-400
 20
-300
 40
2.549999999999997
  0
LINE
  5
2A8
100
AcDbEntity
  8
corner_standoffs
  6
ByLayer
 62
  256
370
   -1
100
AcDbLine
 10
-511.1000000000001
 20
-585.1
 11
-511.1000000000001
 21
-576.1
  0
LINE
  5
2A9
100
AcDbEntity
  8
corner_standoffs
  6
ByLayer
 62
  256
370
   -1
100
AcDbLine
 10
-511.1000000000001
 20
-576.1
 11
-531.1
 21
-576.1
  0
LINE
  5
2AA
100
AcDbEntity
  8
corner_standoffs
  6
ByLayer
 62
  256
370
   -1
100
AcDbLine
 10
-531.1
 20
-576.1
 11
-531.1
 21
-585.1
  0
LINE
  5
2AB
100
AcDbEntity
  8
corner_standoffs
  6
ByLayer
 62
  256
370
   -1
100
AcDbLine
 10
-531.1
 20
-585.1
 11
-511.1000000000001
 21
-585.1
  0
LINE
  5
2AC
100
AcDbEntity
  8
corner_standoffs
  6
ByLayer
 62
  256
370
   -1
100
AcDbLine
 10
-485.1000000000001
 20
-602.1
 11
-476.1
 21
-602.1
  0
LINE
  5
2AD
100
AcDbEntity
  8
corner_standoffs
  6
ByLayer
 62
  256
370
   -1
100
AcDbLine
 10
-476.1
 20
-602.1
 11
-476.1
 21
-622.1
  0
LINE
  5
2AE
100
AcDbEntity
  8
corner_standoffs
  6
ByLayer
 62
  256
370
   -1
100
AcDbLine
 10
-476.1
 20
-622.1
 11
-485.1000000000001
 21
-622.1
  0
LINE
  5
2AF
100
AcDbEntity
  8
corner_standoffs
  6
ByLayer
 62
  256
370
   -1
100
AcDbLine
 10
-485.1000000000001
 20
-622.1
 11
-485.1000000000001
 21
-602.1
  0
LINE
  5
2B0
100
AcDbEntity
  8
corner_standoffs
  6
ByLayer
 62
  256
370
   -1
100
AcDbLine
 10
-543.1000000000001
 20
-574.1
 11
-549.1000000000001
 21
-580.1
  0
LINE
  5
2B1
100
AcDbEntity
  8
corner_standoffs
  6
ByLayer
 62
  256
370
   -1
100
AcDbLine
 10
-549.1000000000001
 20
-580.1
 11
-549.1000000000001
 21
-602.1
  0
LINE
  5
2B2
100
AcDbEntity
  8
corner_standoffs
  6
ByLayer
 62
  256
370
   -1
100
AcDbLine
 10
-549.1000000000001
 20
-602.1
 11
-543.1000000000001
 21
-608.1
  0
LINE
  5
2B3
100
AcDbEntity
  8
corner_standoffs
  6
ByLayer
 62
  256
370
   -1
100
AcDbLine
 10
-514.1
 20
-608.1
 11
-543.1000000000001
 21
-608.1
  0
LINE
  5
2B4
100
AcDbEntity
  8
corner_standoffs
  6
ByLayer
 62
  256
370
   -1
100
AcDbLine
 10
-508.1
 20
-614.1
 11
-514.1
 21
-608.1
  0
LINE
  5
2B5
100
AcDbEntity
  8
corner_standoffs
  6
ByLayer
 62
  256
370
   -1
100
AcDbLine
 10
-508.0999999999999
 20
-634.1
 11
-508.1
 21
-614.1
  0
LINE
  5
2B6
100
AcDbEntity
  8
corner_standoffs
  6
ByLayer
 62
  256
370
   -1
100
AcDbLine
 10
-508.0999999999999
 20
-634.1
 11
-502.0999999999999
 21
-640.1
  0
LINE
  5
2B7
100
AcDbEntity
  8
corner_standoffs
  6
ByLayer
 62
  256
370
   -1
100
AcDbLine
 10
-480.1
 20
-640.1
 11
-502.0999999999999
 21
-640.1
  0
LINE
  5
2B8
100
AcDbEntity
  8
corner_standoffs
  6
ByLayer
 62
  256
370
   -1
100
AcDbLine
 10
-480.1
 20
-640.1
 11
-474.1
 21
-634.1
  0
LINE
  5
2B9
100
AcDbEntity
  8
corner_standoffs
  6
ByLayer
 62
  256
370
   -1
100
AcDbLine
 10
-543.1000000000001
 20
-574.1
 11
-486.1
 21
-574.1
  0
LINE
  5
2BA
100
AcDbEntity
  8
corner_standoffs
  6
ByLayer
 62
  256
370
   -1
100
AcDbLine
 10
-474.1
 20
-586.1
 11
-474.1
 21
-634.1
  0
ARC
  5
2BB
100
AcDbEntity
  8
corner_standoffs
  6
ByLayer
 62
  256
370
   -1
100
AcDbCircle
 10
-486.1
 20
-586.1
 40
12
100
AcDbArc
 50
0
 51
90
  0
CIRCLE
  5
2BC
100
AcDbEntity
  8
corner_standoffs
  6
ByLayer
 62
  256
370
   -1
100
AcDbCircle
 10
-500
 20
-600
 40
2.549999999999997
  0
LINE
  5
2BD
100
AcDbEntity
  8
corner_standoffs
  6
ByLayer
 62
  256
370
   -1
100
AcDbLine
 10
-411.1000000000001
 20
-585.1
 11
-411.1000000000001
 21
-576.1
  0
LINE
  5
2BE
100
AcDbEntity
  8
corner_standoffs
  6
ByLayer
 62
  256
370
   -1
100
AcDbLine
 10
-411.1000000000001
 20
-576.1
 11
-431.1
 21
-576.1
  0
LINE
  5
2BF
100
AcDbEntity
  8
corner_standoffs
  6
ByLayer
 62
  256
370
   -1
100
AcDbLine
 10
-431.1
 20
-576.1
 11
-431.1
 21
-585.1
  0
LINE
  5
2C0
100
AcDbEntity
  8
corner_standoffs
  6
ByLayer
 62
  256
370
   -1
100
AcDbLine
 10
-431.1
 20
-585.1
 11
-411.1000000000001
 21
-585.1
  0
LINE
  5
2C1
100
AcDbEntity
  8
corner_standoffs
  6
ByLayer
 62
  256
370
   -1
100
AcDbLine
 10
-385.1000000000001
 20
-602.1
 11
-376.1
 21
-602.1
  0
LINE
  5
2C2
100
AcDbEntity
  8
corner_standoffs
  6
ByLayer
 62
  256
370
   -1
100
AcDbLine
 10
-376.1
 20
-602.1
 11
-376.1
 21
-622.1
  0
LINE
  5
2C3
100
AcDbEntity
  8
corner_standoffs
  6
ByLayer
 62
  256
370
   -1
100
AcDbLine
 10
-376.1
 20
-622.1
 11
-385.1000000000001
 21
-622.1
  0
LINE
  5
2C4
100
AcDbEntity
  8
corner_standoffs
  6
ByLayer
 62
  256
370
   -1
100
AcDbLine
 10
-385.1000000000001
 20
-622.1
 11
-385.1000000000001
 21
-602.1
  0
LINE
  5
2C5
100
AcDbEntity
  8
corner_standoffs
  6
ByLayer
 62
  256
370
   -1
100
AcDbLine
 10
-443.1000000000001
 20
-574.1
 11
-449.1000000000001
 21
-580.1
  0
LINE
  5
2C6
100
AcDbEntity
  8
corner_standoffs
  6
ByLayer
 62
  256
370
   -1
100
AcDbLine
 10
-449.1000000000001
 20
-580.1
 11
-449.1000000000001
 21
-602.1
  0
LINE
  5
2C7
100
AcDbEntity
  8
corner_standoffs
  6
ByLayer
 62
  256
370
   -1
100
AcDbLine
 10
-449.1000000000001
 20
-602.1
 11
-443.1000000000001
 21
-608.1
  0
LINE
  5
2C8
100
AcDbEntity
  8
corner_standoffs
  6
ByLayer
 62
  256
370
   -1
100
AcDbLine
 10
-414.1
 20
-608.1
 11
-443.1000000000001
 21
-608.1
  0
LINE
  5
2C9
100
AcDbEntity
  8
corner_standoffs
  6
ByLayer
 62
  256
370
   -1
100
AcDbLine
 10
-408.1
 20
-614.1
 11
-414.1
 21
-608.1
  0
LINE
  5
2CA
100
AcDbEntity
  8
corner_standoffs
  6
ByLayer
 62
  256
370
   -1
100
AcDbLine
 10
-408.0999999999999
 20
-634.1
 11
-408.1
 21
-614.1
  0
LINE
  5
2CB
100
AcDbEntity
  8
corner_standoffs
  6
ByLayer
 62
  256
370
   -1
100
AcDbLine
 10
-408.0999999999999
 20
-634.1
 11
-402.0999999999999
 21
-640.1
  0
LINE
  5
2CC
100
AcDbEntity
  8
corner_standoffs
  6
ByLayer
 62
  256
370
   -1
100
AcDbLine
 10
-380.1
 20
-640.1
 11
-402.0999999999999
 21
-640.1
  0
LINE
  5
2CD
100
AcDbEntity
  8
corner_standoffs
  6
ByLayer
 62
  256
370
   -1
100
AcDbLine
 10
-380.1
 20
-640.1
 11
-374.1
 21
-634.1
  0
LINE
  5
2CE
100
AcDbEntity
  8
corner_standoffs
  6
ByLayer
 62
  256
370
   -1
100
AcDbLine
 10
-443.1000000000001
 20
-574.1
 11
-386.1
 21
-574.1
  0
LINE
  5
2CF
100
AcDbEntity
  8
corner_standoffs
  6
ByLayer
 62
  256
370
   -1
100
AcDbLine
 10
-374.1
 20
-586.1
 11
-374.1
 21
-634.1
  0
ARC
  5
2D0
100
AcDbEntity
  8
corner_standoffs
  6
ByLayer
 62
  256
370
   -1
100
AcDbCircle
 10
-386.1
 20
-586.1
 40
12
100
AcDbArc
 50
0
 51
90
  0
CIRCLE
  5
2D1
100
AcDbEntity
  8
corner_standoffs
  6
ByLayer
 62
  256
370
   -1
100
AcDbCircle
 10
-400
 20
-600
 40
2.549999999999997
  0
LINE
  5
2D2
100
AcDbEntity
  8
corner_standoffs
  6
ByLayer
 62
  256
370
   -1
100
AcDbLine
 10
-74.89999999999998
 20
-331.1000000000001
 11
-83.89999999999998
 21
-331.1000000000001
  0
LINE
  5
2D3
100
AcDbEntity
  8
corner_standoffs
  6
ByLayer
 62
  256
370
   -1
100
AcDbLine
 10
-83.89999999999998
 20
-331.1000000000001
 11
-83.89999999999998
 21
-351.1
  0
LINE
  5
2D4
100
AcDbEntity
  8
corner_standoffs
  6
ByLayer
 62
  256
370
   -1
100
AcDbLine
 10
-83.89999999999998
 20
-351.1
 11
-74.89999999999998
 21
-351.1
  0
LINE
  5
2D5
100
AcDbEntity
  8
corner_standoffs
  6
ByLayer
 62
  256
370
   -1
100
AcDbLine
 10
-74.89999999999998
 20
-351.1
 11
-74.89999999999998
 21
-331.1000000000001
  0
LINE
  5
2D6
100
AcDbEntity
  8
corner_standoffs
  6
ByLayer
 62
  256
370
   -1
100
AcDbLine
 10
-57.89999999999998
 20
-305.1000000000001
 11
-57.89999999999998
 21
-296.1
  0
LINE
  5
2D7
100
AcDbEntity
  8
corner_standoffs
  6
ByLayer
 62
  256
370
   -1
100
AcDbLine
 10
-57.89999999999998
 20
-296.1
 11
-37.89999999999998
 21
-296.1
  0
LINE
  5
2D8
100
AcDbEntity
  8
corner_standoffs
  6
ByLayer
 62
  256
370
   -1
100
AcDbLine
 10
-37.89999999999998
 20
-296.1
 11
-37.89999999999998
 21
-305.1000000000001
  0
LINE
  5
2D9
100
AcDbEntity
  8
corner_standoffs
  6
ByLayer
 62
  256
370
   -1
100
AcDbLine
 10
-37.89999999999998
 20
-305.1000000000001
 11
-57.89999999999998
 21
-305.1000000000001
  0
LINE
  5
2DA
100
AcDbEntity
  8
corner_standoffs
  6
ByLayer
 62
  256
370
   -1
100
AcDbLine
 10
-85.89999999999998
 20
-363.1000000000001
 11
-79.89999999999998
 21
-369.1000000000001
  0
LINE
  5
2DB
100
AcDbEntity
  8
corner_standoffs
  6
ByLayer
 62
  256
370
   -1
100
AcDbLine
 10
-79.89999999999998
 20
-369.1000000000001
 11
-57.89999999999998
 21
-369.1000000000001
  0
LINE
  5
2DC
100
AcDbEntity
  8
corner_standoffs
  6
ByLayer
 62
  256
370
   -1
100
AcDbLine
 10
-57.89999999999998
 20
-369.1000000000001
 11
-51.89999999999998
 21
-363.1000000000001
  0
LINE
  5
2DD
100
AcDbEntity
  8
corner_standoffs
  6
ByLayer
 62
  256
370
   -1
100
AcDbLine
 10
-51.89999999999998
 20
-334.1
 11
-51.89999999999998
 21
-363.1000000000001
  0
LINE
  5
2DE
100
AcDbEntity
  8
corner_standoffs
  6
ByLayer
 62
  256
370
   -1
100
AcDbLine
 10
-45.89999999999998
 20
-328.1
 11
-51.89999999999998
 21
-334.1
  0
LINE
  5
2DF
100
AcDbEntity
  8
corner_standoffs
  6
ByLayer
 62
  256
370
   -1
100
AcDbLine
 10
-25.89999999999998
 20
-328.1
 11
-45.89999999999998
 21
-328.1
  0
LINE
  5
2E0
100
AcDbEntity
  8
corner_standoffs
  6
ByLayer
 62
  256
370
   -1
100
AcDbLine
 10
-25.89999999999998
 20
-328.1
 11
-19.89999999999998
 21
-322.1
  0
LINE
  5
2E1
100
AcDbEntity
  8
corner_standoffs
  6
ByLayer
 62
  256
370
   -1
100
AcDbLine
 10
-19.89999999999998
 20
-300.1
 11
-19.89999999999998
 21
-322.1
  0
LINE
  5
2E2
100
AcDbEntity
  8
corner_standoffs
  6
ByLayer
 62
  256
370
   -1
100
AcDbLine
 10
-19.89999999999998
 20
-300.1
 11
-25.89999999999998
 21
-294.1
  0
LINE
  5
2E3
100
AcDbEntity
  8
corner_standoffs
  6
ByLayer
 62
  256
370
   -1
100
AcDbLine
 10
-85.89999999999998
 20
-363.1000000000001
 11
-85.89999999999998
 21
-306.1
  0
LINE
  5
2E4
100
AcDbEntity
  8
corner_standoffs
  6
ByLayer
 62
  256
370
   -1
100
AcDbLine
 10
-73.89999999999998
 20
-294.1
 11
-25.89999999999998
 21
-294.1
  0
ARC
  5
2E5
100
AcDbEntity
  8
corner_standoffs
  6
ByLayer
 62
  256
370
   -1
100
AcDbCircle
 10
-73.89999999999998
 20
-306.1
 40
12
100
AcDbArc
 50
90
 51
180
  0
CIRCLE
  5
2E6
100
AcDbEntity
  8
corner_standoffs
  6
ByLayer
 62
  256
370
   -1
100
AcDbCircle
 10
-60
 20
-320
 40
2.549999999999997
  0
LINE
  5
2E7
100
AcDbEntity
  8
upper_corner_standoffs
  6
ByLayer
 62
  256
370
   -1
100
AcDbLine
 10
-74.89999999999999
 20
-361.1000000000001
 11
-74.89999999999999
 21
-305.1
  0
LINE
  5
2E8
100
AcDbEntity
  8
upper_corner_standoffs
  6
ByLayer
 62
  256
370
   -1
100
AcDbLine
 10
-74.89999999999999
 20
-305.1
 11
-29.9
 21
-305.1
  0
LINE
  5
2E9
100
AcDbEntity
  8
upper_corner_standoffs
  6
ByLayer
 62
  256
370
   -1
100
AcDbLine
 10
-50
 20
-361.1000000000001
 11
-74.89999999999999
 21
-361.1000000000001
  0
LINE
  5
2EA
100
AcDbEntity
  8
upper_corner_standoffs
  6
ByLayer
 62
  256
370
   -1
100
AcDbLine
 10
-30
 20
-341.1000000000001
 11
-30
 21
-305.1
  0
LINE
  5
2EB
100
AcDbEntity
  8
upper_corner_standoffs
  6
ByLayer
 62
  256
370
   -1
100
AcDbLine
 10
-50
 20
-361.1000000000001
 11
-30
 21
-341.1000000000001
  0
DIMENSION
  5
2EC
100
AcDbEntity
  8
upper_corner_standoffs
  6
ByLayer
 62
  256
370
   -1
100
AcDbDimension
  2
*D9
 10
-89
 20
-344.1
 30
0
 11
-90.875
 21
-347.6
 31
0
 70
   32
 71
    5
  3
Standard
 53
0
210
0
220
0
230
1
100
AcDbAlignedDimension
 13
-74.89999999999998
 23
-351.1
 33
0
 14
-74.89999999999998
 24
-344.1
 34
0
 50
90
100
AcDbRotatedDimension
  0
DIMENSION
  5
2ED
100
AcDbEntity
  8
upper_corner_standoffs
  6
ByLayer
 62
  256
370
   -1
100
AcDbDimension
  2
*D10
 10
-91
 20
-339
 30
0
 11
-92.875
 21
-341.55
 31
0
 70
   32
 71
    5
  3
Standard
 53
0
210
0
220
0
230
1
100
AcDbAlignedDimension
 13
-74.89999999999999
 23
-344.1
 33
0
 14
-74.89999999999999
 24
-339
 34
0
 50
90
100
AcDbRotatedDimension
  0
LINE
  5
2EE
100
AcDbEntity
  8
upper_corner_standoffs
  6
ByLayer
 62
  256
370
   -1
100
AcDbLine
 10
-74.90000000000001
 20
-344.1000000000001
 11
-63.9
 21
-344.1000000000001
  0
LINE
  5
2EF
100
AcDbEntity
  8
upper_corner_standoffs
  6
ByLayer
 62
  256
370
   -1
100
AcDbLine
 10
-63.9
 20
-344.1000000000001
 11
-63.9
 21
-339
  0
LINE
  5
2F0
100
AcDbEntity
  8
upper_corner_standoffs
  6
ByLayer
 62
  256
370
   -1
100
AcDbLine
 10
-63.9
 20
-339
 11
-74.90000000000001
 21
-339
  0
LINE
  5
2F1
100
AcDbEntity
  8
upper_corner_standoffs
  6
ByLayer
 62
  256
370
   -1
100
AcDbLine
 10
-69.89999999999999
 20
-339.0000000000001
 11
-69.89999999999999
 21
-337.5000000000001
  0
ENDSEC
  0
SECTION
  2
OBJECTS
  0
DICTIONARY
  5
C
330
0
100
AcDbDictionary
281
    1
  3
ACAD_GROUP
350
D
  0
DICTIONARY
  5
D
330
C
100
AcDbDictionary
281
    1
  0
PLOTSETTINGS
  5
2F2
100
AcDbPlotSettings
  6
1x1
 40
0
 41
0
 42
0
 43
0
  0
ENDSEC
  0
EOF
